<svg width="48" height="48" viewBox="0 0 48 48" fill="none" xmlns="http://www.w3.org/2000/svg">
<path d="M45.2295 23.4553C45.2292 17.0416 45.2449 17.4681 45.1938 17.2862C45.1257 17.0477 44.9689 16.8535 44.763 16.7366C44.5705 16.6276 45.7144 17.0667 23.3789 9.2817C23.1825 9.21339 22.9689 9.21339 22.7724 9.2817L1.54168 16.6663C1.17393 16.7943 0.925987 17.1391 0.921926 17.5285C0.917864 17.9178 1.15851 18.2679 1.52349 18.4035L7.38337 20.5804V32.5713C7.38337 32.6833 7.40331 32.7906 7.43986 32.8899C7.77042 34.6146 9.53266 36.094 12.5552 37.1786C21.6437 40.4399 37.634 38.5125 38.7116 32.8899C38.7481 32.7906 38.768 32.6833 38.768 32.5713V20.5804L43.3834 18.8659V23.4554C42.309 23.8364 41.5372 24.8625 41.5372 26.0658V33.4504C41.5372 33.9602 41.9506 34.3735 42.4603 34.3735H46.1526C46.6623 34.3735 47.0757 33.9602 47.0757 33.4504V26.0658C47.0757 24.8624 46.3039 23.8363 45.2295 23.4553ZM23.0757 11.131L38.8428 16.6152H23.0757C22.5659 16.6152 22.1526 17.0284 22.1526 17.5383C22.1526 18.0481 22.5659 18.4613 23.0757 18.4613H39.1708L37.5365 19.0684L23.0757 23.9487L8.61466 19.0683L4.5726 17.5669L23.0757 11.131ZM36.912 32.4567C36.6478 34.5691 30.9005 36.9229 23.0757 36.9229C15.2509 36.9229 9.50359 34.5691 9.2394 32.4567C9.22399 32.3329 9.23183 24.8057 9.22953 21.2243L22.7805 25.7974C22.9719 25.8621 23.1793 25.8621 23.3709 25.7974L36.9218 21.2244C36.9195 24.8057 36.9275 32.3329 36.912 32.4567ZM44.3064 25.1427C44.8154 25.1427 45.2295 25.5567 45.2295 26.0657C45.2295 26.5747 44.8154 26.9888 44.3064 26.9888C43.7975 26.9888 43.3834 26.5747 43.3834 26.0657C43.3834 25.5567 43.7975 25.1427 44.3064 25.1427ZM45.2295 32.5273H43.3834V28.6767C43.9635 28.8816 44.6194 28.8921 45.2295 28.6767V32.5273Z" fill="white"/>
</svg>
