<svg width="44" height="37" viewBox="0 0 44 37" fill="none" xmlns="http://www.w3.org/2000/svg">
<path d="M41.25 0H2.25C1.0125 0 0 1.0125 0 2.25V30.75C0 31.9875 1.0125 33 2.25 33H26.25V36C26.25 36.285 26.4075 36.54 26.6625 36.6675C26.9175 36.795 27.2175 36.765 27.45 36.6L30 34.6875L32.55 36.6C32.685 36.6975 32.8425 36.75 33 36.75C33.1125 36.75 33.2325 36.72 33.3375 36.6675C33.5925 36.54 33.75 36.2775 33.75 36V33H41.25C42.4875 33 43.5 31.9875 43.5 30.75V2.25C43.5 1.0125 42.4875 0 41.25 0ZM26.835 25.9425C26.505 25.9275 26.0625 25.9125 25.9425 25.8C25.83 25.6875 25.815 25.2375 25.8 24.9075C25.785 24.48 25.7625 24 25.59 23.5725C25.4175 23.1525 25.11 22.83 24.81 22.5075C24.57 22.2525 24.2625 21.93 24.2625 21.7425C24.2625 21.555 24.5625 21.24 24.81 20.9775C25.11 20.6625 25.4175 20.3325 25.59 19.9125C25.77 19.485 25.785 18.9975 25.8 18.5775C25.815 18.2475 25.83 17.805 25.9425 17.685C26.055 17.5725 26.505 17.5575 26.835 17.5425C27.2625 17.5275 27.7425 17.505 28.17 17.3325C28.5825 17.16 28.9125 16.8525 29.2275 16.5525C29.49 16.3125 29.805 16.005 29.9925 16.005C30.18 16.005 30.495 16.305 30.7575 16.5525C31.0725 16.8525 31.4025 17.16 31.8225 17.3325C32.25 17.5125 32.7375 17.5275 33.1575 17.5425C33.4875 17.5575 33.93 17.5725 34.05 17.685C34.1625 17.7975 34.1775 18.2475 34.1925 18.5775C34.2075 19.005 34.23 19.485 34.4025 19.9125C34.575 20.3325 34.8825 20.655 35.1825 20.9775C35.4225 21.2325 35.73 21.555 35.73 21.7425C35.73 21.93 35.43 22.245 35.1825 22.5075C34.8825 22.8225 34.575 23.1525 34.4025 23.5725C34.2225 24 34.2075 24.4875 34.1925 24.9075C34.1775 25.2375 34.1625 25.68 34.05 25.8C33.9375 25.9125 33.4875 25.9275 33.1575 25.9425C32.73 25.9575 32.25 25.98 31.8225 26.1525C31.41 26.325 31.08 26.6325 30.765 26.9325C30.5025 27.1725 30.1875 27.48 30 27.48C29.8125 27.48 29.4975 27.18 29.235 26.9325C28.92 26.6325 28.59 26.325 28.17 26.1525C27.7425 25.9725 27.255 25.9575 26.835 25.9425ZM33.75 27.4125C34.23 27.3675 34.7325 27.2475 35.115 26.865C35.6475 26.3325 35.67 25.5825 35.7 24.975C35.715 24.66 35.7225 24.3375 35.7975 24.1575C35.865 23.9925 36.075 23.7675 36.285 23.55C36.705 23.1 37.2375 22.5375 37.2375 21.7575C37.2375 20.9775 36.7125 20.4225 36.285 19.965C36.0825 19.7475 35.865 19.5225 35.7975 19.3575C35.7225 19.1775 35.7075 18.8475 35.7 18.54C35.6775 17.9325 35.6475 17.175 35.1225 16.65C34.59 16.1175 33.84 16.095 33.2325 16.065C32.9175 16.05 32.595 16.0425 32.415 15.9675C32.25 15.9 32.025 15.69 31.8075 15.48C31.3575 15.06 30.795 14.5275 30.015 14.5275C29.235 14.5275 28.68 15.0525 28.2225 15.48C28.005 15.6825 27.78 15.9 27.615 15.9675C27.435 16.0425 27.105 16.0575 26.7975 16.065C26.19 16.0875 25.4325 16.1175 24.9075 16.65C24.375 17.1825 24.3525 17.9325 24.3225 18.54C24.3075 18.855 24.3 19.1775 24.225 19.3575C24.1575 19.5225 23.9475 19.7475 23.7375 19.965C23.3175 20.415 22.785 20.9775 22.785 21.7575C22.785 22.5375 23.31 23.0925 23.7375 23.55C23.94 23.7675 24.1575 23.9925 24.225 24.1575C24.3 24.3375 24.315 24.6675 24.3225 24.975C24.345 25.5825 24.375 26.34 24.9 26.865C25.2825 27.2475 25.785 27.3675 26.265 27.4125V28.5H4.5V4.5H39V28.5H33.75V27.4125ZM30.45 33.15C30.18 32.9475 29.82 32.9475 29.55 33.15L27.75 34.5V27.63C27.8925 27.7275 28.05 27.8775 28.2075 28.0275C28.6575 28.4475 29.22 28.98 30 28.98C30.78 28.98 31.335 28.455 31.7925 28.0275C31.95 27.8775 32.115 27.7275 32.25 27.63V34.5L30.45 33.15ZM42 30.75C42 31.1625 41.6625 31.5 41.25 31.5H33.75V30H39.75C40.1625 30 40.5 29.6625 40.5 29.25V3.75C40.5 3.3375 40.1625 3 39.75 3H3.75C3.3375 3 3 3.3375 3 3.75V29.25C3 29.6625 3.3375 30 3.75 30H26.25V31.5H2.25C1.8375 31.5 1.5 31.1625 1.5 30.75V2.25C1.5 1.8375 1.8375 1.5 2.25 1.5H41.25C41.6625 1.5 42 1.8375 42 2.25V30.75ZM33.75 21.75C33.75 19.68 32.07 18 30 18C27.93 18 26.25 19.68 26.25 21.75C26.25 23.82 27.93 25.5 30 25.5C32.07 25.5 33.75 23.82 33.75 21.75ZM27.75 21.75C27.75 20.5125 28.7625 19.5 30 19.5C31.2375 19.5 32.25 20.5125 32.25 21.75C32.25 22.9875 31.2375 24 30 24C28.7625 24 27.75 22.9875 27.75 21.75ZM15.96 7.8075C15.96 7.395 16.2975 7.0575 16.71 7.0575H27.21C27.6225 7.0575 27.96 7.395 27.96 7.8075C27.96 8.22 27.6225 8.5575 27.21 8.5575H16.71C16.2975 8.5575 15.96 8.22 15.96 7.8075ZM35.46 11.5575C35.46 11.97 35.1225 12.3075 34.71 12.3075H9.21C8.7975 12.3075 8.46 11.97 8.46 11.5575C8.46 11.145 8.7975 10.8075 9.21 10.8075H34.71C35.1225 10.8075 35.46 11.145 35.46 11.5575ZM22.71 15.3075C22.71 15.72 22.3725 16.0575 21.96 16.0575H9.21C8.7975 16.0575 8.46 15.72 8.46 15.3075C8.46 14.895 8.7975 14.5575 9.21 14.5575H21.96C22.3725 14.5575 22.71 14.895 22.71 15.3075ZM20.46 19.0575C20.46 19.47 20.1225 19.8075 19.71 19.8075H9.21C8.7975 19.8075 8.46 19.47 8.46 19.0575C8.46 18.645 8.7975 18.3075 9.21 18.3075H19.71C20.1225 18.3075 20.46 18.645 20.46 19.0575ZM19.5 23.3775C19.5 23.79 19.1625 24.1275 18.75 24.1275C18.4875 24.1275 18 24.465 17.61 24.735C17.085 25.095 16.545 25.47 15.9525 25.545C15.645 25.5825 15.3525 25.44 15.2025 25.17C15.18 25.1325 15.165 25.0875 15.15 25.05C14.8125 25.275 14.4375 25.4625 13.995 25.5225C13.7925 25.5525 13.59 25.4925 13.425 25.365C13.35 25.305 13.29 25.2375 13.245 25.155C13.005 25.365 12.735 25.575 12.405 25.725C12.12 25.86 11.7825 25.8 11.5575 25.575C11.3325 25.35 11.2725 25.0125 11.4075 24.7275C11.8125 23.8575 11.9175 23.37 11.94 23.13C11.385 23.3325 10.2075 24.2625 9.6075 25.515C9.48 25.785 9.21 25.9425 8.9325 25.9425C8.8275 25.9425 8.715 25.92 8.61 25.8675C8.235 25.6875 8.0775 25.245 8.2575 24.87C9.0825 23.1375 11.3175 21.0525 12.72 21.7125C13.29 21.9825 13.4625 22.4925 13.455 23.0625C13.605 22.98 13.77 22.9125 13.9425 22.86C14.265 22.7625 14.6175 22.905 14.7975 23.1975C14.835 23.2575 14.8575 23.31 14.88 23.37C15.195 23.1225 15.5475 22.86 15.9525 22.7025C16.1775 22.6125 16.4325 22.6425 16.6275 22.77C16.83 22.8975 16.95 23.115 16.9725 23.3475C17.5125 22.98 18.1125 22.62 18.7575 22.62C19.17 22.62 19.5075 22.9575 19.5075 23.37L19.5 23.3775Z" fill="white"/>
</svg>
