<svg width="48" height="48" viewBox="0 0 48 48" fill="none" xmlns="http://www.w3.org/2000/svg">
<path d="M23.998 25.5C21.244 25.5 19.03 24.618 15.016 23.01L9.4 20.76C7.342 19.938 5.854 19.344 4.792 18.786C4.108 18.426 2.5 17.586 2.5 15.996C2.5 14.412 4.108 13.566 4.792 13.206C5.854 12.648 7.342 12.054 9.4 11.232L15.016 8.98805C19.03 7.38005 21.244 6.49805 23.998 6.49805C26.752 6.49805 28.966 7.38005 32.98 8.98805L38.596 11.238C40.654 12.06 42.142 12.654 43.204 13.212C43.888 13.572 45.496 14.412 45.496 16.002C45.496 17.586 43.888 18.432 43.204 18.792C42.142 19.35 40.654 19.944 38.596 20.766L32.98 23.01C28.966 24.618 26.752 25.5 23.998 25.5ZM5.944 16.002C6.142 16.116 6.412 16.254 6.772 16.422C7.69 16.848 8.932 17.346 10.51 17.976L16.126 20.22C20.038 21.786 21.82 22.5 23.998 22.5C26.176 22.5 27.958 21.786 31.864 20.226L37.48 17.976C39.058 17.346 40.306 16.848 41.218 16.422C41.578 16.254 41.848 16.116 42.046 16.002C41.848 15.888 41.578 15.75 41.218 15.582C40.3 15.156 39.058 14.658 37.48 14.028L31.864 11.784C27.958 10.224 26.176 9.51005 23.998 9.51005C21.82 9.51005 20.038 10.224 16.132 11.784L10.516 14.028C8.938 14.658 7.69 15.156 6.778 15.582C6.412 15.75 6.142 15.888 5.944 16.002Z" fill="white"/>
<path d="M23.9979 33.4979C21.2439 33.4979 19.0299 32.6159 15.0159 31.0079L9.39985 28.7639C5.22985 27.0959 3.08185 25.1939 2.99785 25.1159C2.37985 24.5639 2.33185 23.6159 2.88385 22.9979C3.43585 22.3799 4.38385 22.3319 5.00185 22.8839C5.01385 22.8959 6.87985 24.5219 10.5159 25.9799L16.1319 28.2239C20.0379 29.7839 21.8199 30.4979 23.9979 30.4979C26.1759 30.4979 27.9578 29.7839 31.8638 28.2239L37.4799 25.9739C41.1159 24.5219 42.9759 22.8899 42.9999 22.8779C43.6179 22.3259 44.5599 22.3799 45.1179 22.9919C45.6699 23.6099 45.6159 24.5579 45.0039 25.1099C44.9139 25.1879 42.7719 27.0899 38.6019 28.7579L32.9858 31.0019C28.9658 32.6159 26.7519 33.4979 23.9979 33.4979Z" fill="white"/>
<path d="M23.9979 41.5019C21.2439 41.5019 19.0299 40.6199 15.0159 39.0119L9.39985 36.7619C5.22985 35.0939 3.08185 33.1979 2.99785 33.1139C2.37985 32.5619 2.33185 31.6139 2.88385 30.9959C3.43585 30.3779 4.38385 30.3299 5.00185 30.8819C5.01385 30.8939 6.87985 32.5199 10.5159 33.9779L16.1319 36.2219C20.0379 37.7819 21.8199 38.4959 23.9979 38.4959C26.1759 38.4959 27.9578 37.7819 31.8638 36.2219L37.4799 33.9719C41.1159 32.5199 42.9759 30.8879 42.9999 30.8759C43.6179 30.3239 44.5599 30.3779 45.1179 30.9899C45.6699 31.6079 45.6159 32.5559 45.0039 33.1079C44.9139 33.1859 42.7719 35.0879 38.6019 36.7559L32.9858 38.9999C28.9658 40.6139 26.7519 41.5019 23.9979 41.5019Z" fill="white"/>
</svg>
