<svg width="48" height="48" viewBox="0 0 48 48" fill="none" xmlns="http://www.w3.org/2000/svg">
<path d="M9.27256 22.5154H6.94531C6.53131 22.5154 6.19531 22.1786 6.19531 21.7646C6.19531 21.3506 6.53131 21.0146 6.94531 21.0146H9.27256C9.68656 21.0146 10.0226 21.3514 10.0226 21.7654C10.0226 22.1794 9.68656 22.5154 9.27256 22.5154Z" fill="white"/>
<path d="M15.1093 28.3076H14.2266C13.8126 28.3076 13.4766 27.9724 13.4766 27.5576C13.4766 27.1429 13.8126 26.8076 14.2266 26.8076H15.1093C15.5233 26.8076 15.8593 27.1429 15.8593 27.5576C15.8593 27.9724 15.5233 28.3076 15.1093 28.3076Z" fill="white"/>
<path d="M23.7904 45.0461C19.5619 45.0461 11.8609 45.0461 10.9646 39.5846C8.58265 39.7939 6.07465 38.5474 4.75165 36.4016C3.61165 34.5521 3.6349 32.4911 4.7794 30.7631C3.3964 29.3651 2.7454 27.4624 3.0244 25.5461C3.27715 23.8076 4.2754 22.3301 5.7469 21.4669C4.8094 19.2311 4.8199 16.8259 5.7979 14.7664C6.8404 12.5719 8.86015 11.0081 11.5166 10.3241C11.7319 9.43912 12.1901 8.74237 12.8846 8.24587C14.0059 7.44412 15.4594 7.41187 16.2964 7.47487C18.3259 1.95262 23.8864 3.04837 23.9434 3.06187C24.2906 3.13537 24.5389 3.44137 24.5389 3.79612V15.0536C24.5389 15.4684 24.2029 15.8036 23.7889 15.8036C23.3749 15.8036 23.0389 15.4684 23.0389 15.0536V4.45987C21.7294 4.38937 18.6739 4.64287 17.5331 8.50762C17.4229 8.88112 17.0434 9.10762 16.6631 9.02962C16.6466 9.02662 14.8504 8.67862 13.7516 9.46837C13.2754 9.81037 12.9994 10.3241 12.9079 11.0374C12.8674 11.3546 12.6311 11.6104 12.3184 11.6764C9.8869 12.1886 8.0524 13.5139 7.15165 15.4099C6.27565 17.2556 6.36565 19.4629 7.3999 21.4661C7.4959 21.6529 7.5094 21.8704 7.43815 22.0676C7.3669 22.2649 7.2154 22.4224 7.0219 22.5026C5.6419 23.0779 4.7254 24.2651 4.50715 25.7614C4.27165 27.3836 4.92715 28.9999 6.2614 30.0866C6.4174 30.2141 6.5164 30.3994 6.53515 30.6004C6.55315 30.8021 6.4894 31.0016 6.3589 31.1554C5.22265 32.4874 5.1019 34.1126 6.0274 35.6149C7.01215 37.2131 9.1924 38.5444 11.4529 37.9871C11.6719 37.9354 11.9036 37.9811 12.0844 38.1184C12.2644 38.2549 12.3731 38.4649 12.3814 38.6906C12.5134 42.5696 16.7081 43.4801 23.0389 43.5431V33.0394C23.0389 32.6246 23.3749 32.2894 23.7889 32.2894C24.2029 32.2894 24.5389 32.6246 24.5389 33.0394V44.2969C24.5389 44.7116 24.2029 45.0469 23.7889 45.0469L23.7904 45.0461Z" fill="white"/>
<path d="M28.2969 31.163H19.2811C17.8426 31.163 16.6719 29.9922 16.6719 28.5537V19.538C16.6719 18.0995 17.8426 16.9287 19.2811 16.9287H28.2969C29.7354 16.9287 30.9061 18.0995 30.9061 19.538V28.5537C30.9061 29.9922 29.7354 31.163 28.2969 31.163ZM19.2811 18.4287C18.6699 18.4287 18.1719 18.926 18.1719 19.538V28.5537C18.1719 29.165 18.6691 29.663 19.2811 29.663H28.2969C28.9081 29.663 29.4061 29.1657 29.4061 28.5537V19.538C29.4061 18.9267 28.9089 18.4287 28.2969 18.4287H19.2811Z" fill="white"/>
<path d="M28.1641 16.096C27.7493 16.096 27.4141 15.7607 27.4141 15.346V6.94824C27.4141 6.53349 27.7493 6.19824 28.1641 6.19824C28.5788 6.19824 28.9141 6.53349 28.9141 6.94824V15.346C28.9141 15.7607 28.5788 16.096 28.1641 16.096Z" fill="white"/>
<path d="M28.1624 7.69815C26.8799 7.69815 25.8359 6.65415 25.8359 5.37165C25.8359 4.08915 26.8799 3.0459 28.1624 3.0459C29.4449 3.0459 30.4882 4.08915 30.4882 5.37165C30.4882 6.65415 29.4449 7.69815 28.1624 7.69815ZM28.1624 4.54665C27.7072 4.54665 27.3359 4.91715 27.3359 5.3724C27.3359 5.82765 27.7064 6.1989 28.1624 6.1989C28.6184 6.1989 28.9882 5.8284 28.9882 5.3724C28.9882 4.9164 28.6177 4.54665 28.1624 4.54665Z" fill="white"/>
<path d="M28.1641 41.8943C27.7493 41.8943 27.4141 41.559 27.4141 41.1443V32.9258C27.4141 32.511 27.7493 32.1758 28.1641 32.1758C28.5788 32.1758 28.9141 32.511 28.9141 32.9258V41.1443C28.9141 41.559 28.5788 41.8943 28.1641 41.8943Z" fill="white"/>
<path d="M28.1624 45.0468C26.8799 45.0468 25.8359 44.0028 25.8359 42.7203C25.8359 41.4378 26.8799 40.3945 28.1624 40.3945C29.4449 40.3945 30.4882 41.4378 30.4882 42.7203C30.4882 44.0028 29.4449 45.0468 28.1624 45.0468ZM28.1624 41.8953C27.7072 41.8953 27.3359 42.2658 27.3359 42.721C27.3359 43.1763 27.7064 43.5475 28.1624 43.5475C28.6184 43.5475 28.9882 43.177 28.9882 42.721C28.9882 42.265 28.6177 41.8953 28.1624 41.8953Z" fill="white"/>
<path d="M41.0944 24.7959H32.4844C32.0696 24.7959 31.7344 24.4606 31.7344 24.0459C31.7344 23.6311 32.0696 23.2959 32.4844 23.2959H41.0944C41.5091 23.2959 41.8444 23.6311 41.8444 24.0459C41.8444 24.4606 41.5091 24.7959 41.0944 24.7959Z" fill="white"/>
<path d="M42.6702 26.371C41.3877 26.371 40.3438 25.3278 40.3438 24.0453C40.3438 22.7628 41.3877 21.7188 42.6702 21.7188C43.9527 21.7188 44.996 22.7628 44.996 24.0453C44.996 25.3278 43.9527 26.371 42.6702 26.371ZM42.6702 23.2195C42.215 23.2195 41.8438 23.59 41.8438 24.046C41.8438 24.502 42.2142 24.8717 42.6702 24.8717C43.1262 24.8717 43.496 24.5013 43.496 24.046C43.496 23.5908 43.1255 23.2195 42.6702 23.2195Z" fill="white"/>
<path d="M34.8139 20.158H32.4844C32.0696 20.158 31.7344 19.8227 31.7344 19.408C31.7344 18.9932 32.0696 18.658 32.4844 18.658H34.5709L39.5351 15.061C39.8719 14.8172 40.3399 14.893 40.5821 15.2282C40.8251 15.5635 40.7509 16.0322 40.4149 16.2752L35.2534 20.0147C35.1251 20.1077 34.9714 20.1572 34.8131 20.1572L34.8139 20.158Z" fill="white"/>
<path d="M41.1078 16.9071C39.8253 16.9071 38.7812 15.8631 38.7812 14.5806C38.7812 13.2981 39.8253 12.2549 41.1078 12.2549C42.3903 12.2549 43.4335 13.2981 43.4335 14.5806C43.4335 15.8631 42.3903 16.9071 41.1078 16.9071ZM41.1078 13.7556C40.6525 13.7556 40.2812 14.1261 40.2812 14.5814C40.2812 15.0366 40.6518 15.4079 41.1078 15.4079C41.5638 15.4079 41.9335 15.0374 41.9335 14.5814C41.9335 14.1254 41.563 13.7556 41.1078 13.7556Z" fill="white"/>
<path d="M39.9746 33.1723C39.8224 33.1723 39.6686 33.1258 39.5351 33.0298L34.5709 29.4336H32.4844C32.0696 29.4336 31.7344 29.0983 31.7344 28.6836C31.7344 28.2688 32.0696 27.9336 32.4844 27.9336H34.8139C34.9721 27.9336 35.1259 27.9831 35.2541 28.0761L40.4156 31.8148C40.7509 32.0578 40.8259 32.5266 40.5829 32.8618C40.4366 33.0643 40.2071 33.1723 39.9746 33.1723Z" fill="white"/>
<path d="M41.1078 35.8358C39.8253 35.8358 38.7812 34.7918 38.7812 33.5093C38.7812 32.2268 39.8253 31.1836 41.1078 31.1836C42.3903 31.1836 43.4335 32.2268 43.4335 33.5093C43.4335 34.7918 42.3903 35.8358 41.1078 35.8358ZM41.1078 32.6843C40.6525 32.6843 40.2812 33.0548 40.2812 33.5101C40.2812 33.9653 40.6518 34.3366 41.1078 34.3366C41.5638 34.3366 41.9335 33.9661 41.9335 33.5101C41.9335 33.0541 41.563 32.6843 41.1078 32.6843Z" fill="white"/>
<path d="M10.5312 24.9869C10.1173 24.9869 9.78125 24.6517 9.78125 24.2369C9.78125 23.8222 10.1173 23.4869 10.5312 23.4869C11.3307 23.4869 11.9818 22.8367 11.9818 22.0364C11.9818 21.2362 11.3315 20.5859 10.5312 20.5859C10.1173 20.5859 9.78125 20.2507 9.78125 19.8359C9.78125 19.4212 10.1173 19.0859 10.5312 19.0859C12.158 19.0859 13.4817 20.4097 13.4817 22.0364C13.4817 23.6632 12.158 24.9869 10.5312 24.9869Z" fill="white"/>
<path d="M17.4219 16.0951C17.0079 16.0951 16.6719 15.7599 16.6719 15.3451C16.6719 14.9304 17.0079 14.5951 17.4219 14.5951C18.2214 14.5951 18.8724 13.9449 18.8724 13.1446C18.8724 12.3444 18.2214 11.6934 17.4219 11.6934C17.0079 11.6934 16.6719 11.3581 16.6719 10.9434C16.6719 10.5286 17.0079 10.1934 17.4219 10.1934C19.0486 10.1934 20.3724 11.5171 20.3724 13.1446C20.3724 14.7721 19.0486 16.0951 17.4219 16.0951Z" fill="white"/>
<path d="M10.8854 28.3178C9.08316 28.3178 7.60941 27.6143 6.80541 26.3543C6.58266 26.0048 6.68466 25.5413 7.03416 25.3186C7.38291 25.0966 7.84716 25.1986 8.06991 25.5473C8.62416 26.4143 9.79341 26.8831 11.1952 26.8103C11.6017 26.7713 11.9624 27.1043 11.9849 27.5176C12.0074 27.9308 11.6909 28.2841 11.2769 28.3073C11.1449 28.3148 11.0137 28.3178 10.8854 28.3178Z" fill="white"/>
<path d="M14.931 18.428C13.206 18.428 11.8215 17.7395 11.0085 16.466C10.7858 16.1172 10.8878 15.653 11.2373 15.4302C11.586 15.2075 12.0503 15.3102 12.273 15.659C12.9998 16.796 14.274 16.9647 15.2183 16.9212C15.6278 16.8777 15.9855 17.2152 16.008 17.6285C16.0305 18.0417 15.714 18.395 15.3 18.4182C15.1755 18.4257 15.0525 18.428 14.931 18.428Z" fill="white"/>
<path d="M11.6327 39.4694C11.3192 39.4694 11.0267 39.2714 10.9217 38.9571C10.7905 38.5649 11.002 38.1396 11.395 38.0076L11.7752 37.8839C13.231 37.4174 14.737 36.9344 15.0782 34.3821C15.1337 33.9719 15.5125 33.6861 15.9212 33.7386C16.3315 33.7934 16.6202 34.1706 16.5647 34.5816C16.0967 38.0736 13.7717 38.8191 12.2327 39.3126L11.8705 39.4304C11.7917 39.4566 11.7115 39.4694 11.6327 39.4694Z" fill="white"/>
<path d="M17.8512 39.9342C17.6869 39.9342 17.5212 39.881 17.3832 39.77C17.0592 39.5105 17.0074 39.0387 17.2662 38.7155C18.7842 36.818 20.9727 36.4287 23.7912 36.4287C24.2052 36.4287 24.5412 36.764 24.5412 37.1787C24.5412 37.5935 24.2052 37.9287 23.7912 37.9287C20.8564 37.9287 19.4554 38.3802 18.4369 39.653C18.2892 39.8375 18.0709 39.9342 17.8512 39.9342Z" fill="white"/>
<path d="M9.062 35.0566C8.94275 35.0566 8.822 35.0281 8.7095 34.9689C8.34425 34.7731 8.20625 34.3194 8.4005 33.9534L8.82875 33.1509C9.60425 31.6981 11.1095 30.7959 12.7558 30.7959H14.729C15.143 30.7959 15.479 31.1311 15.479 31.5459C15.479 31.9606 15.143 32.2959 14.729 32.2959H12.7558C11.6638 32.2959 10.6663 32.8944 10.1525 33.8566L9.72425 34.6591C9.58925 34.9119 9.32975 35.0566 9.062 35.0566Z" fill="white"/>
<path d="M14.5585 11.6943H12.1562C11.7423 11.6943 11.4062 11.3591 11.4062 10.9443C11.4062 10.5296 11.7423 10.1943 12.1562 10.1943H14.5585C14.9725 10.1943 15.3085 10.5296 15.3085 10.9443C15.3085 11.3591 14.9725 11.6943 14.5585 11.6943Z" fill="white"/>
<path d="M24.5729 28.2043C24.2556 28.2043 23.9609 28.0011 23.8581 27.6831L21.6764 20.8656C21.5504 20.4711 21.7679 20.0488 22.1624 19.9228C22.5569 19.7961 22.9791 20.0136 23.1051 20.4081L25.2869 27.2256C25.4129 27.6201 25.1954 28.0423 24.8016 28.1683C24.7251 28.1923 24.6479 28.2043 24.5729 28.2043Z" fill="white"/>
<path d="M20.2115 28.2041C20.1357 28.2041 20.0585 28.1921 19.9827 28.1681C19.5882 28.0421 19.3707 27.6206 19.4967 27.2253L21.6785 20.4078C21.8052 20.0133 22.2275 19.7966 22.6212 19.9226C23.0157 20.0486 23.2332 20.4701 23.1072 20.8653L20.9255 27.6828C20.8235 28.0016 20.5287 28.2041 20.2107 28.2041H20.2115Z" fill="white"/>
<path d="M24.1454 26.8633H20.6406C20.2266 26.8633 19.8906 26.528 19.8906 26.1133C19.8906 25.6985 20.2266 25.3633 20.6406 25.3633H24.1454C24.5594 25.3633 24.8954 25.6985 24.8954 26.1133C24.8954 26.528 24.5594 26.8633 24.1454 26.8633Z" fill="white"/>
<path d="M27.375 28.2042C26.9603 28.2042 26.625 27.869 26.625 27.4542V20.6367C26.625 20.222 26.9603 19.8867 27.375 19.8867C27.7897 19.8867 28.125 20.222 28.125 20.6367V27.4542C28.125 27.869 27.7897 28.2042 27.375 28.2042Z" fill="white"/>
</svg>
