<svg width="109" height="29" viewBox="0 0 109 29" fill="none" xmlns="http://www.w3.org/2000/svg">
<g clip-path="url(#clip0_1568_5770)">
<path d="M30.1156 28.0529V14.8368C30.1763 13.5759 30.3725 12.3252 30.7008 11.1063C31.5689 8.43616 33.6697 4.68228 38.6343 4.49483C38.6343 4.49483 44.0857 4.32025 44.1355 11.1025V28.0529H48.5736V10.7065C48.5736 10.7065 48.8443 4.43361 44.3139 1.51559C43.116 0.768436 41.7695 0.291074 40.3681 0.11667C39.8507 0.0317419 39.3264 -0.00696662 38.8021 0.00102629C38.7164 0.00102629 38.631 0.00102629 38.5449 0.00102629V0.00859135C38.3029 0.0176606 38.0526 0.0358029 37.7931 0.0645222C33.3589 0.551994 30.6093 4.58327 30.1178 5.5174V0.73034H25.6797V28.0507L30.1156 28.0529Z" fill="white"/>
<path d="M55.7662 0.734375H51.3281V28.0547H55.7662V0.734375Z" fill="white"/>
<path d="M55.7675 0.734375H51.3203V28.0547H55.7675V0.734375Z" fill="white"/>
<path d="M75.681 0.731987L68.9561 17.4829L62.2304 0.731987H57.7734L66.7292 23.0317L68.9576 28.5821L71.1863 23.0317L80.1402 0.730469L75.681 0.731987Z" fill="white"/>
<path d="M85.838 21.3683C85.7254 21.2647 85.6113 21.1589 85.5045 21.05C84.1289 19.6829 83.2024 17.9297 82.8482 16.0234H78.3516C78.744 19.1165 80.1559 21.991 82.3642 24.1933C82.7192 24.5481 83.0923 24.8841 83.4826 25.2C84.4087 25.9481 85.4268 26.5749 86.5117 27.0652C86.6192 27.1143 86.7282 27.1612 86.8365 27.2073C88.0199 27.708 89.2665 28.0429 90.5418 28.2026V23.7051C88.7887 23.3801 87.1617 22.5706 85.8457 21.3683H85.838Z" fill="white"/>
<path d="M98.122 1.42464C98.0144 1.37552 97.9065 1.32867 97.7975 1.28256C95.7959 0.436662 93.6254 0.0654957 91.4559 0.198131C89.2868 0.330765 87.1777 0.96359 85.2941 2.04705C83.4106 3.13051 81.8036 4.63517 80.5991 6.44312C79.3947 8.25107 78.6255 10.3132 78.3516 12.4679H82.8522C83.1145 11.0829 83.6777 9.77231 84.5021 8.62842C85.3265 7.48458 86.3918 6.5353 87.6231 5.84754C88.8541 5.15983 90.2213 4.75031 91.6281 4.64792C93.035 4.5455 94.4469 4.75271 95.7647 5.25491L98.122 1.42464Z" fill="white"/>
<path d="M104.162 13.5781L101.787 15.9513C101.787 15.9739 101.78 15.9967 101.775 16.0193C101.524 17.3714 100.982 18.6529 100.187 19.7755C99.8662 20.2288 99.5076 20.654 99.1148 21.0467C97.7469 22.4214 95.9931 23.3476 94.0859 23.7025V28.2C96.5304 27.8874 98.8503 26.9397 100.814 25.4516C102.778 23.9635 104.317 21.9868 105.278 19.7188C105.469 19.2677 105.636 18.8071 105.779 18.3387C106.01 17.5814 106.176 16.8057 106.275 16.0201C106.287 15.9193 106.298 15.8205 106.308 15.7238L104.162 13.5781Z" fill="#FF683D"/>
<path d="M104.163 6.05774L100.649 9.56678L99.3281 8.24643L104.163 3.41406L108.998 8.24643L107.677 9.56678L104.163 6.05774Z" fill="#FF683D"/>
<path d="M104.163 11.2657L100.649 14.7777L99.3281 13.4574L104.163 8.625L108.998 13.4574L107.676 14.7777L104.163 11.2657Z" fill="#FF683D"/>
<path d="M18.4611 0.734375V13.9497C18.4004 15.2106 18.2042 16.4613 17.8759 17.6802C17.0078 20.3504 14.9077 24.1043 9.94254 24.2917C9.94254 24.2917 4.4904 24.4663 4.44124 17.684V0.734375H0.00308717V18.0846C0.00308717 18.0846 -0.267664 24.3574 4.26197 27.2755C5.45999 28.0227 6.8065 28.5001 8.20784 28.6744C8.72541 28.7594 9.24956 28.798 9.77399 28.79C9.85919 28.79 9.94487 28.79 10.0311 28.79V28.7825C10.273 28.7734 10.5234 28.7553 10.7828 28.7265C15.2171 28.2391 17.9666 24.2078 18.4582 23.2737V28.0539H22.8962V0.734375H18.4611Z" fill="white"/>
</g>
<defs>
<clipPath id="clip0_1568_5770">
<rect width="109" height="28.8123" fill="white"/>
</clipPath>
</defs>
</svg>
