<svg width="64" height="64" viewBox="0 0 64 64" fill="none" xmlns="http://www.w3.org/2000/svg">
<rect x="1" y="1" width="62" height="62" rx="31" fill="white"/>
<rect x="1" y="1" width="62" height="62" rx="31" stroke="#F3714B" stroke-width="2"/>
<path d="M45 21H19C18.175 21 17.5 21.675 17.5 22.5V41.5C17.5 42.325 18.175 43 19 43H35V45C35 45.19 35.105 45.36 35.275 45.445C35.445 45.53 35.645 45.51 35.8 45.4L37.5 44.125L39.2 45.4C39.29 45.465 39.395 45.5 39.5 45.5C39.575 45.5 39.655 45.48 39.725 45.445C39.895 45.36 40 45.185 40 45V43H45C45.825 43 46.5 42.325 46.5 41.5V22.5C46.5 21.675 45.825 21 45 21ZM35.39 38.295C35.17 38.285 34.875 38.275 34.795 38.2C34.72 38.125 34.71 37.825 34.7 37.605C34.69 37.32 34.675 37 34.56 36.715C34.445 36.435 34.24 36.22 34.04 36.005C33.88 35.835 33.675 35.62 33.675 35.495C33.675 35.37 33.875 35.16 34.04 34.985C34.24 34.775 34.445 34.555 34.56 34.275C34.68 33.99 34.69 33.665 34.7 33.385C34.71 33.165 34.72 32.87 34.795 32.79C34.87 32.715 35.17 32.705 35.39 32.695C35.675 32.685 35.995 32.67 36.28 32.555C36.555 32.44 36.775 32.235 36.985 32.035C37.16 31.875 37.37 31.67 37.495 31.67C37.62 31.67 37.83 31.87 38.005 32.035C38.215 32.235 38.435 32.44 38.715 32.555C39 32.675 39.325 32.685 39.605 32.695C39.825 32.705 40.12 32.715 40.2 32.79C40.275 32.865 40.285 33.165 40.295 33.385C40.305 33.67 40.32 33.99 40.435 34.275C40.55 34.555 40.755 34.77 40.955 34.985C41.115 35.155 41.32 35.37 41.32 35.495C41.32 35.62 41.12 35.83 40.955 36.005C40.755 36.215 40.55 36.435 40.435 36.715C40.315 37 40.305 37.325 40.295 37.605C40.285 37.825 40.275 38.12 40.2 38.2C40.125 38.275 39.825 38.285 39.605 38.295C39.32 38.305 39 38.32 38.715 38.435C38.44 38.55 38.22 38.755 38.01 38.955C37.835 39.115 37.625 39.32 37.5 39.32C37.375 39.32 37.165 39.12 36.99 38.955C36.78 38.755 36.56 38.55 36.28 38.435C35.995 38.315 35.67 38.305 35.39 38.295ZM40 39.275C40.32 39.245 40.655 39.165 40.91 38.91C41.265 38.555 41.28 38.055 41.3 37.65C41.31 37.44 41.315 37.225 41.365 37.105C41.41 36.995 41.55 36.845 41.69 36.7C41.97 36.4 42.325 36.025 42.325 35.505C42.325 34.985 41.975 34.615 41.69 34.31C41.555 34.165 41.41 34.015 41.365 33.905C41.315 33.785 41.305 33.565 41.3 33.36C41.285 32.955 41.265 32.45 40.915 32.1C40.56 31.745 40.06 31.73 39.655 31.71C39.445 31.7 39.23 31.695 39.11 31.645C39 31.6 38.85 31.46 38.705 31.32C38.405 31.04 38.03 30.685 37.51 30.685C36.99 30.685 36.62 31.035 36.315 31.32C36.17 31.455 36.02 31.6 35.91 31.645C35.79 31.695 35.57 31.705 35.365 31.71C34.96 31.725 34.455 31.745 34.105 32.1C33.75 32.455 33.735 32.955 33.715 33.36C33.705 33.57 33.7 33.785 33.65 33.905C33.605 34.015 33.465 34.165 33.325 34.31C33.045 34.61 32.69 34.985 32.69 35.505C32.69 36.025 33.04 36.395 33.325 36.7C33.46 36.845 33.605 36.995 33.65 37.105C33.7 37.225 33.71 37.445 33.715 37.65C33.73 38.055 33.75 38.56 34.1 38.91C34.355 39.165 34.69 39.245 35.01 39.275V40H20.5V24H43.5V40H40V39.275ZM37.8 43.1C37.62 42.965 37.38 42.965 37.2 43.1L36 44V39.42C36.095 39.485 36.2 39.585 36.305 39.685C36.605 39.965 36.98 40.32 37.5 40.32C38.02 40.32 38.39 39.97 38.695 39.685C38.8 39.585 38.91 39.485 39 39.42V44L37.8 43.1ZM45.5 41.5C45.5 41.775 45.275 42 45 42H40V41H44C44.275 41 44.5 40.775 44.5 40.5V23.5C44.5 23.225 44.275 23 44 23H20C19.725 23 19.5 23.225 19.5 23.5V40.5C19.5 40.775 19.725 41 20 41H35V42H19C18.725 42 18.5 41.775 18.5 41.5V22.5C18.5 22.225 18.725 22 19 22H45C45.275 22 45.5 22.225 45.5 22.5V41.5ZM40 35.5C40 34.12 38.88 33 37.5 33C36.12 33 35 34.12 35 35.5C35 36.88 36.12 38 37.5 38C38.88 38 40 36.88 40 35.5ZM36 35.5C36 34.675 36.675 34 37.5 34C38.325 34 39 34.675 39 35.5C39 36.325 38.325 37 37.5 37C36.675 37 36 36.325 36 35.5ZM28.14 26.205C28.14 25.93 28.365 25.705 28.64 25.705H35.64C35.915 25.705 36.14 25.93 36.14 26.205C36.14 26.48 35.915 26.705 35.64 26.705H28.64C28.365 26.705 28.14 26.48 28.14 26.205ZM41.14 28.705C41.14 28.98 40.915 29.205 40.64 29.205H23.64C23.365 29.205 23.14 28.98 23.14 28.705C23.14 28.43 23.365 28.205 23.64 28.205H40.64C40.915 28.205 41.14 28.43 41.14 28.705ZM32.64 31.205C32.64 31.48 32.415 31.705 32.14 31.705H23.64C23.365 31.705 23.14 31.48 23.14 31.205C23.14 30.93 23.365 30.705 23.64 30.705H32.14C32.415 30.705 32.64 30.93 32.64 31.205ZM31.14 33.705C31.14 33.98 30.915 34.205 30.64 34.205H23.64C23.365 34.205 23.14 33.98 23.14 33.705C23.14 33.43 23.365 33.205 23.64 33.205H30.64C30.915 33.205 31.14 33.43 31.14 33.705ZM30.5 36.585C30.5 36.86 30.275 37.085 30 37.085C29.825 37.085 29.5 37.31 29.24 37.49C28.89 37.73 28.53 37.98 28.135 38.03C27.93 38.055 27.735 37.96 27.635 37.78C27.62 37.755 27.61 37.725 27.6 37.7C27.375 37.85 27.125 37.975 26.83 38.015C26.695 38.035 26.56 37.995 26.45 37.91C26.4 37.87 26.36 37.825 26.33 37.77C26.17 37.91 25.99 38.05 25.77 38.15C25.58 38.24 25.355 38.2 25.205 38.05C25.055 37.9 25.015 37.675 25.105 37.485C25.375 36.905 25.445 36.58 25.46 36.42C25.09 36.555 24.305 37.175 23.905 38.01C23.82 38.19 23.64 38.295 23.455 38.295C23.385 38.295 23.31 38.28 23.24 38.245C22.99 38.125 22.885 37.83 23.005 37.58C23.555 36.425 25.045 35.035 25.98 35.475C26.36 35.655 26.475 35.995 26.47 36.375C26.57 36.32 26.68 36.275 26.795 36.24C27.01 36.175 27.245 36.27 27.365 36.465C27.39 36.505 27.405 36.54 27.42 36.58C27.63 36.415 27.865 36.24 28.135 36.135C28.285 36.075 28.455 36.095 28.585 36.18C28.72 36.265 28.8 36.41 28.815 36.565C29.175 36.32 29.575 36.08 30.005 36.08C30.28 36.08 30.505 36.305 30.505 36.58L30.5 36.585Z" fill="#5B5B5B"/>
</svg>
