<?xml version="1.0" encoding="UTF-8"?>
<svg id="Layer_1" xmlns="http://www.w3.org/2000/svg" version="1.1" xmlns:xodm="http://www.corel.com/coreldraw/odm/2003" viewBox="0 0 384 340.7">
  <!-- Generator: Adobe Illustrator 30.1.0, SVG Export Plug-In . SVG Version: 2.1.1 Build 136)  -->
  <defs>
    <style>
      .st0 {
        fill: #fefefe;
        fill-rule: evenodd;
      }
    </style>
  </defs>
  <g id="Layer_x5F_1">
    <g id="_2703183131776">
      <path class="st0" d="M130.5,288.2v40.5h-22.5c0-10.3,1.8-33.7,3.2-43.3,2.4-16.1,6-28.8,19.3-38.5,6.3-4.5,18.4-10.5,25.5-5.3,3.4,2.5,23.7,18.8,27.7,18.8s12.5-7.3,16.4-9.9c1.6-1.1,15.7-11.1,15.9-11.1,9.3,0,19.1,4.3,24.2,8.8,16.1,14.1,15.7,25.9,18.9,48.6.6,4.3,1.2,11.1,1.2,15.3l.7,16.5h-22.5v-39.7c0-8.8-12.7-9.9-12.7,1.5v38.2h-82.5v-38.2c0-11.1-12.7-10.3-12.7-2.2h0ZM171,225.2c19.5,4.5,15.7,1,26.2.7,0,5.2,1.4,6.2,1.5,10.5-19.6,13.1-10.9,12.3-29.2,0,0-4.3,1.5-6.2,1.5-11.2h0ZM188.2,214.7c-8.7,0-12.7.2-20.4-5.1-4-2.8-6.7-5.8-9.3-10.2-6.5-10.8-5.5-17.9-5.5-34.2,2.5-.6,6.3-3.2,8.2-4.5,11.7,2.7,4.6,5.2,29.2,5.2s17.7-3.3,21.7-5.2c4,6,4.5-1.1,4.5,12s-2,20.8-6.9,28.4c-3.5,5.4-13.1,13.6-21.6,13.6h0ZM221.2,151.7c-3.7-1-3.9-4.5-7.5-4.5-5.9,0-19.1,11.3-41.3,4.5-8-2.4-10.3-8.5-17-2.8-2.5,2.1-1.6,1.9-4.7,3.5,0-11.6-1.8-18.8,11.8-27.9,8.8-5.9,19.1-9.6,32.4-9.6s9.7.8,11.8,2.4c3.5,2.6.5,5,8.6,12.4,1.8,1.6,2.6,1.7,4.1,3.4,6,6.6,5.2,11.2,1.7,18.5h0ZM138,142.7c0,12.9,2.3,17.5,2.3,24,0,17.2.2,33.2,13.3,46.7,7.5,7.8,5.6,4.6,4.7,14.8-7.7-3.7-23.4,1.6-31.3,6.2-8.8,5.2-14,10.9-19.3,19.7-11.1,18.4-11.7,56.5-11.7,82.1s3.3,4.5,6,4.5h165c7.9,0,6-9.2,6-18.7,0-23.3-3.2-54.1-12.8-69.7-7.8-12.8-24.7-24.8-40.5-24.8s-4.8-.4-9.7.8c-2.6-11.3,1.1-8.8,5.4-14.1,19.8-24.7,10.2-33.6,13.5-50.2,1.2-5.9,15.7-18.9.7-37.8-6.8-8.5-4.3-.4-10.1-12.4-11.7-24.1-81.5-7.4-81.5,29h0Z"/>
      <path class="st0" d="M321,103V34c0-8.5-2-17.2,6-17.2h45v85.5c-16.8,0-34.4-1-51,.7h0ZM257.2,16.7h44.2c8.2,0,6.7,8.4,6.7,16.5v69.7c-2.3-.2-2.7-.7-5.2-.7h-45.7V16.7h0ZM244.5,12.2v96c0,7.4,7.5,6.8,15,6.7h43.5c4,.4,4.4,2.4,5.3,5.9.9,3.7,3.6,6.1,5.2,6.1,9.6,0,5.1-9.4,10.2-11.5,2.7-1.1,37.2-.5,43-.5,3.1,0,8.3.3,11.2,0,2.6-.3,6.1-2.4,6.1-5.2V9.2c0-1.8-2.7-4.5-4.5-4.5h-54.7c-4.3,0-8,1.9-9.7,4.5-2-1.3-6.8-4.5-9.7-4.5h-54.7c-4.5,0-6,3-6,7.5h0Z"/>
      <path class="st0" d="M108.7,59.5h9.7v12c-16.9,0-13-.3-19,13.3-2.6,5.8,3.3,10.7,7.8,13.7l-8.4,8.8c-11.5-7.4-2.8-12.2-22.3-4.3-6.7,2.7-5.3,6.4-5.3,15.7h-12c0-10.4,1.4-13.6-5.1-15.9l-8.5-3.5c-6.7-2-9.5,5.1-14.1,8.2-2.1-3.2-6.4-5-7.5-9,1.8-2.7,8.2-7.2,8.2-10.5s-2.9-7.4-3.7-9.8c-3.1-8.1-4.8-6.7-16.5-6.7v-12c11,0,14,1.5,16.4-6.1l3.8-9.7c0-4.7-6-7.9-8.2-11.2l8.1-8.4c2.9,2,7.4,8.4,10.7,8.4s7.8-2.9,9.9-3.6c8-2.9,6.6-4.1,6.6-16.6h12c0,17.4,0,13.2,10.5,18,11.4,5.2,7.7,0,16.5-6,2.5.7,2.9,1.8,4.7,3.6,1.7,1.7,3,2.8,4.3,4.7-13.8,9.3-6.9,15.1-4.8,21.3,1.1,3.4,2.2,5.7,6.3,5.7h0ZM45,18.2c-4,0-7.6-10-13.3-9.4-4.4.4-9.9,7.5-12.8,10.4-2.8,2.8-10.1,8.8-10.5,12.7-.5,5.7,9.5,9.5,9.5,13.4C18,51.1,0,43.2,0,52v26.2c0,9.3,13.5,4.4,17,6.4,4.1,2.5-7.7,8.4-8.5,13.3-.6,3.6,2.1,5.5,4,7.4,21.8,21.3,17.1,21.1,30.3,8.9,2-1.9,1.5-1.5,4.3-.8,0,3.6-.3,8.6,0,12,.3,3.9,2.9,6,6.8,6h21.7c12.6,0,6.1-10.9,8.4-17.2,2.2-6,9,8.2,14.1,8.2s24-20.6,24-23.2c0-6.3-14.3-12.6-8.2-14.8,7.5-2.7,17.2,5.1,17.2-9.9,0-30,2.1-27-18-27-.6-2.5-1.1-2,.5-4,8.2-10.2,14.2-8,.8-21.3-9.5-9.5-13.6-16.7-20.2-11.6-5.7,4.4-4.9,7.5-10.4,7.6C84-3.5,86.4.2,51.7.2s-.9,18-6.7,18h0Z"/>
      <path class="st0" d="M52.5,65.5c0-16,25.5-17.9,25.5.8s-25.5,16.1-25.5-.8ZM66,91c25.4,0,35.2-36.9,9.5-48.5-4.6-2.1-9.9-2.5-15.3-1.5-4.4.8-9.9,3.8-12.8,6.7-3.3,3.3-5.5,7.5-6.6,12.2-1.4,5.9-.9,11,1.4,15.9,4,8.4,11.6,15.2,23.8,15.2Z"/>
      <path class="st0" d="M308.2,152.5v33h-33c-8,0-8,12,0,12h40.5c3.8,0,5.2-5.6,5.2-9.7v-31.5c0-13.9-12.7-11.3-12.7-3.7h0Z"/>
      <path class="st0" d="M59.2,152.5v39c0,3.6,2.4,6,6,6h40.5c4.9,0,7.9-11.6-1.4-12.1-41.7-2.2-32.1,11.9-33-32.3-.2-10-12.1-8.1-12.1-.7h0Z"/>
      <path class="st0" d="M160.5,59.5c0,2.8.5,7.5,4.5,7.5h48c7.9,0,7.9-12,0-12h-48c-1.8,0-4.5,2.7-4.5,4.5Z"/>
      <path class="st0" d="M330.7,84.2c0,8.4,12.9,6,24.7,6s7.5-12,0-12c-10.6,0-24.7-2.5-24.7,6Z"/>
      <path class="st0" d="M330.7,34.7c0,8.4,12.9,6,24.7,6s7.5-12,0-12c-10.6,0-24.7-2.5-24.7,6Z"/>
      <path class="st0" d="M330.7,59.5c0,8.4,12.9,6,24.7,6s7.5-12,0-12c-10.6,0-24.7-2.5-24.7,6Z"/>
      <path class="st0" d="M272.2,40.7c15.1,0,25.5,2.6,25.5-6s-11.2-6-24-6-7.3,12-1.5,12h0Z"/>
      <path class="st0" d="M272.2,65.5c15.1,0,25.5,2.6,25.5-6s-11.2-6-24-6-7.8,6.2-5.2,9.7c.6.9,2.2,2.3,3.7,2.3h0Z"/>
      <path class="st0" d="M273,90.2c14.6,0,24.7,2.6,24.7-6s-11.2-6-24-6-8.5,12-.8,12h0Z"/>
    </g>
  </g>
</svg>