<svg width="388" height="388" viewBox="0 0 388 388" fill="none" xmlns="http://www.w3.org/2000/svg">
<circle cx="194" cy="194" r="181.5" stroke="#DFDFE0" stroke-width="25"/>
<mask id="path-2-inside-1_1833_5000" fill="white">
<path d="M194 374.909C194 382.139 188.131 388.046 180.917 387.559C134.244 384.406 90.1073 364.465 56.8213 331.179C20.4392 294.797 -1.4313e-06 245.452 0 194C1.4313e-06 142.548 20.4392 93.2033 56.8213 56.8213C90.1074 23.5352 134.244 3.59407 180.917 0.441257C188.131 -0.046029 194 5.86117 194 13.0913V13.0913C194 20.3214 188.129 26.1294 180.921 26.6926C141.199 29.7963 103.71 46.9606 75.3352 75.3352C43.8633 106.807 26.1826 149.492 26.1826 194C26.1826 238.508 43.8633 281.193 75.3352 312.665C103.71 341.039 141.199 358.204 180.921 361.307C188.129 361.871 194 367.679 194 374.909V374.909Z"/>
</mask>
<path d="M194 374.909C194 382.139 188.131 388.046 180.917 387.559C134.244 384.406 90.1073 364.465 56.8213 331.179C20.4392 294.797 -1.4313e-06 245.452 0 194C1.4313e-06 142.548 20.4392 93.2033 56.8213 56.8213C90.1074 23.5352 134.244 3.59407 180.917 0.441257C188.131 -0.046029 194 5.86117 194 13.0913V13.0913C194 20.3214 188.129 26.1294 180.921 26.6926C141.199 29.7963 103.71 46.9606 75.3352 75.3352C43.8633 106.807 26.1826 149.492 26.1826 194C26.1826 238.508 43.8633 281.193 75.3352 312.665C103.71 341.039 141.199 358.204 180.921 361.307C188.129 361.871 194 367.679 194 374.909V374.909Z" stroke="#F3714B" stroke-width="50" stroke-linejoin="round" mask="url(#path-2-inside-1_1833_5000)"/>
</svg>
