<?xml version="1.0" encoding="UTF-8"?>
<svg id="Layer_1" xmlns="http://www.w3.org/2000/svg" version="1.1" xmlns:xodm="http://www.corel.com/coreldraw/odm/2003" viewBox="0 0 373.1 355.5">
  <!-- Generator: Adobe Illustrator 30.1.0, SVG Export Plug-In . SVG Version: 2.1.1 Build 136)  -->
  <defs>
    <style>
      .st0 {
        fill: #fefefe;
        fill-rule: evenodd;
      }
    </style>
  </defs>
  <g id="Layer_x5F_1">
    <g id="_2703174267088">
      <path class="st0" d="M237,197.3h117.8v146.3h-117.8v-146.3h0ZM12.8,302.3h107.3v41.3H12.8v-41.3h0ZM132,294.8v-44.3h93v93h-93l.3-46.6c0-2.1-.3,1-.3-2.1h0ZM120,244.5v45.8h-30.8c.8-3.5,21.1-37.5,24.1-42.7,3-5.3,2.2-28.3,2.2-35.3,0-5.9.8-8.5.8-14.2,2.6.2,4.7,1,7.4,1.6l23.5,5c5.2,1.1,3.6,3.4,3.6,15.1,0,7.5-.9,13.4,1.5,18-6.5,0-13,0-19.5,0-7,0-12.7-.1-12.7,6.8h0ZM249,182.3c.7-2.9,1.7-4.5,5.3-4.5h76.5c6.2,0,6.2,7.5,0,7.5h-78c-2.1,0-2.9-1.7-3.8-3h0ZM283.5,145.5c5.9.5,9.8,1.7,17.3,0,1.9,3.9,3,12.4,8.3,20.3h-33l5.7-14.6c.8-2.2,1-4,1.8-5.7h0ZM298.5,133.5c-16.8,0-16.5,1.5-16.5-9,4.3,0,15.5,1.9,21-.8,0,2.1.5,9.8-4.5,9.8h0ZM15.8,144c0-4.7,11.9-21.9,15.2-27.5,1.3-2.2,2.3-3.6,3.5-5.5,9-14.9,4.1-9.4,16.4-17.4,30.2-19.5,24.3-17.1,58.7-17.1s29.1,17.7,39.6,32.4c3.3,4.6,4.2,6,12.1,5.9h36.1c15.5-.2,11.8,15.7,2.2,15.7h-50.3c-2.5,0-17.5-16-20.6-18.4-1.5-1.2-3.4-3.1-4.5-3.8-3.9-2.1-8.6,1-8.6,5.7v51c0,6.6,7.4,6.5,13.3,7.7,5.4,1.1,12.3,2.3,17.6,3.4,33.7,6.7,28.3.6,28.3,54.2s-2.4,6-6,6c-14.5,0,3.1-34.4-13.5-42l-45.8-10.5c-8.5,0-6,20.4-6,31.5,0,4.9-.8,8.4-.8,18,0,9.7-.8,8.2-4.2,14.5l-13.6,23.9c-5.8,9.7-9.5,21.5-18,16.3-7.2-4.4,2-16,6.4-24.9,14.9-30,12.6-16.1,6.5-58.5-5.3-36.5-6-29.5-1.8-68.9l2.3-26.1c-.6-12.6-19.9,1.5-23.9,3.8-11.5,6.6-6.9,3-14.2,12.8-3.9,5.4-13.9,20.9-18.2,22.4-3.4,1.2-8.2-1.3-8.2-4.5h0ZM246,66.8V20.3c0-3.6,2.4-6,6-6h80.3c3.6,0,6,2.4,6,6v46.5c0,41.6-49,59-75.2,35.4-3.1-2.8-2.8-1.5-5.8-5.4-1-1.3-1.6-1.9-2.7-3.3-4.9-6.5-8.6-17.5-8.6-26.7h0ZM351,69.8v-30c4.1,1,9.8,7.1,9.8,12v4.5c0,5.9-5,12.4-9.8,13.5ZM223.5,55.5c0-8.6,4.6-12.3,9.8-15.8v30c-4.3-2.9-9.8-7.2-9.8-14.3h0ZM234,27c-27.8,6.5-30.6,45.5-2.9,54.6,7.3,2.4,3.6-.3,7.4,8.4,4.7,10.7,11.8,18.8,21.3,25.2,3.6,2.4,6.5,3.6,10.2,5.5,0,18.1,2.3,14.3,2.3,18,0,6-8,22.3-10.5,27-8.7,0-19.8-1-23.7,10.1-1,2.9-1.6,6.8-.3,9.4-3.2,0-12.8-1.3-12.8,4.5v48h-39.8c3-6.2,1.5-39.8,1.5-48.8s-10.2-20-22.8-22.2l-31.7-5.8c-3.7-.6-4.1.3-4.8-2.7-.8-3.6,0-24.6,0-30,3.2,2.1,5.6,4.5,8.4,7.3,2.4,2.4,5.5,6.9,9.6,6.9h55.5c4,0,8.5-2.2,11-4,9.1-6.9,11.9-20.1,2-29.9-7.1-7.1-11.1-5.8-24.2-5.8h-30c-4-6-15.8-22.5-20.4-26.8-13.9-12.9-29.9-12.2-48.6-12.2s-26.7,7-37.5,14.2l-12.7,8.3c-1.3.8-1.7,1.1-3.2,2-6.2,3.6-4.5,1.3-8.2,7.6l-20,32.5c-2.4,3.6-6.1,9.3-6.1,14.9,0,15.8,22.7,24.2,33.4,10.1l17.4-23.8c2.5-3.4,10.9-7.5,13-8l-4.5,48.8c0,5.9,7.8,55.2,8.8,61.7,1.3,8.5-2.9,12.8-8.8,24.5s-4,8-6,12c-5.2,10.5-5.6,10.7-3,21.8H7.5C2,290.5,0,292.9,0,298.5v48.8c0,4.9,1.9,8.3,6.8,8.3h354c3.6,0,6-2.4,6-6v-158.3c0-8.1-8.6-6-19.5-6,0-6.4.8-13.4-7.9-17.7-5.1-2.5-9.8-1.8-16.9-1.8-.6-2.7-10.5-17.9-10.5-26.3s2.5-6.4,2.8-8.4c.5-2.8.2-8,.2-11.1,8.6-2,19.5-12.5,24.4-19.1,1.5-2,2.9-4.5,4-6.5,6.9-11.8.7-10.2,9.3-12.5,12.9-3.4,22.6-16.6,19.8-33.1-1.8-10.4-11.7-21.1-22.3-22,0-9.5-.1-14.1-4.8-19.2-4.2-4.5-10.1-6.3-18.4-6.3-13.3,0-72.2-1.5-80.9,1.6-3.6,1.3-4.4,2.4-7,5-5.7,5.7-5,8.4-5,19h0Z"/>
      <path class="st0" d="M300,45c0,3.7-1.4,5.8,0,8.9l4.4,6.1c-3,.7-6.7.7-8.8,2.4-2.3,1.9-2.3,4.7-4.7,7.3-1.8-7.6-4.6-8-12-9.8,2.1-3.2,4.3-3.1,5.9-5.4,2.1-3,.4-6.5.1-9.6,2.9.7,5.3,2.9,7.5,2.9s4.6-2.2,7.5-2.9h0ZM292.5,34.5l7.5,10.5-7.5-10.5ZM285,24c-5.2,0-9.3-6.8-17.3-6.8s-3,14.7-3,21.8l-10.1,10.2c-5.2,4.2-3,9.8,4.7,11,12.9,2,12.2.6,14.9,6.1,4.9,10.1,5.6,12.5,11.5,12.5s7.8-13.3,11.1-15.9c5.1-4.2,20.4.9,20.4-8.8s-9.5-12-12.8-14.3c.4-4.5,6.8-23.3-3.8-23.3s-13.8,7.5-15.8,7.5h0Z"/>
      <path class="st0" d="M102.8,46.5c-25.2,0-22.7-34.5-.8-34.5s22.6,34.5.8,34.5ZM72.8,27c0,9.2,1.2,16.3,8.3,23.2.1.1.3.3.4.4,18.6,17.3,49.8,5,49.8-20.5S118.6,0,102,0s-29.3,12-29.3,27h0Z"/>
    </g>
  </g>
</svg>