<svg width="64" height="64" viewBox="0 0 64 64" fill="none" xmlns="http://www.w3.org/2000/svg">
<rect x="1" y="1" width="62" height="62" rx="31" fill="white"/>
<rect x="1" y="1" width="62" height="62" rx="31" stroke="#F3714B" stroke-width="2"/>
<path d="M44.8967 24.8253C44.649 24.4802 44.4512 24.102 44.3089 23.7017C44.2266 23.2663 44.2063 22.8214 44.2486 22.3802C44.3516 21.6109 44.2339 20.8282 43.9092 20.1232C43.4567 19.4838 42.8312 18.9866 42.1062 18.6901C41.7091 18.5103 41.3396 18.275 41.0088 17.9912C40.7252 17.6602 40.49 17.2907 40.3099 16.8937C40.0134 16.1685 39.5163 15.5428 38.8768 15.0901C38.1721 14.7661 37.3898 14.6487 36.621 14.7514C36.1797 14.7937 35.7346 14.7734 35.2989 14.691C34.8984 14.549 34.5199 14.3512 34.1747 14.1035C33.5465 13.6165 32.7917 13.3203 32 13.25C31.2082 13.3202 30.4533 13.6163 29.825 14.1033C29.4799 14.3508 29.1016 14.5486 28.7014 14.6908C28.2659 14.7724 27.8211 14.7928 27.3799 14.7511C26.6106 14.6483 25.8279 14.766 25.1229 15.0905C24.4835 15.5431 23.9865 16.1687 23.6901 16.8937C23.5103 17.2908 23.275 17.6603 22.9912 17.9911C22.6602 18.2747 22.2907 18.51 21.8937 18.6901C21.1685 18.9866 20.5428 19.4837 20.0901 20.1232C19.7662 20.828 19.6487 21.6102 19.7514 22.379C19.7937 22.8203 19.7734 23.2654 19.691 23.7011C19.5489 24.1016 19.351 24.4801 19.1032 24.8253C18.6163 25.4535 18.3202 26.2083 18.25 27C18.3202 27.7918 18.6163 28.5467 19.1033 29.175C19.351 29.5201 19.5488 29.8983 19.6911 30.2986C19.7734 30.7341 19.7937 31.1789 19.7514 31.6201C19.6484 32.3894 19.7661 33.1721 20.0908 33.8771C20.5433 34.5165 21.1688 35.0137 21.8938 35.3102C22.2909 35.49 22.6604 35.7254 22.9912 36.0091C23.2747 36.34 23.51 36.7094 23.6901 37.1062C23.8664 37.463 24.0693 37.806 24.2972 38.1322L20.7878 47.774C20.7476 47.8846 20.7394 48.0044 20.7643 48.1194C20.7891 48.2345 20.846 48.3402 20.9283 48.4244C21.0106 48.5086 21.1149 48.5678 21.2294 48.5953C21.3439 48.6227 21.4638 48.6173 21.5753 48.5796L24.8926 47.4591L26.7139 50.4504C26.7697 50.542 26.8481 50.6177 26.9417 50.6702C27.0352 50.7228 27.1407 50.7504 27.2479 50.7504C27.2681 50.7504 27.2888 50.7491 27.3096 50.7473C27.4267 50.7357 27.5383 50.6912 27.6312 50.619C27.7242 50.5468 27.7949 50.4497 27.8351 50.339L31.3579 40.6614C31.7779 40.78 32.2224 40.78 32.6423 40.6614L36.1652 50.339C36.2054 50.4497 36.276 50.5468 36.369 50.619C36.462 50.6912 36.5735 50.7357 36.6907 50.7473C36.7114 50.7491 36.7322 50.7504 36.7523 50.7504C36.8596 50.7504 36.9651 50.7228 37.0586 50.6702C37.1521 50.6177 37.2306 50.542 37.2864 50.4504L39.1077 47.4591L42.425 48.5796C42.5365 48.6173 42.6564 48.6227 42.7709 48.5952C42.8854 48.5678 42.9898 48.5085 43.072 48.4243C43.1543 48.3402 43.2112 48.2345 43.236 48.1194C43.2609 48.0043 43.2527 47.8846 43.2125 47.7739L39.7029 38.1317C39.9305 37.8055 40.1335 37.4627 40.3099 37.1062C40.4897 36.7091 40.725 36.3396 41.0088 36.0088C41.3398 35.7252 41.7093 35.49 42.1062 35.3099C42.8315 35.0134 43.4572 34.5163 43.9099 33.8768C44.2338 33.172 44.3513 32.3898 44.2486 31.621C44.2063 31.1797 44.2266 30.7346 44.309 30.2989C44.4511 29.8984 44.649 29.5199 44.8968 29.1747C45.3837 28.5465 45.6798 27.7917 45.75 27C45.6798 26.2083 45.3836 25.4535 44.8967 24.8253ZM27.1056 48.6894L25.7006 46.3817C25.6267 46.2604 25.5137 46.168 25.3802 46.1195C25.2468 46.071 25.1008 46.0694 24.9663 46.115L22.4071 46.9793L25.3105 39.0019C25.9713 39.2448 26.6799 39.3292 27.3792 39.2486C27.8206 39.2066 28.2656 39.2269 28.7013 39.3089C29.1018 39.451 29.4803 39.6489 29.8256 39.8967C29.9524 39.9774 30.0836 40.0599 30.2176 40.1405L27.1056 48.6894ZM39.0337 46.115C38.8992 46.0694 38.7532 46.071 38.6198 46.1195C38.4863 46.168 38.3733 46.2604 38.2994 46.3817L36.8944 48.6894L33.7826 40.1408C33.9166 40.0596 34.0479 39.9774 34.1747 39.8967C34.5198 39.649 34.898 39.4512 35.2983 39.3089C35.7338 39.2269 36.1786 39.2066 36.6198 39.2486C37.3195 39.3296 38.0285 39.2449 38.6895 39.0014L41.5929 46.9793L39.0337 46.115ZM43.8421 28.5033C43.522 28.9539 43.2724 29.4505 43.1017 29.9761C42.9824 30.5327 42.9478 31.1041 42.9991 31.671C43.0781 32.2037 43.0191 32.7478 42.8276 33.2512C42.4837 33.675 42.0361 34.0025 41.5282 34.2021C41.0163 34.4367 40.5431 34.7479 40.125 35.125C39.7475 35.543 39.4361 36.0161 39.2016 36.5282C39.002 37.0361 38.6744 37.4837 38.2506 37.8276C37.7471 38.0186 37.2032 38.0776 36.6704 37.9991C36.1035 37.9482 35.5321 37.9827 34.9754 38.1017C34.4501 38.2725 33.9537 38.5222 33.5033 38.8421C33.0685 39.1894 32.5501 39.4163 32 39.5C31.4499 39.4163 30.9315 39.1894 30.4967 38.8421C30.0461 38.522 29.5495 38.2724 29.0239 38.1017C28.6732 38.0154 28.3127 37.9755 27.9516 37.9829C27.7428 37.9829 27.5347 37.9914 27.329 37.9994C26.7962 38.078 26.2522 38.019 25.7487 37.8279C25.325 37.484 24.9975 37.0363 24.7979 36.5284C24.5633 36.0165 24.2521 35.5432 23.875 35.125C23.457 34.7475 22.9839 34.4361 22.4718 34.2016C21.9639 34.002 21.5163 33.6744 21.1724 33.2506C20.981 32.7472 20.9219 32.2032 21.0009 31.6704C21.0522 31.1035 21.0176 30.5321 20.8983 29.9754C20.7275 29.4501 20.4778 28.9537 20.1579 28.5033C19.8106 28.0685 19.5837 27.5501 19.5 27C19.5837 26.4499 19.8106 25.9315 20.1579 25.4967C20.478 25.0461 20.7276 24.5495 20.8983 24.0239C21.0176 23.4673 21.0522 22.8959 21.0009 22.329C20.9219 21.7963 20.9809 21.2522 21.1724 20.7488C21.5163 20.325 21.9639 19.9975 22.4718 19.7979C22.9837 19.5633 23.4569 19.2521 23.875 18.875C24.2525 18.457 24.5639 17.9839 24.7984 17.4718C24.998 16.9639 25.3256 16.5163 25.7494 16.1724C26.2528 15.9811 26.7968 15.9221 27.3296 16.0009C27.8965 16.0518 28.4679 16.0172 29.0246 15.8983C29.5499 15.7275 30.0463 15.4778 30.4967 15.1579C30.9315 14.8106 31.4499 14.5837 32 14.5C32.5501 14.5837 33.0685 14.8106 33.5033 15.1579C33.9539 15.478 34.4505 15.7276 34.9761 15.8983C35.5327 16.0173 36.1041 16.0518 36.671 16.0009C37.2037 15.9219 37.7478 15.981 38.2512 16.1724C38.675 16.5163 39.0025 16.9639 39.2021 17.4718C39.4367 17.9837 39.7479 18.4569 40.125 18.875C40.543 19.2525 41.0161 19.5639 41.5282 19.7984C42.0361 19.998 42.4837 20.3256 42.8276 20.7494C43.019 21.2528 43.0781 21.7968 42.9991 22.3296C42.9478 22.8965 42.9824 23.4679 43.1017 24.0246C43.2725 24.5499 43.5222 25.0463 43.8421 25.4967C44.1894 25.9315 44.4163 26.4499 44.5 27C44.4163 27.5501 44.1894 28.0685 43.8421 28.5033Z" fill="#5B5B5B"/>
<path d="M32 17C30.0222 17 28.0888 17.5865 26.4443 18.6853C24.7998 19.7841 23.5181 21.3459 22.7612 23.1732C22.0043 25.0004 21.8063 27.0111 22.1922 28.9509C22.578 30.8907 23.5304 32.6725 24.9289 34.0711C26.3275 35.4696 28.1093 36.422 30.0491 36.8079C31.9889 37.1937 33.9996 36.9957 35.8268 36.2388C37.6541 35.4819 39.2159 34.2002 40.3147 32.5557C41.4135 30.9112 42 28.9778 42 27C41.997 24.3488 40.9424 21.807 39.0677 19.9323C37.193 18.0576 34.6512 17.003 32 17ZM32 35.75C30.2694 35.75 28.5777 35.2368 27.1388 34.2754C25.6998 33.3139 24.5783 31.9473 23.9161 30.3485C23.2538 28.7496 23.0805 26.9903 23.4181 25.293C23.7558 23.5956 24.5891 22.0365 25.8128 20.8128C27.0365 19.5891 28.5956 18.7557 30.293 18.4181C31.9903 18.0805 33.7496 18.2538 35.3485 18.9161C36.9473 19.5783 38.3139 20.6998 39.2754 22.1388C40.2368 23.5777 40.75 25.2694 40.75 27C40.7474 29.3198 39.8247 31.5439 38.1843 33.1843C36.5439 34.8247 34.3198 35.7474 32 35.75Z" fill="#5B5B5B"/>
<path d="M34.2424 23.8817L32.5603 20.4735C32.5029 20.3759 32.421 20.295 32.3228 20.2387C32.2245 20.1825 32.1132 20.153 32 20.153C31.8868 20.153 31.7755 20.1825 31.6772 20.2387C31.579 20.295 31.4971 20.3759 31.4397 20.4735L29.7576 23.8817L25.996 24.4285C25.8806 24.4453 25.7723 24.494 25.6831 24.5692C25.594 24.6443 25.5277 24.7428 25.4916 24.8537C25.4555 24.9645 25.4512 25.0833 25.4791 25.1965C25.5069 25.3097 25.5659 25.4128 25.6493 25.4942L28.3714 28.1474L27.7287 31.8944C27.7091 32.0094 27.722 32.1275 27.7659 32.2355C27.8099 32.3435 27.8832 32.4371 27.9776 32.5056C28.0719 32.5741 28.1836 32.6148 28.2999 32.6232C28.4162 32.6316 28.5325 32.6073 28.6357 32.553L32 30.7842L35.3642 32.5529C35.4675 32.6072 35.5838 32.6315 35.7001 32.6232C35.8164 32.6148 35.9281 32.574 36.0224 32.5055C36.1168 32.437 36.1901 32.3435 36.2341 32.2355C36.278 32.1275 36.2909 32.0093 36.2712 31.8944L35.6286 28.1474L38.3507 25.4942C38.4341 25.4127 38.4931 25.3096 38.5209 25.1964C38.5488 25.0832 38.5445 24.9645 38.5084 24.8536C38.4723 24.7428 38.406 24.6442 38.3169 24.5691C38.2277 24.494 38.1194 24.4453 38.004 24.4285L34.2424 23.8817ZM34.5207 27.4822C34.4483 27.5529 34.3941 27.6402 34.3628 27.7365C34.3316 27.8328 34.3242 27.9353 34.3413 28.0351L34.8253 30.8574L32.2911 29.525C32.2014 29.4777 32.1014 29.453 32 29.453C31.8985 29.453 31.7986 29.4777 31.7089 29.525L29.175 30.8574L29.659 28.0351C29.6761 27.9353 29.6687 27.8328 29.6375 27.7365C29.6062 27.6402 29.552 27.5529 29.4796 27.4822L27.4287 25.4832L30.2626 25.0713C30.3629 25.0568 30.4582 25.0181 30.5402 24.9586C30.6222 24.899 30.6884 24.8204 30.7332 24.7295L32 22.1625L33.2671 24.7296C33.3119 24.8205 33.3781 24.8991 33.4601 24.9587C33.5421 25.0182 33.6374 25.0569 33.7377 25.0714L36.5716 25.4834L34.5207 27.4822Z" fill="#5B5B5B"/>
</svg>
