<svg width="64" height="64" viewBox="0 0 64 64" fill="none" xmlns="http://www.w3.org/2000/svg">
<rect x="1" y="1" width="62" height="62" rx="31" fill="white"/>
<rect x="1" y="1" width="62" height="62" rx="31" stroke="#F3714B" stroke-width="2"/>
<g clip-path="url(#clip0_1833_5016)">
<path d="M29.9235 16.0132C29.7768 16.0164 29.6325 16.0517 29.501 16.1168L9.46583 26.1344C9.29995 26.2178 9.16053 26.3457 9.0631 26.5037C8.96566 26.6617 8.91406 26.8437 8.91406 27.0294C8.91406 27.215 8.96566 27.397 9.0631 27.5551C9.16053 27.7131 9.29995 27.8409 9.46583 27.9243L15.9271 31.1559V41.0561C15.9271 42.3289 16.4693 43.4806 17.3179 44.3758C18.1665 45.2709 19.303 45.9506 20.6141 46.4884C23.2361 47.5641 26.5872 48.0631 29.945 48.0631C33.3029 48.0631 36.6539 47.5641 39.276 46.4884C40.587 45.9506 41.7236 45.2709 42.5721 44.3758C43.4207 43.4806 43.9708 42.3289 43.9708 41.0561V31.152L48.9767 28.6481V37.2338C47.8174 37.6516 46.9716 38.7543 46.9716 40.0487C46.9716 41.6963 48.3346 43.0592 49.9821 43.0593C51.6297 43.0593 52.9829 41.6963 52.9829 40.0487C52.9829 38.7521 52.1401 37.648 50.9798 37.2318V27.0304H50.9757C50.9759 26.8445 50.9245 26.6623 50.8271 26.5041C50.7297 26.3459 50.5901 26.2179 50.4241 26.1344L30.3969 16.1168C30.25 16.0441 30.0874 16.0085 29.9235 16.0132ZM29.945 18.1356L47.7404 27.0304L29.945 35.9309L12.1556 27.0304L29.945 18.1356ZM41.9657 32.1555V41.0561C41.9657 41.7864 41.7001 42.3856 41.1246 42.9927C40.549 43.5999 39.6512 44.1703 38.5209 44.634C36.2604 45.5614 33.0974 46.06 29.945 46.06C26.7927 46.06 23.6375 45.5614 21.377 44.634C20.2467 44.1703 19.3488 43.5999 18.7733 42.9927C18.1978 42.3856 17.9302 41.7864 17.9302 41.0561V32.1575L29.501 37.9419C29.6401 38.0114 29.7934 38.0476 29.9489 38.0476C30.1044 38.0476 30.2578 38.0114 30.3969 37.9419L41.9657 32.1555ZM20.4302 38.0456V40.301C20.4302 42.2257 22.009 43.8046 23.9337 43.8046H25.9368V41.8014H23.9337C23.0841 41.8014 22.4333 41.1507 22.4333 40.301V38.0456H20.4302ZM49.9821 39.051C50.5471 39.051 50.9798 39.4837 50.9798 40.0487C50.9798 40.6137 50.5471 41.0561 49.9821 41.0561C49.4171 41.0561 48.9767 40.6137 48.9767 40.0487C48.9767 39.4837 49.4171 39.0511 49.9821 39.051Z" fill="#5B5B5B"/>
</g>
<defs>
<clipPath id="clip0_1833_5016">
<rect width="44" height="32" fill="white" transform="translate(10 16)"/>
</clipPath>
</defs>
</svg>
