<?xml version="1.0" encoding="UTF-8"?>
<svg id="Layer_1" xmlns="http://www.w3.org/2000/svg" version="1.1" xmlns:xodm="http://www.corel.com/coreldraw/odm/2003" viewBox="0 0 453.4 454.3">
  <!-- Generator: Adobe Illustrator 30.1.0, SVG Export Plug-In . SVG Version: 2.1.1 Build 136)  -->
  <defs>
    <style>
      .st0 {
        fill: #fefefe;
        fill-rule: evenodd;
      }
    </style>
  </defs>
  <g id="Layer_x5F_1">
    <g id="_2703074014528">
      <path class="st0" d="M161.5,311.4h23.1v40.8h-23.1v-40.8ZM339.8,319.4c-26.5,0-46.1-19.7-46.1-46.1,0-45.9,65.1-62.1,85.9-18.5,14.6,30.7-8.6,64.6-39.8,64.6h0ZM278.6,274.1c0,6.9,2.2,17.5,4.4,22.2H24.8c-5.8,0-9.7-1.5-9.7-8v-34.6h267.1c-1.4,6.2-3.5,12.8-3.5,20.4h0ZM100.3,63v-4.4c0-11.7,10.9-21.3,24.8-21.3s21.3,10.2,21.3,20.4v5.3c0,18.2-25.2,27.8-38.9,14.9-3.1-3-7.3-9.1-7.3-14.9h0ZM87.8,47.9c-19.5,0-39,0-58.6,0C8.5,47.9,0,55.3,0,77.2v207.6c0,8.6,1.3,12.7,4.9,18.1,2.7,4,9.2,8.5,15.5,8.5h126.9v40.8c-10.6,0-28.4-2.7-28.4,7.1s3.6,8,8,8h93.2c9.5,0,11.7-15.1-1.8-15.1h-18.6v-40.8h90.5c4.4,0,16.3,23.1,48.8,23.1s44.1-14.5,53.5-33.4c14.6-29.2,3.4-63.1-24.3-79.2-4.5-2.6-15.4-7-22.2-7.1v-60.3c0-3-4.6-5.9-7.2-6-3.5-.1-7,2.5-7,6.9v59.4c-13.5.3-28.9,9.7-37.9,19.7-.5.5-2,2.4-2,2.5-1.2,1.2,0,1.8-2.7,1.8H15.1V71c0-4.3,2.5-8,7.1-8h63c.2,9.4,5.1,17.6,10.7,24,16.2,18.5,50.7,14.9,62.1-9.7,15.9-34.3-22.5-71.3-57.2-47.4-4.5,3.1-12.4,11.9-12.9,18.1h0Z"/>
      <path class="st0" d="M97.6,199.6c1.9-22.9,13.8-44.4-1.8-44.4s-6.3,3.2-7,7.2l-6.3,37.2c-21.3,0-18.4,9-10.1-40.3,3-17.9,6.7-33.5,31.4-33.3,21.6.1,43.2,0,64.8,0,23,0,15-2.9,31.3-16.6,2-1.6,2.4-1.8,4.4-3.6,7.8-7.3,15.8.6,15.8,6s-17.9,22.1-24.7,27.7c-12.2,9.9-38.3-1-44.8,7.6-4.2,5.6.9,43.7-1.7,50.7-1.2,3.2-2.2,2-11.4,1.9,0,0-39.9,0-39.9,0ZM220,89.6c-14.5-3.4-18.9-2-30.8,10l-8.8,8.1c-4.7,4.1-2.2,3.3-13.6,3.3-22.4,0-45-.2-67.5,0-10,0-18.5,4.6-24.4,9.3-17.3,13.6-17.4,37.8-21.5,62.8-1.6,9.4-4.8,20.3,3.3,27.5,2.4,2.2,6.4,4.3,10.8,4.3h79.8c10,0,16.9-8.4,16.9-18.6v-37.3c37.3,0,29.6,1.3,57-22.9,22.9-20.2,10.4-30.7,11-36.2,1.2-10.2,24.5-46.6,6.5-46.6s-6.1,2.3-7.5,5.8l-7.4,20.1c-1.3,3.4-2.4,7.5-3.8,10.4h0Z"/>
      <path class="st0" d="M432.1,439.2h-188.1c-2.5,0-5.3-3.7-5.3-6.2,0-6.4,11.6-21.3,15.1-25.7,17.8-23.1,51.9-39.9,82.5-39.9s66.1,13.5,86.8,39.2c4.1,5.1,26.9,32.7,9,32.7h0ZM223.6,432.1c0,11.3,9.4,22.2,20.4,22.2h188.1c11.1,0,21.3-8.9,21.3-19.5s-8.3-24.2-16.8-35.5c-1.9-2.5-3.6-3.7-5.5-6.1-11.8-14.7-32.7-27.1-50.6-33.7-50-18.6-109.3.3-140.1,40.7-4.5,6-16.8,22.6-16.8,32h0Z"/>
      <path class="st0" d="M174.8,19.5v61.2c0,4.3,2.8,7.1,7.1,7.1,7.8,0,7.1-6.4,7.1-14.2V31.1c0-6.3-.6-16,5.3-16h163.2c2.9,0,5.3,3.9,5.3,7.1v92.3c0,11-15.3,8-30.2,8s-83.1-.9-86.2.7c-5.6,2.9-6.7,14.4,6.4,14.4h97.6c15.5,0,27.5-7.5,27.5-24V24.8c0-7.4-1.8-12.8-5.2-17C370,4.4,363.5,0,357.5,0h-163.2C184.5,0,174.8,9.8,174.8,19.5h0Z"/>
      <path class="st0" d="M260.8,47.9h61.2c10.6,0,9.9-15.1-.9-15.1h-59.4c-10.6,0-11.3,15.1-.9,15.1h0Z"/>
      <path class="st0" d="M265.3,68.3c0,6.3,5.2,8,11.5,8h40.8c18.4,0,11.9-15.1,6.2-15.1h-51.5c-4.3,0-7.1,2.8-7.1,7.1h0Z"/>
      <path class="st0" d="M286.6,103.8h35.5c9.5,0,11.7-15.1-1.8-15.1h-31.9c-13.5,0-11.3,15.1-1.8,15.1h0Z"/>
      <path class="st0" d="M156.1,275c0,10.2,13.5,8,24.8,8s10.2-15.1,3.5-15.1c-15.1,0-28.4-2.8-28.4,7.1h0Z"/>
    </g>
  </g>
</svg>