<?xml version="1.0" encoding="UTF-8"?>
<svg id="Layer_1" xmlns="http://www.w3.org/2000/svg" version="1.1" xmlns:xodm="http://www.corel.com/coreldraw/odm/2003" viewBox="0 0 384.1 384.1">
  <!-- Generator: Adobe Illustrator 30.1.0, SVG Export Plug-In . SVG Version: 2.1.1 Build 136)  -->
  <defs>
    <style>
      .st0 {
        fill: #fefefe;
        fill-rule: evenodd;
      }
    </style>
  </defs>
  <g id="Layer_x5F_1">
    <g id="_2703435486640">
      <path class="st0" d="M186,366c0-2.4,0-4.2,1.7-5.8,8.7-7.9,16.1,10.8,4.3,10.8s-6-2.1-6-5h0ZM306.8,352.5c9.7,0,7.8,12,.8,12s-8.6-12-.8-12ZM76.5,364.5c-1.7,0-2.8-.5-4.1-1.9-3.7-4-1.9-10.1,4.9-10.1s7.5,12-.8,12ZM352.5,307.5c0-13.2,18.2-3.4,10.1,4.1-4.2,3.9-10.1,1.2-10.1-4.1ZM19.5,308.3c0-9.3,12-9.7,12-.7s-.6,3.3-1.7,4.3c-4.1,3.7-10.3.2-10.3-3.6h0ZM90,282V102c0-6.8,5.2-12,12-12h180c6.8,0,12,5.2,12,12v180c0,6.8-5.2,12-12,12H102c-6.8,0-12-5.2-12-12h0ZM366,198c-10.2,0-10.2-12,0-12s6.4,12,0,12ZM18,186c10.1,0,10.1,12,0,12s-6.4-12,0-12ZM352.5,77.3c0-9.7,12-7.8,12-.8s-12,8.6-12,.8ZM19.5,76.5c0-6.8,12-9.2,12,.8s-12,7.5-12-.8ZM307.5,19.5c6.8,0,9.2,12-.8,12s-7.5-12,.8-12ZM77.3,31.5c-9.7,0-7.8-12-.8-12s8.6,12,.8,12ZM186,19.5c0-8.6,12-8.6,12,0s-12,7.9-12,0ZM172.5,18.8c0,5.6,2,9.8,4.9,13.1,1,1.1.4.4,1.1,1.1,9.4,8.8,6.7-4.6,6.7,43.6h-24.8v-36c0-11.8-13.5-10.6-13.5-2.3v38.3h-25.5V30c0-4.8-4.8-8.7-8.5-10.2-4.7-1.9-12.5-1-18.5-1-1.5-6.3-9.7-12.8-17.3-12.8s-19.5,8-19.5,17.3v4.5c0,9.3,9.7,17.3,18.8,17.3s17.5-6.2,18-12.8h14.3v44.3h-5.3c-15.6,0-27,11.4-27,27v5.3h-44.3v-14.3c7.1-.6,12.8-10.9,12.8-18.8s-8.5-18-17.3-18-11.2,1-15.7,5.3c-.1.1-.3.3-.4.4-9.1,9.1-6.3,28,7.1,31.1,0,5.8-.8,13.4.8,17.9,1.4,3.8,5.4,9.1,10.4,9.1h46.5v25.5h-38.3c-8.3,0-9.6,13.5,2.3,13.5h36v24.8h-37.5c-2.1,0-2.7-2.2-3.8-3.7-.7-1-.8-1.2-1.6-2.2C22.9,166.5,0,172.3,0,193.5s24.4,24.7,34.9,9.4c1.2-1.8,1.9-4.2,4.1-4.2h37.5v24.8h-36c-11.8,0-10.6,13.5-2.3,13.5h38.3v25.5H30c-4.8,0-8.7,4.8-10.2,8.5-1.9,4.7-1,12.5-1,18.5-6.3,1.5-12.8,9.7-12.8,17.3s8.1,19.5,17.3,19.5h4.5c10.5,0,17.3-10.7,17.3-20.3s-6.7-15.1-12.8-16.5v-14.3h44.3v5.3c0,15.6,11.4,27,27,27h5.3v44.3h-14.3c-.6-7.6-11.3-12.8-18.8-12.8s-18,8.4-18,17.3v4.5c0,8.7,10,17.3,18.8,17.3s16.4-6.1,18-12.8c5.8,0,13.4.8,17.9-.8,3.8-1.4,9.1-5.4,9.1-10.4v-46.5h25.5v38.3c0,8.3,13.5,9.6,13.5-2.3v-36h24.8v37.5c0,2.1-2.2,2.7-3.7,3.8-15.8,10.5-8.7,35.2,9,35.2s28.1-24.1,12.4-34.9c-1.8-1.2-4.2-1.9-4.2-4.1v-37.5h24.8v36c0,11.8,13.5,10.6,13.5,2.3v-38.3h25.5v46.5c0,4.8,4.8,8.7,8.5,10.2,4.7,1.9,12.5,1,18.5,1,1.5,6.3,9.7,12.8,17.3,12.8s19.5-8.1,19.5-17.3v-4.5c0-10.5-10.6-17.3-20.3-17.3s-15.1,6.7-16.5,12.8h-14.3v-44.3h5.3c15.6,0,27-11.4,27-27v-5.3h44.3v14.3c-7.6,1.8-12.8,10.6-12.8,18.8s8.4,18,17.3,18h4.5c8.8,0,17.3-10.1,17.3-18.8s-5.9-16.4-12.8-18c0-5.8.8-13.4-.8-17.9-1.4-3.8-5.4-9.1-10.4-9.1h-46.5v-25.5h38.3c8.3,0,9.6-13.5-2.3-13.5h-36v-24.8h37.5c2.9,0,6.6,12.8,19.5,12.8s19.5-9.3,19.5-21c0-17.5-24.4-24.7-34.9-9.4-1.2,1.8-1.9,4.2-4.1,4.2h-37.5v-24.8h36c11.8,0,10.6-13.5,2.3-13.5h-38.3v-25.5h46.5c4.8,0,8.7-4.8,10.2-8.5,1.9-4.7,1-12.5,1-18.5,6.3-1.5,12.8-9.7,12.8-17.3s-8.1-19.5-17.3-19.5h-4.5c-10.5,0-17.3,10.6-17.3,20.3s6.8,16,12.8,16.5v14.3h-44.3v-5.3c0-15.6-11.4-27-27-27h-5.3v-44.3h14.3c1.7,7.3,9.9,12.8,18.8,12.8s18-8.5,18-17.3v-4.5c0-8.7-10-17.3-18.8-17.3s-16.4,6.1-18,12.8c-5.8,0-13.4-.8-17.9.8-3.8,1.4-9.1,5.4-9.1,10.4v46.5h-25.5v-38.3c0-8.3-13.5-9.6-13.5,2.3v36h-24.8v-37.5c0-2.1,2.2-2.7,3.7-3.8,1-.7,1.2-.8,2.2-1.6C217.6,22.9,211.7,0,190.5,0s-18,9.4-18,18.8h0Z"/>
      <path class="st0" d="M153.8,159.8l6.3,28.2c.7,3.3,1.9,6.7,1.9,10.1h-17.3l7.5-33.7c.3-1.5.2-1.3.6-2.4l.9-2.1h0ZM121.5,243.8c0,5.4,10.2,10.7,13.2-.3.9-3.4,1.7-7.5,2.3-10.4.8-3.8,1.5-7.2,2.3-10.5.8-3.2,2.2-8.1,2.4-11.1h24l6.6,31.7c2.5,10.2,16,9.1,12.7-4.4l-10.5-47.3c-1.5-6.4-9.7-49.9-13.4-54.1-4.3-4.9-14.2-4.8-17.2,4.2l-9.8,43.5c-1.2,5.3-12.6,54.3-12.6,58.7h0Z"/>
      <path class="st0" d="M198,141c0,1.6,1.4,4.1,2.5,5,3.2,2.6,12.2,1.8,17,1.8v88.5c-4.6,0-13.2-.7-16.5,1.5-5.5,3.6-2.7,12,3.8,12h38.3c8.1,0,10.7-13.5-2.3-13.5h-9.8v-88.5c7.1,0,18.8,1.6,18.8-6.8s-3-6.8-6.8-6.8h-38.3c-3.8,0-6.8,3.3-6.8,6.8h0Z"/>
    </g>
  </g>
</svg>