<?xml version="1.0" encoding="UTF-8"?>
<svg id="Layer_1" xmlns="http://www.w3.org/2000/svg" version="1.1" xmlns:xodm="http://www.corel.com/coreldraw/odm/2003" viewBox="0 0 384 372">
  <!-- Generator: Adobe Illustrator 30.1.0, SVG Export Plug-In . SVG Version: 2.1.1 Build 136)  -->
  <defs>
    <style>
      .st0 {
        fill: #fefefe;
        fill-rule: evenodd;
      }
    </style>
  </defs>
  <g id="Layer_x5F_1">
    <g id="_2703173660160">
      <path class="st0" d="M12,330h360v30H12v-30h0ZM384,324.5v41.5c0,3.6-2.4,6-6,6H6C2.4,372,0,369.6,0,366v-41c1-9,5-7,18-7-2.7-4.1-6-8.9-6-15.7v-66c0-9.3,3.2-18.5,6.5-25,4-8,6.8-11.9,12.8-17.9,21.6-21.6,40.9-19.3,67.7-19.3,0-6.3-.1-4.1-3.9-7.3-9-7.7-19.1-23.3-19.3-34.7-14.7,0-24.7-11.3-24.7-21.7v-33c0-15.9,6.8-31.9,15-43.5,3.9-5.5,3.9-4.6,6.5-7.7,3.6-4.4,7.9-8,12.7-11.3C101.6,3.4,114.8,0,135.7,0s44.5,11.8,56.1,26.4c2.5,3.1,2.8,2.6,6.4,7.8,17.7,25.7,14.7,44.2,14.7,75.3s-11.9,22.5-24.7,22.5c-.2,10.5-8.4,23.8-15.9,31.3-7.9,7.9-7.3,4.1-7.3,10.7,16,0,18.9-.7,34.1,1.2,4.4.6,4.3-1.2,8.7-1.2h141.7c11.6,0,22.5,10.9,22.5,22.5v111.7c0,3.3-1.8,7.5-3,9.7,10.6,0,14-1.3,15,6.5h0ZM126,288.7c7.7,1.8,13.6,4.1,19.3,9.9,3.9,3.9,9.3,12.5,9.9,19.3h-29.2v-29.2h0ZM345.7,318h-147.7v-117.7c0-9.4,4.8-14.2,14.2-14.2h133.5c9.2,0,14.2,5.1,14.2,14.2v103.5c0,9.2-5.1,14.2-14.2,14.2h0ZM162,300h24v18h-18c-1.8-7.7-2.7-11.7-6-18ZM186,195.7v92.2h-33c-1.2,0-4.9-3.1-6.4-4.1-6.5-4.3-14.9-7.9-23.6-7.9h-63c-8,0-8,12,0,12h54v30H43.5c-11.5,0-19.5-8-19.5-19.5v-55.5c0-33.5,23.5-57,57-57h18c.3,14.8,15.5,30,30.7,30s17.8-1.8,25.3-9.2c4.6-4.5,9.7-12.4,9.9-20.8h23.2c-.3,4-2.2,5.5-2.2,9.7h0ZM111,176.2c10.7,2.5,17.7,6.2,33.9,2.4l8.1-2.4c0,11.7-1.5,19.9-11,25-9.1,4.9-20.3,2.4-26.1-5.2-4.5-5.9-4.9-9.9-4.9-19.9h0ZM87,119.2v-23.2c27.7,0,44.8-5.6,65.8-21.2,2.3-1.7,4.2-3.7,6.2-5l13.7,17c1,1.4,4.3,4.9,4.3,6.2,0,23.5,3,44.7-12.5,60.9-26.2,27.5-77.4,13.1-77.4-34.7h0ZM189,120v-24c15,3.5,13.2,15.4,8.3,20.3-2.2,2.2-4.9,2.9-8.3,3.7ZM75,96v24c-14.3-3.3-13.7-14.6-8.4-20.4,2.1-2.3,5-2.8,8.4-3.6h0ZM63,87c0-20.4,5-39.3,18.9-53.1,42.6-42.1,100.7-16.7,114.1,22,3.6,10.5,5,17.2,5,31-5-2.7-7.4-3-15-3-1.9-2.9-3.6-4.8-5.8-7.7-3.2-4.2-16.2-22.3-19-22.3-9.9,0-10.5,13.8-41.1,24.8-26.9,9.7-43.8,1.1-57.1,8.1h0Z"/>
      <path class="st0" d="M279,234c14.5,0,24.5,18.7,12.6,30.6-16.6,16.6-41.7-8.7-25.2-25.2,2.4-2.4,8.1-5.4,12.6-5.4h0ZM249,249.7v4.5c0,13.8,13.9,27.7,27.7,27.7h4.5c13.8,0,27.7-13.9,27.7-27.7v-4.5c0-13.8-13.9-27.7-27.7-27.7h-4.5c-13.8,0-27.7,13.9-27.7,27.7Z"/>
    </g>
  </g>
</svg>