<?xml version="1.0" encoding="UTF-8"?>
<svg id="Layer_1" xmlns="http://www.w3.org/2000/svg" version="1.1" xmlns:xodm="http://www.corel.com/coreldraw/odm/2003" viewBox="0 0 372.1 372.1">
  <!-- Generator: Adobe Illustrator 30.1.0, SVG Export Plug-In . SVG Version: 2.1.1 Build 136)  -->
  <defs>
    <style>
      .st0 {
        fill: #fefefe;
        fill-rule: evenodd;
      }
    </style>
  </defs>
  <g id="Layer_x5F_1">
    <g id="_2703174987232">
      <path class="st0" d="M4.5,138.1c0,13.3,7.3,19.5,20.2,19.5s18.6-16.2,25.5-28.5c3.4-6.2,4.8-5,17.1-9.9,7.7-3.1,16.7-4.9,16.7-11,0-12.1-17.7-2.3-24.2.5-18.8,8.2-13.9,3.2-20.8,15.2-3.2,5.6-10.5,21.8-15,21.8s-7.5-2.6-7.5-6,15.9-29,18.7-33.8c2.1-3.6,1.5-3,5.5-5,5-2.4,9.3-4.6,14-7,9.2-4.6,18.6-9.4,29-13,6.6-2.3,9.5-3.6,16.3-.7,14.4,6.2,15,15.1,12.1,26.8-1.4,5.6-3.2,10.7-5.2,15.8l-9.3,22.2c-4.4,9.8-1,9,22.3,26.5l18.1,13.4c8.3,5.5,4,13.4,1.5,31.2-1,7.2-2,17.2-3.6,24.1h-11.2c0-5.5.3-9.1.7-13.5.4-4.8-.4-9.8.4-14.6.6-4.1.8-9.4.4-13.8-.4-5.4-3.7-5.9-8.3-6.6-16.4-2.7-33.1-6.5-45.7-12.8-10.5-5.3-12.8-6.9-11.5-16.7.7-4.9.6-8.2,1.4-12.9,1-5.6,7.3-19-2.8-19.5-4.5-.2-5.9,2.9-7.1,7.3-2.5,9.1-8,32.5-.4,41.9,1.8,2.3,3.8,4.2,6.1,5.9,4.5,3.2,10.4,6.2,16.2,8.6,8.4,3.4,29.7,9.4,39.3,10.2l-.8,18.7c0,3.2.2,6.6,0,9.8-.2,3.5-.8,4.6-.8,9-2.5.7-3.7,2.1-3.7,5.2v54c0,6,12,6,12,0v-48h36v32.2c0,7.9,12,7.9,12,0,0-50.2,4.3-44.2-19.5-44.2.3-3.6,1.1-7.7,1.7-11.8l3.5-24.3c2.6-18.5,3.3-20.4-12.2-32-4-3-29.3-22.7-32-23.5,7.6-15.9,16.5-37,16.5-54.7s-4.2-12.5-8.3-16.4c-.1-.1-.3-.3-.4-.4-18.8-17.5-33.4-10.9-54.8-1-9.4,4.3-32.1,14-37.1,22.1-4.3,7-20.8,33.3-20.8,39.9h0Z"/>
      <path class="st0" d="M342,42.1c0,5.2,10,13.2,11.2,18h-47.2v-30h45c-2.3,3.5-9,7.2-9,12h0ZM294,24.1v120c-9,0-18-1.8-18,6v96.7c0,6,12,7.7,12-.8v-90h36v38.2c0,7.9,12,7.9,12,0v-44.2c0-3.6-2.4-6-6-6h-24v-72h60c3.6,0,6-2.4,6-6s-12.2-17.9-15.7-23.2c4.6-6.8,15.7-13,15.7-18.7s-2.4-6-6-6h-66c-3.6,0-6,2.4-6,6h0Z"/>
      <path class="st0" d="M342,186.1c0,5.7,4,6,9.7,6-2.4,3.6-30.7,32.5-36.6,39.9-1.3,1.7-2.5,2.7-4,4.2-1.5,1.5-2.8,2.6-4.1,4.2-3.5,4.2-19.8,20.6-20.5,23l-28.8-5.7c-5.6-1.1-25.7-5.6-29.7-5.6s-19.2,13.5-23.1,16.6c-7.6,6.1-14.9,11.9-22.5,18-4.1,3.3-44.7,35.9-45.1,35.9-4.5,0-42.9-16.5-46.5-16.5s-19.1,7.2-23.8,9.2l-57.7,24.7C5.1,341.8,0,342.7,0,348.1c0,12.5,17.8,1.7,22.8-.4l48.3-20.7c5.1-2.1,10.4-4.5,15.7-6.8,4.8-2.1,8.5.4,16.8,3.7,5.4,2.1,30.8,12.2,34.3,12.2s4.8-1.8,6.5-3.2c25.7-21.2,53.3-42.2,79.1-63.3,7.9-6.4,3.2-5.3,20.3-1.9,5.1,1,9.2,1.8,14.4,2.9,5.6,1.1,25.7,5.6,29.7,5.6s10.9-9,14.4-12.6l39.7-42.7c1.6-1.6,3-2.9,4.5-4.5l13.3-14.4c0,12.6,12,9.2,12,2.2,0-27.6,3.6-24-24-24s-6,2.4-6,6h0Z"/>
      <path class="st0" d="M324,254.3v105.7h-36v-69.7c0-8.2-12-8.2-12,0v75.7c0,3.6,2.4,6,6,6h48c3.6,0,6-2.4,6-6v-111.7c0-6-12-6-12,0h0Z"/>
      <path class="st0" d="M240,282.8v77.2h-36v-52.5c0-6-12-6-12,0v58.5c0,3.6,2.4,6,6,6h48c3.6,0,6-2.4,6-6v-83.2c0-8-12-8-12,0Z"/>
      <path class="st0" d="M18,247.6c0,7.6,5.2,15.1,11.5,17.7,10.9,4.6,17.9-1.3,26.3-6.9,22.3-14.9,19.6-9.9,26.6-27.4,3.1-7.8,14.2-26.9,1.6-26.9s-7.3,7.3-10,14c-9.2,22.9-2.9,15-28.1,31.9-3.2,2.1-5.2,4.4-9.1,4.4s-6-2.7-6-6.7,14.2-17.6,17.8-21.2c4.8-4.8,4.6-6,6.8-12.7,1.5-4.6,4.6-11.7,4.6-16.4s-3.2-6.2-6.5-5.7c-6.1.9-6.8,9.3-9.2,16.3-3.8,11.5-8.5,13.2-17.2,22.6-4.6,5-9.2,10.2-9.2,17.1h0Z"/>
      <path class="st0" d="M108,30.1c0-13.7,12.5-19,20.8-17.9,10,1.3,15.2,14.3,15.2,24.6,0,20.5-28.5,23.4-34.5,1.5-.3-1.2-1.5-7-1.5-8.3ZM96,27.1c0,10.9,2,20.9,8.8,28,24.2,24.9,51.2,3,51.2-16s-.7-18.2-7.5-27.8c-16-22.4-52.5-8.7-52.5,15.8h0Z"/>
      <path class="st0" d="M192,198.1v58.5c0,6,12,6,12,0v-52.5h36v37.5c0,6,12,6,12,0v-43.5c0-3.6-2.4-6-6-6h-48c-3.6,0-6,2.4-6,6h0Z"/>
      <path class="st0" d="M126,113.4c0,5,3.1,6.5,6.2,9.6,4,4.1,4.5,3.2,11.8,3.2,9.3,0,24-2.2,24,6s-16.2,6-26.2,6-22.5-11.2-22.5,2.2,4.1,5.5,7.6,6.7c15,4.9,17.4,3.1,36.7,3.1s22.1-21.3,11.1-31.3c-7.6-6.8-18-4.4-30.6-4.6-8.4-.2-4.5-6.1-12.7-6.1s-5.2,3.2-5.2,5.2h0Z"/>
      <path class="st0" d="M156,337.6v22.5h-36c0-18,2.3-22.5-7.5-22.5s-4.5,2.7-4.5,4.5v24c0,3.6,2.4,6,6,6h48c3.6,0,6-2.4,6-6v-28.5c0-8-12-8-12,0h0Z"/>
      <path class="st0" d="M72,339.8v20.2h-36c-.7-8.6-12-7.3-12,0s-1.1,12,6,12h48c3.6,0,6-2.4,6-6v-26.2c0-8-12-8-12,0Z"/>
      <path class="st0" d="M24,294.1v21c0,8,12,8,12,0v-15h27.7c8,0,20.2,3.4,20.2-6s-2.4-6-6-6H30c-3.6,0-6,2.4-6,6h0Z"/>
    </g>
  </g>
</svg>