<?xml version="1.0" encoding="UTF-8"?>
<svg id="Layer_1" xmlns="http://www.w3.org/2000/svg" version="1.1" viewBox="0 0 39.8 39.8">
  <!-- Generator: Adobe Illustrator 30.1.0, SVG Export Plug-In . SVG Version: 2.1.1 Build 136)  -->
  <defs>
    <style>
      .st0, .st1 {
        fill: #fff;
      }

      .st1 {
        display: none;
      }
    </style>
  </defs>
  <path class="st1" d="M0,39.8V0h39.8v39.8H0ZM36.4,38c.9,0,1.6-.8,1.6-1.7v-11.5c0-.9-.7-1.6-1.7-1.6h-1.9c1.7-6,0-12.2-4.4-16.5-6.4-6.3-16.8-6.3-23.3,0s-6.7,17.3,0,23.9c3.7,3.6,8.9,5.2,14,4.5v1.3c0,.8.7,1.6,1.6,1.6h14Z"/>
  <path class="st0" d="M36.4,38h-14c-.9,0-1.6-.8-1.6-1.6v-1.3c-5.1.7-10.3-.9-14-4.5C0,23.9,0,13.2,6.8,6.6s16.8-6.3,23.3,0c4.4,4.3,6.1,10.5,4.4,16.5h1.9c.9,0,1.7.7,1.7,1.6v11.5c0,.9-.7,1.7-1.6,1.7ZM11.6,9.1c2,1,4.1,1.5,6.3,1.6V3.1c-.8,0-1.4.3-2.1.7-1.9,1.2-3.3,3.3-4.2,5.4ZM21,3.7c-.6-.3-1.3-.6-2-.7v7.6c2.2,0,4.3-.6,6.3-1.6-.9-2.1-2.3-4.2-4.2-5.4ZM10.6,8.6c.8-1.9,1.9-3.5,3.3-4.9-2.2.6-4,1.7-5.7,3.2.8.7,1.6,1.2,2.4,1.7ZM28.7,6.9c-1.7-1.5-3.6-2.5-5.7-3.1,1.5,1.4,2.5,3,3.3,4.9.9-.5,1.7-1.1,2.4-1.8ZM8.7,17.9c0-3,.5-5.7,1.5-8.3-1-.6-1.9-1.2-2.8-2-2.7,2.8-4.3,6.4-4.5,10.3h5.8ZM28.1,16.5v1.5c0,0,5.9,0,5.9,0-.1-3.9-1.7-7.5-4.5-10.3-.9.8-1.8,1.4-2.8,2l.6,1.7c1.4,0,2.5.9,2.7,2.1s-.6,2.5-1.9,3ZM17.9,18v-6.1c-2.4,0-4.6-.6-6.7-1.6-.9,2.5-1.3,5.1-1.4,7.8h8ZM27,16.5c-1.2-.2-1.9-1.1-2.1-2.1s.3-2.1,1.3-2.7l-.5-1.5c-2.1,1-4.3,1.5-6.7,1.6v6.1s8,0,8,0v-1.4ZM27.1,12.6c-.8.2-1.3,1-1.1,1.7s1,1.3,1.8,1.1,1.2-.9,1.1-1.7-.9-1.3-1.7-1.1ZM9.5,25.2c-1.3,0-2.2-1.1-2.4-2.2s.5-2.3,1.7-2.8v-1.1s-5.8,0-5.8,0c.1,3.9,1.7,7.6,4.5,10.4.9-.8,1.8-1.4,2.8-2l-.7-2.3ZM11.2,26.9c2.1-1,4.3-1.5,6.7-1.6v-6.2s-8,0-8,0v1c1.3.1,2.2,1.1,2.3,2.2s-.5,2.3-1.6,2.8l.6,1.9ZM25.4,23.6c.3-.3.8-.5,1.2-.5.2-1.3.3-2.6.4-4h-8s0,6.2,0,6.2c1.5,0,2.8.3,4.2.7l2.2-2.3ZM33.3,23.1c.4-1.4.6-2.6.7-4h-5.8c0,1.4-.2,2.7-.3,4h5.5ZM9.2,21.2c-.8.2-1.2,1.1-1,1.8s1,1.2,1.8,1,1.2-1,1-1.7-1-1.3-1.8-1.1ZM36.4,36.8c.3,0,.5-.2.5-.5v-11.6c0-.3-.2-.5-.5-.5h-9.6c-.2,0-.4,0-.5.1l-4.3,4.5v7.4c0,.3.2.5.5.5h13.8ZM15.8,33.3c.7.4,1.4.7,2.1.7v-7.6c-2.2,0-4.3.6-6.3,1.6.9,2.1,2.2,4.1,4.2,5.3ZM20.9,29.2c0-.5.1-.9.4-1.2l1-1.1c-1.1-.3-2.2-.4-3.3-.5v7.6c.7-.1,1.3-.3,1.9-.6v-4.2ZM14,33.4c-1.5-1.4-2.5-3-3.4-4.9-.9.5-1.7,1.1-2.4,1.7,1.7,1.5,3.6,2.6,5.8,3.2Z"/>
  <path class="st1" d="M36.4,36.8h-13.8c-.3,0-.5-.2-.5-.5v-7.4s4.3-4.5,4.3-4.5c.1-.1.4-.1.5-.1h9.6c.3,0,.5.2.5.5v11.6c0,.2-.2.5-.5.5ZM28.6,31.4v1.9c0,.3.3.6.6.6s.5-.2.5-.6v-3.6c0-1.3-.9-2.4-2.2-2.4s-2.3,1-2.3,2.3v3.7c0,.4.3.6.6.6s.5-.3.5-.6v-1.9s2.3,0,2.3,0ZM34.1,33.6c.4,0,.6-.3.6-.6s-.3-.5-.6-.5h-.4s0-3.8,0-3.8h.4c.4,0,.6-.3.6-.6s-.3-.5-.6-.5h-2c-.3,0-.6.3-.5.6s.2.5.5.5h.5s0,3.8,0,3.8c-.1,0-.3,0-.4,0-.4,0-.7.2-.6.6s.3.5.6.5h2Z"/>
  <path class="st1" d="M17.9,18h-8c0-2.6.5-5.2,1.4-7.8,2.1,1,4.3,1.5,6.7,1.6v6.1Z"/>
  <path class="st1" d="M8.7,17.9H2.9c.1-3.9,1.7-7.5,4.5-10.3.9.8,1.8,1.4,2.8,2-.9,2.6-1.4,5.3-1.5,8.3Z"/>
  <path class="st1" d="M25.4,23.6l-2.2,2.3c-1.4-.4-2.7-.6-4.2-.7v-6.2s8,0,8,0c0,1.4-.2,2.7-.4,4-.5,0-.9.2-1.2.5Z"/>
  <path class="st1" d="M27,16.5v1.4c0,0-8,0-8,0v-6.1c2.4,0,4.6-.6,6.7-1.6l.5,1.5c-1,.6-1.5,1.6-1.3,2.7s.9,1.9,2.1,2.1Z"/>
  <path class="st1" d="M11.2,26.9l-.6-1.9c1.1-.5,1.7-1.6,1.6-2.8s-1.1-2.1-2.3-2.2v-1s8,0,8,0v6.2c-2.4,0-4.6.6-6.7,1.6Z"/>
  <path class="st1" d="M9.5,25.2l.7,2.3c-1,.6-1.9,1.2-2.8,2-2.7-2.8-4.3-6.4-4.5-10.4h5.8s0,1.1,0,1.1c-1.2.5-1.8,1.6-1.7,2.8s1.1,2.1,2.4,2.2Z"/>
  <path class="st1" d="M28.1,16.5c1.3-.4,2.1-1.6,1.9-3s-1.3-2.2-2.7-2.1l-.6-1.7c1-.6,1.9-1.2,2.8-2,2.7,2.8,4.3,6.4,4.5,10.3h-5.8s0-1.4,0-1.4Z"/>
  <path class="st1" d="M11.6,9.1c.9-2.1,2.3-4.2,4.2-5.4.6-.4,1.3-.6,2.1-.7v7.6c-2.2,0-4.2-.6-6.3-1.6Z"/>
  <path class="st1" d="M15.8,33.3c-1.9-1.2-3.3-3.2-4.2-5.3,2-1,4.1-1.5,6.3-1.6v7.6c-.8,0-1.4-.4-2.1-.7Z"/>
  <path class="st1" d="M21,3.7c2,1.2,3.3,3.3,4.2,5.4-2,1-4,1.5-6.3,1.6V3.1c.8,0,1.4.3,2,.7Z"/>
  <path class="st1" d="M33.3,23.1h-5.5c.2-1.3.3-2.6.3-4h5.8c0,1.4-.3,2.6-.7,4Z"/>
  <path class="st1" d="M20.9,29.2v4.2c-.6.3-1.2.5-1.9.6v-7.6c1.2,0,2.3.2,3.3.5l-1,1.1c-.3.3-.4.7-.4,1.2Z"/>
  <path class="st1" d="M14,33.4c-2.1-.6-4.1-1.7-5.8-3.2.7-.7,1.5-1.2,2.4-1.7.8,1.9,1.9,3.6,3.4,4.9Z"/>
  <path class="st1" d="M10.6,8.6c-.9-.5-1.6-1-2.4-1.7,1.7-1.4,3.5-2.5,5.7-3.2-1.4,1.4-2.5,3-3.3,4.9Z"/>
  <path class="st1" d="M28.7,6.9c-.7.7-1.5,1.2-2.4,1.8-.8-1.8-1.8-3.5-3.3-4.9,2.2.6,4,1.7,5.7,3.1Z"/>
  <path class="st1" d="M9.2,21.2c.8-.2,1.6.3,1.8,1.1s-.3,1.5-1,1.7-1.6-.2-1.8-1,.2-1.6,1-1.8Z"/>
  <path class="st1" d="M27.1,12.6c.8-.2,1.6.4,1.7,1.1s-.3,1.5-1.1,1.7-1.6-.3-1.8-1.1.3-1.5,1.1-1.7Z"/>
  <path class="st0" d="M28.6,31.4h-2.3s0,1.9,0,1.9c0,.3-.2.6-.5.6s-.6-.2-.6-.6v-3.7c0-1.3,1-2.3,2.3-2.3s2.3,1.1,2.3,2.4v3.6c0,.3-.3.6-.5.6s-.6-.2-.6-.6v-1.9ZM28.6,30.3c0-.4,0-.7,0-1,0-.6-.6-1-1.2-1s-1.1.4-1.1,1v.9s2.3,0,2.3,0Z"/>
  <path class="st0" d="M34.1,33.6h-2c-.3,0-.6-.2-.6-.5s.2-.6.6-.6.3,0,.4,0v-3.8s-.5,0-.5,0c-.3,0-.5-.3-.5-.5s.2-.6.5-.6h2c.3,0,.6.2.6.5s-.2.6-.6.6h-.4s0,3.8,0,3.8h.4c.3,0,.6.2.6.6s-.2.6-.6.6Z"/>
  <path class="st1" d="M28.6,30.3h-2.3s0-.9,0-.9c0-.6.6-1,1.1-1s1.1.4,1.2,1,0,.6,0,1Z"/>
</svg>