<?xml version="1.0" encoding="UTF-8"?>
<svg id="Layer_1" xmlns="http://www.w3.org/2000/svg" version="1.1" xmlns:xodm="http://www.corel.com/coreldraw/odm/2003" viewBox="0 0 370.6 348">
  <!-- Generator: Adobe Illustrator 30.1.0, SVG Export Plug-In . SVG Version: 2.1.1 Build 136)  -->
  <defs>
    <style>
      .st0 {
        fill: #fefefe;
        fill-rule: evenodd;
      }
    </style>
  </defs>
  <g id="Layer_x5F_1">
    <path class="st0" d="M139.5,280.5c0-25.9,18-15,28.5-15s3.8-11.7,3.8-17.3c0-17.4-.9-122.7.4-128.6,3.2-15,22.7-12.1,24.3-.3,1.8,13.1-2.8,98,1.8,102.5s5.3,1.9,7.4.4c3.1-2.3,1.4-17.4,14.1-17.4s9.4,18,18,18,5-6.2,6.7-10.5c3.1-7.9,16.1-11.1,22.3-1.2,2.9,4.6-.2,11.7,7.8,11.7s1.8-18,17.3-18,11.9,5.1,12,12l.7,54.8c0,18.2-9.8,39.5-22.4,49.6-14.5,11.7-28.7,18.2-54.8,15.5-29.9-3-35.8-9.9-55.6-25.4l-14.9-12.1c-6.3-5-17.4-11.3-17.4-18.7h0ZM348.8,219c-12.6,0-16.1-21.8,1.5-21.8s9.8,7.4,9.8,10.5c0,5.7-5.6,11.3-11.3,11.3ZM10.5,208.5c0-13.9,21.8-16.6,21.8.8s-21.8,12-21.8-.8ZM313.5,114.8c0-14.5,21.8-13.7,21.8,0s-21.8,15.1-21.8,0ZM35.3,114.8c0-10.7,13.5-13.7,19.2-7.2,5.4,6.1,2.1,18-7.9,18.1-5.7,0-11.3-4.7-11.3-10.9ZM161.3,141.8c-8.1-5.4-12-17.6-12-28.5,0-19,15.6-34.5,37.5-34.5s34.5,16.2,34.5,34.5-1.7,16.1-8.2,24.8c-1.4,1.9-2.6,3.8-5.3,4.5,0-10.7,1.3-23.8-2.5-31.3-8.7-17.4-33.1-17-41.8-.2-3.4,6.7-2.3,22.3-2.3,30.7h0ZM123,64.5l11.8-12.2c8.4,5.8,8,6.9,19.7,6.9s21.8-9.4,21.8-24h18c0,14.7,10.5,24,25.5,24s11.2-3.7,15.8-6.8l12.2,11.8c-5.8,8.4-6.9,8-6.9,19.7s9.4,21.8,24,21.8v18c-14.6,0-24,10.6-24,25.5s3.7,11.2,6.8,15.8l-11.8,12.2c-7.4-5.1-8.4-6.9-18.2-6.9s-7.4,1.1-9.8,2.3v-16.5c14.6-7.7,24.8-23.8,24.8-41.3,0-25.7-21.5-47.3-47.3-47.3s-47.3,21.5-47.3,47.3,11.4,34.2,23.3,40.5v16.5c-13.1-3-15.5-2-26.3,5.3l-12.2-11.8c5.8-8.4,6.9-8,6.9-19.7s-9.7-21.8-24-21.8v-18c14.7,0,24-10.5,24-25.5s-3.7-11.2-6.8-15.8h0ZM350.3,32.3c-8.7,0-12-3.9-12-12s11.5-13,18.2-6.2c6.7,6.7,2,18.2-6.2,18.2h0ZM10.5,21.8c0-13.5,21.8-15.5,21.8,0s-13,13.4-18.6,7.3c-1.3-1.4-3.2-5-3.2-7.3ZM0,19.5C0,39,16.6,48.8,32.3,40.5c5.5,3.7,23.6,23.1,29.4,29.1,3.6,3.7,3.3,4,10.3,4h44.3c2,3.7,3.5,6.3,2.3,11.2-4.2,17.3-24,2.7-24,24.8h-25.5c-2.8,0-2.9-5.9-8.4-11.1-12.7-11.8-35.8-2.7-35.8,14.1s1.4,13.6,6.6,18.2c12,10.6,32.3,6.1,36.2-10.7h27c0,22,18.7,7.7,23.7,23.6,1.1,3.4,1,5.1,0,8.4-1.2,4.2-2.1,4.1-7.2,4.1-7.6,0-38.8-1-44.1.1-3.8.8-19,17.6-22.8,21.4s-8.8,8.1-11.1,11.4c-3.6-.8-6.5-3-11.3-3C7.5,186,0,197.1,0,210s9.9,19.5,19.5,19.5,14-1.6,18.1-6.6c6.2-7.4,7.5-16.8,2.9-25.6,3.5-5.2,22.2-22.6,28.3-28.7,3.8-3.8,12.1-2,17.5-2h25.5c1.4,6.1,16.1,21.8,22.5,21.8,11.1,0,12.6-13.4,27-3.8v69c-12.2-5.8-33,2.9-33,25.5s8.8,18.8,17.9,25.6c4.3,3.2,7.9,6.4,12,9.8,30.2,24.6,41.3,33.6,84.1,33.6s34.7-8.7,45.1-17.1c10.9-8.8,20.1-22.4,24.7-37.5,5.1-16.4,2.9-36.6,2.9-57.9s1.2-21.4-2.6-28.9c-5.8-11.2-20.8-15.9-32.2-9.6-3.1,1.7-4.1,3.2-6.5,4.8-2.4-1.6-3.4-3-6.5-4.8-6.4-3.6-16.1-3.8-22.5-.3-2.9,1.6-4.3,3.9-7,5.8-4.7-7-11.8-8.3-20.3-8.3s-6,2.1-9.8,3c0-3.7-.8-9.4.9-11.9,1.5-2.2,5-3.8,8.5-4.3,8.6-1.2,11.9,7.1,19.1,7.1s21.1-15.6,22.5-21.8c12.7,0,25.7-.7,38.3,0,4.2.2,4.9,2.4,7.6,5.1,5.8,5.8,21.5,20,25.3,25.7-7.7,14.6,2.3,32.3,16.5,32.3h4.5c11.1,0,19.5-10.2,19.5-22.5s-10.1-21-21-21-7.8,2-12,3c-2.4-3.6-30.7-31.9-33.3-32.7-4.5-1.3-36.9-.4-44-.3-5.2,0-6.4.8-7.8-3.4-1.9-5.8,0-11.2,4.2-15.2,7.9-7.5,19.4,1.9,19.4-17.4h27c3.9,16.8,24.2,21.3,36.2,10.7,14.4-12.8,4.4-37.7-15.2-37.7s-19,8-21,16.5h-27c0-5.2-1-10.4-5.2-12.8-7.1-4-15.3.6-18.6-11.4-1.5-5.3,0-7.9,2.1-11.8h43.5c7.6,0,7.1,0,11.1-3.9,5.8-6,24-25.4,29.4-29.1,15.7,8.3,32.3-1.6,32.3-21S360.5,0,348,0s-25.3,18.5-18,32.3c-3.8,5.7-19.5,19.8-25.3,25.7-1.2,1.2-1.8,1.9-2.9,3.1-3.8,3.8-12.1,2-17.5,2h-25.5c-1.5-6.5-16.1-21.8-23.3-21.8s-13.8,13.8-25.8,4.1c-8.3-6.8-1.2-21.3-16.2-21.3s-24-2.8-27.2,7.4c-1.3,4.2-.7,8.6-3.7,12.1-.9,1.1-.6.7-1.5,1.5-11.6,10.3-18.1-3.7-26.2-3.7s-21.7,15.2-23.3,21.8c-12.7,0-25.7.7-38.3,0-4.2-.2-4.9-2.4-7.6-5.1-5.8-5.8-21.5-20-25.3-25.7C48.8,16.6,39.2,0,19.5,0S0,10.1,0,19.5H0Z"/>
  </g>
</svg>