<?xml version="1.0" encoding="UTF-8"?>
<svg id="Layer_1" xmlns="http://www.w3.org/2000/svg" version="1.1" xmlns:xodm="http://www.corel.com/coreldraw/odm/2003" viewBox="0 0 372 372">
  <!-- Generator: Adobe Illustrator 30.1.0, SVG Export Plug-In . SVG Version: 2.1.1 Build 136)  -->
  <defs>
    <style>
      .st0 {
        fill: #fefefe;
        fill-rule: evenodd;
      }
    </style>
  </defs>
  <g id="Layer_x5F_1">
    <g id="_2702697890224">
      <path class="st0" d="M198.7,335.3h-6.7v-71.2h12v70.5c-2.3.2-2.7.7-5.2.7ZM168,240.1h12v95.2h-6.7c-2.6,0-2.9-.6-5.2-.7v-94.5h0ZM216,333.1v-45h12v42c-2.2.2-10.5,2.3-12,3h0ZM144,288.1h12v45c-1.5-.7-9.8-2.8-12-3v-42ZM156,234.1v42c-29.5,0-24-7.9-24,49.5-9.1-2.1-41-20.7-47.2-30l101.1-100.7,101.2,100.9c-2.7,4.2-16,13.9-21,16.8-6.1,3.6-19.1,11.4-26,13v-41.3c0-10.7-5.3-8.2-24-8.2,0-27.6,3.6-24-24-24,0-28.4,4.6-24-30-24s-6,2.4-6,6h0ZM200.8,192.3l134.4-.2c0,26.7-8.3,46.8-18.5,67-3.7,7.2-15.9,24.7-21.3,28.2l-94.7-95.1ZM12,192.1h12c0,10.5,2.3,25,4.6,33.6,4.9,18,13.4,38.5,24.5,53.5,2.9,3.9,5.4,7.3,8.5,11,15.3,17.5,33.6,32.8,54.8,42.7,41.7,19.3,88.9,20.6,131.6,3.2,2.4-1,4.1-1.9,6.7-3,6.6-2.7,12.7-6.8,18.8-10.4,11.7-7,27.5-21.5,36.3-32,3.2-3.8,5.6-6.9,8.6-10.9,2.9-3.9,5-7.7,7.6-11.9,12.4-20.5,21.9-51.5,21.9-75.6h11.2c0,34.9-14.1,71.5-33.1,96.6-26.2,34.7-60.1,57.2-103.1,67.1-6.1,1.4-11.6,2-18.2,2.8l-20.4,1.4c-24.8-.9-46.5-6-69.3-15.5-17.8-7.4-37.5-21.2-50.9-34.6C9.7,255.4,14.2,196.6,12,192.1h0ZM76.5,287.3c-9.1-6.1-23.5-31.1-28.2-42.3-14-33.7-16.4-70.3-4.7-105.3,4.5-13.4,9.8-24.7,17.6-36.4,12-18,27.1-33,45.6-44.4,21.9-13.4,47.1-22.1,73.2-22.1v145.5c0,2.9-48.6,49.8-51.6,52.7-4.1,4.1-49.7,49-51.9,52.3h0ZM192,12.1c1.5.7,16.1,1.5,19,2,12.1,2,22.4,4.4,33.6,8.4,61.9,22.2,102.5,73.8,113.4,138.6.5,2.8,1.3,17.4,2,19h-168V12.1h0ZM180,6.1v18c-30.3,0-65.3,13.5-87.4,29.6l-16.3,13c-1.8,1.8-3.1,3.1-4.9,4.9-1.8,1.8-3.1,3-4.9,4.9l-13,16.3c-16.1,22.1-29.6,57.1-29.6,87.4C-.7,180.1,0,177.9,0,192.8,0,228.6,15.2,267,33.8,293.3l20.4,24.6,11.5,10.2c4.5,3.5,8,6.5,12.6,9.9,25.9,18.7,65.5,34.1,100.9,34.1s58.1-4.1,85-17c10.4-5,19.4-10.1,28.5-16.5,4.6-3.2,23-18.1,27-23.2,2.4-3.1,5-4.8,8.3-9,12.9-16.5,15.4-18.9,26.4-41.1,8.5-16.9,17.5-47.5,17.5-72.5v-13.5c0-35.7-15.2-74.2-33.7-100.5l-20.4-24.6C286.2,23.3,238.8,0,192.7,0s-12.7-1.3-12.7,6h0Z"/>
      <path class="st0" d="M216,114.1c0-11.3,5.3-22.2,12.6-29.4,22.5-22.5,57.3-11.7,67.6,12.3,18.2,42.5-34.9,79.1-67.6,46.6-7.4-7.3-12.6-18.6-12.6-29.4h0ZM204,110.3c0,14.9,1.4,22.5,9.6,34.7,1.2,1.9,1.6,2.2,2.9,3.8,4.9,6,11,10.8,18.1,14.1,27.5,12.6,58.1,1.9,72-24.9,9.6-18.5,6.3-42.1-7.2-58.7-4.1-5.1-4.1-4.9-9.7-9.1-22-16.9-56.4-12.2-73,8.7-1.2,1.5-1.4,1.6-2.7,3.3-1.9,2.7-3.5,5.3-4.8,7.9-2.5,5.2-5.4,12.8-5.4,20.1h0Z"/>
      <path class="st0" d="M126,168.1v-12c2.8.7,6,2.9,6,6s-3.2,5.3-6,6ZM108,138.1c0-3.1,3.2-5.3,6-6v12c-2.8-.7-6-2.9-6-6ZM114,120.1c-24,0-24,36,0,36v12c-3.6-.8-5.2-2.4-6-6h-12c0,10.4,7.6,18,18,18v6h12v-6c24,0,24-36,0-36v-12c3.6.8,5.2,2.4,6,6h12c0-10.4-7.6-18-18-18v-6h-12v6Z"/>
      <path class="st0" d="M264,132.1v-12c2.8.7,6,2.9,6,6s-3.2,5.3-6,6ZM246,102.1c0-3.1,3.2-5.3,6-6v12c-2.8-.7-6-2.9-6-6ZM252,84.1c-24,0-24,36,0,36v12c-3.6-.8-5.2-2.4-6-6h-12c0,10.4,7.6,18,18,18v6h12v-6c18.6,0,22.9-22,12.6-31.3-3-2.7-7-4.7-12.6-4.7v-12c3.6.8,5.2,2.4,6,6h12c0-10.4-7.6-18-18-18v-6h-12v6h0Z"/>
    </g>
  </g>
</svg>