<?xml version="1.0" encoding="UTF-8"?>
<svg id="Layer_1" xmlns="http://www.w3.org/2000/svg" version="1.1" xmlns:xodm="http://www.corel.com/coreldraw/odm/2003" viewBox="0 0 360 312">
  <!-- Generator: Adobe Illustrator 30.1.0, SVG Export Plug-In . SVG Version: 2.1.1 Build 136)  -->
  <defs>
    <style>
      .st0 {
        fill: #fefefe;
        fill-rule: evenodd;
      }
    </style>
  </defs>
  <g id="Layer_x5F_1">
    <g id="_2703174576624">
      <path class="st0" d="M90,90c0-7.8,2.9-18.9,5.5-24.5,6.4-13.6,16.4-23.6,30-30,15-7,33.6-7.2,49,0,47,21.9,47,87,0,109-11,5.2-25,6.9-37.8,3.8-11.2-2.7-20.9-8.2-28.9-16.1-10.8-10.8-17.8-26.5-17.8-42.2ZM312,6c0,8.5,13.3,6,27,6-2.3,3.5-65.3,65.7-73.3,73.7-13.6,13.6-4.1,10.3-43.7,10.3,0-18.7-1.9-32.3-13.1-47.7-12.4-17.1-33.2-30.3-55.2-30.3s-22.4.8-34.5,6.7c-7.5,3.7-14.3,8.5-20.4,14.1-1.8,1.6-2.1,2.6-3.7,4.5-9.4,10.5-17.1,28.1-17.1,42.9s.4,20,5.8,32.5c5.9,13.6,16.4,25.6,29,33.2,4.5,2.7,16.6,8.4,22.9,8.6-.9,3.4-16.9,17.9-20.4,21.6-4.2,4.2-2.4,4-10.3,3.9-9.5-.1-19,0-28.5,0-16,0-12.3-.8-20.8,7.7L5.8,243.5C3.6,245.7,0,248.1,0,252s2.4,6,6,6,19.9-17.3,23.8-21.2l34.1-34.1c6.2-6.3,3.8-4.7,17.8-4.7,7.5,0,15,0,22.5,0,12.8,0,10.9,1.5,17.8-5.4l28.1-28.2c3.6-3.7,2.6-1.9,8.5-2.7,12.1-1.7,23.6-6,33-12.8,8.5-6.1,16.8-14.8,21.6-24.2,2-3.9,6.1-12,6.5-16.8h26.2c15,0,12.8,1.8,20.8-6.2l81.2-80.8c0,13.7-2.5,27,6,27s6-2.4,6-6V6C360,2.4,357.6,0,354,0h-36c-3.6,0-6,2.4-6,6h0Z"/>
      <path class="st0" d="M324,84h24v216h-24V84h0ZM312,78v228c0,3.6,2.4,6,6,6h36c3.6,0,6-2.4,6-6V78c0-3.6-2.4-6-6-6h-36c-3.6,0-6,2.4-6,6Z"/>
      <path class="st0" d="M264,132h24v168h-24v-168ZM252,126v180c0,3.6,2.4,6,6,6h36c3.6,0,6-2.4,6-6V126c0-3.6-2.4-6-6-6h-36c-3.6,0-6,2.4-6,6Z"/>
      <path class="st0" d="M204,174h24v126h-24v-126h0ZM192,168v138c0,3.6,2.4,6,6,6h36c3.6,0,6-2.4,6-6v-138c0-3.6-2.4-6-6-6h-36c-3.6,0-6,2.4-6,6h0Z"/>
      <path class="st0" d="M144,222h24v78h-24v-78ZM132,216v90c0,3.6,2.4,6,6,6h36c3.6,0,6-2.4,6-6v-90c0-3.6-2.4-6-6-6h-36c-3.6,0-6,2.4-6,6h0Z"/>
      <path class="st0" d="M84,246h24v54h-24v-54ZM72,240v66c0,3.6,2.4,6,6,6h36c3.6,0,6-2.4,6-6v-66c0-3.6-2.4-6-6-6h-36c-3.6,0-6,2.4-6,6h0Z"/>
      <path class="st0" d="M24,276h24v24h-24v-24ZM12,270v36c0,3.6,2.4,6,6,6h36c3.6,0,6-2.4,6-6v-36c0-3.6-2.4-6-6-6H18c-3.6,0-6,2.4-6,6Z"/>
      <path class="st0" d="M144,60.7c-3,1.6-5.8,2.7-8,5.5-6.9,9-5.1,21.7,5,27.5,5.8,3.3,15,1.2,15,8.3s-9,6-12,6c-6.5,0-12-.5-12,6s7.1,6,12,6c0,4.9-1.1,12,6,12s6-6,6-12.7c8.3-4.4,12-7.8,12-18.7s-4.7-11.8-9-14.2c-5.8-3.3-15-1.2-15-8.3s9-6,12-6c6.5,0,12,.5,12-6s-7.1-6-12-6c0-4.9,1.1-12-6-12s-6,6-6,12.7h0Z"/>
    </g>
  </g>
</svg>