<?xml version="1.0" encoding="UTF-8"?>
<svg id="Layer_1" xmlns="http://www.w3.org/2000/svg" version="1.1" xmlns:xodm="http://www.corel.com/coreldraw/odm/2003" viewBox="0 0 496 352.6">
  <!-- Generator: Adobe Illustrator 30.1.0, SVG Export Plug-In . SVG Version: 2.1.1 Build 136)  -->
  <defs>
    <style>
      .st0 {
        fill: #fefefe;
        fill-rule: evenodd;
      }
    </style>
  </defs>
  <g id="Layer_x5F_1">
    <g id="_2703177686656">
      <path class="st0" d="M129.8,327.4c0-40.1-3.9-72,21.9-106,2.4-3.1,3.8-5.4,6.5-8.1l6.7-6.9c.1-.1.4-.3.5-.5,23.9-22.1,49.4-33.5,84.6-33.5s52.7,10.6,73.2,26.6c6.1,4.7,16.2,15.5,20.7,21.9,26.4,37.4,22.3,62.5,22.3,107.5s-4.5,7.8-9.7,7.8h-217c-4.9,0-9.7-3.5-9.7-8.7h0ZM496,272.7v28.6c0,11.2-10.8,19.4-22.3,19.4h-91.1v8.7c0,12.4-13.3,23.3-26.2,23.3h-217c-13.3,0-26.2-9.9-26.2-26.2H21.3C10,326.5,0,318.2,0,307.1v-32.9C0,251.3,13.3,224.7,28.8,210l12.9-10.4c5-3.5,9-5.5,14.8-8.4,21.5-10.8,50-11.9,73.2-4.1,8.6,2.9,13.1,5.7,20.5,9.6,3-2,6.7-5.3,9.4-8,2.4-2.3,6.4-5.5,9.1-7.3,11.7-7.9,9.2-6.2,21.5-12.4,41.9-21.1,94.8-15.8,133.6,10.1,8.1,5.4,14.6,12,17.2,13.8,6.1-1.4,23.6-16,50.4-16.5,3.3,0,5.6-.3,7.3-.2,17,.7,30.8,2.9,46.3,11.6,14.4,8,25.9,18.5,35,31.9,12.6,18.5,15.5,34.8,16.1,53.2h0ZM113.3,281.9v28.1H20.3c-2.3,0-3.9-1.6-3.9-3.9,0-27.6-2.6-50.1,14.8-73.4,23.9-31.9,62.2-42.5,99.7-27.5,3.4,1.4,5.8,3.3,8.6,4l-9.3,14.9c-8.8,14.9-16.9,39.3-16.9,57.7h0ZM353.6,205.4c22.9-15.3,55.1-16.7,80.4-4.8,25.5,11.9,45.5,40.9,45.5,69.8v30c0,3-2.8,3.9-5.8,3.9h-91.1c0-26,.8-39.3-9.3-64.4-8.2-20.6-14.1-23.6-19.8-34.5h0Z"/>
      <path class="st0" d="M245.1,130.8c-29.8,0-57.2-26.1-57.2-52.3s3.3-32.4,18.1-46.8c35.4-34.1,97.1-7.1,97.1,41.9s-7.1,29.9-17.2,40c-4.5,4.5-11.1,9.5-17.1,12-6,2.4-16.1,5.2-23.8,5.2h0ZM171.5,67.8c0,25.1,3.8,41,23,59.4l9.7,7.7c30.8,19.3,68.3,15.7,93-9.2,6.5-6.6,11.3-12.4,15.4-21.4C335.9,53.9,297.3,0,245.1,0s-40,9.4-50.6,20.1c-6.9,6.9-10.3,11.1-15.2,19.7-3.3,5.7-7.8,19.1-7.8,28.1h0Z"/>
      <path class="st0" d="M356.5,107.5c0-22.8,18.1-40.7,43.6-40.7s38.8,18.6,38.8,37.8-2.7,22.9-12.3,32.2c-15.9,15.4-41.7,14.8-57.3-.4l-1-1c-7.2-7.5-11.7-16.7-11.7-28h0ZM340,107.5c0,9.5,2.1,16.2,5.1,23,2.8,6.3,6.7,11.8,11.2,16.9,4.4,4.9,10.8,8.7,16.6,11.5,40.4,19.9,82.4-13.7,82.4-47.5s-3.2-30.8-16.7-44.3c-20.1-20.1-52.5-22.5-74.9-5.6-14.7,11.1-23.7,26.9-23.7,46.1h0Z"/>
      <path class="st0" d="M98.8,152.1c-23.1,0-41.7-18.2-41.7-37.8s2.3-22.7,12.3-32.2c18.6-17.8,52-15.8,66.2,12.8,12.7,25.6-7.5,57.2-36.8,57.2h0ZM40.7,107.5c0,19.5,3.2,30.8,16.7,44.3,25.2,25.2,67.5,21.7,88.3-8.1,2.2-3.2,3.9-5.8,5.3-9.2,8.4-20.8,6.1-41.8-7.9-58.8-27.5-33.4-78-26.8-96.7,10.4-3,6-5.8,12.3-5.8,21.3Z"/>
    </g>
  </g>
</svg>