<?xml version="1.0" encoding="UTF-8"?>
<svg id="Layer_1" xmlns="http://www.w3.org/2000/svg" version="1.1" xmlns:xodm="http://www.corel.com/coreldraw/odm/2003" viewBox="0 0 371.9 372">
  <!-- Generator: Adobe Illustrator 30.1.0, SVG Export Plug-In . SVG Version: 2.1.1 Build 136)  -->
  <defs>
    <style>
      .st0 {
        fill: #fefefe;
        fill-rule: evenodd;
      }
    </style>
  </defs>
  <g id="Layer_x5F_1">
    <g id="_2703171947680">
      <path class="st0" d="M129.7,312.6c1.6-2.4,5.3-5.3,7.4-6.7l27.1,26.7c-1.9,2.8-4.8,5-7.4,6.7,0,0-27.1-26.7-27.1-26.7ZM124.8,372h-4.4c-8.1-.4-16-3.1-22.3-8.2-6-4.9-10.3-9.5-15.7-14.9-12.1-12.1-69.1-67.6-75.5-77-8.7-12.8-9-28.4-2-42.3,4.4-8.8,30.2-34.4,34.3-37.2l44.9,45.2c-3.4,2.3-9.9,9.5-13.3,12.9-6.5,6.5-12.2,9.4-12.2,15.4s20.2,21.5,21.8,22.5c1.5-3.2,2.4-6.9,4.1-10.4,3.1-6.4,3.1-6.3,7.3-10.9.2-.2,1-1.1,1-1.2,3.8-3.9,8.8-7.5,13.8-9.4,4.4-1.7,41.5-9.4,48.6-9.5-.1-5.5-2-3.2-8.9-9.3-10.7-9.5-16.7-19.3-20.2-34.3-8.8-.7-18.9-11.6-18.9-21.1v-48.7c0-15,7.2-31.4,15.3-42.1,3.2-4.2,5.2-6.2,8.9-10,28.8-29.1,78.9-29.3,108.6.7,8,8,10.8,12.4,15.9,22.6,4,8,7.5,19.5,7.5,31v74.1c0,7.6-4,12.7-9,15.7-5.7,3.4-12.9,2.5-21.5,2.5-2.4,4.5-12.3,14.1-17.4,15.3v3.6l35.2,6.2c6.6,1.2,10.8,2,15.9,4.5,25.3,12.2,25.6,46,35.4,66.3l-128.8.2,8.9,8.5-21.6,20.5c-4.5,3.9-12.5,11.3-16.4,13.4-6,3.2-12.7,5-19.4,5.3h0ZM90.7,298.7c0-3.7,5.6-16.8,7.4-19.5,8.4-12.8,22.6-13.6,38.3-16.2,3.6-.6,7.8-1.4,11.7-2.1,3.1-.6,8.6-1.9,11.7-2.1l25.6,26,26.2-25.8,26.3,4.6c9.8,1.8,17.8,2.4,25.4,6.6,7,3.8,11,9.5,13.7,17.6l7.9,24.1h-116.3c-10.6,0-6.9.7-19.8-12.2-3.1-3.1-8.6-7.9-10.7-11.1-1.5,1-1.4,1.2-2.7,2.3l-8.9,7.8c-12.3,9.4-15.8,20.5-24.5,11.5l-11.1-11.5h0ZM168.2,250.1c6.2.3,6.2,2,19.1,2s10-1.7,15.3-2.2l-17.3,17.6-17.1-17.4h0ZM23.8,224.5l27.8,27.4c-1.7,2.4-2.6,2.5-3.8,5.2-2.8,6.3-1.6,13.7,2.6,19.2,2.4,3.2,4.7,5.1,7.4,7.8,5.3,5.3,10,10,15.3,15.3,5.3,5.3,10,10,15.3,15.3,7.2,7.2,13.8,14.7,26.3,9.9,2.6-1,3.3-2.2,5.9-3.6l27.1,26.7c-2.1,3-6.6,6.4-9.6,8.2-8.1,4.7-19.8,5-28.1.5-9.3-5-49.3-47-57.4-55.2l-31.9-32c-8.9-10.5-10.3-23.1-3.9-35.4,1.8-3.5,5.1-6.2,7.3-9.4h0ZM33.1,216l5.8-6.2,27.2,26.9-5.8,6.2-27.2-26.9ZM241.1,215.8c.2-2.7.6-2.5,1.3-4.5,2.1-5.9-.7-7.8,8.8-10.1,0,3.7.6,9.2-.7,11.7-1.6,3.2-4.8,2.9-9.5,2.9h0ZM227.3,215.8h-42.1v12.4h31.2c-23.3,20.3-59.5,13.2-73.4-14.5-2.3-4.7-5.1-11.2-5.1-18.2v-33.4c8.2-.2,21.2-4.4,26.9-7.3,14.5-7.2,14.5-9.9,20.3-13.8,10.1,6.7,5.5,6,20.6,13.6,6.4,3.2,18.4,7.3,27.4,7.5,0,11.3,1.1,33.7-1.7,43.3-1.1,3.9-3.3,7.2-4.1,10.5h0ZM119.7,180.2c0-5.2,2-7.6,5.8-10.2v19.6c-3.7-1-5.8-4.8-5.8-9.4h0ZM245.4,189.7v-19.6c2.7,1.8,5.8,5,5.8,9.4s-2.1,9.2-5.8,10.2h0ZM134.3,149.7h-8.7c0,7,.9,7.2-5.8,8.7,0-26.5-1.8-40.2,14.5-61.8,8.9-11.8,27.2-22.4,42.3-23.9,9.5-.9,16-1.2,25.8,1.6,23.5,6.7,41.7,24.8,47.1,48.1,2.6,11.1,1.9,23.4,1.9,36.6-2-1-3.1-2-5.8-2.2v-7.3c-16.5,0-24-.6-38.3-8.2-6.2-3.3-17.8-12.6-21.3-17.9-7.8,5.2-22.2,26.2-51.6,26.2h0Z"/>
      <path class="st0" d="M296.3,95.2c0-7.7,3-15.8,3.6-23.3-7,0-14,0-21.1,0-7.6,0-15.3,1.1-15.3-6.5V18.2c0-3.5,2.3-5.8,5.8-5.8h84.3c4.4,0,5.8,3.7,5.8,8v43.6c0,13.9-17.7,5.3-26.5,8.4l-36.7,22.9h0ZM251.3,18.2v48.7c0,7.2,5.1,12.7,10,15.4,5.6,3,15.8,2,24.1,2-1.4,2.9-5,32.4-6.5,35.6,2.8-.2,3.9-1.7,5.8-2.9l45.6-28.5c13.2-8.3,8.6-3.1,24.1-4.2,10-.7,17.5-8.8,17.5-19.6V20.3c0-6.4-1.7-10.2-4.3-13.8C365.5,3.6,360.1,0,355.2,0h-87.2c-8.4,0-16.7,7.9-16.7,18.2h0Z"/>
      <path class="st0" d="M22.4,146.8c-2.3-1.5-10-15-11.6-18.2-3.5,1.9-6.5,3.9-10.2,5.8.3,3.1,19.5,34.4,21.1,35.6,2.8-.7,31.5-19.4,34.9-20.3-.6-2.4-4.1-7.7-5.8-10.9-2.3.6-5.8,3.1-8,4.4-2.1,1.3-5.5,3.7-8,4.3,1.1-13.4,16.8-42.5,25.9-54.7,2.6-3.4,5.1-6.1,7.5-9.2,13.2-17.2,36.6-32.1,56.9-41.2,29.1-13,65.6-15.1,97.4-7.8,3.5.8,5.8,1.7,9.1,2.5,1.4-3,2.8-8,3.6-11.6-6.8-3.3-27.8-6.5-36.4-7.2-36.7-3-75.5,7.3-103.9,26.1-28.9,19.2-45.7,38.3-61.3,69.5-3.5,7-11.2,25.3-11.4,32.9h0Z"/>
      <path class="st0" d="M345.7,133.7c4.1,1.1,12.6,8.3,17.4,9.4,1-4.4,4.7-6.4,5.1-10.9-4.1-2.2-32.3-20.1-35.6-20.3-.6,2.6-8.1,14.4-10,17.6-2,3.3-9.7,15.4-10.3,18,3.7,1,7.2,4.8,10.9,5.8.5-2.3,8.3-15.3,10.2-16.7.7,2.9,1.7,5.9,2.6,9,10,35.2,5.3,77-10.8,109.2-2.8,5.6-5.3,10.4-8.6,15.4-1.7,2.5-2.9,4.4-4.6,7-1.8,2.6-3.9,4.7-5.4,7,.8,1.1,3,2.7,4.3,3.7,1.7,1.4,3,3,5.2,3.5,2.6-1.8,9.1-11.3,11-14.4,3.5-5.6,6-10.2,9.1-16.4,6-11.9,10-23,13.5-37.4,6.2-26.1,5.5-52.5-1.2-79.1-.9-3.6-2.3-7-2.6-10.5h0Z"/>
      <polygon class="st0" points="275.2 36.3 347.9 36.3 347.9 24 275.2 24 275.2 36.3"/>
      <polygon class="st0" points="275.2 60.3 323.9 60.3 323.9 48 275.2 48 275.2 60.3"/>
      <polygon class="st0" points="335.5 60.3 347.9 60.3 347.9 48 335.5 48 335.5 60.3"/>
    </g>
  </g>
</svg>