<?xml version="1.0" encoding="UTF-8"?>
<svg id="Layer_1" xmlns="http://www.w3.org/2000/svg" version="1.1" xmlns:xodm="http://www.corel.com/coreldraw/odm/2003" viewBox="0 0 49.2 47.9">
  <!-- Generator: Adobe Illustrator 30.1.0, SVG Export Plug-In . SVG Version: 2.1.1 Build 136)  -->
  <defs>
    <style>
      .st0 {
        fill: #fefefe;
        fill-rule: evenodd;
      }
    </style>
  </defs>
  <g id="Layer_x5F_1">
    <g id="_2703173794096">
      <path class="st0" d="M2.7,23.3c-1.5,0-1.8-2.2,0-2.2s1.3,2.2,0,2.2ZM45.7,12.7c0-1.4,2.3-1.4,2.3,0s-2.3,1.4-2.3,0ZM17.1.8v4c-2.2,0-1.6-.2-3.3,1.5-1.9,1.9-1.5,1-1.5,6.3-1.3,0-3-.2-3.4.3-.2.3-.2.9.9.9h2.5v3.3h-5.3c-.6,0-1.4,1.1-1.8,1.5-.5.5-1.3,1-1.7,1.6-3.1-1.5-5,3.9-1.2,4.4,1.3.2,2.5-1.1,2.5-1.9,0-1.5-.1-.9-.3-1.8.5-.3,2.3-2.5,2.7-2.5h5.1v6.4c0,.6,2.6,3.3,3.4,3.3,1.3,0,1.6,0,1.3-1.1-1.6-.4-.9.3-2.1-.9-.3-.3-1.5-1.3-1.5-1.6V8.3c0-.3,2-2.3,2.3-2.3h16.5c.3,0,2.3,2,2.3,2.3v16.1c0,.4-1.2,1.3-1.5,1.6-.3.3-.5.6-.9.7-.8.1-1.2-.3-1.2.7s1.5.9,2.3,0c2.8-2.8,2.4-1.5,2.4-4.6h3.2c1,0,.8-1.2-.1-1.2h-3.1v-3.3h5.9c.4,0,3.6-3.3,3.8-3.6,1.9,1,3.5-.5,3.5-2,0-3.1-4.9-2.8-4.7,0,0,.4.2.8.3,1.1-.3.5-1.2,1.2-1.6,1.7-.2.2-1.6,1.5-1.8,1.5h-5.5V7.8c0-.4-1.2-1.4-1.5-1.7-1.6-1.6-1-1.4-3.2-1.4V1c0-1.1-1.2-.9-1.2-.2v4h-5.4c0-.6.3-2.9-.7-2.7-.8.1-.5,1.6-.5,2.7h-5.1V1.2c0-1.5-1.2-1-1.2-.4h0Z"/>
      <path class="st0" d="M15.4,9.4v13c0,.5.2.8.7.8s.3-.2.5-.3c0-.6-.2-13,0-13.4,0-.2.3-.4.6-.4h13.8c.6,0,.7.8.7,1.2v9.7c0,1.2-.4,3.3.7,3.3s.5-.3.5-.5v-13.4c0-.2-.9-1.4-1.9-1.4h-13.8c-1,0-1.9,1.1-1.9,1.6h0Z"/>
      <path class="st0" d="M20.3,25.4l.5-.4c.3,0,2.5,1.2,3.1-1.3h.8c0,.9.7,1.6,1.9,1.6s.7-.2,1.1-.3l.4.5c-.1.6-.3.3-.3,1.3s.7,1.7,1.5,1.8v.9c-1.1,0-1.5,1-1.5,2.1s.2.5.3,1l-.5.4c-.6-.1-.2-.3-1.4-.3s-1.5.8-1.5,1.6h-.8c-.6-2.6-2.7-1.4-3.1-1.3l-.4-.5c.1-.2.4-.9.4-1.2,0-1-.7-1.8-1.6-1.9v-.9c1.1,0,1.6-1.1,1.6-1.8s-.3-1-.4-1.3h0ZM22.5,24c-1.8.4-1.1-1.3-2.7.4-1.4,1.4-.2,1.5-.2,2.3s-1.6.5-1.6,1.8c0,2.5.3,1.6,1.3,2.2.8.5,0,1.1,0,1.8s1.1,1.8,1.9,1.8.1-.7,1.5-.3c.3,1.3.2,1.5,2,1.5s.7-1.6,1.9-1.6.9,1.1,2.2-.2c1.5-1.5.3-1.3.3-2.6s1.5-.2,1.5-1.4v-1.3c0-1.5-1.5-.2-1.5-1.8s1.1-.6-.2-2.1c-1.3-1.5-1.5-.3-2.4-.3s0-1.6-1.8-1.6-1.6,0-2,1.5Z"/>
      <path class="st0" d="M4.9,41.9v-3.7h4.1v4.1h-3.7c-.3,0-.3,0-.3-.3h0ZM6.3,33.7v3.2c-.9,0-2.4-.2-2.4.4v5.5c0,.4.5.5,1,.5h4.4c.4,0,1-.1,1-.5,0-1.3.1-4.8-.1-5.8-.8-.2-1.6-.1-2.6-.1v-3.7h10c.7,0,.7-1.2,0-1.2H7.6c-.9,0-1.3.8-1.3,1.8Z"/>
      <path class="st0" d="M41.5,42.2c-2.5,0-3.1-4.1.2-4.1s1,.4,1.2.6c.7.9.7,1.9,0,2.7-.4.4-1,.7-1.4.7h0ZM30.8,32.5c0,.4.3.7.5.7h9.6v3.8c-1.3,0-2.6,1.5-2.6,3.1s1.4,3.2,3.2,3.2c1,0,1.6-.3,2.2-.9.4-.4.5-.4.7-.9.6-1.2.4-2.4-.4-3.4-.4-.5-1.1-1.1-1.9-1.1v-3.7c0-.7-.7-1.3-1.3-1.3h-9.4c-.3,0-.5.3-.5.5h0Z"/>
      <path class="st0" d="M24.9,46.8c-2.9,0-2.3.2-3-1.1-.9-1.6-.9-1.1-.1-2.4.3-.5.5-.8.7-1.2h2.7l1.3,2.3c-.2.4-.5.8-.7,1.2-.1.3-.2.4-.4.6-.1.2-.2.5-.6.5h0ZM23.3,36.9v4c-1.3,0-1.4-.1-1.8.6-.2.4-.3.6-.6,1-1.3,2.2-1.3,1.7,0,3.8.2.3.3.6.5.9.2.3.3.7.7.7h3.4c.6,0,.8-.6,1.3-1.5,1.5-2.8,1.3-1.3-.5-4.8-.4-.8-.6-.7-1.8-.7v-3.6c0-.6-.3-.7-.7-.9-.2.1-.5.2-.5.5h0Z"/>
      <path class="st0" d="M44.3,2.3c0-.6.5-1.1,1.1-1.1,1.6,0,1.5,2.2,0,2.2-.2,0-.6-.1-.8-.3-.2-.1-.4-.6-.4-.8h0ZM43.2,1.7c-3,0-4-.4-4,1v4.1c-2.1,0-2.7-.2-2.4,1.1.8.2,2.7.2,3.5,0,.2-1,.1-3.7.1-4.9,2.5,0,2.6-.3,3,.4,1.6,3,6.1,0,3.8-2.5-1-1-2.4-1-3.3-.3-.4.4-.5.6-.7,1.1h0Z"/>
      <path class="st0" d="M1.2,2.3c0-1.6,2.3-1.4,2.3-.1s-2.3,1.5-2.3.1ZM0,2.2c0,.6.2,1.2.6,1.5,1.2,1.2,3.1,1,3.8-.3.4-.8.2-.5,3-.5v4.6c0,.7,2,.4,3.2.4s.9-1.2-.2-1.2h-1.9c0-5.8.4-5.1-1.6-5.1-.7,0-1.5,0-2.2,0C3.9.4,3.7,0,2,0S0,1.1,0,2.2Z"/>
      <path class="st0" d="M22.5,13.8h.2c.2.9.9,1.9,1.1,2.7h-2.4c.2-.4.4-.9.5-1.3.2-.5.4-.9.5-1.4h0ZM19.1,18.8c0,.4.8,1.1,1.4-.2.2-.3.3-.7.4-1.1h3.5c0,.3.3.7.4,1,.5,1.1,1.4.8,1.4.2l-2.3-5.3c-.5-1-1.1-2.8-2.3,0,0,0-2.4,5.4-2.4,5.4Z"/>
      <path class="st0" d="M24.4,30.7c-2.6,0-2.3-3.5-.2-3.5s2.1,3.5.2,3.5ZM21.3,28.8c0,1,.2,1.6.8,2.2,2.6,2.8,6.7-1.5,4.1-4.1-2-2.1-5-.5-5,1.9Z"/>
      <path class="st0" d="M27.1,12.5v6.3c0,.7,1.3.7,1.3,0v-6.3c0-.7-1.3-.7-1.3,0Z"/>
      <path class="st0" d="M8,22.2c.4.8.4.5,3,.5s.8-1.2-.2-1.2c-2,0-2.3-.2-2.7.7Z"/>
      <path class="st0" d="M37.2,13c0,1,1,.8,2.6.8s.7-.9.7-1.1c-.9-.2-1.9-.1-2.9-.1s-.4.2-.4.4h0Z"/>
    </g>
  </g>
</svg>