<?xml version="1.0" encoding="UTF-8"?>
<svg id="Layer_1" xmlns="http://www.w3.org/2000/svg" version="1.1" xmlns:xodm="http://www.corel.com/coreldraw/odm/2003" viewBox="0 0 383.9 384">
  <!-- Generator: Adobe Illustrator 30.1.0, SVG Export Plug-In . SVG Version: 2.1.1 Build 136)  -->
  <defs>
    <style>
      .st0 {
        fill: #fefefe;
        fill-rule: evenodd;
      }
    </style>
  </defs>
  <g id="Layer_x5F_1">
    <g id="_2703171774176">
      <path class="st0" d="M293.2,215.2h-28.5c0-14.6,1.5-27,1.5-41.2h33l-4.5,30.7c-.5,3.4-1.5,6.9-1.5,10.5h0ZM15.7,0h25.7c15.1.7,26.4,4,42,18.5.1.1.3.3.4.4.1.1.3.3.4.4l1.1,1.2c.7.8,1.1,1.2,1.8,2,4.1,4.7,5.8,8,8.3,13.4,2.1,4.6,6.4,16.1,6.5,22h277.5c8.9,0,1.7,17.9.9,21.1-1.3,5.1-2.3,9.2-3.6,14.4-2.5,10.2-4.9,19-7.5,29.2-5,19.9-10,38.6-15,58.5-4.9,19.8-8.4,36.5-29.9,43.6-10,3.3-56.8,1.8-70.9,1.8-1.9,8.1-6.9,15.4-13.5,18.8-9.6,5-13.9,3.7-27.8,3.7s-75-1-79,.5l-40.1,22.9c-4.4,3.2-3.3,7.6,0,9.5,4.1,2.3,24,.9,30.6.9h190.5c10.2,0,21.5-.5,31.5,0,21.7,1,20.1,33.8,0,33.8H93.7c-30.9,0-48-37.8-30.6-62,7.5-10.5,24.7-18.6,37.8-25.9,2.8-1.6,5.5-3.6,8.5-4.3l-32.1-126.1c-2.7-10.9-5.4-20.8-8.1-31.6-3.2-12.9-3.6-18.9-12.5-26.5-14.2-12.1-37.3-1.1-49.9-9.3C1.9,27.4,0,22.2,0,15.7S7.6,0,15.7,0h0ZM252.7,215.2h-29.2c0-14.7-1.5-26.8-1.5-41.2h33c-1.1,12.6-2.2,28.1-2.2,41.2ZM177,174h33l2.2,41.2h-29.2c0-6.6-1.9-14.7-2.8-20.5-1.1-7.3-2.3-13.9-3.2-20.8ZM309,215.2h-3.7c0-5.7,5.4-33.7,6-41.2h33c-1.4,2.8-2.9,10.8-4,14.7-1.7,5.7-2.2,9.7-5.3,14.2-5,7.3-13.8,12.3-25.9,12.3h0ZM132,174h30.1c5,.1,3.4,1.3,4.1,6.3.9,6.1,1.7,11.6,2.7,17.6.5,3.1,1.9,15.4,2.9,17.4h-29.2c-.3-3.1-1.6-7.1-2.4-10.3l-8.1-30.9h0ZM219,121.5h38.2l-1.5,32.2c.1,11.7,5.1,9-34.5,9,0-4.6-.7-5.5-.8-9.7l-1.5-31.5h0ZM301.5,162.7h-34.5c0-4.6.6-6.2.8-9.7l1.5-31.5h38.2c-.9,11.1-6,32.1-6,41.2h0ZM347.2,162.7h-34.5c1.1-2.4,5.2-34.5,6.7-41.2h38.2c-1.1,2.3-10.4,38.4-10.5,41.2ZM118.5,121.5h39c0,9,5.1,30.3,6,41.2h-34.5l-10.5-41.2h0ZM258,110.2h-39.7c0-14.2-1.5-26.6-1.5-41.2h43.5l-1.3,20.5c-.5,3.4,0,6.9-.2,10.3-.2,3.7-.8,5.7-.8,10.5h0ZM161.2,69h43.5c0,13.2,1.2,28.6,2.2,41.2-5.7,0-23.6-1.4-26.4,1.4-2.3,2.2-2.3,6.8.4,8.9,2.6,2,9.3,1,13.2,1,19.3,0,11.8-1.9,13.6,14.1.9,7.7,1.4,18.6,1.4,27.1h-33.7l-7.4-46.6c-.9-6.2-6.9-42.4-6.9-47.1h0ZM360.7,110.2h-39.7c.3-3.1,1.1-6.3,1.5-9.7.5-3.6,1-6.5,1.6-10.4.9-6.2,2.9-14.3,2.9-21.1h43.5c-.2,7.9-9.6,33.9-9.7,41.2h0ZM105.7,69h43.5c0,3.4,1,6.9,1.4,9.9.5,3.9,1.1,6.8,1.6,10.4l3,21h-39.7c-.1-6.1-9.6-35.1-9.7-41.2h0ZM307.5,110.2h-37.5c0-14.5,1.5-26.6,1.5-41.2h44.2l-5.8,36.9c-.3,2.5.2,4.3-2.4,4.3ZM71.2,38.2c2.1-2.4,4.8-5.7,7.5-7.5,3.1,2.3,6.3,9.4,7.9,13.8,3,7.8,36.4,141.3,41.2,160.5l4.8,17.7c2.3,5.4,8.7,3.7,18.8,3.7h90c-2,3.7-2.2,4.5-5.5,7.3-7.4,6.3-24.3,4-35.8,4h-66c-7,0-20.6,9.6-27.2,13.3-17.1,9.6-28.3,12.7-28.3,27.2s3.3,10.2,6.4,12.3c5.1,3.5,7.3,3.4,15.3,3.4h229.5c5.3,0,13.9-1.2,17.5,1.2,5,3.4,2,10-4,10H98.2c-32.2,0-41.2-37.6-16.4-52.4l33.5-19c9.3-5.6,7.7-4.1,4-18.8-1-4.2-2.1-8.2-3-12-11.4-45.4-24.5-98.5-36.7-143.2-2.7-9.7-3.4-14.2-8.4-21.6h0ZM18.7,11.2c14.9,0,31.9-1.2,44.7,6.3,3,1.8,5,3.7,7.1,4.2-.7,2.4-1.4,2.6-3.2,4.3-1.6,1.6-2.5,2.7-4.3,3.9-21.7-14.6-42.2-3-49.5-9-3.2-2.7-3.6-9.7,5.2-9.7h0Z"/>
      <path class="st0" d="M305.2,357c-.5-2.6,1.7-9.2,4.3-12.2,9.6-11,28-5,29.3,10.1,1.4,16.3-22,25.3-31.3,8.8-.8-1.3-.9-1.8-1.3-3.2-.2-.8-.9-3.5-.9-3.6h0ZM294,354v3.7c0,13.3,12.9,26.2,26.2,26.2h3.7c13.3,0,26.2-12.9,26.2-26.2v-3.7c0-13.3-12.8-26.2-26.2-26.2h-3.7c-13.3,0-26.2,12.9-26.2,26.2Z"/>
      <path class="st0" d="M112.5,357c-.2-1.1.9-5.9,1.3-7,5.8-16.3,30.7-13.7,32.3,4.9,1.6,19.3-27.4,24.6-32.6,5.6-.2-.8-.9-3.5-.9-3.6h0ZM101.2,354v3.7c0,13.3,12.9,26.2,26.2,26.2h3.7c13.3,0,26.2-12.9,26.2-26.2v-3.7c0-13.3-12.8-26.2-26.2-26.2h-3.7c-13.3,0-26.2,12.9-26.2,26.2Z"/>
      <path class="st0" d="M316.5,354.7c0,9.2,11.2,9.2,11.2,0s-11.2-6-11.2,0Z"/>
      <path class="st0" d="M123.7,354.7c0,9.2,11.2,9.2,11.2,0s-11.2-6-11.2,0Z"/>
    </g>
  </g>
</svg>