<?xml version="1.0" encoding="UTF-8"?>
<svg id="Layer_1" xmlns="http://www.w3.org/2000/svg" version="1.1" xmlns:xodm="http://www.corel.com/coreldraw/odm/2003" viewBox="0 0 372 372">
  <!-- Generator: Adobe Illustrator 30.1.0, SVG Export Plug-In . SVG Version: 2.1.1 Build 136)  -->
  <defs>
    <style>
      .st0 {
        fill: #fefefe;
        fill-rule: evenodd;
      }
    </style>
  </defs>
  <g id="Layer_x5F_1">
    <g id="_2703179723392">
      <path class="st0" d="M168,302.2c1.8.9,20.5,3,24,3v54.7h-24v-57.7h0ZM12,282.7c2.1,1,63.2,8.1,71.8,9.2l54,6.7c5.1.7,12.4,2,18.2,2v59.2H12v-77.2h0ZM240,318.7c0,5.1.6,9,4.4,12.8,1.4,1.4,6.4,4.4,9.1,4.4h45.7c17,0,29.8-10.2,39.9-21.6,4.3-4.9,12.2-18.4,18.8-13.1,3,2.4,1.3,6.1,0,10.2-2.3,7.5-4.4,13.5-8.1,19.7-1.6,2.7-3.8,5.4-5.9,7.6-.6.7-.8.9-1.4,1.6l-5.7,5.5c-10.3,9.2-26.8,14.1-41.4,14.1h-91.5v-55.5c0-2,2.5-3.1,4.3-4,23.9-12.7,31.8-12.5,61-12.5s3.1.6,4.4,1.6c5.3,4.7.7,10.8-4.1,12.1-3.5.9-9.1,1.5-13.5,2.2-7.8,1.3-16,5.4-16,14.8h0ZM12,167.2c14.4-3.4,46-8.6,62.6-11.7l21.4-4.1v129.7l-84-10.5v-103.5h0ZM180,251.2c0-17.4,7.1-35.2,18.2-47.8l46.3-54.2c1.1-1.4,3.8-5.2,6-5.2h39c2.1,0,4.5,3.3,5.7,4.8,2,2.6,3.1,3.5,5.1,6.1,1.1,1.4,1.4,1.5,2.5,2.8l25.5,30c1.2,1.3,1.6,1.6,2.9,3.1,12.2,15.7,18.5,17.9,25.7,40.3,5.8,18,2.5,37.7-5.6,54.2-3.6,7.3-6.7,2.2-14.5,12.5-3.5,4.6-12.2,15.2-16.9,18.3-7.3,4.9-15.5,7.9-27.3,7.9h-35.2c-3.6,0-4-1.4-5.2-3.7,3.7-6.9,11.8-3.1,23.4-7.4,19.8-7.4,14.6-36.9-3.9-36.9s-34.5-1.4-52.7,5.8c-3.8,1.5-8.7,3.4-11.9,5.3-12.1,7.4-12.4,9.5-18.1-1.8-5-9.9-8.7-22.4-8.7-34h0ZM202.5,180h-10.5c0,17.5,1,7.9-9.2,23.1-9.7,14.4-3.8,12.9-14.8,12.9v12h3c-5.3,22.7-4.3,42.1,6.7,63-7.3,0-37.4-5.2-45.7-5.2V115.5l84,15.7c0,8.7.9,22.8,0,30.8-.3,3.3-7.5,10.3-10,13.2-1.8,2.1-2.8,1.9-3.5,4.7h0ZM252,120h36v12h-36v-12h0ZM120,284.2c-1.9-.9-8.9-1.5-12-1.5v-146.2l-35.9,6.8c-3.2.6-8.9,1.9-12.1,2.2V43.5l84,15.7v45.7l-24-4.5v183.7h0ZM241.2,90.1c2.5-3.5,7.1-5.7,12.3-6.1.1,4.8,3,13.1,4.6,17.9.7,2,1.7,4.1,2.2,6.1h-10.5l-8.5-17.9h0ZM264.7,72.7c14.4,0,24.8,2.7,35.2,8.2-1.4,2.9,0,9.3-6,21-1,1.9-2.5,4-3,6h-17.2c-.5-2.1-4.2-9.9-5.9-15.9-1.6-5.8-3.1-12.3-3.1-19.3ZM108,39.7c-3-.2-9-1.6-12-2.2V12h-12v23.2c-2.8-.2-5.8-1.1-8.8-1.7l-27.2-5.1v119.2c-3,.7-9,2-12,2.2v-30h-12v32.2L0,156.7v215.2h302.2c18.2,0,37.8-11.1,47.1-20.4,8.5-8.6,15.6-19.7,19.2-31.8,2.3-7.7,3.5-9.5,3.5-16.8s-4.3-11.7-9-12.7l5.9-15.8c3.2-9.9,3.1-16.6,3.1-26.9,0-22.5-10.6-40.8-24.2-56.1l-29.3-34.4c-21.1-24.9-18.5-15.1-18.5-40s12-12.6,12-40.5-15.6-10.8-20-12.3c-13.5-4.5-25.7-4.2-40-4.2v12c-5.9,0-11.9,2.9-15.5,5.5-3.2,2.5-9.3,9.3-9.3,12.5s5.9,12,6.6,13.6l4.3,8.4c3.1,6.5,1.8,11.7,1.8,22.2s-11.4,14.5-12,15v-28.5c-3.7-.3-8.1-1.6-12-2.2-3.9-.6-8.3-1.4-12-2.2v-56.2h-12v54c-3-.2-9-1.6-12-2.2v-27.7h-12v25.5c-3-.2-9-1.6-12-2.2v-58.5l-36-6.7V0h-12v39.7h0Z"/>
      <path class="st0" d="M264,192h-12c0,15.5-2.7,27.1,9,33.7,9.6,5.5,15-2.6,15,14.3-11,0-12-1-12-12h-12c0,8.3-.8,15.3,8.1,21.1,4.8,3.1,3.9-.5,3.9,14.9h12v-12h12c0-15.5,2.7-27.1-9-33.7-4.5-2.6-4.1-1.4-9.6-2.4-6.3-1.2-5.4-7.2-5.4-11.8,11,0,12,1,12,12h12c0-7.8.6-16-8.1-21.1-4.9-2.9-3.9,0-3.9-14.9h-12v12h0Z"/>
      <polygon class="st0" points="72 84 84 84 84 72 72 72 72 84"/>
      <polygon class="st0" points="96 84 108 84 108 72 96 72 96 84"/>
      <polygon class="st0" points="120 84 132 84 132 72 120 72 120 84"/>
      <polygon class="st0" points="72 120 84 120 84 108 72 108 72 120"/>
      <polygon class="st0" points="96 120 108 120 108 108 96 108 96 120"/>
      <polygon class="st0" points="144 156 156 156 156 144 144 144 144 156"/>
      <polygon class="st0" points="168 156 180 156 180 144 168 144 168 156"/>
      <polygon class="st0" points="192 156 204 156 204 144 192 144 192 156"/>
      <polygon class="st0" points="168 192 180 192 180 180 168 180 168 192"/>
      <polygon class="st0" points="24 192 36 192 36 180 24 180 24 192"/>
      <polygon class="st0" points="48 192 60 192 60 180 48 180 48 192"/>
      <polygon class="st0" points="72 192 84 192 84 180 72 180 72 192"/>
      <polygon class="st0" points="144 192 156 192 156 180 144 180 144 192"/>
      <polygon class="st0" points="24 228 36 228 36 216 24 216 24 228"/>
      <polygon class="st0" points="48 228 60 228 60 216 48 216 48 228"/>
      <polygon class="st0" points="72 228 84 228 84 216 72 216 72 228"/>
      <polygon class="st0" points="144 228 156 228 156 216 144 216 144 228"/>
      <polygon class="st0" points="24 264 36 264 36 252 24 252 24 264"/>
      <polygon class="st0" points="48 264 60 264 60 252 48 252 48 264"/>
      <polygon class="st0" points="72 264 84 264 84 252 72 252 72 264"/>
      <polygon class="st0" points="144 264 156 264 156 252 144 252 144 264"/>
    </g>
  </g>
</svg>