<?xml version="1.0" encoding="UTF-8"?>
<svg id="Layer_1" xmlns="http://www.w3.org/2000/svg" version="1.1" xmlns:xodm="http://www.corel.com/coreldraw/odm/2003" viewBox="0 0 384 383.8">
  <!-- Generator: Adobe Illustrator 30.1.0, SVG Export Plug-In . SVG Version: 2.1.1 Build 136)  -->
  <defs>
    <style>
      .st0 {
        fill: #fefefe;
        fill-rule: evenodd;
      }
    </style>
  </defs>
  <g id="Layer_x5F_1">
    <g id="_2703185585344">
      <path class="st0" d="M116.8,101.1c1.6,2.4,16.3,17.4,18.2,17.4,5.4,0,15.7-11.5,39.4-16.8,12.4-2.7,10-3.2,10-28.2h18c0,41.1-3.8,16.8,36,38.2,13.5,7.3,10.3,11.1,21.9-.6,3-3,6.3-7,9.6-9.2l12.9,12.6c-4.9,7.2-16.7,13.9-16.7,19.7s8.2,14.2,11.9,23.4c1.9,4.7,3.1,8.1,4.3,13.7,2.9,13.4.9,10.9,28.8,10.9v18.7c-33.1,0-23.3-3.8-32.5,23.7-2.9,8.6-12.5,22.9-12.5,24.3,0,6.7,13,15.1,16.5,20.2l-12.6,12.9c-7.2-4.9-13.9-16.7-19.7-16.7s-15.7,8.8-23.8,12.2c-4.3,1.8-9.4,3-13.9,4.1-12.7,3.1-10.4,1.6-10.4,28.6h-18c0-42.2,1.2-17.6-35.5-38-14.2-7.9-11.6-11.3-23.6.7-2.9,2.9-5.9,6.6-9.2,8.8l-12.9-13.3c3.8-2.6,10.2-9.9,13.9-13.5,5.6-5.4,3.2-7.2-.4-12.8-16.5-25.9-9.9-41.4-20.9-41.4h-20.2v-18.7c42.3,0,16.2,3.6,38.8-37,3.5-6.3,9.6-10.3,2.7-17.2-3.4-3.4-10.4-11-13.7-13.3l13.3-13.7h0ZM171,89.2c-12.9,3-24.2,7.9-33.7,14.2-7.9-5.3-13.7-17.2-21-17.2s-10.6,8-14.8,12.2c-8.3,8.3-12.9,10.3-12.9,17.8s14.9,15.2,17.2,18.7c-6.7,10-11.4,22.3-14.2,34.5-12.9,0-28.5-2.6-28.5,6.7,0,36.7-3.4,37.6,11.2,37.5,5.7,0,11.5,0,17.3,0,1,11.4,9.4,26,14.2,35.2-2.6,1.8-17.2,15.9-17.2,18.7,0,6,.3,4.4,6.2,10.3,22.3,22.3,20,24.7,32.6,12l9.2-9.6c2.6.6,5.2,2.6,8,4,2.9,1.4,5,2.7,8.1,3.9,4.1,1.7,13.7,5.5,18.4,5.6,0,35-5,29.2,37.5,29.2s6.8-6.9,6.8-10.5c0-6,0-12,0-18,2.6-1.3,14.1-3.4,26.3-9.7,2.5-1.3,5.6-3.8,8.2-4.5,7,4.7,14.4,17.2,20.2,17.2s11.3-8.7,15.6-12.9c2.6-2.6,4.6-4.6,7.1-7.1,9-9,7.5-9.3-2.3-19.1s-7-6.3-9.2-9.6c.5-1.9,2.5-5.1,3.6-6.9,3.2-5.3,7.5-16.5,9.1-22.4,1.9-7.2-2-5.9,15.1-5.9,18,0,15,2.3,15-36s-11.6-8.2-28.5-8.2c-2.9-6-1.3-10-14.2-34.5,2.2-3.3,6.2-6.6,9.2-9.6,9.5-9.5,11.3-10.1,2.6-18.7-2.8-2.8-19.3-20.4-21.6-20.4h-3c-2.8,0-15.2,14.9-18.7,17.2-13.9-7.4-15.2-9.8-34.5-14.2,0-5.7,0-11.5,0-17.3,0-14.7-.8-11.2-39-11.2s-3.8,2.5-4.4,3.8c-1.4,3.2-.8,20.5-.8,24.7h0Z"/>
      <path class="st0" d="M0,130.6v-3.1c.6-1.9,2.2-3.8,5.7-5.5,5-2.5,9-4.5,14-7,2.6-1.3,4.3-2.2,7-3.6,3.2-1.6,5-1.8,7.6.4,2.9,2.4,5.2,9.9,7.1,13.9l6.4,14.7c1.9,6.3-7.2,15.3-13.4,1.3-.9-2-2.5-5.5-3-7.5-2.6,1.9-7.2,18.1-8.1,21.2-2.1,7.5-4.2,14.9-5.4,23.1-4.8,34.4,9.4,84.8,30.2,112.2l12.4,16.1,30.2,27.6c30.6,21.6,70.5,35.8,109.7,33.2,8.7-.6,11.6,12.4-.2,13.3-14.4,1.1-38.5-2.5-51.9-5.8-33.1-8.3-68-27.8-91.2-52.8l-13-15.5c-18.1-24.2-29.9-47.7-36.1-78.7-3-14.9-5.2-35.2-2.5-53.1,2-13.3,5-21.8,9-33.8.9-2.8,3.3-8.4,3.5-10.8-5.4,1.3-10.2,7.2-15.1,3.9C1.7,133.6.5,132.2,0,130.6h0Z"/>
      <path class="st0" d="M42.7,76.5c0,4.7,5.2,13.1,13.5,2.3,1.2-1.5,1.9-2.2,3.1-3.6,12.8-15.8,29.6-28.8,47-39.3,21.8-13.1,55.4-23.1,82.6-23.1h9.7c30.7,0,65.1,12.7,84.7,24,9.2,5.3,19.7,12.3,28.2,19,1.6,1.3,2,1.8,3.6,3.1,7.6,5.9,21.7,20.6,26.7,28.1-3.2,0-17.4-.6-19.7.6-4.1,2.1-5.3,12.2,4.7,12.2h27c2.9,0,6.7-2.9,6.7-5.2v-28.5c0-7.3-11.5-8.4-12.7-1.5-.3,1.8,0,6.8,0,8.9l-12.9-14.1c-12.4-12.3-33.9-27.5-48.1-35.2C266.2,13,231.7,0,200.2,0s-64.2,6-99,24c-5.3,2.8-11.9,7.2-16.9,10.8-2.8,2-5,3.8-7.7,5.8l-14.9,12.9c-2.8,2.3-4.2,4.9-6.8,7.5-2.2,2.1-12.2,13-12.2,15.5h0Z"/>
      <path class="st0" d="M384,183v10.5c-1.2,42.3-17.2,82.6-43.7,113.7-11.9,14-22.1,23.6-36.6,34.6-8.4,6.3-19.7,13.4-29.1,18.1l-15.7,7.5c2.7.6,4.6,2,7.4,3.1,12.4,4.9,5.3,15.4-2.4,12.9l-14-6.3c-6.3-3.1-19.1-5.4-13-15.2,2.1-3.4,14.3-23.2,16.4-24.1,2.8-1.2,6.1-.3,7.6,1.2,4.6,4.6-1,10.7-2.9,14.1,5.3-1.2,11.7-5.2,16.3-7.7,17.7-9.8,33.3-21.5,46.9-36.3,16.7-18.2,22-25.2,34.1-49.2,15-29.7,19.7-66.3,13.4-100.7-1.3-6.9-2.6-12.5-4.4-18.8-1.8-6.2-5.8-15.2-4.5-18.5.9-2.4,4.3-4.8,7.5-4,7.9,2,13.8,35.9,15,44.3,1,6.9,1.6,13.9,1.8,20.7h0Z"/>
      <path class="st0" d="M153.7,192c0-20.6,17.1-39.7,37.5-39.7s21.2,2.8,29.4,11.1c3.7,3.7,5,5.4,7.7,10.2,7.9,14.2,4.5,35.9-8.1,47.5-26.2,24.2-66.6,4.2-66.6-29.1h0ZM141,191.2c0,56.7,75.4,73.7,99.6,23.1,6.1-12.7,6.8-28.2,1.2-42.2-4.7-11.7-13.4-20.9-24.1-26.9-16.7-9.4-40-7.4-55.4,4.3-13.1,9.9-21.3,24.6-21.3,41.7Z"/>
    </g>
  </g>
</svg>