<?xml version="1.0" encoding="UTF-8"?>
<svg id="Layer_1" xmlns="http://www.w3.org/2000/svg" version="1.1" xmlns:xodm="http://www.corel.com/coreldraw/odm/2003" viewBox="0 0 372.1 372.1">
  <!-- Generator: Adobe Illustrator 30.1.0, SVG Export Plug-In . SVG Version: 2.1.1 Build 136)  -->
  <defs>
    <style>
      .st0 {
        fill: #fefefe;
        fill-rule: evenodd;
      }
    </style>
  </defs>
  <g id="Layer_x5F_1">
    <g id="_2703423260304">
      <polygon class="st0" points="0 372.1 372.1 372.1 372.1 360.1 0 360.1 0 372.1"/>
      <path class="st0" d="M264,60.1c0-47.6,66.8-69.2,91.5-19.5,19.1,38.5-24.5,82.2-63,63-17.1-8.5-28.5-24.1-28.5-43.5ZM252,57.1c0,19.5,5.4,33.5,17.4,45.6,23.3,23.3,61.8,23.3,85.2,0,23.3-23.3,23.3-61.8,0-85.2-23.3-23.3-61.8-23.3-85.2,0-8.1,8.1-17.4,23.7-17.4,39.6Z"/>
      <path class="st0" d="M120,204.1v144h12v-138h24v138h12v-144c0-3.6-2.4-6-6-6h-36c-3.6,0-6,2.4-6,6h0Z"/>
      <path class="st0" d="M204,240.1v108h12v-102h24v102h12v-108c0-3.6-2.4-6-6-6h-36c-3.6,0-6,2.4-6,6h0Z"/>
      <path class="st0" d="M214.3,149.2l-20.1-5.8c-7-1.9-57.8-17.3-62.3-17.3s-17.5,13-21,15.8l-45.1,38.2c-5.2,4.2-10.1,9.1-15.6,12.9,1.2,4.4,5.6,5.5,6.8,9.8,3.3-.3,2.6-.8,4.7-2.8l54-45.8c2.8-2.6,5.9-4.6,8.6-7.1l8.1-6.9c1.9-1.1,2.1-.8,5.1,0l65.9,18.9c17.7,5,12,6.4,33.4-15,4.8-4.8,16.6-15.5,19.7-20.1l-8.4-8.1-33.8,33.4h0Z"/>
      <path class="st0" d="M36,270.1v78h12v-72h24v72h12v-78c0-3.6-2.4-6-6-6h-36c-3.6,0-6,2.4-6,6h0Z"/>
      <path class="st0" d="M291,42.8v2.3h12c4.1-17.5,24.2-5.7,15.9,5.4-4.3,5.7-12.9,1.1-12.9,9.6v15h12v-9.8c6.8-1.6,15-9.8,15-18v-4.5c0-8.8-10-18.8-18.8-18.8h-4.5c-8.8,0-18.8,10-18.8,18.8h0Z"/>
      <path class="st0" d="M288,156.1v24h12v-18h24v18h12v-24c0-3.6-2.4-6-6-6h-36c-3.6,0-6,2.4-6,6h0Z"/>
      <polygon class="st0" points="288 222.1 300 222.1 300 198.1 288 198.1 288 222.1"/>
      <polygon class="st0" points="324 222.1 336 222.1 336 198.1 324 198.1 324 222.1"/>
      <polygon class="st0" points="288 264.1 300 264.1 300 240.1 288 240.1 288 264.1"/>
      <polygon class="st0" points="324 264.1 336 264.1 336 240.1 324 240.1 324 264.1"/>
      <polygon class="st0" points="288 306.1 300 306.1 300 282.1 288 282.1 288 306.1"/>
      <polygon class="st0" points="324 306.1 336 306.1 336 282.1 324 282.1 324 306.1"/>
      <polygon class="st0" points="288 348.1 300 348.1 300 324.1 288 324.1 288 348.1"/>
      <polygon class="st0" points="324 348.1 336 348.1 336 324.1 324 324.1 324 348.1"/>
      <polygon class="st0" points="306 96.1 318 96.1 318 84.1 306 84.1 306 96.1"/>
    </g>
  </g>
</svg>