<?xml version="1.0" encoding="UTF-8"?>
<svg id="Layer_1" xmlns="http://www.w3.org/2000/svg" version="1.1" xmlns:xodm="http://www.corel.com/coreldraw/odm/2003" viewBox="0 0 384.1 384.1">
  <!-- Generator: Adobe Illustrator 30.1.0, SVG Export Plug-In . SVG Version: 2.1.1 Build 136)  -->
  <defs>
    <style>
      .st0 {
        fill: #fefefe;
        fill-rule: evenodd;
      }
    </style>
  </defs>
  <g id="Layer_x5F_1">
    <g id="_2703183408096">
      <path class="st0" d="M346.5,371.3h-168c-9.2,0-14.9-2-19.7-8-.8-1-1.8-2.4-2.5-3.5-6.8-11.9,1.7-23.2,7.8-32.9l64.9-105.4c4.4-7.3,8.5-13.6,12.8-20.9,5.8-9.7,9.6-14.6,22.2-14.6s10.7,3.3,13.3,6.2l79.4,128.3c7.7,13,16.5,21.8,13.4,34.7-2.7,11.2-12.3,16.1-23.7,16.1h0ZM147.8,326.3H39V70.5h31.5c2.8,0,5.1,6.8,13.5,6.8h87c4.8,0,8.4-1.3,11.3-4.4,1.3-1.4.6-2.3,2.9-2.3h45v123c0,1.3-3.8,6.7-4.6,8.1-1.8,2.9-3.3,5.6-5.1,8.4l-20.6,33.4c-3.5,5.9-6.7,11-10.3,16.7-3.6,5.7-6.6,11.1-10.2,16.8l-28.3,46c-1.1,1.9-1.1,3.4-3.4,3.4h0ZM83.3,39c28.7,0,14.6-4.7,24.6-16,2-2.3,5.3-5.5,8-7,11.4-6.4,25.6-2,32.6,7.3,3.4,4.5,2.7,5.6,4.9,10.9,2.6,6.2,10.7,4.8,19.2,4.8v24.8h-89.3s0-24.8,0-24.8ZM186,45h51.8c9.2,0,17.6,8.3,18,18,.5,11.7,0,24.9,0,36.8v73.5c-6.7,1.6-8.6,3.7-12,4.5,0-31.9.8-73.2,0-104.3-.3-12.2-6.3-16.5-18.8-16.5h-39v-12h0ZM25.5,69v258c0,8.9,7.6,12.8,16.5,12.8h99.8c0,2.9-.5,3-.8,6-.4,3.9-.3,2.6,0,6-10.7,0-106.5.8-112.2-.3-10.1-1.8-16-9.8-16-21.5V66.8c0-12.5,7.2-21.8,19.5-21.8h38.3v12c-8.8,0-33.7-1.4-39.5,2.5-2.3,1.6-5.5,6.1-5.5,9.5h0ZM91.5,25.5c-3.7,0-8.2-.6-11.7.3-3.2.9-6.2,2.6-7.1,5.7-13,0-40.1-1.2-49.5,1.5C12.2,36,0,47.8,0,61.5v273.8c0,11.8,9.5,22.1,17.3,26.2,9.6,5,25.2,3.8,39.7,3.8h87.8c.7,3.2,2.4,4.7,4.3,7,2.5,3.1,2.5,3.1,5.8,5.4,3.9,2.9,10.6,6.3,16.9,6.3h180c17.2,0,32.3-16.6,32.3-31.5s-2.4-17.7-10.5-30l-27.4-44.6c-2.4-4.1-4.4-7.1-6.8-11.2l-7.1-11.6c-4.8-7.5-8.9-14.6-13.7-22.3-1.3-2.2-2.2-3.4-3.5-5.5l-24-39c-2.3-3.7-5-6.7-8.8-9.2-2-1.3-3.3-2.3-5.6-3.4-2.6-1.2-5.1-1.4-7.3-2.5v-94.5c0-17.3.9-34.7-19-44-10.4-4.9-46.1-3.4-59.8-3.2-10,.1-5.6-.9-11.4-4.4-3.9-2.4-9-1.6-14.9-1.6C161.4,13.1,144.7,0,131.3,0s-19.6,1-27.6,8.4c-3.8,3.6-7.5,7.2-9.9,11.9-.9,1.7-1.3,3.4-2.3,5.2h0Z"/>
      <path class="st0" d="M262.5,294c-3.9,0-6-2.6-6-4.5v-59.3c0-8.1,12-8.1,12,0v57.8c0,3.6-2.4,6-6,6h0ZM243,229.5v58.5c0,6.1,2.2,10.1,5.4,13.3,12.8,13,33.6,4.6,33.6-15.6v-53.3c0-20.5-21-27.5-32.8-16.3-2.8,2.7-6.2,8.1-6.2,13.3h0Z"/>
      <path class="st0" d="M121.5,185.3c0,4,1.8,6.8,6,6.8h84c8.1,0,8.1-12.8,0-12.8h-84c-3.6,0-6,2.4-6,6Z"/>
      <path class="st0" d="M121.5,114c0,3.9.9,7.5,6,7.5h84c8.1,0,8.1-12.8,0-12.8h-84c-4.3,0-6,4-6,5.3Z"/>
      <path class="st0" d="M75.8,141.8c-5-1.3-5.6-7.5-12-7.5s-6,4.6-6,8.3,5.6,6.8,7.3,8.4c16.2,16.2,13.2,14.3,33.4-26.2,4.4-8.7,18.4-28.8,3.5-28.8s-6.5,5.5-8.5,9.5c-2.7,5.3-17,33.1-17.8,36.3h0Z"/>
      <path class="st0" d="M75.8,282.8c-5.3-1.4-4.6-7.5-12-7.5s-6,2.7-6,6.8,14.6,18.8,18.8,18.8c6.1,0,6.5-4,10.5-12l14.8-29.5c2.1-4.2,7-12.2,7-16.3,0-6.3-7.6-8.9-11.4-3.9-1.9,2.5-5.7,11.1-7.3,14.4s-13.5,26.1-14.3,29.3h0Z"/>
      <path class="st0" d="M75.8,212.3c-4.7-1.3-5.5-7.5-12-7.5s-6,2.7-6,6.8,15.7,18.8,17.3,18.8c7.6,0,6.8-1.6,12-12,2.5-5,5-10,7.5-15,2.6-5.2,14.3-26.6,14.3-30.8s-2.7-6-6.8-6-6.5,5.5-8.5,9.5c-2.7,5.3-17,33.1-17.8,36.3h0Z"/>
      <path class="st0" d="M264,345c-4.8,0-7.5,0-7.5-6s12-8.1,12,0-2.1,6-4.5,6h0ZM243,338.3c0,12,8.2,20.3,21,20.3s18-9.7,18-18.8-8.6-19.4-18.9-20c-10.1-.6-20.1,8.6-20.1,18.5h0Z"/>
      <path class="st0" d="M121.5,255.8c0,4.5,3.3,6.8,5.3,6.8h47.3c5.5,0,10.5-13.5-5.3-13.5h-36.8c-5.4,0-10.5,1.3-10.5,6.8h0Z"/>
      <path class="st0" d="M121.5,139.5c0,5.5,2.4,8.3,9,8.3h33.8c11.6,0,10.9-13.5,2.3-13.5h-38.3c-3.1,0-6.8,2.5-6.8,5.3h0Z"/>
      <path class="st0" d="M121.5,210c0,3.9.9,7.5,6,7.5h40.5c5.7,0,7.8-12.8-1.5-12.8h-39c-4.3,0-6,4-6,5.3h0Z"/>
      <path class="st0" d="M121.5,281.3c0,4,1.8,6.8,6,6.8h26.3c3.4,0,6-2.4,6.5-5.5.4-2.9-2.2-7.2-5-7.2h-27.8c-3.6,0-6,2.4-6,6Z"/>
    </g>
  </g>
</svg>