<?xml version="1.0" encoding="UTF-8"?>
<svg id="Layer_1" xmlns="http://www.w3.org/2000/svg" version="1.1" xmlns:xodm="http://www.corel.com/coreldraw/odm/2003" viewBox="0 0 49 49.3">
  <!-- Generator: Adobe Illustrator 30.1.0, SVG Export Plug-In . SVG Version: 2.1.1 Build 136)  -->
  <defs>
    <style>
      .st0 {
        fill: #fefefe;
        fill-rule: evenodd;
      }
    </style>
  </defs>
  <g id="Layer_x5F_1">
    <g id="_2703423894256">
      <path class="st0" d="M21.7,38.7c1.5,0,.5,2.1-.5,1.2-.5-.4-.2-1.2.5-1.2ZM11.3,6.8c-6.2,0-9.6,6.4-6.2,11.5-1.7,0-2.8,1-3.6,1.9-2.3,2.8-1.9,6.3.2,9,.2.3.4.4.6.7.3.4.3.3.7.6.3.3.3.5.7.6-.2.8-.9,1.5-.9,3.4s.8,3.4,1.7,4.4c.9,1,2.7,2.2,3.9,2.3,0,5.2,6,9.6,10.9,7.4.7-.3,2-1,2.4-1.7.2-.3.1-.3.1-.7,0-.5,0-1.1,0-1.7v-3.4c2.2-.2,2.2-3.7-.3-3.7s-1.7.6-1.8,1.3h-4.4c-.8-1.1-2.4-3.1-3.3-4.4-.7-1-1.3-.6-1.3,0s1.9,2.6,2.3,3.1c.3.4.5.7.8,1.1,1.3,1.8.4,1.3,5.9,1.3.1.5.4.9.9,1,0,5.3.7,5.5-1.6,6.5-3.8,1.7-8.6-.7-9.3-5.5-.3-1.7.3-1.4-1.3-1.9-1.5-.5-2.8-1.4-3.6-2.8-1.1-1.9-.9-3.9.1-5.7.7-1.3-1.2-1.1-2.9-3.9-2.7-4.5,1-8.2,2.7-8.2,2.6,0,1.8.9,3,.9s.4-.3.5-.5c-.5-1-1.3-.8-2.3-2.3-2.9-4.2.1-9.1,4.4-9.5,1.7-.2,1.3.2,2.1-.3,0-2.8.8-4.9,3.2-5.9,1.5-.7,3.3-.8,4.8.1,1,.7.8.8.8,2.3.2.2.3.3.7.3.8-.6.5-1,.5-1.3,0-.4.5-1.3-1.5-2.4-4.2-2.4-9.7,1-9.7,6h0Z"/>
      <path class="st0" d="M26.3,39.7c0-1.4,1.4-.9,1.4-.3,0,1.4-1.4.9-1.4.3ZM43,24.2h.1c.6,0,.7,1,.1,1h-.3c-.6,0-.5-1,.1-1ZM26.5,2.8c0,1-.1,1.8.8,1.8s.4-.7.4-1.2c0-.8,0-.9.5-1.2,2.1-1.6,5.5-.7,6.8.9,1.1,1.3,1.5,2.4,1.5,4.7,1,.7.4-.1,2.8.5,4.1,1,6.2,5.6,3.7,9.3-1,1.5-1.8,1.4-2.3,2.4.8,1.4,1.4-.3,2.6-.3s2.2.1,3.3,1.6c.6.8,1.1,1.6,1.2,2.9h-3.2c-.4-1.5-3.3-1.7-3.3.9s1.6,2,2.8,1.1c.4-.3.4-.4.6-.8h3.1c-.3,1.2-.4,1.6-1,2.6-.6,1-1.7,2.1-2.6,2.8-1.3,1,.6.8.6,4.4s-2.2,4.6-4.6,5.2c-.7.2-1,.2-1.1.9-.2,3.2-1.8,5.9-5.2,6.7-4,.9-5.7-1-6.2-1.2v-5.4c1.4-.7,1.4-2.2.5-3.1-1.1-1.1-3.3-.4-3.3,1.4s.7,1.7,1.5,1.8v3.6c0,1.7-.2,2.1.9,2.8,1.7,1.1,3.3,1.6,5.9,1.3,1.8-.2,3.6-1.2,4.9-2.5,1-1.1,2.2-3.3,2.2-5.3,1.3-.1,3-1.3,3.9-2.3,1.7-1.7,2.2-4.7,1.2-7.1-.1-.3-.2-.4-.3-.8.3,0,1.2-.9,1.4-1.1,1.4-1.8,2.5-2.9,2.5-5.9s-2.2-5.8-5.2-5.8c1.6-2.3,1.9-5.1.6-7.7-1.3-2.4-3.8-3.8-6.7-3.8,0-5-5.5-8.4-9.7-6-.4.2-.6.4-1,.8-.4.4-.6.5-.6,1.2h0Z"/>
      <path class="st0" d="M17.5,28.4v-6.3c0-2.1,1-3.4,3.1-3.4h8.5c1.6,0,2.9,1.2,2.9,2.9v7.4c0,1.6-1.1,2.9-2.7,2.9h-9c-1.7,0-2.6-1.6-2.6-3.4h0ZM20.6,15.8v1.6c-2.2,0-4,1.6-4.2,3.5-.5,0-1.8,0-2.2,0-.7.2-.5,1.2,0,1.2h2.1v2.3c-1.1,0-2.6-.3-2.6.7,0,.8,1.1.6,2.6.6v2.2h-1.9c-1.1,0-.8,1.2-.2,1.2h2.1c0,2.2,1.8,3.8,4.2,3.8,0,1.1-.2,2.6.7,2.6s.5-1.5.5-2.6h2.3v1.9c0,1.1,1.2.8,1.2.2v-2.1h2.4c0,1.2-.3,2.6.7,2.6s.5-1.5.5-2.6c1.9,0,3.2-1,3.8-2.4.8-1.8-.7-1.5,2.4-1.5,1-1.5-.7-1.2-2-1.2v-2.2c2.1,0,1.9.2,2.3-.5-.5-.9-.7-.7-2.3-.7v-2.3h1.8c.6,0,.9-1.2-.2-1.2h-1.6c0-.9-.7-2.1-1.3-2.5-.7-.6-1.6-1-2.8-1,0-.7.2-2.6-.4-2.6-1,0-.8,1.1-.8,2.6h-2.4c0-.7.2-2.6-.4-2.6-1,0-.8,1.1-.8,2.6h-2.3c0-.7.2-2.6-.4-2.6s-.8.4-.8,1Z"/>
      <path class="st0" d="M39.9,31.8c0,1-.9.8-1.3.7-.8-1.6,1.3-1.5,1.3-.7ZM37.6,33.1c-.4.5-.7.9-1.1,1.4l-3.3,4.4h-2.5c-.4.6-.4.2-.2,1.1.9.2,1.9.1,2.9.1s.9-.6,1.5-1.4l3.8-5c.8,0,1.2,0,1.7-.4,1.6-1.3.4-3.4-.9-3.4s-1.6,0-2.1,1.1c-.4,1.1.1,1.7.2,2h0Z"/>
      <path class="st0" d="M26,8.1c0-.9,1.5-.9,1.5,0s-1.5.9-1.5,0ZM26.7,10c.5,0,.7,0,1.1-.2.6-.4,0-.4,2,.1.5.1.9.3,1.4.4.7.2.8,0,1.2.7l2,3.3c1,1.7,1.4.7,1.4.2l-2.3-3.9c-.9-1.6-.9-1.1-3.4-1.8-2.2-.6-.8-.5-1.6-1.6-1.2-1.7-3.7-.7-3.6,1,0,1,.8,1.9,1.8,1.9h0Z"/>
      <path class="st0" d="M11.2,17.5c0-1,.8-.8,1.3-.7.2.7.2.4,0,1.1-.4,0-1.3.3-1.3-.4ZM12.1,15.5c-3,0-2.4,3.7-.4,3.7h.5c1.6,0,2.3-2.4,1-3.3.4-.6.7-1.3,1.2-1.9l1.8-2.9c.2-.4.3-.7.7-.9.7-.3,2.1-.2,2.1-1.1s-.3-.5-.4-.5c-.3,0-2.4.6-2.6.7l-3.8,6.1h0Z"/>
      <path class="st0" d="M23.3,22.9h.2c0,.4.3.9.5,1.3.2.4.3.9.5,1.2h-2.2c.2-.8.8-1.6,1-2.5ZM20.2,27.5c0,.4.2.5.5.5.8,0,.7-1.6,1.3-1.6h2.6c.3,0,.2,0,.4.3,0,.1.5,1.3.9,1.3,1.3,0,.3-1.3,0-2-.3-.6-.5-1.1-.7-1.7-.4-.8-1.2-3-1.7-3s-.8.5-1.2,1.3c-.3.6-.5,1-.7,1.6-.2.5-1.4,2.8-1.4,3.2h0Z"/>
      <path class="st0" d="M7.9,24.2c1.3,0,.5,1.6-.2.9-.3-.3-.2-.9.2-.9ZM6.5,24.1h-2.3c-1.2,0-1.9-.3-1.9.7s1.1.4,1.8.4c.8,0,1.5,0,2.3,0,.3.6.8,1.4,1.8,1.3,2.2-.2,2-3.5-.2-3.5s-1.4.5-1.5,1.1h0Z"/>
      <path class="st0" d="M8.8,31.9c0-1.4,1.4-.9,1.4-.3,0,1.4-1.4.9-1.4.3ZM7.6,31.6c0,2.6,3.8,2.6,3.8,0s-3.8-2.4-3.8,0Z"/>
      <path class="st0" d="M21.1,8.1c0-1.4,1.4-.9,1.4-.3,0,1.4-1.4.9-1.4.3ZM19.9,7.9c0,2.6,3.8,2.6,3.8,0s-.2-1-.6-1.3c-1.3-1.2-3.3-.2-3.3,1.3Z"/>
      <path class="st0" d="M36.6,16.9c.4,0,.8.2.8.7s-.2.8-.7.8c-1.2,0-1-1.4-.1-1.4h0ZM34.7,17.4v.5c0,1.1,1.9,2.4,3.2,1.1.8-.7.8-2,0-2.8-1.3-1.3-3.3-.1-3.3,1.1Z"/>
      <path class="st0" d="M27.6,21.4c-.2,1.1-.1,4.5-.1,5.8s.9.7,1.1.7c.2-1.1.1-4.8.1-6.2s-.8-.5-1.1-.3h0Z"/>
    </g>
  </g>
</svg>