<?xml version="1.0" encoding="UTF-8"?>
<svg id="Layer_1" xmlns="http://www.w3.org/2000/svg" version="1.1" xmlns:xodm="http://www.corel.com/coreldraw/odm/2003" viewBox="0 0 295.5 283.8">
  <!-- Generator: Adobe Illustrator 30.1.0, SVG Export Plug-In . SVG Version: 2.1.1 Build 136)  -->
  <defs>
    <style>
      .st0 {
        fill: #fefefe;
        fill-rule: evenodd;
      }
    </style>
  </defs>
  <g id="Layer_x5F_1">
    <g id="_2703411833120">
      <path class="st0" d="M159.8,255.2c10.6,0,29.3-2.7,29.3,6.8s-13,9-27,9-11.2-15.8-2.3-15.8h0ZM10.5,185.4h38.3v75H10.5v-75ZM157.5,228.9h27.8c9.1,0,11.4,15.8-1.5,15.8h-27c-10,0-11.4-15.8.8-15.8ZM144.8,211.7c0-5.5,1.8-9,9-9h33.8c12.1,0,11.6,15.8,1.5,15.8h-36.8c-3.8,0-7.5-2.7-7.5-6.8h0ZM183,192.9h-23.3c-12.5,0-11.1-15.8-1.5-15.8h24c12.1,0,10.6,15.8.8,15.8ZM120.8,172.7c0,6.2,13.7,4.5,20.3,4.5-.4,4.5-3.7,10.5-5.8,13.7-15,22.4-37.7,13.4-37.7,23.1s17.6,3.2,22.3,1.3c6.4-2.6,9.3-4.6,14.5-8,0,6.3.6,16.2,7.5,18-.3,3.4-4.6,7.2-3.3,14.4,1.5,8.1,3.7,7.6,7,12.6-.8,2.9-6.3,9.8-.8,20.3-4.1,0-8.5-.2-12.5.3-7.1,1.1-27.2-1.8-34.7-4.2-18.3-5.9-17.3-9.7-25.3-13.7-4.7-2.3-7.6-2.7-13-2.7v-58.5c9.3-.2,16.1-7.3,21.1-13.4,2.8-3.4,4.9-6.3,7.4-9.9,13.2-18.7,16.6-25,22-47,1.1-4.4,1.7-11.6,6.5-11.6s12.8,4.7,12.8,13.5-8.3,39.3-8.3,47.3h0ZM59.3,183.2c0-5-1-8.3-6-8.3H6C2.4,174.9,0,177.3,0,180.9v84.8c0,3.6,2.4,6,6,6h48c4.9,0,6-4.1,6-9,16.3.4,20.8,28,95.3,19.5,16.5-1.9,27.5,1.8,36.3-4.2,6.7-4.5,7.2-10.9,7.2-17.6s-2.3-5.4-3-8.3c5-7.5,6.8-4.1,6.8-17.3s-2.7-5.8-3-9.8c7.2-1.9,13.2-22.2-1.5-30,.8-2.8,3-4.8,3-11.3s-3.9-11.7-7.6-14.1c-5.2-3.4-9.5-3.9-17.9-3.9-14.5,0-29,0-43.5,0,.5-6.1,2.6-14.1,3.8-20.2,2.8-13.9,7.9-25.8-3.2-36.7-7.6-7.4-19.9-11.3-27.6-2.4-4.3,5-6.5,19.1-8.4,26.1-3.2,11.6-17.8,34.3-26.3,43.5-2.7,2.9-6.2,6.5-11.1,6.9h0Z"/>
      <path class="st0" d="M115.5,51.2v41.3c13.1,0,10.5,6.2,10.5-12.8v-23.3c15.7-3.6,30.6-8.4,44.1-16.6,6.7-4.1,12.3-7.5,18.6-12.2l16.8-13.9c1.9,1.2,2.3,2,3.9,3.6,21.1,19.7,46.7,32.5,75.6,39.2,0,18,0,36,0,54,.1,27-11.4,48.6-30.5,64l-38.5,29.8c0,3.4.8,3,.8,6.8s-.7,3.4-.8,6.8c4.3-2.9,47.4-36.5,51.6-40.7,4.2-4.2,6.9-7.2,10.5-12,3.7-5,5.8-8.7,8.7-14.5,4.8-9.4,8.7-23.9,8.7-37.8v-61.5c0-5.5-14-5.2-25.5-9.7-4.3-1.7-8-2.9-12.3-5-12.4-6.2-21.9-11.3-32.9-20.3l-9.8-8.2c-11.7-11.2-7.8-10.9-24,4.1-15,14-42.7,29-63.5,33.2-3.9.8-12.1,1.6-12.1,5.9h0Z"/>
      <path class="st0" d="M205.5,60.2c21.2,0,41.3,18.3,41.3,39.8s-7.6,31.5-23.5,39.5c-15.9,7.9-36.5,3.9-48.3-8.9-11.7-12.7-14.2-29.6-7.4-46,5.7-13.6,22.1-24.3,38-24.3h0ZM202.5,153.9c17.1,0,28.9-4.5,39.2-14.8,5-5.1,7-7.9,10.3-14.4,7.1-14.2,7-31.1.3-45.3-2-4.1-7.5-12.1-10.6-14.9-4.6-4.2-9.8-7.4-15.4-10.1-25.7-12-56.7.9-67.8,24.7-9.1,19.7-6,43.3,8.9,58.1,2.3,2.3,4,4.4,6.6,6.2,7.8,5.6,17.8,10.5,28.5,10.5h0Z"/>
      <path class="st0" d="M199.5,108.9c-6.9-4.6-5.8-9.8-14.3-9.8s-3.8,2.6-3.8,4.5c0,4.5,15.7,19.1,18,18.8,2.5-.3,18.9-17.8,23.1-21.9,2.8-2.8,6.9-5.4,6.9-8.8s-2.4-5.3-5.3-5.3c-4.1,0-22.2,18.8-24.8,22.5h0Z"/>
      <path class="st0" d="M21,242.4c0,13.3,17.3,10.5,17.3.8s-17.3-11.8-17.3-.8Z"/>
    </g>
  </g>
</svg>