<?xml version="1.0" encoding="UTF-8"?>
<svg id="Layer_1" xmlns="http://www.w3.org/2000/svg" version="1.1" xmlns:xodm="http://www.corel.com/coreldraw/odm/2003" viewBox="0 0 46.1 46.1">
  <!-- Generator: Adobe Illustrator 30.1.0, SVG Export Plug-In . SVG Version: 2.1.1 Build 136)  -->
  <defs>
    <style>
      .st0 {
        fill: #fefefe;
        fill-rule: evenodd;
      }
    </style>
  </defs>
  <g id="Layer_x5F_1">
    <g id="_2703422743648">
      <path class="st0" d="M22.5,14v8.5h-2.6c0-4.5.6-3.1-3-5.1v-2.2c-.3-.2-.1-.3-.7-.3-.7,0-.5,1.6-.5,2.9s1.7,1.1,2.3,1.4c1,.5.7,0,.7,3.2h-1.1c-.9,0-1.9.9-1.9,1.9,0,2.2-.3,3,.7,3s.3-.2.5-.3c0-.7,0-1.5,0-2.3,0-.8.3-1.2,1.1-1.2h10.1c1.4,0,1.1,1.3,1.1,2.6v3.8c.2.1.2.3.5.3h7c.9,0,1.9-.9,1.9-1.9v-10c0-.4-.4-.5-.7-.5s-.3.2-.5.3v9c0,1.2,0,2-1.1,2h-6v-4.9c0-.9-.9-1.9-1.9-1.9h-1.1c0-3.4-.4-2.6,1.5-3.6,1.8-.9,1.5-.3,1.5-3.5s-.4-.5-.7-.5-.3.2-.5.3v2.2c-3.6,1.9-3,.5-3,5.1h-2.6v-8.5c0-.6-1.1-.6-1.1,0h0Z"/>
      <path class="st0" d="M7.5,18.5v10c0,.9.9,1.9,1.9,1.9h6.4v4.9c0,.9.9,1.9,1.9,1.9h1.1c0,3.4.4,2.6-1.5,3.6-1.8.9-1.5.3-1.5,3.5s.4.5.7.5.3-.2.5-.3v-2.2c.5-.3,1-.5,1.6-.8,1.8-.9,1.4-.2,1.4-4.3h2.6v8.5c0,.6,1.1.6,1.1,0v-8.5h2.6c0,4.5-.6,3.1,3,5.1v2.2c.3.2.1.3.7.3.7,0,.5-1.6.5-2.9s-1.7-1.1-2.3-1.4c-1-.5-.7,0-.7-3.2h1.1c.9,0,1.9-.9,1.9-1.9,0-2.2.3-3-.7-3s-.3.2-.5.3c0,.7,0,1.5,0,2.3,0,.8-.3,1.2-1.1,1.2h-10.1c-1.4,0-1.1-1.3-1.1-2.6v-3.8l-.3-.3c-.2,0-6.1,0-7,0-.8,0-1-.6-.9-1.5,0-3.2,0-6.3,0-9.5-.3-.2-.1-.3-.7-.3s-.5.2-.5.5h0Z"/>
      <path class="st0" d="M31.1,8.1c0-.9.3-2.1.6-2.8,1.6-3.7,6.4-5.4,10.2-2.9l1,.8c.2.2.2.3.4.5,1.7,2.2,2.1,4.7,1,7.3-.2.6-.6,1.1-1,1.5-.6.7-.2.3-.9.9-2.7,2.2-6.2,2.2-8.8,0-.8-.7-1.5-1.5-1.9-2.5-.3-.7-.6-1.9-.6-2.8h0ZM30,7.7c0,2,.3,3.5,1.5,5.1.3.4.5.6.9,1,.4.4.6.6,1,.9,3.5,2.6,8.5,1.8,11.3-1.9,2-2.7,2-6.7,0-9.4C43.3,1.5,40.9,0,38.5,0s-2.5,0-4,.8c-.4.2-.9.5-1.2.7-.4.3-.6.5-1,.9-1.4,1.4-2.3,3.3-2.3,5.3h0Z"/>
      <path class="st0" d="M1.1,8.1c0-1.7.8-3.8,2-4.9,2.8-2.7,7.1-2.7,9.8,0,2.5,2.5,2.7,6.7.4,9.3-1,1.2-2.1,1.9-3.8,2.3-1.6.4-3,.2-4.4-.4-.3-.1-.8-.4-1.1-.6-.2-.1-.3-.2-.5-.4-1.6-1.3-2.6-3.2-2.6-5.3ZM0,7.5C0,9.6.3,11.1,1.4,12.7c3.3,4.5,9.8,4.6,13.2,0,2.5-3.4,1.8-8.5-1.9-11.3C8.7-1.5,2.8.2.8,4.5.5,5.3,0,6.5,0,7.5h0Z"/>
      <path class="st0" d="M34.3,4.8c0,.8,2.3,2.4,2.9,3.3-.6.9-2.9,2.5-2.9,3.3s.4.5.7.5,2.5-2.5,3.1-2.9c.9.6,2.5,2.9,3.3,2.9s.5-.4.5-.7-2.5-2.5-2.9-3.1c.6-.9,2.9-2.5,2.9-3.3s-.4-.5-.7-.5-2.5,2.5-3.1,2.9c-.9-.6-2.5-2.9-3.3-2.9s-.5.2-.5.5Z"/>
      <path class="st0" d="M21.6,27.7c.4.3.7.6,1,1,.4.4.7.6.7,1.4h-3.4c0-.8.2-.9.6-1.3.4-.4.7-.7,1.1-1ZM18.8,29.5v3.4c0,.6,1.1.6,1.1,0v-1.8h3.4c0,1.6-.2,2.2.7,2.2s.5-.2.5-.5v-3.4c0-.9-.7-1.4-1.1-1.9-1.9-1.9-1.4-1.9-3.3,0-.5.5-1.1.9-1.1,1.9h0Z"/>
      <path class="st0" d="M6.7,10.2c-.3-.2-1.3-1.4-1.6-1.8-.6-.7-1.2-1.8-1.8-1.8s-.5.4-.5.7.7,1,.8,1.1c.3.4,2.4,3.3,2.8,3.3.6,0,1.3-.9,1.9-1.6.4-.4,4.9-4.7,4.9-5.1s-.2-.7-.7-.7-2.7,2.5-3,2.9l-3,2.9h0Z"/>
      <path class="st0" d="M26.3,26.9v6c0,.6,1.1.6,1.1,0v-6c0-.6-1.1-.6-1.1,0Z"/>
    </g>
  </g>
</svg>