<svg width="64" height="64" viewBox="0 0 64 64" fill="none" xmlns="http://www.w3.org/2000/svg">
<path d="M55.0958 8.90457C52.5782 6.3869 49.226 5.00027 45.6565 5C45.6561 5 45.6559 5 45.6554 5C42.0864 5 38.7343 6.38636 36.2171 8.90363L25.0045 20.1163C24.1746 20.9463 23.4628 21.8767 22.8825 22.8834C21.8759 23.4637 20.9458 24.175 20.1165 25.0045L8.90376 36.2172C3.69875 41.4224 3.69875 49.8918 8.90376 55.0969C11.5061 57.6991 14.9238 59.0003 18.3423 59.0001C21.7607 59 25.18 57.6986 27.7826 55.096L38.9951 43.8833C39.8239 43.0546 40.5351 42.1245 41.1156 41.1174C42.1226 40.537 43.0532 39.8251 43.8833 38.9951L55.0958 27.7824C60.3004 22.5778 60.3004 14.1092 55.0958 8.90457ZM26.3452 53.6584C21.9323 58.0709 14.7528 58.0713 10.3411 53.6593C5.92844 49.2467 5.92844 42.0669 10.3411 37.6544L21.5538 26.4417C22.3168 25.6787 23.1784 25.0322 24.1155 24.5198C26.8484 23.0232 30.1208 22.723 33.0942 23.6963C34.7897 24.2512 36.2916 25.1749 37.5584 26.4417C38.6799 27.5631 39.5312 28.8673 40.0955 30.325L37.6543 32.7662C37.2023 33.2182 36.6742 33.5619 36.0939 33.7865C35.9474 32.2893 35.2927 30.8836 34.2046 29.7956C32.7818 28.3728 30.8143 27.6875 28.8106 27.9156C27.3399 28.0816 25.9538 28.7493 24.9073 29.7956L13.6948 41.0084C11.1317 43.5716 11.1317 47.7422 13.6948 50.3054C14.9344 51.545 16.5846 52.2276 18.3419 52.2276C18.3423 52.2276 18.3427 52.2276 18.3431 52.2276C20.1005 52.2273 21.7511 51.5443 22.9911 50.3044L30.8794 42.4161C32.0458 42.7377 33.2439 42.8984 34.4398 42.8984C35.4511 42.8984 36.4602 42.7832 37.446 42.5573L26.3452 53.6584ZM41.6445 28.7763C40.994 27.38 40.1074 26.1158 38.996 25.0044C37.8852 23.8935 36.6204 23.0068 35.2226 22.3554L42.4458 15.1324C43.3013 14.2767 44.4412 13.8055 45.6554 13.8055C45.6557 13.8055 45.6561 13.8055 45.6563 13.8055C46.8708 13.8056 48.011 14.2772 48.8671 15.1333C49.7229 15.9892 50.1944 17.1292 50.1944 18.3435C50.1944 19.5577 49.7229 20.6977 48.867 21.5536L41.6445 28.7763ZM32.7674 31.2331C33.5402 32.0058 33.9958 33.0112 34.0789 34.0791C33.0111 33.9957 32.0058 33.5398 31.2332 32.7672C30.461 31.9948 30.005 30.9896 29.921 29.9211C30.9892 30.0049 31.9948 30.4606 32.7674 31.2331ZM22.3555 35.2228C23.007 36.6205 23.8938 37.8852 25.0046 38.996C26.116 40.1074 27.3804 40.9941 28.7763 41.6445L21.5538 48.8671C20.6978 49.7232 19.5576 50.1946 18.3429 50.1949C18.3427 50.1949 18.3425 50.1949 18.3421 50.1949C17.128 50.1949 15.988 49.7237 15.1325 48.8681C13.3619 47.0974 13.3619 44.2164 15.1325 42.4458L22.3555 35.2228ZM53.6584 26.3451L42.4458 37.5578C41.6823 38.3214 40.8203 38.9683 39.883 39.4806C37.1499 40.9776 33.8778 41.2774 30.9047 40.3028C29.2116 39.7499 27.71 38.8266 26.442 37.5587C25.3214 36.4382 24.4699 35.1335 23.9042 33.6741L26.3451 31.2331C26.7972 30.7809 27.3254 30.4373 27.9057 30.2128C28.053 31.7108 28.708 33.1168 29.7958 34.2046C31.0389 35.4477 32.6958 36.1278 34.4312 36.1278C34.6823 36.1278 34.9353 36.1135 35.1886 36.0847C36.6598 35.9176 38.046 35.2495 39.0918 34.2037L50.3044 22.991C51.5443 21.7511 52.2272 20.1006 52.2272 18.3433C52.2272 16.5862 51.5443 14.9356 50.3044 13.6958C49.0646 12.456 47.4139 11.773 45.6565 11.7727C45.6561 11.7727 45.6557 11.7727 45.6553 11.7727C43.8982 11.7727 42.2477 12.4553 41.0082 13.6949L33.1205 21.5825C30.9669 20.9895 28.7038 20.9498 26.5527 21.4427L37.6544 10.3409C39.7879 8.2076 42.6292 7.03279 45.6554 7.03279C45.6556 7.03279 45.6561 7.03279 45.6564 7.03279C48.6828 7.03306 51.5248 8.20828 53.6584 10.342C58.0705 14.7541 58.0705 21.933 53.6584 26.3451Z" fill="white"/>
</svg>
