<svg width="64" height="64" viewBox="0 0 64 64" fill="none" xmlns="http://www.w3.org/2000/svg">
<path d="M40.0063 22.3984H24.0063C23.1231 22.3984 22.4062 23.1152 22.4062 23.9984V39.9984C22.4062 40.8816 23.1231 41.5984 24.0063 41.5984H40.0063C40.8895 41.5984 41.6063 40.8816 41.6063 39.9984V23.9984C41.6063 23.1152 40.8895 22.3984 40.0063 22.3984ZM38.4063 38.3984H25.6063V25.5984H38.4063V38.3984Z" fill="white"/>
<path d="M62.4 28.8C63.2832 28.8 64 28.0832 64 27.2C64 26.3168 63.2832 25.6 62.4 25.6H54.4V19.2H62.4C63.2832 19.2 64 18.4832 64 17.6C64 16.7168 63.2832 16 62.4 16H54.2368C53.6 12.8672 51.1296 10.4 48 9.7632V1.6C48 0.7168 47.2832 0 46.4 0C45.5168 0 44.8 0.7168 44.8 1.6V9.6H38.4V1.6C38.4 0.7168 37.6832 0 36.8 0C35.9168 0 35.2 0.7168 35.2 1.6V9.6H28.8V1.6C28.8 0.7168 28.0832 0 27.2 0C26.3168 0 25.6 0.7168 25.6 1.6V9.6H19.2V1.6C19.2 0.7168 18.4832 0 17.6 0C16.7168 0 16 0.7168 16 1.6V9.7632C12.8704 10.4 10.4 12.8672 9.7632 16H1.6C0.7168 16 0 16.7168 0 17.6C0 18.4832 0.7168 19.2 1.6 19.2H9.6V25.6H1.6C0.7168 25.6 0 26.3168 0 27.2C0 28.0832 0.7168 28.8 1.6 28.8H9.6V35.2H1.6C0.7168 35.2 0 35.9168 0 36.8C0 37.6832 0.7168 38.4 1.6 38.4H9.6V44.8H1.6C0.7168 44.8 0 45.5168 0 46.4C0 47.2832 0.7168 48 1.6 48H9.7632C10.4 51.1328 12.8704 53.6 16 54.2368V62.4C16 63.2832 16.7168 64 17.6 64C18.4832 64 19.2 63.2832 19.2 62.4V54.4H25.6V62.4C25.6 63.2832 26.3168 64 27.2 64C28.0832 64 28.8 63.2832 28.8 62.4V54.4H35.2V62.4C35.2 63.2832 35.9168 64 36.8 64C37.6832 64 38.4 63.2832 38.4 62.4V54.4H44.8V62.4C44.8 63.2832 45.5168 64 46.4 64C47.2832 64 48 63.2832 48 62.4V54.2368C51.1296 53.6 53.6 51.1296 54.2368 48H62.4C63.2832 48 64 47.2832 64 46.4C64 45.5168 63.2832 44.8 62.4 44.8H54.4V38.4H62.4C63.2832 38.4 64 37.6832 64 36.8C64 35.9168 63.2832 35.2 62.4 35.2H54.4V28.8H62.4ZM46.4 51.2H17.6C14.9536 51.2 12.8 49.0464 12.8 46.4V17.6C12.8 14.9536 14.9536 12.8 17.6 12.8H46.4C49.0464 12.8 51.2 14.9536 51.2 17.6V46.4C51.2 49.0464 49.0464 51.2 46.4 51.2Z" fill="white"/>
</svg>
