<svg width="64" height="64" viewBox="0 0 64 64" fill="none" xmlns="http://www.w3.org/2000/svg">
<g clip-path="url(#clip0_1951_35544)">
<path d="M60.8 28.8C59.4112 28.8 58.2379 29.6949 57.7963 30.9333H51.2V26.6667H57.6C58.1899 26.6667 58.6667 26.1899 58.6667 25.6C58.6667 25.0101 58.1899 24.5333 57.6 24.5333H51.2V20.2667H58.6667C59.8432 20.2667 60.8 19.3099 60.8 18.1333V15.8037C62.0384 15.3621 62.9333 14.1888 62.9333 12.8C62.9333 11.0357 61.4976 9.6 59.7333 9.6C57.9691 9.6 56.5333 11.0357 56.5333 12.8C56.5333 14.1888 57.4283 15.3621 58.6667 15.8037V18.1333H51.2V17.0667C51.2 14.7136 49.2864 12.8 46.9333 12.8H45.8667V5.33333H48.1963C48.6379 6.57173 49.8112 7.46667 51.2 7.46667C52.9643 7.46667 54.4 6.03093 54.4 4.26667C54.4 2.5024 52.9643 1.06667 51.2 1.06667C49.8112 1.06667 48.6379 1.9616 48.1963 3.2H45.8667C44.6901 3.2 43.7333 4.1568 43.7333 5.33333V12.8H39.4667V6.4C39.4667 5.81013 38.9899 5.33333 38.4 5.33333C37.8101 5.33333 37.3333 5.81013 37.3333 6.4V12.8H33.0667V6.20373C34.3051 5.76213 35.2 4.5888 35.2 3.2C35.2 1.43573 33.7643 0 32 0C30.2357 0 28.8 1.43573 28.8 3.2C28.8 4.5888 29.6949 5.76213 30.9333 6.20373V12.8H26.6667V6.4C26.6667 5.81013 26.1899 5.33333 25.6 5.33333C25.0101 5.33333 24.5333 5.81013 24.5333 6.4V12.8H20.2667V5.33333C20.2667 4.1568 19.3099 3.2 18.1333 3.2H15.8037C15.3621 1.9616 14.1888 1.06667 12.8 1.06667C11.0357 1.06667 9.6 2.5024 9.6 4.26667C9.6 6.03093 11.0357 7.46667 12.8 7.46667C14.1888 7.46667 15.3621 6.57173 15.8037 5.33333H18.1333V12.8H17.0667C14.7136 12.8 12.8 14.7136 12.8 17.0667V18.1333H5.33333V15.8037C6.57173 15.3621 7.46667 14.1888 7.46667 12.8C7.46667 11.0357 6.03093 9.6 4.26667 9.6C2.5024 9.6 1.06667 11.0357 1.06667 12.8C1.06667 14.1888 1.9616 15.3621 3.2 15.8037V18.1333C3.2 19.3099 4.1568 20.2667 5.33333 20.2667H12.8V24.5333H6.4C5.81013 24.5333 5.33333 25.0101 5.33333 25.6C5.33333 26.1899 5.81013 26.6667 6.4 26.6667H12.8V30.9333H6.20373C5.76213 29.6949 4.5888 28.8 3.2 28.8C1.43573 28.8 0 30.2357 0 32C0 33.7643 1.43573 35.2 3.2 35.2C4.5888 35.2 5.76213 34.3051 6.20373 33.0667H12.8V37.3333H6.4C5.81013 37.3333 5.33333 37.8101 5.33333 38.4C5.33333 38.9899 5.81013 39.4667 6.4 39.4667H12.8V43.7333H5.33333C4.1568 43.7333 3.2 44.6901 3.2 45.8667V48.1963C1.9616 48.6379 1.06667 49.8112 1.06667 51.2C1.06667 52.9643 2.5024 54.4 4.26667 54.4C6.03093 54.4 7.46667 52.9643 7.46667 51.2C7.46667 49.8112 6.57173 48.6379 5.33333 48.1963V45.8667H12.8V46.9333C12.8 49.2864 14.7136 51.2 17.0667 51.2H18.1333V58.6667H15.8037C15.3621 57.4283 14.1888 56.5333 12.8 56.5333C11.0357 56.5333 9.6 57.9691 9.6 59.7333C9.6 61.4976 11.0357 62.9333 12.8 62.9333C14.1888 62.9333 15.3621 62.0384 15.8037 60.8H18.1333C19.3099 60.8 20.2667 59.8432 20.2667 58.6667V51.2H24.5333V57.6C24.5333 58.1899 25.0101 58.6667 25.6 58.6667C26.1899 58.6667 26.6667 58.1899 26.6667 57.6V51.2H30.9333V57.7963C29.6949 58.2379 28.8 59.4112 28.8 60.8C28.8 62.5643 30.2357 64 32 64C33.7643 64 35.2 62.5643 35.2 60.8C35.2 59.4112 34.3051 58.2379 33.0667 57.7963V51.2H37.3333V57.6C37.3333 58.1899 37.8101 58.6667 38.4 58.6667C38.9899 58.6667 39.4667 58.1899 39.4667 57.6V51.2H43.7333V58.6667C43.7333 59.8432 44.6901 60.8 45.8667 60.8H48.1963C48.6379 62.0384 49.8112 62.9333 51.2 62.9333C52.9643 62.9333 54.4 61.4976 54.4 59.7333C54.4 57.9691 52.9643 56.5333 51.2 56.5333C49.8112 56.5333 48.6379 57.4283 48.1963 58.6667H45.8667V51.2H46.9333C49.2864 51.2 51.2 49.2864 51.2 46.9333V45.8667H58.6667V48.1963C57.4283 48.6379 56.5333 49.8112 56.5333 51.2C56.5333 52.9643 57.9691 54.4 59.7333 54.4C61.4976 54.4 62.9333 52.9643 62.9333 51.2C62.9333 49.8112 62.0384 48.6379 60.8 48.1963V45.8667C60.8 44.6901 59.8432 43.7333 58.6667 43.7333H51.2V39.4667H57.6C58.1899 39.4667 58.6667 38.9899 58.6667 38.4C58.6667 37.8101 58.1899 37.3333 57.6 37.3333H51.2V33.0667H57.7963C58.2379 34.3051 59.4112 35.2 60.8 35.2C62.5643 35.2 64 33.7643 64 32C64 30.2357 62.5643 28.8 60.8 28.8ZM59.7333 11.7333C60.3221 11.7333 60.8 12.2112 60.8 12.8C60.8 13.3888 60.3221 13.8667 59.7333 13.8667C59.1445 13.8667 58.6667 13.3888 58.6667 12.8C58.6667 12.2112 59.1445 11.7333 59.7333 11.7333ZM51.2 3.2C51.7888 3.2 52.2667 3.67787 52.2667 4.26667C52.2667 4.85547 51.7888 5.33333 51.2 5.33333C50.6112 5.33333 50.1333 4.85547 50.1333 4.26667C50.1333 3.67787 50.6112 3.2 51.2 3.2ZM32 2.13333C32.5888 2.13333 33.0667 2.6112 33.0667 3.2C33.0667 3.7888 32.5888 4.26667 32 4.26667C31.4112 4.26667 30.9333 3.7888 30.9333 3.2C30.9333 2.6112 31.4112 2.13333 32 2.13333ZM12.8 5.33333C12.2112 5.33333 11.7333 4.85547 11.7333 4.26667C11.7333 3.67787 12.2112 3.2 12.8 3.2C13.3888 3.2 13.8667 3.67787 13.8667 4.26667C13.8667 4.85547 13.3888 5.33333 12.8 5.33333ZM4.26667 11.7333C4.85547 11.7333 5.33333 12.2112 5.33333 12.8C5.33333 13.3888 4.85547 13.8667 4.26667 13.8667C3.67787 13.8667 3.2 13.3888 3.2 12.8C3.2 12.2112 3.67787 11.7333 4.26667 11.7333ZM3.2 33.0667C2.6112 33.0667 2.13333 32.5888 2.13333 32C2.13333 31.4112 2.6112 30.9333 3.2 30.9333C3.7888 30.9333 4.26667 31.4112 4.26667 32C4.26667 32.5888 3.7888 33.0667 3.2 33.0667ZM4.26667 52.2667C3.67787 52.2667 3.2 51.7888 3.2 51.2C3.2 50.6112 3.67787 50.1333 4.26667 50.1333C4.85547 50.1333 5.33333 50.6112 5.33333 51.2C5.33333 51.7888 4.85547 52.2667 4.26667 52.2667ZM12.8 60.8C12.2112 60.8 11.7333 60.3221 11.7333 59.7333C11.7333 59.1445 12.2112 58.6667 12.8 58.6667C13.3888 58.6667 13.8667 59.1445 13.8667 59.7333C13.8667 60.3221 13.3888 60.8 12.8 60.8ZM32 61.8667C31.4112 61.8667 30.9333 61.3888 30.9333 60.8C30.9333 60.2112 31.4112 59.7333 32 59.7333C32.5888 59.7333 33.0667 60.2112 33.0667 60.8C33.0667 61.3888 32.5888 61.8667 32 61.8667ZM51.2 58.6667C51.7888 58.6667 52.2667 59.1445 52.2667 59.7333C52.2667 60.3221 51.7888 60.8 51.2 60.8C50.6112 60.8 50.1333 60.3221 50.1333 59.7333C50.1333 59.1445 50.6112 58.6667 51.2 58.6667ZM59.7333 52.2667C59.1445 52.2667 58.6667 51.7888 58.6667 51.2C58.6667 50.6112 59.1445 50.1333 59.7333 50.1333C60.3221 50.1333 60.8 50.6112 60.8 51.2C60.8 51.7888 60.3221 52.2667 59.7333 52.2667ZM49.0667 46.9333C49.0667 48.1099 48.1099 49.0667 46.9333 49.0667H17.0667C15.8901 49.0667 14.9333 48.1099 14.9333 46.9333V17.0667C14.9333 15.8901 15.8901 14.9333 17.0667 14.9333H46.9333C48.1099 14.9333 49.0667 15.8901 49.0667 17.0667V46.9333ZM60.8 33.0667C60.2112 33.0667 59.7333 32.5888 59.7333 32C59.7333 31.4112 60.2112 30.9333 60.8 30.9333C61.3888 30.9333 61.8667 31.4112 61.8667 32C61.8667 32.5888 61.3888 33.0667 60.8 33.0667Z" fill="white"/>
<path d="M27.2115 23.6911C27.0419 22.9316 26.3795 22.4004 25.5997 22.4004C24.82 22.4004 24.1576 22.9316 23.9869 23.6932L20.2909 40.3023C20.164 40.8772 20.5267 41.4468 21.1016 41.5748C21.668 41.7007 22.2451 41.3412 22.3741 40.7641L23.6125 35.1993H27.5859L28.8243 40.7641C28.9352 41.2623 29.3768 41.5993 29.8653 41.5993C29.9421 41.5993 30.0211 41.5908 30.0979 41.5748C30.6728 41.4468 31.0355 40.8772 30.9085 40.3023L27.2115 23.6911ZM24.0883 33.0671L25.6008 26.2703L27.1133 33.0671H24.0883Z" fill="white"/>
<path d="M40.537 24.5337C41.1268 24.5337 41.6036 24.0569 41.6036 23.4671C41.6036 22.8772 41.1268 22.4004 40.537 22.4004H34.137C33.5471 22.4004 33.0703 22.8772 33.0703 23.4671C33.0703 24.0569 33.5471 24.5337 34.137 24.5337H36.2703V39.4671H34.137C33.5471 39.4671 33.0703 39.9439 33.0703 40.5337C33.0703 41.1236 33.5471 41.6004 34.137 41.6004H40.537C41.1268 41.6004 41.6036 41.1236 41.6036 40.5337C41.6036 39.9439 41.1268 39.4671 40.537 39.4671H38.4036V24.5337H40.537Z" fill="white"/>
</g>
<defs>
<clipPath id="clip0_1951_35544">
<rect width="64" height="64" fill="white"/>
</clipPath>
</defs>
</svg>
