<svg width="64" height="64" viewBox="0 0 64 64" fill="none" xmlns="http://www.w3.org/2000/svg">
<path fill-rule="evenodd" clip-rule="evenodd" d="M38.2477 4.23828C38.1303 3.80024 37.7783 3.46388 37.3325 3.37002C33.1163 2.43135 28.7515 2.43135 24.5353 3.37002C24.0895 3.4717 23.7453 3.80024 23.6201 4.23828L22.1339 9.6669C19.9202 10.5352 17.8473 11.732 15.9856 13.2182L10.5492 11.7867C10.1111 11.6694 9.64181 11.8102 9.33675 12.1387C6.41123 15.3145 4.22883 19.1005 2.93817 23.2228C2.80519 23.653 2.9147 24.1224 3.23541 24.4509L7.19346 28.4481C6.84146 30.8025 6.84146 33.1961 7.19346 35.5506L3.23541 39.5478C2.9147 39.8685 2.80519 40.3378 2.93817 40.7759C4.22883 44.8982 6.41123 48.6842 9.33675 51.86C9.64181 52.1963 10.1111 52.3293 10.5492 52.212L15.9856 50.7805C17.8473 52.2589 19.9202 53.4557 22.1339 54.3318L23.6123 59.7604C23.7296 60.1985 24.0816 60.5348 24.5275 60.6287C28.7437 61.5673 33.1085 61.5673 37.3247 60.6287C37.7705 60.527 38.1147 60.1985 38.2399 59.7604L39.7261 54.3318C41.9398 53.4635 44.0127 52.2667 45.8743 50.7805L51.3108 52.212C51.7488 52.3293 52.2182 52.1885 52.5232 51.86C55.4488 48.6842 57.6312 44.8982 58.9218 40.7759C59.0548 40.3457 58.9453 39.8763 58.6246 39.5478L54.6665 35.5506C55.0185 33.1961 55.0185 30.8025 54.6665 28.4481L58.6246 24.4509C58.9453 24.1302 59.0548 23.6609 58.9218 23.2228C57.6312 19.1005 55.4488 15.3145 52.5232 12.1387C52.2182 11.8024 51.7488 11.6694 51.3108 11.7867L45.8743 13.2104C44.0127 11.732 41.9398 10.5352 39.7261 9.65908L38.2477 4.23828ZM36.0809 5.59935L37.528 10.9028C37.6297 11.2861 37.9191 11.5912 38.2946 11.732C40.6647 12.5924 42.8628 13.8596 44.7949 15.4866C45.1 15.7369 45.5067 15.8308 45.89 15.7291L51.2091 14.3289C53.4854 16.9416 55.2376 19.9688 56.3561 23.2463L52.4841 27.1574C52.2025 27.439 52.0774 27.8379 52.1478 28.229C52.5858 30.7165 52.5858 33.2509 52.1478 35.7384C52.0774 36.1295 52.2025 36.5284 52.4841 36.81L56.3561 40.7211C55.2297 43.9986 53.4776 47.0258 51.2091 49.6385L45.89 48.2383C45.5067 48.1366 45.1 48.2305 44.7949 48.4808C42.8628 50.1 40.6647 51.375 38.2946 52.2354C37.9191 52.3684 37.6375 52.6813 37.528 53.0646L36.0809 58.3681C32.6783 59.0329 29.1817 59.0329 25.7791 58.3681L24.3319 53.0646C24.2303 52.6813 23.9408 52.3762 23.5654 52.2354C21.1952 51.375 18.9972 50.1078 17.0651 48.4808C16.76 48.2305 16.3533 48.1366 15.97 48.2383L10.6509 49.6385C8.37461 47.0258 6.62243 43.9986 5.50386 40.7211L9.37586 36.81C9.65746 36.5284 9.78261 36.1295 9.71221 35.7384C9.27417 33.2509 9.27417 30.7087 9.71221 28.229C9.78261 27.8379 9.65746 27.439 9.37586 27.1574L5.50386 23.2463C6.63026 19.9688 8.38243 16.9416 10.6509 14.3289L15.97 15.7291C16.3533 15.8308 16.76 15.7369 17.0651 15.4866C18.9972 13.8596 21.1952 12.5924 23.5654 11.732C23.9408 11.599 24.2224 11.2861 24.3319 10.9028L25.7791 5.59935C29.1817 4.93446 32.6861 4.93446 36.0809 5.59935Z" fill="white"/>
<path fill-rule="evenodd" clip-rule="evenodd" d="M41.9336 34.4323C41.9336 32.4063 40.2909 30.7637 38.265 30.7637H23.5983C21.5724 30.7637 19.9297 32.4063 19.9297 34.4323V39.3212C19.9297 41.3471 21.5724 42.9898 23.5983 42.9898H38.265C40.2909 42.9898 41.9336 41.3471 41.9336 39.3212V34.4323ZM39.4931 34.4323V39.3212C39.4931 39.9939 38.9455 40.5414 38.2728 40.5414H23.5983C22.9256 40.5414 22.378 39.9939 22.378 39.3212V34.4323C22.378 33.7596 22.9256 33.212 23.5983 33.212H38.265C38.9455 33.212 39.4931 33.7596 39.4931 34.4323Z" fill="white"/>
<path fill-rule="evenodd" clip-rule="evenodd" d="M41.9336 24.655C41.9336 22.629 40.2909 20.9863 38.265 20.9863H23.5983C21.5724 20.9863 19.9297 22.629 19.9297 24.655V29.5438C19.9297 31.5698 21.5724 33.2125 23.5983 33.2125H38.265C40.2909 33.2125 41.9336 31.5698 41.9336 29.5438V24.655ZM39.4931 24.655V29.5438C39.4931 30.2166 38.9455 30.7641 38.2728 30.7641H23.5983C22.9256 30.7641 22.378 30.2166 22.378 29.5438V24.655C22.378 23.9822 22.9256 23.4347 23.5983 23.4347H38.265C38.9455 23.4347 39.4931 23.9822 39.4931 24.655Z" fill="white"/>
<path d="M24.8296 38.1007C25.5036 38.1007 26.0499 37.5544 26.0499 36.8804C26.0499 36.2065 25.5036 35.6602 24.8296 35.6602C24.1557 35.6602 23.6094 36.2065 23.6094 36.8804C23.6094 37.5544 24.1557 38.1007 24.8296 38.1007Z" fill="white"/>
<path d="M24.8296 28.3233C25.5036 28.3233 26.0499 27.777 26.0499 27.1031C26.0499 26.4291 25.5036 25.8828 24.8296 25.8828C24.1557 25.8828 23.6094 26.4291 23.6094 27.1031C23.6094 27.777 24.1557 28.3233 24.8296 28.3233Z" fill="white"/>
<path d="M28.4937 38.1007C29.1676 38.1007 29.714 37.5544 29.714 36.8804C29.714 36.2065 29.1676 35.6602 28.4937 35.6602C27.8198 35.6602 27.2734 36.2065 27.2734 36.8804C27.2734 37.5544 27.8198 38.1007 28.4937 38.1007Z" fill="white"/>
<path d="M28.4937 28.3233C29.1676 28.3233 29.714 27.777 29.714 27.1031C29.714 26.4291 29.1676 25.8828 28.4937 25.8828C27.8198 25.8828 27.2734 26.4291 27.2734 27.1031C27.2734 27.777 27.8198 28.3233 28.4937 28.3233Z" fill="white"/>
<path fill-rule="evenodd" clip-rule="evenodd" d="M30.9306 12.4375C20.1359 12.4375 11.375 21.1984 11.375 31.9931C11.375 42.7877 20.1359 51.5486 30.9306 51.5486C41.7252 51.5486 50.4861 42.7877 50.4861 31.9931C50.4861 21.1984 41.7252 12.4375 30.9306 12.4375ZM30.9306 14.878C40.372 14.878 48.0456 22.5438 48.0456 31.9931C48.0456 41.4423 40.3798 49.1081 30.9306 49.1081C21.4813 49.1081 13.8155 41.4423 13.8155 31.9931C13.8155 22.5438 21.4891 14.878 30.9306 14.878Z" fill="white"/>
</svg>
