<svg width="20" height="20" viewBox="0 0 20 20" fill="none" xmlns="http://www.w3.org/2000/svg">
<g clip-path="url(#clip0_1930_22269)">
<path fill-rule="evenodd" clip-rule="evenodd" d="M8.75 1.875C7.02411 1.875 5.625 3.27411 5.625 5C5.625 6.72589 7.02411 8.125 8.75 8.125C10.4759 8.125 11.875 6.72589 11.875 5C11.875 3.27411 10.4759 1.875 8.75 1.875ZM4.375 5C4.375 2.58376 6.33376 0.625 8.75 0.625C11.1662 0.625 13.125 2.58376 13.125 5C13.125 7.41625 11.1662 9.375 8.75 9.375C6.33376 9.375 4.375 7.41625 4.375 5Z" fill="#EDF5F8"/>
<path fill-rule="evenodd" clip-rule="evenodd" d="M9.1495 11.8805C6.67805 11.8125 4.19341 12.3759 1.94472 13.5709C1.90182 13.5936 1.875 13.6383 1.875 13.6869V16.7467C1.875 16.8618 1.96828 16.9551 2.08333 16.9551H9.16667C9.51183 16.9551 9.79167 17.2349 9.79167 17.5801C9.79167 17.9252 9.51183 18.2051 9.16667 18.2051H2.08333C1.27792 18.2051 0.625 17.5521 0.625 16.7467V13.6869C0.625 13.176 0.906992 12.7068 1.35814 12.4671C3.80066 11.1691 6.49967 10.5571 9.18383 10.631C9.52892 10.6405 9.80092 10.9279 9.79142 11.2729C9.78192 11.618 9.4945 11.89 9.1495 11.8805Z" fill="#EDF5F8"/>
<path fill-rule="evenodd" clip-rule="evenodd" d="M17.4965 10.39C16.9677 10.2967 16.4236 10.4184 15.985 10.728C15.0193 11.4096 13.7642 11.514 12.7031 11.0102V14.6974L13.1603 14.9394C13.8309 15.2944 14.6442 15.2424 15.2641 14.8049C15.9644 14.3105 16.8305 14.1118 17.6754 14.2505L16.9077 12.591C16.825 12.4123 16.8314 12.205 16.925 12.0318L17.7836 10.4407L17.4965 10.39ZM12.7031 16.1083V18.7502C12.7031 19.0954 12.4233 19.3752 12.0781 19.3752C11.733 19.3752 11.4531 19.0954 11.4531 18.7502V9.9757C11.4531 9.75645 11.568 9.55328 11.7557 9.4402C11.9435 9.3272 12.1768 9.32078 12.3705 9.42328L13.1603 9.84137C13.8309 10.1964 14.6442 10.1444 15.2641 9.70678C15.975 9.20503 16.8568 9.00787 17.7137 9.15903L18.8534 9.3602C19.0511 9.39503 19.22 9.52278 19.3074 9.70345C19.3948 9.8842 19.3901 10.0959 19.2948 10.2725L18.1735 12.3501L19.312 14.8113C19.4098 15.0225 19.382 15.2705 19.24 15.4549C19.098 15.6394 18.8654 15.7296 18.6362 15.6892L17.4965 15.488C16.9677 15.3948 16.4236 15.5164 15.985 15.826C15.0193 16.5077 13.7642 16.612 12.7031 16.1083Z" fill="#EDF5F8"/>
</g>
<defs>
<clipPath id="clip0_1930_22269">
<rect width="20" height="20" fill="white"/>
</clipPath>
</defs>
</svg>
