<svg width="20" height="20" viewBox="0 0 20 20" fill="none" xmlns="http://www.w3.org/2000/svg">
<path d="M18.4375 15.3752H17.9375V4.82235C17.9255 4.58187 17.8189 4.35588 17.6409 4.19371C17.4629 4.03154 17.228 3.94635 16.9875 3.95673H16.2655C16.0336 3.48772 15.6751 3.0929 15.2306 2.81686C14.7861 2.54081 14.2732 2.39453 13.75 2.39453C13.2268 2.39453 12.7139 2.54081 12.2694 2.81686C11.8249 3.0929 11.4664 3.48772 11.2345 3.95673H3.01254C2.77198 3.94635 2.53709 4.03154 2.35911 4.19371C2.18113 4.35588 2.07452 4.58187 2.06254 4.82235V15.3752H1.5625C1.52146 15.3752 1.48082 15.3832 1.4429 15.3989C1.40498 15.4146 1.37052 15.4377 1.3415 15.4667C1.31248 15.4957 1.28947 15.5301 1.27377 15.5681C1.25806 15.606 1.24999 15.6466 1.25 15.6877V16.3563C1.25035 16.6877 1.38216 17.0055 1.61651 17.2398C1.85085 17.4741 2.16859 17.606 2.5 17.6063H17.5C17.8314 17.606 18.1491 17.4741 18.3835 17.2398C18.6178 17.0055 18.7496 16.6877 18.75 16.3563V15.6877C18.75 15.6466 18.7419 15.606 18.7262 15.5681C18.7105 15.5301 18.6875 15.4957 18.6585 15.4667C18.6295 15.4377 18.595 15.4146 18.5571 15.3989C18.5192 15.3832 18.4785 15.3752 18.4375 15.3752ZM13.75 3.01951C14.33 3.02016 14.886 3.25084 15.2961 3.66094C15.7062 4.07103 15.9368 4.62705 15.9375 5.20701C15.8348 8.1022 11.6648 8.10145 11.5625 5.20698C11.5632 4.62702 11.7938 4.07101 12.2039 3.66092C12.614 3.25084 13.17 3.02016 13.75 3.01951ZM12.8125 7.85541C13.4187 8.07193 14.0813 8.07193 14.6875 7.85541V10.3109L13.8307 9.94992C13.7912 9.93313 13.7486 9.92472 13.7057 9.92522C13.6627 9.92572 13.6204 9.93512 13.5812 9.95282L12.8125 10.2986V7.85541ZM2.68753 4.82234C2.68753 4.69188 2.8363 4.58172 3.01253 4.58172H11.01C10.8847 5.13662 10.9301 5.71645 11.1402 6.24509C11.3504 6.77373 11.7154 7.22648 12.1875 7.5439L12.1875 10.7817C12.1881 10.8336 12.2015 10.8847 12.2266 10.9302C12.2516 10.9757 12.2876 11.0143 12.3313 11.0426C12.3749 11.0708 12.4249 11.0878 12.4767 11.092C12.5285 11.0962 12.5805 11.0875 12.6282 11.0667L13.7135 10.5787L14.8787 11.0696C14.9262 11.089 14.9778 11.0965 15.0289 11.0915C15.08 11.0864 15.1291 11.0689 15.1718 11.0405C15.2146 11.0121 15.2498 10.9737 15.2743 10.9286C15.2988 10.8834 15.312 10.833 15.3125 10.7817V7.54392C15.7846 7.2265 16.1497 6.77374 16.3598 6.24509C16.5699 5.71644 16.6153 5.13661 16.49 4.5817C16.7057 4.59863 17.301 4.49006 17.3125 4.82235V15.3752H2.68753V4.82234ZM9.34025 16.9813L9.1242 16.0002H10.8758L10.6598 16.9813H9.34025ZM1.875 16.3563V16.0002H2.37653H8.48427L8.70033 16.9813H2.5C2.3343 16.9811 2.17544 16.9152 2.05827 16.798C1.9411 16.6809 1.87519 16.522 1.875 16.3563ZM18.125 16.3563C18.1248 16.522 18.0589 16.6809 17.9417 16.798C17.8246 16.9152 17.6657 16.9811 17.5 16.9813H11.2997L11.5157 16.0002H17.6235H18.125L18.125 16.3563Z" fill="white"/>
<path d="M3.75178 6.40625H7.50178C7.58361 6.40465 7.66154 6.37102 7.71884 6.31259C7.77614 6.25416 7.80824 6.17558 7.80824 6.09374C7.80823 6.0119 7.77613 5.93332 7.71883 5.87489C7.66152 5.81646 7.58358 5.78284 7.50176 5.78125H3.75178C3.66995 5.78285 3.59202 5.81647 3.53472 5.8749C3.47741 5.93333 3.44531 6.01191 3.44531 6.09375C3.44531 6.17559 3.47741 6.25417 3.53472 6.3126C3.59202 6.37103 3.66995 6.40465 3.75178 6.40625Z" fill="white"/>
<path d="M3.75162 7.65625H10.3141C10.3959 7.65461 10.4738 7.62097 10.5311 7.56254C10.5884 7.50411 10.6204 7.42555 10.6204 7.34374C10.6204 7.26193 10.5883 7.18337 10.5311 7.12495C10.4738 7.06652 10.3959 7.03288 10.3141 7.03125H3.75162C3.66983 7.03289 3.59193 7.06653 3.53466 7.12496C3.47739 7.18338 3.44531 7.26194 3.44531 7.34375C3.44531 7.42556 3.47739 7.50412 3.53466 7.56254C3.59193 7.62097 3.66983 7.65461 3.75162 7.65625Z" fill="white"/>
<path d="M3.75178 9.84375H7.50178C7.58361 9.84215 7.66154 9.80852 7.71884 9.75009C7.77614 9.69166 7.80824 9.61308 7.80824 9.53124C7.80823 9.4494 7.77613 9.37082 7.71883 9.31239C7.66152 9.25396 7.58358 9.22034 7.50176 9.21875H3.75178C3.66995 9.22035 3.59202 9.25397 3.53472 9.3124C3.47741 9.37083 3.44531 9.44941 3.44531 9.53125C3.44531 9.61309 3.47741 9.69167 3.53472 9.7501C3.59202 9.80853 3.66995 9.84215 3.75178 9.84375Z" fill="white"/>
<path d="M10.9391 10.4688H3.75161C3.66982 10.4704 3.59192 10.504 3.53465 10.5625C3.47739 10.6209 3.44531 10.6994 3.44531 10.7813C3.44532 10.8631 3.4774 10.9416 3.53467 11.0001C3.59194 11.0585 3.66984 11.0921 3.75164 11.0938H10.9391C11.0209 11.0921 11.0988 11.0585 11.1561 11C11.2133 10.9416 11.2454 10.8631 11.2454 10.7812C11.2454 10.6994 11.2133 10.6209 11.1561 10.5625C11.0988 10.504 11.0209 10.4704 10.9391 10.4688Z" fill="white"/>
<path d="M3.75178 13.2812H7.50178C7.58361 13.2797 7.66154 13.246 7.71884 13.1876C7.77614 13.1292 7.80824 13.0506 7.80824 12.9687C7.80823 12.8869 7.77613 12.8083 7.71883 12.7499C7.66152 12.6915 7.58358 12.6578 7.50176 12.6562H3.75178C3.66995 12.6578 3.59202 12.6915 3.53472 12.7499C3.47741 12.8083 3.44531 12.8869 3.44531 12.9688C3.44531 13.0506 3.47741 13.1292 3.53472 13.1876C3.59202 13.246 3.66995 13.2797 3.75178 13.2812Z" fill="white"/>
<path d="M10.9391 13.9062H3.75161C3.66982 13.9079 3.59192 13.9415 3.53465 14C3.47739 14.0584 3.44531 14.1369 3.44531 14.2188C3.44532 14.3006 3.4774 14.3791 3.53467 14.4376C3.59194 14.496 3.66984 14.5296 3.75164 14.5312H10.9391C11.0209 14.5296 11.0988 14.496 11.1561 14.4375C11.2133 14.3791 11.2454 14.3006 11.2454 14.2188C11.2454 14.1369 11.2133 14.0584 11.1561 14C11.0988 13.9415 11.0209 13.9079 10.9391 13.9062Z" fill="white"/>
<path d="M12.3688 5.60384L12.4499 5.66274L12.4189 5.7581C12.3654 5.92972 12.3698 6.11416 12.4315 6.283C12.4932 6.45183 12.6088 6.59569 12.7603 6.69237C12.9118 6.78906 13.091 6.83321 13.2701 6.81801C13.4492 6.80282 13.6184 6.72912 13.7514 6.60829C13.8914 6.73446 14.0705 6.80871 14.2587 6.81862C14.4469 6.82853 14.6328 6.77349 14.7852 6.66273C14.9377 6.55196 15.0475 6.39218 15.0962 6.21014C15.145 6.0281 15.1297 5.83484 15.053 5.66271C15.2177 5.5695 15.3452 5.42222 15.4138 5.2458C15.4824 5.06939 15.4879 4.87468 15.4294 4.69466C15.3709 4.51464 15.252 4.36037 15.0928 4.25797C14.9336 4.15557 14.7439 4.11133 14.5559 4.13275C14.5181 3.94726 14.4174 3.78052 14.2708 3.66076C14.1242 3.541 13.9407 3.47559 13.7514 3.47559C13.5621 3.47559 13.3787 3.541 13.2321 3.66076C13.0855 3.78052 12.9848 3.94726 12.947 4.13275C12.7683 4.11325 12.5882 4.15306 12.4344 4.24606C12.2805 4.33906 12.1616 4.48008 12.0958 4.64738C12.0301 4.81467 12.0212 4.99895 12.0705 5.17179C12.1199 5.34464 12.2247 5.49646 12.3688 5.60384ZM12.6679 4.8879C12.679 4.84936 12.7026 4.81562 12.735 4.79203C12.7674 4.76845 12.8068 4.75638 12.8469 4.75774H13.174C13.4561 4.76844 13.5029 4.43159 13.5724 4.23055C13.584 4.19207 13.6077 4.15834 13.6399 4.13436C13.6721 4.11038 13.7112 4.09743 13.7514 4.09743C13.7916 4.09743 13.8307 4.11038 13.863 4.13436C13.8952 4.15834 13.9189 4.19207 13.9304 4.23055C14.0003 4.43292 14.0467 4.76782 14.3288 4.75774H14.656C14.6961 4.75702 14.7353 4.76919 14.768 4.79246C14.8006 4.81573 14.8249 4.84887 14.8373 4.887C14.8497 4.92513 14.8495 4.96623 14.8368 5.00424C14.824 5.04226 14.7994 5.07518 14.7666 5.09816L14.5018 5.29058C14.4485 5.32938 14.4087 5.38408 14.3883 5.44685C14.3679 5.50962 14.3679 5.57723 14.3883 5.64L14.4895 5.95128C14.5026 5.9892 14.5031 6.03032 14.4911 6.06858C14.479 6.10684 14.455 6.14021 14.4225 6.16377C14.39 6.18733 14.3509 6.19983 14.3108 6.19943C14.2706 6.19903 14.2317 6.18576 14.1997 6.16156C14.0274 6.03995 13.7859 5.79488 13.5679 5.96931L13.303 6.16155C13.271 6.18593 13.2321 6.19936 13.1919 6.19984C13.1517 6.20032 13.1124 6.18783 13.0799 6.16422C13.0474 6.14061 13.0233 6.10714 13.0113 6.06878C12.9994 6.03042 13.0001 5.98922 13.0133 5.95129C13.076 5.74966 13.2342 5.44442 13.001 5.29058L12.7361 5.09816C12.7029 5.07574 12.6782 5.04286 12.6658 5.00476C12.6535 4.96666 12.6542 4.92553 12.6679 4.8879Z" fill="white"/>
</svg>
