<svg width="20" height="20" viewBox="0 0 20 20" fill="none" xmlns="http://www.w3.org/2000/svg">
<g clip-path="url(#clip0_1930_22326)">
<path d="M18.75 9.0625C18.5568 9.0633 18.3686 9.12378 18.211 9.23565C18.0535 9.34753 17.9344 9.50534 17.87 9.6875H15.9375V10.3125H17.87C17.9276 10.4741 18.0285 10.6168 18.1616 10.725C18.2948 10.8331 18.4552 10.9026 18.6251 10.9258C18.7951 10.949 18.9682 10.925 19.1255 10.8565C19.2828 10.7879 19.4182 10.6775 19.517 10.5372C19.6157 10.3969 19.674 10.2322 19.6855 10.061C19.697 9.88983 19.6612 9.71879 19.582 9.56658C19.5029 9.41437 19.3834 9.28685 19.2366 9.19795C19.0899 9.10905 18.9216 9.0622 18.75 9.0625ZM18.75 10.3125C18.6882 10.3125 18.6278 10.2942 18.5764 10.2598C18.525 10.2255 18.4849 10.1767 18.4613 10.1196C18.4376 10.0625 18.4314 9.99965 18.4435 9.93904C18.4556 9.87842 18.4853 9.82273 18.529 9.77903C18.5727 9.73533 18.6284 9.70556 18.689 9.69351C18.7497 9.68145 18.8125 9.68764 18.8696 9.71129C18.9267 9.73494 18.9755 9.775 19.0098 9.82639C19.0442 9.87778 19.0625 9.93819 19.0625 10C19.0625 10.0829 19.0296 10.1624 18.971 10.221C18.9124 10.2796 18.8329 10.3125 18.75 10.3125Z" fill="white"/>
<path d="M15.625 7.81199V8.43699H16.875C16.9235 8.43699 16.9714 8.4257 17.0148 8.404C17.0581 8.3823 17.0959 8.3508 17.125 8.31199L17.535 7.76543C17.6246 7.79497 17.7182 7.81067 17.8125 7.81199C18.022 7.81248 18.2257 7.74291 18.3912 7.61435C18.5567 7.48579 18.6744 7.30561 18.7257 7.10245C18.7771 6.89929 18.759 6.68481 18.6744 6.49309C18.5899 6.30137 18.4437 6.14341 18.259 6.04432C18.0744 5.94523 17.8619 5.9107 17.6554 5.94621C17.4489 5.98172 17.2602 6.08523 17.1193 6.2403C16.9783 6.39537 16.8933 6.5931 16.8776 6.80205C16.862 7.01101 16.9166 7.2192 17.0328 7.39355L16.7188 7.81199H15.625ZM17.8125 6.56199C17.8743 6.56199 17.9347 6.58032 17.9861 6.61466C18.0375 6.64899 18.0776 6.6978 18.1012 6.7549C18.1249 6.812 18.1311 6.87484 18.119 6.93546C18.1069 6.99608 18.0772 7.05176 18.0335 7.09546C17.9898 7.13917 17.9341 7.16893 17.8735 7.18099C17.8128 7.19304 17.75 7.18686 17.6929 7.1632C17.6358 7.13955 17.587 7.0995 17.5527 7.04811C17.5183 6.99672 17.5 6.9363 17.5 6.87449C17.5 6.79161 17.5329 6.71213 17.5915 6.65352C17.6501 6.59491 17.7296 6.56199 17.8125 6.56199Z" fill="white"/>
<path d="M17.8125 12.1875C17.7182 12.1888 17.6246 12.2045 17.535 12.2341L17.125 11.6875C17.0959 11.6487 17.0581 11.6172 17.0148 11.5955C16.9714 11.5738 16.9235 11.5625 16.875 11.5625H15.625V12.1875H16.7188L17.0328 12.6059C16.9171 12.7799 16.8629 12.9876 16.8787 13.196C16.8945 13.4043 16.9795 13.6014 17.1201 13.756C17.2607 13.9105 17.449 14.0136 17.6549 14.049C17.8609 14.0843 18.0727 14.0499 18.2568 13.9511C18.4409 13.8522 18.5868 13.6948 18.6712 13.5036C18.7555 13.3124 18.7736 13.0986 18.7226 12.896C18.6715 12.6933 18.5543 12.5136 18.3894 12.3852C18.2245 12.2569 18.0215 12.1873 17.8125 12.1875ZM17.8125 13.4375C17.7507 13.4375 17.6903 13.4192 17.6389 13.3848C17.5875 13.3505 17.5474 13.3017 17.5238 13.2446C17.5001 13.1875 17.4939 13.1247 17.506 13.064C17.5181 13.0034 17.5478 12.9477 17.5915 12.904C17.6352 12.8603 17.6909 12.8306 17.7515 12.8185C17.8122 12.8064 17.875 12.8126 17.9321 12.8363C17.9892 12.8599 18.038 12.9 18.0723 12.9514C18.1067 13.0028 18.125 13.0632 18.125 13.125C18.125 13.2079 18.0921 13.2874 18.0335 13.346C17.9749 13.4046 17.8954 13.4375 17.8125 13.4375Z" fill="white"/>
<path d="M1.25011 10.9373C1.44331 10.9365 1.63156 10.876 1.78908 10.7642C1.9466 10.6523 2.06571 10.4945 2.13011 10.3123H4.06261V9.6873H2.13011C2.07254 9.52569 1.97165 9.383 1.83848 9.27484C1.7053 9.16669 1.54495 9.09722 1.37496 9.07402C1.20498 9.05083 1.03188 9.07481 0.874597 9.14333C0.717313 9.21186 0.581891 9.3223 0.483129 9.46259C0.384367 9.60288 0.326065 9.76761 0.314595 9.93879C0.303124 10.11 0.338926 10.281 0.418088 10.4332C0.49725 10.5854 0.616727 10.713 0.763462 10.8019C0.910197 10.8908 1.07854 10.9376 1.25011 10.9373ZM1.25011 9.6873C1.31191 9.6873 1.37233 9.70563 1.42372 9.73997C1.47511 9.77431 1.51517 9.82311 1.53882 9.88022C1.56247 9.93732 1.56866 10.0002 1.5566 10.0608C1.54455 10.1214 1.51478 10.1771 1.47108 10.2208C1.42738 10.2645 1.37169 10.2942 1.31107 10.3063C1.25045 10.3184 1.18762 10.3122 1.13052 10.2885C1.07342 10.2649 1.02461 10.2248 0.990274 10.1734C0.955936 10.122 0.937608 10.0616 0.937608 9.9998C0.937608 9.91692 0.970532 9.83744 1.02914 9.77883C1.08774 9.72023 1.16723 9.6873 1.25011 9.6873Z" fill="white"/>
<path d="M2.18851 7.8125C2.28284 7.81118 2.37641 7.79548 2.46601 7.76594L2.87601 8.3125C2.90511 8.35131 2.94286 8.38281 2.98625 8.40451C3.02964 8.42621 3.07749 8.4375 3.12601 8.4375H4.37601V7.8125H3.28226L2.96819 7.39406C3.08388 7.22006 3.13813 7.01239 3.12231 6.80404C3.10649 6.59568 3.02152 6.39858 2.88089 6.24404C2.74026 6.08949 2.55203 5.98636 2.34608 5.95101C2.14014 5.91567 1.92829 5.95013 1.74418 6.04894C1.56006 6.14775 1.41423 6.30524 1.32985 6.4964C1.24546 6.68756 1.22736 6.90142 1.27841 7.10405C1.32946 7.30667 1.44674 7.48643 1.61163 7.61478C1.77651 7.74314 1.97955 7.81272 2.18851 7.8125ZM2.18851 6.5625C2.25031 6.5625 2.31073 6.58083 2.36212 6.61517C2.41351 6.6495 2.45357 6.69831 2.47722 6.75541C2.50087 6.81251 2.50706 6.87535 2.495 6.93597C2.48294 6.99659 2.45318 7.05227 2.40948 7.09597C2.36577 7.13968 2.31009 7.16944 2.24947 7.1815C2.18885 7.19355 2.12602 7.18737 2.06892 7.16371C2.01182 7.14006 1.96301 7.10001 1.92867 7.04862C1.89433 6.99723 1.87601 6.93681 1.87601 6.875C1.87601 6.79212 1.90893 6.71263 1.96753 6.65403C2.02614 6.59542 2.10563 6.5625 2.18851 6.5625Z" fill="white"/>
<path d="M4.37155 12.1875V11.5625H3.12155C3.07304 11.5625 3.02519 11.5738 2.9818 11.5955C2.93841 11.6172 2.90066 11.6487 2.87155 11.6875L2.46155 12.2341C2.37196 12.2045 2.27838 12.1888 2.18405 12.1875C1.97451 12.187 1.77082 12.2566 1.60535 12.3851C1.43988 12.5137 1.32213 12.6939 1.27081 12.897C1.21949 13.1002 1.23754 13.3147 1.3221 13.5064C1.40667 13.6981 1.55288 13.8561 1.73752 13.9552C1.92215 14.0543 2.13461 14.0888 2.34112 14.0533C2.54763 14.0178 2.73635 13.9143 2.87728 13.7592C3.01821 13.6041 3.10327 13.4064 3.11893 13.1974C3.1346 12.9885 3.07997 12.7803 2.96374 12.6059L3.2778 12.1875H4.37155ZM2.18405 13.4375C2.12225 13.4375 2.06183 13.4192 2.01044 13.3848C1.95905 13.3505 1.91899 13.3017 1.89534 13.2446C1.87169 13.1875 1.8655 13.1247 1.87756 13.064C1.88962 13.0034 1.91938 12.9477 1.96308 12.904C2.00679 12.8603 2.06247 12.8306 2.12309 12.8185C2.18371 12.8064 2.24654 12.8126 2.30364 12.8363C2.36074 12.8599 2.40955 12.9 2.44389 12.9514C2.47823 13.0028 2.49655 13.0632 2.49655 13.125C2.49655 13.2079 2.46363 13.2874 2.40502 13.346C2.34642 13.4046 2.26693 13.4375 2.18405 13.4375Z" fill="white"/>
<path d="M10.0016 1.25003C11.661 1.24589 13.2807 1.75701 14.6372 2.71284L14.2622 3.08784C14.2231 3.12696 14.1951 3.17574 14.181 3.22922C14.167 3.28269 14.1673 3.33894 14.1821 3.39222C14.1969 3.44551 14.2255 3.49392 14.2651 3.53251C14.3047 3.57111 14.3539 3.5985 14.4075 3.6119L16.175 4.05378C16.2001 4.05981 16.2258 4.06275 16.2516 4.06253C16.2991 4.06253 16.3459 4.0517 16.3886 4.03086C16.4313 4.01003 16.4687 3.97973 16.4979 3.94228C16.5271 3.90484 16.5474 3.86122 16.5573 3.81475C16.5671 3.76827 16.5662 3.72017 16.5547 3.67409L16.1128 1.90628C16.0994 1.85263 16.072 1.80351 16.0334 1.76391C15.9948 1.72431 15.9464 1.69566 15.8931 1.68089C15.8398 1.66611 15.7836 1.66574 15.7301 1.67981C15.6766 1.69388 15.6279 1.72188 15.5888 1.76097L15.0853 2.26472C13.6068 1.19433 11.8269 0.620264 10.0016 0.625029C8.63015 0.62848 7.27855 0.952594 6.05471 1.57148C4.83088 2.19037 3.76874 3.08688 2.95312 4.1894L3.45625 4.56065C4.21354 3.53667 5.19983 2.70399 6.33631 2.12916C7.4728 1.55432 8.72798 1.25326 10.0016 1.25003ZM15.6403 2.59378L15.8219 3.32065L15.0953 3.13878L15.6403 2.59378Z" fill="white"/>
<path d="M3.88874 18.0938C3.90203 18.1474 3.92927 18.1965 3.96769 18.2361C4.00611 18.2758 4.05435 18.3045 4.10749 18.3195C4.13468 18.3269 4.16274 18.3307 4.19093 18.3307C4.2738 18.3307 4.35327 18.2978 4.41186 18.2391L4.9153 17.7357C6.39416 18.8062 8.17437 19.3801 9.99999 19.3751C11.3714 19.3716 12.723 19.0475 13.9468 18.4286C15.1707 17.8097 16.2328 16.9132 17.0484 15.8107L16.5453 15.4395C15.788 16.4634 14.8017 17.2961 13.6652 17.871C12.5288 18.4458 11.2736 18.7468 9.99999 18.7501C8.34059 18.7542 6.72083 18.2431 5.36436 17.2873L5.73936 16.9123C5.77845 16.8732 5.80645 16.8244 5.82052 16.7709C5.83459 16.7174 5.83422 16.6612 5.81944 16.6079C5.80467 16.5546 5.77602 16.5062 5.73642 16.4676C5.69683 16.429 5.6477 16.4016 5.59405 16.3882L3.82593 15.947C3.77356 15.9338 3.71868 15.9345 3.66665 15.9489C3.61462 15.9633 3.5672 15.9909 3.52903 16.0291C3.49085 16.0673 3.46322 16.1147 3.44882 16.1667C3.43442 16.2188 3.43375 16.2736 3.44686 16.326L3.88874 18.0938ZM4.90624 16.8613L4.36124 17.4063L4.17968 16.6795L4.90624 16.8613Z" fill="white"/>
<path d="M6.125 8.47812C6.11746 8.49714 6.10423 8.51336 6.0871 8.52455C6.06998 8.53574 6.04982 8.54135 6.02938 8.54063C5.83908 8.54112 5.65674 8.61707 5.52235 8.7518C5.38797 8.88654 5.3125 9.06907 5.3125 9.25937V9.6875H5C4.91712 9.6875 4.83763 9.72042 4.77903 9.77903C4.72042 9.83763 4.6875 9.91712 4.6875 10C4.6875 11.409 5.24721 12.7602 6.2435 13.7565C7.23978 14.7528 8.59104 15.3125 10 15.3125C11.409 15.3125 12.7602 14.7528 13.7565 13.7565C14.7528 12.7602 15.3125 11.409 15.3125 10C15.3125 9.91712 15.2796 9.83763 15.221 9.77903C15.1624 9.72042 15.0829 9.6875 15 9.6875H14.6875V9.25937C14.6875 9.06929 14.6122 8.88695 14.4781 8.75224C14.344 8.61754 14.162 8.54145 13.9719 8.54063C13.9514 8.54135 13.9313 8.53574 13.9141 8.52455C13.897 8.51336 13.8838 8.49714 13.8762 8.47812C13.8031 8.24691 13.7097 8.02261 13.5972 7.80781C13.5877 7.78846 13.5846 7.76662 13.5884 7.74541C13.5921 7.72419 13.6024 7.70469 13.6178 7.68969C13.6845 7.62355 13.7375 7.54484 13.7736 7.4581C13.8097 7.37136 13.8282 7.27833 13.8281 7.18437C13.8278 6.9938 13.7522 6.81106 13.6178 6.67594L13.0116 6.06938C12.875 5.93514 12.6915 5.85956 12.5 5.85875C12.4065 5.85872 12.3139 5.87737 12.2276 5.91359C12.1414 5.94981 12.0633 6.00288 11.9978 6.06969C11.9852 6.08757 11.9661 6.09988 11.9446 6.10401C11.9231 6.10815 11.9009 6.1038 11.8825 6.09187C11.6669 5.97843 11.4416 5.88431 11.2094 5.81062C11.1904 5.80309 11.1741 5.78985 11.163 5.77273C11.1518 5.75561 11.1461 5.73544 11.1469 5.715C11.1459 5.52503 11.0697 5.34317 10.935 5.20919C10.8004 5.07521 10.6181 5 10.4281 5H9.57187C9.47696 5 9.38298 5.01879 9.29537 5.0553C9.20776 5.09181 9.12824 5.14532 9.06142 5.21272C8.9946 5.28013 8.94178 5.3601 8.90603 5.44803C8.87028 5.53595 8.8523 5.63009 8.85313 5.725C8.85396 5.74302 8.84897 5.76084 8.83889 5.77581C8.82882 5.79078 8.8142 5.80211 8.79719 5.80813C8.56345 5.88102 8.33688 5.97516 8.12031 6.08938C8.10101 6.09902 8.07912 6.10222 8.05786 6.0985C8.0366 6.09479 8.01709 6.08436 8.00219 6.06875C7.86534 5.93896 7.68392 5.86661 7.49531 5.86661C7.3067 5.86661 7.12528 5.93896 6.98844 6.06875L6.38188 6.675C6.31441 6.74209 6.26102 6.82199 6.22485 6.91C6.18868 6.99801 6.17046 7.09235 6.17125 7.1875C6.17122 7.28103 6.18987 7.37363 6.22609 7.45986C6.26231 7.54609 6.31538 7.62423 6.38219 7.68969C6.39201 7.69911 6.39984 7.71041 6.40521 7.72292C6.41057 7.73543 6.41337 7.74889 6.41344 7.7625C6.41448 7.77713 6.41168 7.79179 6.40531 7.805C6.29219 8.02066 6.19838 8.24592 6.125 8.47812ZM6.08719 12.5675C5.64105 11.8949 5.37762 11.1178 5.32281 10.3125H7.02937C7.04691 10.9638 7.13535 11.6113 7.29312 12.2434C6.88329 12.3215 6.47979 12.4299 6.08594 12.5675H6.08719ZM6.48094 13.0906C6.80708 12.9884 7.13916 12.9062 7.47531 12.8444C7.6566 13.3909 7.92886 13.9029 8.28062 14.3588C7.58842 14.0845 6.9712 13.6499 6.47969 13.0906H6.48094ZM9.6875 14.6391C9.0475 14.4609 8.48156 13.7494 8.10844 12.7431C8.63223 12.6751 9.15939 12.6361 9.6875 12.6266V14.6391ZM9.6875 12.0016C9.09507 12.0121 8.5038 12.0581 7.91687 12.1394C7.76147 11.5421 7.67332 10.9293 7.65406 10.3125H9.6875V12.0016ZM8.125 9.6875C8.125 9.19022 8.32254 8.71331 8.67417 8.36167C9.02581 8.01004 9.50272 7.8125 10 7.8125C10.4973 7.8125 10.9742 8.01004 11.3258 8.36167C11.6775 8.71331 11.875 9.19022 11.875 9.6875H8.125ZM12.3459 10.3125C12.3267 10.9293 12.2385 11.5421 12.0831 12.1394C11.4962 12.0581 10.9049 12.0121 10.3125 12.0016V10.3125H12.3459ZM10.3125 14.6391V12.6266C10.8406 12.6361 11.3678 12.6751 11.8916 12.7431C11.5184 13.75 10.9525 14.4609 10.3125 14.6391ZM11.7206 14.3578C12.0724 13.902 12.3446 13.3902 12.5259 12.8437C12.8621 12.9056 13.1942 12.9878 13.5203 13.09C13.0292 13.6493 12.4124 14.0842 11.7206 14.3588V14.3578ZM14.6772 10.3125C14.6228 11.1176 14.3598 11.8948 13.9141 12.5675C13.5202 12.4299 13.1167 12.3215 12.7069 12.2434C12.8647 11.6113 12.9531 10.9638 12.9706 10.3125H14.6772ZM6.71875 8.66562C6.78071 8.46886 6.8603 8.27808 6.95656 8.09562C7.00997 7.99277 7.03734 7.87839 7.03625 7.7625C7.03636 7.66635 7.01735 7.57115 6.98034 7.48241C6.94332 7.39368 6.88903 7.31319 6.82063 7.24563C6.81223 7.23757 6.80562 7.22785 6.8012 7.21708C6.79679 7.20632 6.79468 7.19475 6.795 7.18313C6.79501 7.17074 6.79747 7.15849 6.80225 7.14706C6.80702 7.13564 6.81401 7.12527 6.82281 7.11656L7.42906 6.51031C7.44674 6.49393 7.46996 6.48482 7.49406 6.48482C7.51817 6.48482 7.54138 6.49393 7.55906 6.51031C7.668 6.61986 7.80903 6.69182 7.96165 6.71576C8.11428 6.7397 8.27056 6.71437 8.40781 6.64344C8.59136 6.54713 8.7833 6.46774 8.98125 6.40625C9.12775 6.36087 9.25548 6.26901 9.34513 6.14457C9.43478 6.02014 9.48146 5.86989 9.47813 5.71656C9.47894 5.69224 9.48917 5.66919 9.50666 5.65228C9.52416 5.63537 9.54754 5.62592 9.57187 5.62594H10.4281C10.4525 5.62592 10.4758 5.63537 10.4933 5.65228C10.5108 5.66919 10.5211 5.69224 10.5219 5.71656C10.5217 5.86985 10.57 6.01926 10.6598 6.1435C10.7496 6.26774 10.8763 6.36046 11.0219 6.40844C11.2186 6.4704 11.4094 6.54999 11.5919 6.64625C11.7302 6.71456 11.8863 6.73817 12.0386 6.71382C12.1908 6.68946 12.3318 6.61834 12.4419 6.51031C12.4499 6.50192 12.4597 6.49531 12.4704 6.49089C12.4812 6.48648 12.4927 6.48437 12.5044 6.48469C12.5297 6.49437 12.5466 6.48813 12.5709 6.5125L13.1772 7.11875C13.1945 7.13663 13.2042 7.16046 13.2044 7.18531C13.2037 7.20887 13.194 7.23125 13.1772 7.24781C13.0678 7.3565 12.9958 7.49719 12.9717 7.6495C12.9476 7.80181 12.9726 7.95785 13.0431 8.095C13.1395 8.27766 13.2192 8.46864 13.2812 8.66562C13.3292 8.81121 13.4219 8.93792 13.5462 9.02771C13.6704 9.11749 13.8198 9.16576 13.9731 9.16563C13.9974 9.16644 14.0205 9.17667 14.0374 9.19416C14.0543 9.21166 14.0638 9.23504 14.0638 9.25937V9.6875H12.5C12.5 9.02446 12.2366 8.38857 11.7678 7.91973C11.2989 7.45089 10.663 7.1875 10 7.1875C9.33696 7.1875 8.70107 7.45089 8.23223 7.91973C7.76339 8.38857 7.5 9.02446 7.5 9.6875H5.9375V9.25937C5.93749 9.23504 5.94693 9.21166 5.96384 9.19416C5.98076 9.17667 6.00381 9.16644 6.02813 9.16563C6.1812 9.1655 6.33033 9.11711 6.45432 9.02734C6.57831 8.93758 6.67084 8.811 6.71875 8.66562Z" fill="white"/>
</g>
<defs>
<clipPath id="clip0_1930_22326">
<rect width="20" height="20" fill="white"/>
</clipPath>
</defs>
</svg>
