<svg width="20" height="20" viewBox="0 0 20 20" fill="none" xmlns="http://www.w3.org/2000/svg">
<path d="M15.8594 9.02344H11.5625C11.3468 9.02344 11.1719 9.19832 11.1719 9.41406V11.7578C11.1719 11.9735 11.3468 12.1484 11.5625 12.1484H15.8594C16.0751 12.1484 16.25 11.9735 16.25 11.7578V9.41406C16.25 9.19832 16.0751 9.02344 15.8594 9.02344ZM15.4688 11.3672H11.9531V9.80469H15.4688V11.3672Z" fill="white"/>
<path d="M15.8594 7.85156H13.125C12.9093 7.85156 12.7344 8.02645 12.7344 8.24219C12.7344 8.45793 12.9093 8.63281 13.125 8.63281H15.8594C16.0751 8.63281 16.25 8.45793 16.25 8.24219C16.25 8.02645 16.0751 7.85156 15.8594 7.85156Z" fill="white"/>
<path d="M12.7344 7.07031C12.7344 7.28605 12.9093 7.46094 13.125 7.46094H15.8594C16.0751 7.46094 16.25 7.28605 16.25 7.07031C16.25 6.85457 16.0751 6.67969 15.8594 6.67969H13.125C12.9093 6.67969 12.7344 6.85457 12.7344 7.07031Z" fill="white"/>
<path d="M4.14062 7.46094H6.48438C6.70012 7.46094 6.875 7.28605 6.875 7.07031C6.875 6.85457 6.70012 6.67969 6.48438 6.67969H4.14062C3.92488 6.67969 3.75 6.85457 3.75 7.07031C3.75 7.28605 3.92488 7.46094 4.14062 7.46094Z" fill="white"/>
<path d="M4.14062 8.63281H6.48438C6.70012 8.63281 6.875 8.45793 6.875 8.24219C6.875 8.02645 6.70012 7.85156 6.48438 7.85156H4.14062C3.92488 7.85156 3.75 8.02645 3.75 8.24219C3.75 8.45793 3.92488 8.63281 4.14062 8.63281Z" fill="white"/>
<path d="M8.4375 11.3672H4.14062C3.92488 11.3672 3.75 11.5421 3.75 11.7578C3.75 11.9735 3.92488 12.1484 4.14062 12.1484H8.4375C8.65324 12.1484 8.82812 11.9735 8.82812 11.7578C8.82812 11.5421 8.65324 11.3672 8.4375 11.3672Z" fill="white"/>
<path d="M6.48438 12.5391H4.14062C3.92488 12.5391 3.75 12.714 3.75 12.9297C3.75 13.1454 3.92488 13.3203 4.14062 13.3203H6.48438C6.70012 13.3203 6.875 13.1454 6.875 12.9297C6.875 12.714 6.70012 12.5391 6.48438 12.5391Z" fill="white"/>
<path d="M8.4375 9.02344H6.09375C5.87801 9.02344 5.70312 9.19832 5.70312 9.41406C5.70312 9.6298 5.87801 9.80469 6.09375 9.80469H8.4375C8.65324 9.80469 8.82812 9.6298 8.82812 9.41406C8.82812 9.19832 8.65324 9.02344 8.4375 9.02344Z" fill="white"/>
<path d="M4.14062 9.88281H4.53125C4.74699 9.88281 4.92188 9.70793 4.92188 9.49219C4.92188 9.27645 4.74699 9.10156 4.53125 9.10156H4.14062C3.92488 9.10156 3.75 9.27645 3.75 9.49219C3.75 9.70793 3.92488 9.88281 4.14062 9.88281Z" fill="white"/>
<path d="M18.9844 6.28906C18.7687 6.28906 18.5938 6.46395 18.5938 6.67969V18.0078H12.7266C12.0121 18.0078 11.3245 17.7213 10.8201 17.2266H17.4219C17.6376 17.2266 17.8125 17.0516 17.8125 16.8359V4.72656C17.8125 4.51082 17.6376 4.33594 17.4219 4.33594H13.125C13.125 2.61281 11.7231 1.21094 10 1.21094C8.27688 1.21094 6.875 2.61281 6.875 4.33594H2.57812C2.36238 4.33594 2.1875 4.51082 2.1875 4.72656V16.8359C2.1875 17.0516 2.36238 17.2266 2.57812 17.2266H9.17992C8.67543 17.7213 7.98789 18.0078 7.27344 18.0078H1.40625V6.67969C1.40625 6.46395 1.23137 6.28906 1.01562 6.28906C0.799883 6.28906 0.625 6.46395 0.625 6.67969V18.3984C0.625 18.6141 0.799883 18.7891 1.01562 18.7891H7.27344C8.32937 18.7891 9.33961 18.3029 10 17.4832C10.6604 18.3029 11.6706 18.7891 12.7266 18.7891H18.9844C19.2001 18.7891 19.375 18.6141 19.375 18.3984V6.67969C19.375 6.46395 19.2001 6.28906 18.9844 6.28906ZM17.0312 5.11719V14.8828H12.3438C12.128 14.8828 11.9531 15.0577 11.9531 15.2734C11.9531 15.4891 12.128 15.6641 12.3438 15.6641H17.0312V16.4453H10.3906V9.02344H10.7812C10.997 9.02344 11.1719 8.84855 11.1719 8.63281V7.23301C12.0798 6.86562 12.7763 6.08066 13.0257 5.11719H17.0312ZM10 1.99219C11.4124 1.99219 12.5236 3.24449 12.3194 4.67121C12.1905 5.57207 11.5429 6.32211 10.6698 6.58203C10.5042 6.63133 10.3907 6.78363 10.3907 6.95641V8.24219C10.1174 8.24219 9.88266 8.24219 9.60941 8.24219V6.95641C9.60941 6.78359 9.49586 6.63133 9.33027 6.58203C8.33684 6.28633 7.65625 5.36855 7.65625 4.33594C7.65625 3.04359 8.70766 1.99219 10 1.99219ZM2.96875 15.6641H7.65625C7.87199 15.6641 8.04688 15.4891 8.04688 15.2734C8.04688 15.0577 7.87199 14.8828 7.65625 14.8828H2.96875V5.11719H6.9743C7.22059 6.07172 7.91285 6.86246 8.82812 7.23301V8.63281C8.82812 8.84855 9.00301 9.02344 9.21875 9.02344H9.60938V16.4453H2.96875V15.6641Z" fill="white"/>
<path d="M10 5.50781C10.2157 5.50781 10.3906 5.33293 10.3906 5.11719V3.55469C10.3906 3.33895 10.2157 3.16406 10 3.16406C9.78426 3.16406 9.60938 3.33895 9.60938 3.55469V5.11719C9.60938 5.33293 9.78426 5.50781 10 5.50781Z" fill="white"/>
<path d="M13.9062 3.55469H15.0781C15.2938 3.55469 15.4688 3.3798 15.4688 3.16406C15.4688 2.94832 15.2938 2.77344 15.0781 2.77344H13.9062C13.6905 2.77344 13.5156 2.94832 13.5156 3.16406C13.5156 3.3798 13.6905 3.55469 13.9062 3.55469Z" fill="white"/>
<path d="M4.92188 3.55469H6.09375C6.30949 3.55469 6.48438 3.3798 6.48438 3.16406C6.48438 2.94832 6.30949 2.77344 6.09375 2.77344H4.92188C4.70613 2.77344 4.53125 2.94832 4.53125 3.16406C4.53125 3.3798 4.70613 3.55469 4.92188 3.55469Z" fill="white"/>
</svg>
