<svg width="20" height="20" viewBox="0 0 20 20" fill="none" xmlns="http://www.w3.org/2000/svg">
<g clip-path="url(#clip0_1930_25503)">
<path d="M19.6875 17.5H18.75V7.8125C18.7495 7.39825 18.5847 7.00111 18.2918 6.70819C17.9989 6.41528 17.6017 6.2505 17.1875 6.25H12.1875C12.1046 6.25 12.0251 6.28292 11.9665 6.34153C11.9079 6.40013 11.875 6.47962 11.875 6.5625C11.875 6.64538 11.9079 6.72487 11.9665 6.78347C12.0251 6.84208 12.1046 6.875 12.1875 6.875H17.1875C17.4361 6.875 17.6746 6.97377 17.8504 7.14959C18.0262 7.3254 18.125 7.56386 18.125 7.8125V17.5H1.875V7.8125C1.875 7.56386 1.97377 7.3254 2.14959 7.14959C2.3254 6.97377 2.56386 6.875 2.8125 6.875H7.5C7.58288 6.875 7.66237 6.84208 7.72097 6.78347C7.77958 6.72487 7.8125 6.64538 7.8125 6.5625C7.8125 6.47962 7.77958 6.40013 7.72097 6.34153C7.66237 6.28292 7.58288 6.25 7.5 6.25H2.8125C2.39825 6.2505 2.00111 6.41528 1.70819 6.70819C1.41528 7.00111 1.2505 7.39825 1.25 7.8125V17.5H0.3125C0.22962 17.5 0.150134 17.5329 0.0915291 17.5915C0.032924 17.6501 0 17.7296 0 17.8125L0 18.4375C0.000496206 18.8517 0.165276 19.2489 0.458194 19.5418C0.751112 19.8347 1.14825 19.9995 1.5625 20H18.4375C18.8517 19.9995 19.2489 19.8347 19.5418 19.5418C19.8347 19.2489 19.9995 18.8517 20 18.4375V17.8125C20 17.7296 19.9671 17.6501 19.9085 17.5915C19.8499 17.5329 19.7704 17.5 19.6875 17.5ZM11.875 18.125C11.875 18.2079 11.8421 18.2874 11.7835 18.346C11.7249 18.4046 11.6454 18.4375 11.5625 18.4375H8.4375C8.35462 18.4375 8.27513 18.4046 8.21653 18.346C8.15792 18.2874 8.125 18.2079 8.125 18.125H11.875ZM19.375 18.4375C19.375 18.6861 19.2762 18.9246 19.1004 19.1004C18.9246 19.2762 18.6861 19.375 18.4375 19.375H1.5625C1.31386 19.375 1.0754 19.2762 0.899587 19.1004C0.723772 18.9246 0.625 18.6861 0.625 18.4375V18.125H7.5C7.5 18.3736 7.59877 18.6121 7.77459 18.7879C7.9504 18.9637 8.18886 19.0625 8.4375 19.0625H11.5625C11.8111 19.0625 12.0496 18.9637 12.2254 18.7879C12.4012 18.6121 12.5 18.3736 12.5 18.125H19.375V18.4375Z" fill="white"/>
<path d="M2.8125 11.875C2.72962 11.875 2.65013 11.9079 2.59153 11.9665C2.53292 12.0251 2.5 12.1046 2.5 12.1875V15.625C2.5 15.8736 2.59877 16.1121 2.77459 16.2879C2.9504 16.4637 3.18886 16.5625 3.4375 16.5625H9.30125L9.86031 16.8438C9.90369 16.8654 9.95151 16.8767 10 16.8767C10.0485 16.8767 10.0963 16.8654 10.1397 16.8438L10.6987 16.5625H16.5625C16.8111 16.5625 17.0496 16.4637 17.2254 16.2879C17.4012 16.1121 17.5 15.8736 17.5 15.625V9.0625C17.5 8.81386 17.4012 8.5754 17.2254 8.39959C17.0496 8.22377 16.8111 8.125 16.5625 8.125H16.505C16.4406 7.94284 16.3215 7.78503 16.164 7.67315C16.0064 7.56128 15.8182 7.5008 15.625 7.5H11.25C10.9757 7.49986 10.7062 7.57209 10.4688 7.70938C10.4007 7.75262 10.352 7.82047 10.3329 7.89875C10.3137 7.97704 10.3255 8.05971 10.3658 8.12949C10.4062 8.19927 10.4719 8.25077 10.5493 8.27322C10.6267 8.29568 10.7098 8.28736 10.7812 8.25C10.9239 8.16801 11.0855 8.12491 11.25 8.125H15.625C15.7079 8.125 15.7874 8.15792 15.846 8.21653C15.9046 8.27513 15.9375 8.35462 15.9375 8.4375V14.6875C15.9375 14.7704 15.9046 14.8499 15.846 14.9085C15.7874 14.9671 15.7079 15 15.625 15H10.625C10.5421 15 10.4626 14.9671 10.404 14.9085C10.3454 14.8499 10.3125 14.7704 10.3125 14.6875V9.0625C10.312 8.64825 10.1472 8.25111 9.85431 7.95819C9.56139 7.66528 9.16425 7.5005 8.75 7.5H4.375C4.18179 7.5008 3.99355 7.56128 3.83603 7.67315C3.67851 7.78503 3.5594 7.94284 3.495 8.125H3.4375C3.18886 8.125 2.9504 8.22377 2.77459 8.39959C2.59877 8.5754 2.5 8.81386 2.5 9.0625V10.9375C2.5 11.0204 2.53292 11.0999 2.59153 11.1585C2.65013 11.2171 2.72962 11.25 2.8125 11.25C2.89538 11.25 2.97487 11.2171 3.03347 11.1585C3.09208 11.0999 3.125 11.0204 3.125 10.9375V9.0625C3.125 8.97962 3.15792 8.90013 3.21653 8.84153C3.27513 8.78292 3.35462 8.75 3.4375 8.75V14.6875C3.4375 14.9361 3.53627 15.1746 3.71209 15.3504C3.8879 15.5262 4.12636 15.625 4.375 15.625H9.375C9.60637 15.6242 9.82917 15.5373 10 15.3813C10.1708 15.5373 10.3936 15.6242 10.625 15.625H15.625C15.8736 15.625 16.1121 15.5262 16.2879 15.3504C16.4637 15.1746 16.5625 14.9361 16.5625 14.6875V8.75C16.6454 8.75 16.7249 8.78292 16.7835 8.84153C16.8421 8.90013 16.875 8.97962 16.875 9.0625V15.625C16.875 15.7079 16.8421 15.7874 16.7835 15.846C16.7249 15.9046 16.6454 15.9375 16.5625 15.9375H10.625C10.5766 15.937 10.5288 15.9477 10.4853 15.9688L10 16.2131L9.51469 15.9703C9.4713 15.9487 9.42348 15.9375 9.375 15.9375H3.4375C3.35462 15.9375 3.27513 15.9046 3.21653 15.846C3.15792 15.7874 3.125 15.7079 3.125 15.625V12.1875C3.125 12.1046 3.09208 12.0251 3.03347 11.9665C2.97487 11.9079 2.89538 11.875 2.8125 11.875ZM9.375 15H4.375C4.29212 15 4.21263 14.9671 4.15403 14.9085C4.09542 14.8499 4.0625 14.7704 4.0625 14.6875V8.4375C4.0625 8.35462 4.09542 8.27513 4.15403 8.21653C4.21263 8.15792 4.29212 8.125 4.375 8.125H8.75C8.99864 8.125 9.2371 8.22377 9.41291 8.39959C9.58873 8.5754 9.6875 8.81386 9.6875 9.0625V14.6875C9.6875 14.7704 9.65458 14.8499 9.59597 14.9085C9.53737 14.9671 9.45788 15 9.375 15Z" fill="white"/>
<path d="M11.25 9.375H15C15.0829 9.375 15.1624 9.34208 15.221 9.28347C15.2796 9.22487 15.3125 9.14538 15.3125 9.0625C15.3125 8.97962 15.2796 8.90013 15.221 8.84153C15.1624 8.78292 15.0829 8.75 15 8.75H11.25C11.1671 8.75 11.0876 8.78292 11.029 8.84153C10.9704 8.90013 10.9375 8.97962 10.9375 9.0625C10.9375 9.14538 10.9704 9.22487 11.029 9.28347C11.0876 9.34208 11.1671 9.375 11.25 9.375Z" fill="white"/>
<path d="M11.25 10.625H15C15.0829 10.625 15.1624 10.5921 15.221 10.5335C15.2796 10.4749 15.3125 10.3954 15.3125 10.3125C15.3125 10.2296 15.2796 10.1501 15.221 10.0915C15.1624 10.0329 15.0829 10 15 10H11.25C11.1671 10 11.0876 10.0329 11.029 10.0915C10.9704 10.1501 10.9375 10.2296 10.9375 10.3125C10.9375 10.3954 10.9704 10.4749 11.029 10.5335C11.0876 10.5921 11.1671 10.625 11.25 10.625Z" fill="white"/>
<path d="M11.25 11.875H15C15.0829 11.875 15.1624 11.8421 15.221 11.7835C15.2796 11.7249 15.3125 11.6454 15.3125 11.5625C15.3125 11.4796 15.2796 11.4001 15.221 11.3415C15.1624 11.2829 15.0829 11.25 15 11.25H11.25C11.1671 11.25 11.0876 11.2829 11.029 11.3415C10.9704 11.4001 10.9375 11.4796 10.9375 11.5625C10.9375 11.6454 10.9704 11.7249 11.029 11.7835C11.0876 11.8421 11.1671 11.875 11.25 11.875Z" fill="white"/>
<path d="M11.25 13.125H15C15.0829 13.125 15.1624 13.0921 15.221 13.0335C15.2796 12.9749 15.3125 12.8954 15.3125 12.8125C15.3125 12.7296 15.2796 12.6501 15.221 12.5915C15.1624 12.5329 15.0829 12.5 15 12.5H11.25C11.1671 12.5 11.0876 12.5329 11.029 12.5915C10.9704 12.6501 10.9375 12.7296 10.9375 12.8125C10.9375 12.8954 10.9704 12.9749 11.029 13.0335C11.0876 13.0921 11.1671 13.125 11.25 13.125Z" fill="white"/>
<path d="M11.25 14.375H15C15.0829 14.375 15.1624 14.3421 15.221 14.2835C15.2796 14.2249 15.3125 14.1454 15.3125 14.0625C15.3125 13.9796 15.2796 13.9001 15.221 13.8415C15.1624 13.7829 15.0829 13.75 15 13.75H11.25C11.1671 13.75 11.0876 13.7829 11.029 13.8415C10.9704 13.9001 10.9375 13.9796 10.9375 14.0625C10.9375 14.1454 10.9704 14.2249 11.029 14.2835C11.0876 14.3421 11.1671 14.375 11.25 14.375Z" fill="white"/>
<path d="M8.75 8.75H5C4.91712 8.75 4.83763 8.78292 4.77903 8.84153C4.72042 8.90013 4.6875 8.97962 4.6875 9.0625C4.6875 9.14538 4.72042 9.22487 4.77903 9.28347C4.83763 9.34208 4.91712 9.375 5 9.375H8.75C8.83288 9.375 8.91237 9.34208 8.97097 9.28347C9.02958 9.22487 9.0625 9.14538 9.0625 9.0625C9.0625 8.97962 9.02958 8.90013 8.97097 8.84153C8.91237 8.78292 8.83288 8.75 8.75 8.75Z" fill="white"/>
<path d="M8.75 10H5C4.91712 10 4.83763 10.0329 4.77903 10.0915C4.72042 10.1501 4.6875 10.2296 4.6875 10.3125C4.6875 10.3954 4.72042 10.4749 4.77903 10.5335C4.83763 10.5921 4.91712 10.625 5 10.625H8.75C8.83288 10.625 8.91237 10.5921 8.97097 10.5335C9.02958 10.4749 9.0625 10.3954 9.0625 10.3125C9.0625 10.2296 9.02958 10.1501 8.97097 10.0915C8.91237 10.0329 8.83288 10 8.75 10Z" fill="white"/>
<path d="M8.75 11.25H5C4.91712 11.25 4.83763 11.2829 4.77903 11.3415C4.72042 11.4001 4.6875 11.4796 4.6875 11.5625C4.6875 11.6454 4.72042 11.7249 4.77903 11.7835C4.83763 11.8421 4.91712 11.875 5 11.875H8.75C8.83288 11.875 8.91237 11.8421 8.97097 11.7835C9.02958 11.7249 9.0625 11.6454 9.0625 11.5625C9.0625 11.4796 9.02958 11.4001 8.97097 11.3415C8.91237 11.2829 8.83288 11.25 8.75 11.25Z" fill="white"/>
<path d="M8.75 12.5H5C4.91712 12.5 4.83763 12.5329 4.77903 12.5915C4.72042 12.6501 4.6875 12.7296 4.6875 12.8125C4.6875 12.8954 4.72042 12.9749 4.77903 13.0335C4.83763 13.0921 4.91712 13.125 5 13.125H8.75C8.83288 13.125 8.91237 13.0921 8.97097 13.0335C9.02958 12.9749 9.0625 12.8954 9.0625 12.8125C9.0625 12.7296 9.02958 12.6501 8.97097 12.5915C8.91237 12.5329 8.83288 12.5 8.75 12.5Z" fill="white"/>
<path d="M8.75 13.75H5C4.91712 13.75 4.83763 13.7829 4.77903 13.8415C4.72042 13.9001 4.6875 13.9796 4.6875 14.0625C4.6875 14.1454 4.72042 14.2249 4.77903 14.2835C4.83763 14.3421 4.91712 14.375 5 14.375H8.75C8.83288 14.375 8.91237 14.3421 8.97097 14.2835C9.02958 14.2249 9.0625 14.1454 9.0625 14.0625C9.0625 13.9796 9.02958 13.9001 8.97097 13.8415C8.91237 13.7829 8.83288 13.75 8.75 13.75Z" fill="white"/>
<path d="M8.4375 5.14908V5.93815C8.4375 6.35255 8.60212 6.74997 8.89515 7.043C9.18817 7.33602 9.5856 7.50065 10 7.50065C10.4144 7.50065 10.8118 7.33602 11.1049 7.043C11.3979 6.74997 11.5625 6.35255 11.5625 5.93815V5.14908C12.0642 4.81387 12.4448 4.32619 12.6481 3.75808C12.8514 3.18997 12.8666 2.57155 12.6914 1.99414C12.5163 1.41674 12.1601 0.910971 11.6754 0.551533C11.1908 0.192095 10.6034 -0.00195312 10 -0.00195312C9.39662 -0.00195312 8.80923 0.192095 8.32459 0.551533C7.83994 0.910971 7.48375 1.41674 7.3086 1.99414C7.13345 2.57155 7.14864 3.18997 7.35192 3.75808C7.5552 4.32619 7.9358 4.81387 8.4375 5.14908ZM10 6.87565C9.80616 6.87541 9.61715 6.81522 9.45887 6.70332C9.30059 6.59142 9.18081 6.4333 9.11594 6.25065H10.8841C10.8192 6.4333 10.6994 6.59142 10.5411 6.70332C10.3829 6.81522 10.1938 6.87541 10 6.87565ZM10 0.625645C10.4809 0.626378 10.9482 0.78558 11.3296 1.07862C11.7109 1.37166 11.985 1.7822 12.1096 2.24673C12.2341 2.71125 12.2021 3.20387 12.0184 3.64836C11.8348 4.09286 11.5098 4.46445 11.0938 4.70565C11.0463 4.73305 11.0069 4.77244 10.9794 4.81989C10.952 4.86733 10.9376 4.92116 10.9375 4.97596V5.62565H10.3125V5.13002L10.8459 4.59658C10.9029 4.53764 10.9344 4.45871 10.9336 4.37677C10.9329 4.29483 10.9001 4.21645 10.8421 4.15851C10.7842 4.10057 10.7058 4.06771 10.6239 4.067C10.5419 4.06629 10.463 4.09778 10.4041 4.15471L10 4.55877L9.59594 4.15471C9.537 4.09778 9.45806 4.06629 9.37612 4.067C9.29419 4.06771 9.21581 4.10057 9.15787 4.15851C9.09993 4.21645 9.06706 4.29483 9.06635 4.37677C9.06564 4.45871 9.09714 4.53764 9.15406 4.59658L9.6875 5.13002V5.62565H9.0625V4.97596C9.06244 4.92116 9.04798 4.86733 9.02055 4.81989C8.99313 4.77244 8.95371 4.73305 8.90625 4.70565C8.49018 4.46445 8.16519 4.09286 7.98156 3.64836C7.79793 3.20387 7.76591 2.71125 7.89044 2.24673C8.01497 1.7822 8.28911 1.37166 8.67045 1.07862C9.05179 0.78558 9.51907 0.626378 10 0.625645Z" fill="white"/>
<path d="M13.4375 2.8125C13.4375 2.89538 13.4704 2.97487 13.529 3.03347C13.5876 3.09208 13.6671 3.125 13.75 3.125H14.0625C14.1454 3.125 14.2249 3.09208 14.2835 3.03347C14.3421 2.97487 14.375 2.89538 14.375 2.8125C14.375 2.72962 14.3421 2.65013 14.2835 2.59153C14.2249 2.53292 14.1454 2.5 14.0625 2.5H13.75C13.6671 2.5 13.5876 2.53292 13.529 2.59153C13.4704 2.65013 13.4375 2.72962 13.4375 2.8125Z" fill="white"/>
<path d="M13.25 1.25092C13.3048 1.25091 13.3587 1.23647 13.4062 1.20904L13.6769 1.05279C13.7481 1.01106 13.7998 0.942859 13.8209 0.863079C13.842 0.7833 13.8307 0.698415 13.7894 0.62695C13.7482 0.555486 13.6803 0.503242 13.6007 0.481621C13.5211 0.46 13.4361 0.470756 13.3644 0.511542L13.0937 0.667792C13.0342 0.70219 12.9876 0.755283 12.9613 0.818837C12.935 0.88239 12.9303 0.952854 12.9481 1.0193C12.966 1.08574 13.0052 1.14446 13.0598 1.18634C13.1143 1.22821 13.1812 1.25091 13.25 1.25092Z" fill="white"/>
<path d="M13.0939 4.95841L13.3645 5.11466C13.4363 5.1561 13.5217 5.16731 13.6017 5.14584C13.6818 5.12436 13.7501 5.07194 13.7915 5.00013C13.833 4.92831 13.8442 4.84298 13.8227 4.76289C13.8012 4.68281 13.7488 4.61454 13.677 4.5731L13.4064 4.41685C13.3708 4.39633 13.3316 4.38301 13.2909 4.37766C13.2502 4.37232 13.2088 4.37504 13.1691 4.38567C13.1295 4.39631 13.0923 4.41465 13.0598 4.43965C13.0272 4.46465 12.9999 4.49582 12.9793 4.53138C12.9588 4.56694 12.9455 4.60619 12.9402 4.6469C12.9348 4.6876 12.9375 4.72896 12.9482 4.76861C12.9588 4.80827 12.9771 4.84544 13.0021 4.878C13.0271 4.91057 13.0583 4.93789 13.0939 4.95841Z" fill="white"/>
<path d="M5.9375 3.125H6.25C6.33288 3.125 6.41237 3.09208 6.47097 3.03347C6.52958 2.97487 6.5625 2.89538 6.5625 2.8125C6.5625 2.72962 6.52958 2.65013 6.47097 2.59153C6.41237 2.53292 6.33288 2.5 6.25 2.5H5.9375C5.85462 2.5 5.77513 2.53292 5.71653 2.59153C5.65792 2.65013 5.625 2.72962 5.625 2.8125C5.625 2.89538 5.65792 2.97487 5.71653 3.03347C5.77513 3.09208 5.85462 3.125 5.9375 3.125Z" fill="white"/>
<path d="M6.32633 1.05279L6.59696 1.20904C6.63251 1.22989 6.67183 1.24349 6.71267 1.24907C6.7535 1.25466 6.79503 1.25211 6.83488 1.24157C6.87472 1.23104 6.91209 1.21273 6.94482 1.18769C6.97756 1.16266 7.00502 1.1314 7.02563 1.09571C7.04624 1.06002 7.05958 1.0206 7.06489 0.979733C7.07021 0.938865 7.06738 0.897349 7.05658 0.857576C7.04579 0.817803 7.02723 0.780559 7.00198 0.747988C6.97673 0.715417 6.94528 0.688162 6.90946 0.667792L6.63883 0.511542C6.56709 0.470756 6.48214 0.46 6.4025 0.481621C6.32286 0.503242 6.25501 0.555486 6.21374 0.62695C6.17248 0.698415 6.16116 0.7833 6.18226 0.863079C6.20335 0.942859 6.25514 1.01106 6.32633 1.05279Z" fill="white"/>
<path d="M6.59888 4.41685L6.32825 4.5731C6.29269 4.59362 6.26153 4.62094 6.23652 4.6535C6.21152 4.68607 6.19318 4.72324 6.18255 4.76289C6.16107 4.84298 6.17228 4.92831 6.21372 5.00013C6.25516 5.07194 6.32343 5.12436 6.40352 5.14584C6.44317 5.15647 6.48453 5.15919 6.52524 5.15384C6.56594 5.14849 6.60519 5.13518 6.64075 5.11466L6.91138 4.95841C6.9832 4.91697 7.03561 4.8487 7.05709 4.76861C7.07856 4.68853 7.06735 4.60319 7.02591 4.53138C6.98447 4.45956 6.9162 4.40715 6.83611 4.38567C6.75603 4.36419 6.6707 4.37541 6.59888 4.41685Z" fill="white"/>
</g>
<defs>
<clipPath id="clip0_1930_25503">
<rect width="20" height="20" fill="white"/>
</clipPath>
</defs>
</svg>
