<svg width="20" height="20" viewBox="0 0 20 20" fill="none" xmlns="http://www.w3.org/2000/svg">
<g clip-path="url(#clip0_1930_25535)">
<path d="M16.2025 10.3303V9.66402C16.2025 9.45992 16.129 9.27281 16.0073 9.12731C16.129 8.9818 16.2025 8.79465 16.2025 8.59059V7.92305C16.2025 7.71899 16.129 7.53188 16.0073 7.38637C16.129 7.24086 16.2025 7.05371 16.2025 6.84965V6.18332C16.2025 5.97926 16.129 5.79215 16.0073 5.64664C16.129 5.50113 16.2025 5.31398 16.2025 5.10992V4.44359C16.2025 3.98145 15.8266 3.60551 15.3645 3.60551H9.64145C9.1793 3.60551 8.80336 3.98148 8.80336 4.44359V5.10992C8.80336 5.31402 8.87687 5.50113 8.99855 5.64664C8.87687 5.79215 8.80336 5.97926 8.80336 6.18332V6.84965C8.80336 6.93141 8.81566 7.01024 8.83762 7.085H4.96625C4.5041 7.085 4.12816 7.46098 4.12816 7.92305V8.59059C4.12816 8.79469 4.20168 8.9818 4.32336 9.12731C4.20168 9.27281 4.12816 9.45996 4.12816 9.66402V10.3303C4.12816 10.7925 4.50414 11.1684 4.96625 11.1684H10.6892H15.3645C15.8266 11.1684 16.2025 10.7924 16.2025 10.3303ZM9.40609 4.44348C9.40609 4.31371 9.51168 4.20813 9.64145 4.20813H15.3644C15.4942 4.20813 15.5998 4.31371 15.5998 4.44348V5.10981C15.5998 5.23738 15.492 5.34516 15.3644 5.34516H9.64145C9.51168 5.34516 9.40609 5.23957 9.40609 5.10981V4.44348ZM9.40609 6.84957V6.18324C9.40609 6.05348 9.51168 5.94793 9.64145 5.94793H15.3644C15.492 5.94793 15.5998 6.0557 15.5998 6.18324V6.84957C15.5998 6.97934 15.4942 7.08492 15.3644 7.08492H14.0929C13.9265 7.08492 13.7916 7.21984 13.7916 7.38629C13.7916 7.55274 13.9265 7.68766 14.0929 7.68766H15.3644C15.492 7.68766 15.5998 7.79543 15.5998 7.92297V8.59051C15.5998 8.71809 15.492 8.82586 15.3644 8.82586H11.493C11.515 8.75109 11.5273 8.67227 11.5273 8.59051V7.92297C11.5273 7.84121 11.515 7.76238 11.4931 7.68766H12.896C13.0625 7.68766 13.1974 7.55274 13.1974 7.38629C13.1974 7.21984 13.0625 7.08492 12.896 7.08492H10.6892H9.64148C9.51168 7.08492 9.40609 6.97934 9.40609 6.84957ZM4.96625 10.5657C4.83648 10.5657 4.7309 10.4601 4.7309 10.3303V9.66402C4.7309 9.53426 4.83648 9.42867 4.96625 9.42867H7.83449C8.00094 9.42867 8.13586 9.29375 8.13586 9.12731C8.13586 8.96086 8.00094 8.82594 7.83449 8.82594H4.96625C4.83648 8.82594 4.7309 8.72035 4.7309 8.59059V7.92305C4.7309 7.79328 4.83648 7.68774 4.96625 7.68774H10.6892C10.8168 7.68774 10.9246 7.79551 10.9246 7.92305V8.59059C10.9246 8.71817 10.8168 8.82594 10.6892 8.82594H9.12797C8.96152 8.82594 8.8266 8.96086 8.8266 9.12731C8.8266 9.29375 8.96152 9.42867 9.12797 9.42867H10.6892C10.819 9.42867 10.9246 9.53426 10.9246 9.66402V10.3303C10.9246 10.4601 10.819 10.5657 10.6892 10.5657H4.96625ZM15.5998 10.3303C15.5998 10.4601 15.4942 10.5657 15.3645 10.5657H11.4931C11.515 10.4909 11.5273 10.4121 11.5273 10.3303V9.66402C11.5273 9.58227 11.515 9.50344 11.4931 9.42867H15.3645C15.4943 9.42867 15.5998 9.53426 15.5998 9.66402V10.3303H15.5998ZM13.2389 15.1806L10.5181 16.5C10.5146 16.0668 10.317 15.644 9.95387 15.3635C9.3884 14.9273 8.8232 14.4912 8.25801 14.055C7.71734 13.6379 7.17672 13.2206 6.63578 12.8034C6.58305 12.7627 6.51832 12.7406 6.45172 12.7406H4.0059V12.2546C4.0059 12.0882 3.87098 11.9533 3.70453 11.9533H1.29355C1.12711 11.9533 0.992188 12.0882 0.992188 12.2546C0.992188 12.4211 1.12711 12.556 1.29355 12.556H3.40316V17.3887V17.3899V17.8707H1.29355C1.12711 17.8707 0.992188 18.0056 0.992188 18.1721C0.992188 18.3385 1.12711 18.4734 1.29355 18.4734H3.70453C3.87098 18.4734 4.0059 18.3385 4.0059 18.1721V17.8827C4.29066 18.0323 4.55859 18.1739 4.8043 18.3038C6.87141 19.3963 7.90898 19.9447 8.96055 19.9788C8.99555 19.9799 9.03035 19.9804 9.0652 19.9804C10.084 19.9804 11.0577 19.496 12.9356 18.5616C13.3948 18.3331 13.9154 18.0741 14.5035 17.789C15.2221 17.4397 15.5237 16.5709 15.1758 15.8518C14.8268 15.1339 13.9581 14.8326 13.2389 15.1806ZM14.2402 17.2468C13.6496 17.5332 13.1276 17.7929 12.667 18.022C10.8155 18.9433 9.88609 19.4063 8.98004 19.3764C8.06754 19.3468 7.07109 18.8201 5.08594 17.7709C4.76074 17.599 4.39727 17.4069 4.0059 17.2022V13.3434H6.34898C6.86277 13.7396 7.37625 14.1359 7.8898 14.5322C8.45504 14.9684 9.02027 15.4046 9.58562 15.8406C9.88621 16.0729 9.99215 16.472 9.85664 16.8193C9.8557 16.8216 9.85453 16.8237 9.85367 16.8259C9.84699 16.8429 9.83965 16.8597 9.83172 16.8764C9.83117 16.8775 9.83066 16.8787 9.83012 16.8798C9.80523 16.9314 9.77441 16.9811 9.73777 17.0284C9.60055 17.2066 9.40094 17.3207 9.17566 17.3498C8.95047 17.3789 8.72856 17.3191 8.55051 17.1816L6.38527 15.5103C6.25355 15.4086 6.0643 15.433 5.96258 15.5647C5.8609 15.6965 5.88523 15.8858 6.01699 15.9874L8.18211 17.6586C8.43723 17.8557 8.74449 17.9598 9.06316 17.9598C9.12602 17.9598 9.18937 17.9557 9.25277 17.9475C9.63789 17.8979 9.97969 17.702 10.2147 17.3969C10.2447 17.3582 10.2717 17.3179 10.2974 17.2769L13.5017 15.723C13.9219 15.5197 14.4298 15.6956 14.6336 16.1149C14.8367 16.5348 14.6602 17.0427 14.2402 17.2468ZM18.4643 14.2891C18.4643 14.4555 18.3294 14.5905 18.163 14.5905H15.9012C15.7347 14.5905 15.5998 14.4555 15.5998 14.2891V12.0273C15.5998 11.8608 15.7347 11.7259 15.9012 11.7259C16.0676 11.7259 16.2025 11.8608 16.2025 12.0273V13.6321C17.6057 12.2066 18.4032 10.2727 18.4032 8.26535C18.4032 4.05094 14.9751 0.622266 10.7614 0.622266C6.54695 0.622266 3.11828 4.05094 3.11828 8.26535C3.11828 9.07875 3.24566 9.87883 3.49691 10.6434C3.54887 10.8015 3.46281 10.9718 3.30469 11.0238C3.14664 11.0758 2.97625 10.9897 2.9243 10.8316C2.65309 10.0062 2.51559 9.14281 2.51559 8.26539C2.51555 3.71855 6.21461 0.0195312 10.7614 0.0195312C15.3075 0.0195312 19.006 3.71855 19.006 8.26535C19.006 10.3997 18.1698 12.4567 16.6966 13.9877H18.163C18.3294 13.9877 18.4643 14.1226 18.4643 14.2891Z" fill="white"/>
</g>
<defs>
<clipPath id="clip0_1930_25535">
<rect width="20" height="20" fill="white"/>
</clipPath>
</defs>
</svg>
