<svg width="20" height="20" viewBox="0 0 20 20" fill="none" xmlns="http://www.w3.org/2000/svg">
<g clip-path="url(#clip0_1930_25499)">
<path d="M14.3104 7.50754H15.5207C15.5932 7.50754 15.6627 7.47873 15.714 7.42745C15.7653 7.37617 15.7941 7.30662 15.7941 7.2341V6.02375C15.7941 5.95123 15.7653 5.88168 15.714 5.8304C15.6627 5.77912 15.5932 5.75031 15.5207 5.75031H14.3104C14.2379 5.75031 14.1683 5.77912 14.117 5.8304C14.0658 5.88168 14.037 5.95123 14.037 6.02375V7.23402C14.0369 7.26994 14.044 7.3055 14.0577 7.33869C14.0715 7.37187 14.0916 7.40202 14.117 7.42742C14.1424 7.45282 14.1726 7.47297 14.2057 7.48672C14.2389 7.50046 14.2745 7.50754 14.3104 7.50754ZM14.5838 6.29727H15.2471V6.96051H14.5838V6.29727ZM14.3104 5.41586H15.5207C15.5932 5.41586 15.6627 5.38705 15.714 5.33577C15.7653 5.28449 15.7941 5.21494 15.7941 5.14242V3.93094C15.7941 3.85842 15.7653 3.78887 15.714 3.73759C15.6627 3.68631 15.5932 3.6575 15.5207 3.6575H14.3104C14.2379 3.6575 14.1683 3.68631 14.117 3.73759C14.0658 3.78887 14.037 3.85842 14.037 3.93094V5.1423C14.0369 5.17822 14.044 5.21379 14.0577 5.24698C14.0715 5.28017 14.0916 5.31033 14.117 5.33573C14.1424 5.36113 14.1725 5.38129 14.2057 5.39503C14.2389 5.40878 14.2745 5.41586 14.3104 5.41586ZM14.5838 4.20445H15.2471V4.86879H14.5838V4.20445ZM8.16918 5.53648H11.8332C11.9058 5.53648 11.9753 5.50768 12.0266 5.4564C12.0779 5.40512 12.1067 5.33557 12.1067 5.26305V2.97312C12.1067 2.9006 12.0779 2.83105 12.0266 2.77978C11.9753 2.7285 11.9058 2.69969 11.8332 2.69969H8.16918C8.09666 2.69969 8.02711 2.7285 7.97583 2.77978C7.92455 2.83105 7.89574 2.9006 7.89574 2.97312V5.26301C7.89573 5.29892 7.9028 5.33449 7.91653 5.36767C7.93027 5.40086 7.95041 5.43101 7.9758 5.45641C8.00119 5.48181 8.03134 5.50196 8.06452 5.5157C8.0977 5.52945 8.13327 5.53652 8.16918 5.53652V5.53648ZM10.2752 3.24664H11.5597V3.84457H10.2752V3.24664ZM10.2752 4.3916H11.5597V4.98949H10.2752V4.3916ZM8.4427 3.24664H9.72836V3.84457H8.4427V3.24664ZM8.4427 4.3916H9.72836V4.98949H8.4427V4.3916ZM5.6932 7.84191H4.48184C4.40932 7.84191 4.33977 7.87072 4.28849 7.922C4.23721 7.97328 4.2084 8.04283 4.2084 8.11535V9.32562C4.2084 9.39814 4.23721 9.4677 4.28849 9.51897C4.33977 9.57025 4.40932 9.59906 4.48184 9.59906H5.6932C5.76572 9.59906 5.83527 9.57025 5.88655 9.51897C5.93783 9.4677 5.96664 9.39814 5.96664 9.32562V8.11543C5.96665 8.07952 5.95959 8.04395 5.94585 8.01077C5.93211 7.97758 5.91197 7.94743 5.88658 7.92203C5.86119 7.89663 5.83104 7.87648 5.79786 7.86274C5.76468 7.84899 5.72912 7.84191 5.6932 7.84191ZM5.41977 9.05219H4.75535V8.38895H5.41977V9.05219ZM14.3104 9.59906H15.5207C15.5932 9.59906 15.6627 9.57025 15.714 9.51897C15.7653 9.4677 15.7941 9.39814 15.7941 9.32562V8.11543C15.7941 8.04291 15.7653 7.97336 15.714 7.92208C15.6627 7.8708 15.5932 7.84199 15.5207 7.84199H14.3104C14.2379 7.84199 14.1683 7.8708 14.117 7.92208C14.0658 7.97336 14.037 8.04291 14.037 8.11543V9.3257C14.0369 9.36162 14.044 9.39718 14.0577 9.43037C14.0715 9.46355 14.0916 9.4937 14.117 9.5191C14.1424 9.5445 14.1726 9.56465 14.2057 9.5784C14.2389 9.59214 14.2745 9.59922 14.3104 9.59922V9.59906ZM14.5838 8.38879H15.2471V9.05203H14.5838V8.38879ZM5.6932 5.75023H4.48184C4.40932 5.75023 4.33977 5.77904 4.28849 5.83032C4.23721 5.8816 4.2084 5.95115 4.2084 6.02367V7.23394C4.2084 7.30647 4.23721 7.37602 4.28849 7.42729C4.33977 7.47857 4.40932 7.50738 4.48184 7.50738H5.6932C5.76572 7.50738 5.83527 7.47857 5.88655 7.42729C5.93783 7.37602 5.96664 7.30647 5.96664 7.23394V6.02375C5.96665 5.98783 5.95959 5.95227 5.94585 5.91909C5.93211 5.8859 5.91197 5.85575 5.88658 5.83035C5.86119 5.80495 5.83104 5.7848 5.79786 5.77106C5.76468 5.75731 5.72912 5.75023 5.6932 5.75023ZM5.41977 6.96051H4.75535V6.29727H5.41977V6.96051ZM5.6932 3.65742H4.48184C4.40932 3.65742 4.33977 3.68623 4.28849 3.73751C4.23721 3.78879 4.2084 3.85834 4.2084 3.93086V5.14223C4.2084 5.21475 4.23721 5.2843 4.28849 5.33558C4.33977 5.38686 4.40932 5.41566 4.48184 5.41566H5.6932C5.76572 5.41566 5.83527 5.38686 5.88655 5.33558C5.93783 5.2843 5.96664 5.21475 5.96664 5.14223V3.93094C5.96665 3.89502 5.95959 3.85946 5.94585 3.82627C5.93211 3.79309 5.91197 3.76294 5.88658 3.73754C5.86119 3.71214 5.83104 3.69199 5.79786 3.67824C5.76468 3.6645 5.72912 3.65742 5.6932 3.65742ZM5.41977 4.86879H4.75535V4.20445H5.41977V4.86879ZM19.363 10.092H17.2081V2.89117C17.2081 2.81865 17.1793 2.7491 17.128 2.69782C17.0768 2.64654 17.0072 2.61773 16.9347 2.61773H13.1698V1.39523C13.1698 1.32271 13.141 1.25316 13.0897 1.20188C13.0384 1.15061 12.9688 1.1218 12.8963 1.1218H12.1832V0.273438C12.1832 0.200917 12.1544 0.131367 12.1031 0.080088C12.0518 0.0288085 11.9823 0 11.9098 0H8.09391C8.02139 0 7.95184 0.0288085 7.90056 0.080088C7.84928 0.131367 7.82047 0.200917 7.82047 0.273438V1.12168H7.10727C7.07136 1.12168 7.0358 1.12875 7.00263 1.14249C6.96945 1.15624 6.93931 1.17638 6.91392 1.20177C6.88853 1.22716 6.86838 1.2573 6.85464 1.29048C6.8409 1.32365 6.83383 1.35921 6.83383 1.39512V2.61766H3.06781C2.99529 2.61766 2.92574 2.64646 2.87446 2.69774C2.82318 2.74902 2.79437 2.81857 2.79437 2.89109V10.092H0.640625C0.568105 10.092 0.498555 10.1208 0.447276 10.1721C0.395996 10.2234 0.367188 10.2929 0.367188 10.3654C0.367209 10.8068 0.397226 11.2476 0.457031 11.6849C0.464445 11.7389 0.487862 11.7895 0.524269 11.8302C0.560676 11.8708 0.608409 11.8996 0.661328 11.9129L2.33523 12.3343C2.52051 13.058 2.80809 13.7514 3.1893 14.3938L2.30367 15.8759C2.27576 15.9227 2.26245 15.9767 2.26545 16.0311C2.26845 16.0855 2.28762 16.1378 2.32051 16.1812C2.85391 16.8856 3.48164 17.5134 4.18605 18.0469C4.22948 18.0798 4.28174 18.099 4.33614 18.102C4.39054 18.105 4.44459 18.0916 4.49137 18.0637L5.97445 17.178C6.61654 17.5592 7.30973 17.8467 8.03305 18.032L8.45562 19.7061C8.46897 19.759 8.49781 19.8067 8.53845 19.843C8.5791 19.8794 8.62968 19.9028 8.68371 19.9102C9.55853 20.03 10.4456 20.03 11.3204 19.9102C11.3745 19.9028 11.425 19.8794 11.4657 19.843C11.5063 19.8067 11.5352 19.759 11.5485 19.7061L11.9705 18.032C12.6939 17.8467 13.387 17.5591 14.0291 17.178L15.5123 18.0636C15.559 18.0916 15.6131 18.1049 15.6675 18.1019C15.7219 18.0989 15.7741 18.0797 15.8175 18.0468C16.522 17.5134 17.1497 16.8856 17.6831 16.1812C17.716 16.1378 17.7351 16.0855 17.7381 16.0311C17.7411 15.9767 17.7278 15.9227 17.6999 15.8759L16.8143 14.3927C17.1951 13.7507 17.4824 13.0576 17.6674 12.3344L19.3422 11.913C19.3951 11.8997 19.4429 11.8709 19.4793 11.8303C19.5157 11.7896 19.5391 11.739 19.5465 11.685C19.6064 11.2477 19.6365 10.8069 19.6366 10.3655C19.6366 10.3296 19.6295 10.294 19.6158 10.2608C19.602 10.2276 19.5819 10.1975 19.5564 10.1721C19.531 10.1467 19.5009 10.1265 19.4677 10.1128C19.4345 10.099 19.3989 10.092 19.363 10.092ZM16.6611 3.16469V10.092H13.1698V3.16469H16.6611ZM6.55656 12.2272L7.56016 12.6016V13.2597C7.3802 13.3241 7.22876 13.45 7.13253 13.6152C7.0363 13.7803 7.00145 13.9741 7.03414 14.1624C7.06683 14.3508 7.16495 14.5215 7.3112 14.6445C7.45746 14.7676 7.64246 14.8351 7.83359 14.8351C8.02473 14.8351 8.20973 14.7676 8.35599 14.6445C8.50224 14.5215 8.60036 14.3508 8.63305 14.1624C8.66573 13.9741 8.63089 13.7803 8.53466 13.6152C8.43843 13.45 8.28699 13.3241 8.10703 13.2597V12.4118C8.10704 12.356 8.09 12.3016 8.0582 12.2558C8.02639 12.21 7.98135 12.175 7.9291 12.1555L6.92566 11.7812V10.639H9.72836V13.7458C9.54859 13.8102 9.39732 13.936 9.30121 14.101C9.20511 14.266 9.17033 14.4597 9.20302 14.6478C9.2357 14.836 9.33375 15.0065 9.47988 15.1295C9.62601 15.2524 9.81084 15.3198 10.0018 15.3198C10.1928 15.3198 10.3776 15.2524 10.5237 15.1295C10.6698 15.0065 10.7679 14.836 10.8006 14.6478C10.8333 14.4597 10.7985 14.266 10.7024 14.101C10.6063 13.936 10.455 13.8102 10.2752 13.7458V10.639H13.0779V11.7812L12.0732 12.1556C12.021 12.1751 11.9759 12.2101 11.9441 12.2559C11.9123 12.3017 11.8952 12.3561 11.8952 12.4119V13.26C11.7153 13.3244 11.5638 13.4502 11.4676 13.6154C11.3713 13.7806 11.3365 13.9744 11.3692 14.1627C11.4019 14.351 11.5 14.5218 11.6463 14.6449C11.7925 14.7679 11.9775 14.8354 12.1687 14.8354C12.3598 14.8354 12.5448 14.7679 12.6911 14.6449C12.8374 14.5218 12.9355 14.351 12.9682 14.1627C13.0009 13.9744 12.966 13.7806 12.8698 13.6154C12.7735 13.4502 12.6221 13.3244 12.4421 13.26V12.6016L13.4467 12.2272C13.499 12.2077 13.5441 12.1727 13.5759 12.1269C13.6077 12.0811 13.6247 12.0267 13.6247 11.9709V10.6389H15.5081C15.3651 13.5525 12.9501 15.8789 10.0018 15.8789C7.05348 15.8789 4.63852 13.5525 4.49531 10.639H6.37867V11.9711C6.37866 12.0268 6.39568 12.0812 6.42746 12.127C6.45924 12.1728 6.50426 12.2078 6.55648 12.2273L6.55656 12.2272ZM7.57012 14.0228C7.57 13.9705 7.58541 13.9194 7.61438 13.8759C7.64335 13.8323 7.68459 13.7984 7.73287 13.7783C7.78115 13.7583 7.8343 13.753 7.88558 13.7632C7.93687 13.7733 7.98398 13.7985 8.02095 13.8355C8.05792 13.8724 8.08309 13.9195 8.09327 13.9708C8.10344 14.0221 8.09817 14.0753 8.07812 14.1235C8.05806 14.1718 8.02412 14.2131 7.98061 14.242C7.93709 14.271 7.88595 14.2864 7.83367 14.2863C7.76387 14.2861 7.69699 14.2583 7.64762 14.2089C7.59824 14.1596 7.57038 14.0927 7.57012 14.0229V14.0228ZM11.087 10.092H8.91551V7.50313H11.087V10.092ZM10.2653 14.5091C10.2652 14.5613 10.2496 14.6123 10.2205 14.6557C10.1914 14.6991 10.1501 14.7328 10.1018 14.7527C10.0535 14.7726 10.0003 14.7777 9.94914 14.7674C9.89793 14.7571 9.85092 14.7319 9.81406 14.6949C9.77721 14.6578 9.75215 14.6107 9.74207 14.5595C9.73199 14.5082 9.73734 14.4551 9.75743 14.4069C9.77753 14.3587 9.81147 14.3175 9.85497 14.2886C9.89846 14.2597 9.94956 14.2443 10.0018 14.2444C10.0365 14.2445 10.0708 14.2513 10.1029 14.2647C10.1349 14.278 10.164 14.2975 10.1884 14.3221C10.2129 14.3467 10.2323 14.3758 10.2455 14.4079C10.2587 14.44 10.2654 14.4744 10.2653 14.5091ZM12.4333 14.0229C12.4332 14.0751 12.4176 14.1261 12.3885 14.1695C12.3595 14.2128 12.3182 14.2466 12.27 14.2665C12.2218 14.2864 12.1687 14.2916 12.1175 14.2814C12.0663 14.2712 12.0193 14.246 11.9824 14.2091C11.9455 14.1722 11.9204 14.1252 11.9102 14.074C11.9 14.0229 11.9052 13.9698 11.9251 13.9216C11.945 13.8733 11.9788 13.8321 12.0221 13.803C12.0655 13.774 12.1164 13.7584 12.1686 13.7583C12.2034 13.7582 12.2379 13.765 12.27 13.7783C12.3021 13.7916 12.3314 13.8111 12.3559 13.8357C12.3805 13.8602 12.4001 13.8894 12.4134 13.9216C12.4266 13.9537 12.4335 13.9882 12.4334 14.0229H12.4333ZM8.36738 0.546875H11.6362V1.12168H8.36738V0.546875ZM12.6229 1.66875V10.092H11.6339V7.22961C11.6339 7.15709 11.6051 7.08754 11.5539 7.03626C11.5026 6.98498 11.433 6.95617 11.3605 6.95617H8.64203C8.56951 6.95617 8.49996 6.98498 8.44868 7.03626C8.3974 7.08754 8.36859 7.15709 8.36859 7.22961V10.092H7.3807V1.66875H12.6229ZM3.34164 3.16484H6.83383V10.092H3.34133L3.34164 3.16484ZM19.028 11.4282L17.3741 11.8445C17.3254 11.8567 17.281 11.8822 17.2458 11.918C17.2106 11.9538 17.186 11.9987 17.1746 12.0476C16.9931 12.8258 16.6852 13.569 16.2629 14.2474C16.2365 14.2901 16.2222 14.3392 16.2218 14.3894C16.2214 14.4395 16.2348 14.4889 16.2605 14.532L17.1346 15.9961C16.6943 16.5538 16.1901 17.058 15.6324 17.4983L14.1682 16.6238C14.125 16.5981 14.0757 16.5847 14.0254 16.5851C13.9752 16.5856 13.9261 16.5999 13.8834 16.6264C13.205 17.0489 12.4618 17.3572 11.6835 17.5391C11.6347 17.5505 11.5899 17.5751 11.5541 17.6102C11.5184 17.6454 11.4929 17.6897 11.4806 17.7383L11.0634 19.391C10.3581 19.4732 9.6455 19.4732 8.94012 19.391L8.52297 17.7382C8.51067 17.6896 8.48523 17.6453 8.44944 17.6102C8.41365 17.575 8.36888 17.5504 8.32004 17.539C7.54174 17.3571 6.79855 17.0488 6.12008 16.6263C6.07743 16.5998 6.0283 16.5855 5.97808 16.5851C5.92785 16.5846 5.87847 16.598 5.83535 16.6237L4.37105 17.4982C3.81342 17.0579 3.30929 16.5537 2.86898 15.9961L3.7432 14.5332C3.76903 14.4901 3.78246 14.4407 3.78204 14.3904C3.78161 14.3402 3.76733 14.291 3.74078 14.2483C3.31821 13.5695 3.0099 12.8259 2.82812 12.0473C2.81672 11.9984 2.79208 11.9536 2.75691 11.9177C2.72174 11.8819 2.67739 11.8564 2.62871 11.8441L0.975898 11.428C0.94543 11.1666 0.926133 10.9026 0.918242 10.639H3.94793C4.09164 13.8542 6.7518 16.4258 10.0018 16.4258C13.2518 16.4258 15.912 13.8542 16.0556 10.639H19.0854C19.0774 10.9026 19.0582 11.1666 19.0277 11.428L19.028 11.4282Z" fill="white"/>
</g>
<defs>
<clipPath id="clip0_1930_25499">
<rect width="20" height="20" fill="white"/>
</clipPath>
</defs>
</svg>
