<svg width="20" height="20" viewBox="0 0 20 20" fill="none" xmlns="http://www.w3.org/2000/svg">
<path d="M0.410938 7.37539L9.76016 3.67227C9.9168 3.61055 10.0828 3.61055 10.2398 3.67227L19.5891 7.37539C19.8387 7.47422 20 7.71133 20 7.98008C20 8.24961 19.8387 8.4875 19.5891 8.58594L18.8254 8.88828V10.6832C19.0773 10.8016 19.2527 11.057 19.2527 11.3539C19.2527 11.5867 19.1445 11.7941 18.9762 11.9297L19.318 13.3168C19.3539 13.4637 19.3211 13.6152 19.2285 13.7332C19.1355 13.8523 18.9961 13.9203 18.8453 13.9203H18.1809C18.0297 13.9203 17.8895 13.8516 17.7992 13.7348C17.7055 13.6168 17.6723 13.4645 17.7082 13.3164L18.05 11.9297C17.8816 11.7941 17.7734 11.5863 17.7734 11.3539C17.7734 11.0574 17.9488 10.8016 18.2008 10.6832V9.13555L15.9473 10.0281V14.5273C15.9473 14.8902 15.7285 15.2082 15.3902 15.3383C13.6 16.0238 11.7863 16.3723 10 16.3734H9.99024C8.2 16.3734 6.38945 16.025 4.6086 15.3383C4.2711 15.2082 4.05313 14.8902 4.05313 14.5289V10.0285L0.41172 8.58633C0.16172 8.4875 0.000392914 8.24961 0.000392914 7.98047C1.90735e-06 7.71133 0.16172 7.47383 0.410938 7.37539ZM18.3977 11.3539C18.3977 11.4176 18.4492 11.4691 18.5129 11.4691C18.5766 11.4691 18.6281 11.4176 18.6281 11.3539C18.6281 11.2898 18.5766 11.2375 18.5129 11.2375C18.4492 11.2375 18.3977 11.2898 18.3977 11.3539ZM18.6695 13.2961L18.5129 12.6609L18.3563 13.2961H18.6695ZM4.67735 14.5285C4.67735 14.6328 4.73555 14.718 4.83281 14.7555C8.24844 16.073 11.7254 16.073 15.1664 14.7555C15.2641 14.718 15.3227 14.6328 15.3227 14.5277V10.2758L10.2398 12.2891C10.1613 12.3199 10.0809 12.3355 10 12.3355C9.91914 12.3355 9.83828 12.3199 9.75977 12.2891L4.67735 10.2762V14.5285ZM0.641018 8.00547L4.48008 9.52617C4.48281 9.52734 4.48594 9.52852 4.48867 9.52969L9.98945 11.7082C9.99688 11.7109 10 11.7113 10 11.7113C10 11.7113 10.0031 11.7113 10.0102 11.7082L15.5113 9.5293C15.5141 9.52813 15.5172 9.52695 15.5199 9.52578L18.3813 8.39258C18.3938 8.38672 18.4066 8.38125 18.4203 8.37695L19.3594 8.00508C19.3699 8.00078 19.3754 7.9957 19.3754 7.98008C19.3754 7.96641 19.3719 7.96094 19.3594 7.95586H19.359L10.0105 4.25313C10.0043 4.25078 10.0008 4.25 10 4.25C9.99922 4.25 9.9957 4.25078 9.98984 4.25313L0.640627 7.95586C0.628126 7.96094 0.624611 7.96641 0.624611 7.98008C0.624611 7.99609 0.63047 8.00117 0.641018 8.00547Z" fill="white"/>
</svg>
