<svg width="20" height="20" viewBox="0 0 20 20" fill="none" xmlns="http://www.w3.org/2000/svg">
<path d="M15.7873 12.2427C16.5236 11.6672 17.1271 10.9395 17.5564 10.1094C17.9858 9.27933 18.231 8.36636 18.2752 7.43284C18.3194 6.49932 18.1617 5.56725 17.8127 4.70028C17.4638 3.8333 16.9318 3.05185 16.2532 2.40927C15.0409 1.25516 13.4288 0.615372 11.755 0.624112C10.0813 0.632851 8.4759 1.28944 7.27573 2.45615H4.56354C4.5135 2.45563 4.46462 2.44102 4.4225 2.41399C4.38038 2.38696 4.34673 2.34861 4.32541 2.30334L4.28104 2.20709C4.43088 2.05322 4.52287 1.85226 4.5414 1.63829C4.55993 1.42433 4.50386 1.21054 4.3827 1.03321C4.26155 0.855876 4.08276 0.725927 3.8767 0.665409C3.67063 0.604892 3.44998 0.617535 3.25217 0.701193C3.05437 0.78485 2.8916 0.93437 2.79149 1.12438C2.69138 1.31439 2.6601 1.53318 2.70295 1.74363C2.74579 1.95408 2.86014 2.14322 3.02657 2.27896C3.193 2.4147 3.40127 2.48868 3.61604 2.48834C3.64996 2.48682 3.68376 2.48338 3.71729 2.47802L3.75792 2.56552C3.82919 2.71924 3.94286 2.84942 4.08557 2.94076C4.22828 3.0321 4.3941 3.0808 4.56354 3.08115H6.70166C6.39662 3.46534 6.13561 3.88253 5.92354 4.3249H3.52854C3.45488 4.11796 3.31049 3.9437 3.12085 3.83286C2.93121 3.72202 2.70851 3.68174 2.49206 3.71911C2.27561 3.75649 2.07932 3.86912 1.93783 4.03714C1.79634 4.20515 1.71875 4.41774 1.71875 4.6374C1.71875 4.85705 1.79634 5.06965 1.93783 5.23766C2.07932 5.40568 2.27561 5.51831 2.49206 5.55568C2.70851 5.59306 2.93121 5.55277 3.12085 5.44194C3.31049 5.3311 3.45488 5.15683 3.52854 4.9499H5.65948C5.42528 5.59449 5.29604 6.27248 5.27667 6.95802C5.27229 7.1274 5.27667 7.29521 5.2851 7.4624H4.56354C4.51295 7.462 4.46354 7.44705 4.42121 7.41935C4.37888 7.39164 4.34541 7.35235 4.32479 7.30615L4.28135 7.2124C4.4311 7.05859 4.52303 6.8577 4.54154 6.64383C4.56005 6.42996 4.504 6.21627 4.3829 6.03902C4.2618 5.86177 4.0831 5.73187 3.87714 5.67136C3.67117 5.61085 3.45061 5.62346 3.25289 5.70704C3.05516 5.79063 2.89243 5.94005 2.79232 6.12995C2.69221 6.31984 2.66088 6.53853 2.70364 6.7489C2.7464 6.95927 2.86062 7.14836 3.02692 7.28411C3.19323 7.41986 3.40137 7.49389 3.61604 7.49365C3.65018 7.49218 3.6842 7.48864 3.71791 7.48302L3.75698 7.56677C3.82736 7.72177 3.9408 7.85328 4.08379 7.94563C4.22679 8.03799 4.39331 8.08731 4.56354 8.08771H5.34479C5.4074 8.51164 5.51208 8.92828 5.65729 9.33146H3.52885C3.45519 9.12453 3.3108 8.95026 3.12116 8.83942C2.93152 8.72859 2.70883 8.6883 2.49238 8.72568C2.27592 8.76305 2.07963 8.87568 1.93814 9.0437C1.79665 9.21171 1.71906 9.42431 1.71906 9.64396C1.71906 9.86362 1.79665 10.0762 1.93814 10.2442C2.07963 10.4122 2.27592 10.5249 2.49238 10.5622C2.70883 10.5996 2.93152 10.5593 3.12116 10.4485C3.3108 10.3377 3.45519 10.1634 3.52885 9.95646H5.9201C6.14117 10.4123 6.41548 10.8402 6.73729 11.2315H4.56354C4.39419 11.2313 4.22833 11.2797 4.08565 11.3709C3.94296 11.4621 3.82944 11.5923 3.75854 11.7461L3.71791 11.8333C3.68418 11.828 3.65016 11.8246 3.61604 11.823C3.40002 11.8222 3.19039 11.8962 3.02277 12.0325C2.85516 12.1688 2.73989 12.3589 2.69657 12.5705C2.65325 12.7821 2.68454 13.0022 2.78514 13.1934C2.88573 13.3846 3.04941 13.535 3.24837 13.6192C3.44732 13.7033 3.66928 13.716 3.87651 13.655C4.08375 13.594 4.26347 13.4632 4.38515 13.2847C4.50682 13.1062 4.56294 12.8911 4.54396 12.6759C4.52498 12.4607 4.43208 12.2587 4.28104 12.1043L4.32604 12.0074C4.34706 11.9622 4.38061 11.9239 4.4227 11.8972C4.46479 11.8704 4.51367 11.8563 4.56354 11.8565H7.32417C7.46229 11.9858 7.60541 12.1118 7.75541 12.2315C7.92866 12.3666 8.06879 12.5394 8.16513 12.7369C8.26148 12.9343 8.31148 13.1511 8.31135 13.3708V14.9293C8.31168 15.1571 8.40237 15.3756 8.56353 15.5367C8.72469 15.6978 8.94317 15.7884 9.17104 15.7886H14.387C14.6149 15.7884 14.8333 15.6978 14.9945 15.5367C15.1556 15.3756 15.2463 15.1571 15.2467 14.9293V13.3702C15.2462 13.1537 15.2945 12.9399 15.3881 12.7447C15.4818 12.5495 15.6182 12.3779 15.7873 12.2427ZM3.30948 1.55646C3.30948 1.49583 3.32746 1.43656 3.36114 1.38614C3.39483 1.33573 3.44271 1.29644 3.49872 1.27323C3.55474 1.25003 3.61638 1.24396 3.67585 1.25579C3.73531 1.26762 3.78994 1.29681 3.83281 1.33969C3.87569 1.38256 3.90488 1.43719 3.91671 1.49665C3.92854 1.55612 3.92247 1.61776 3.89927 1.67378C3.87606 1.72979 3.83677 1.77767 3.78636 1.81136C3.73594 1.84504 3.67667 1.86302 3.61604 1.86302C3.53476 1.86294 3.45683 1.83062 3.39936 1.77314C3.34189 1.71567 3.30956 1.63774 3.30948 1.55646ZM2.6551 4.94552C2.5947 4.94563 2.53561 4.9279 2.48525 4.89454C2.43489 4.86119 2.39551 4.8137 2.37204 4.75804C2.34858 4.70238 2.34209 4.64103 2.35337 4.58169C2.36465 4.52235 2.39322 4.46766 2.43547 4.4245C2.47773 4.38134 2.5318 4.35162 2.59088 4.33908C2.64997 4.32654 2.71145 4.33173 2.76759 4.35401C2.82374 4.37628 2.87205 4.41465 2.90647 4.46429C2.94089 4.51393 2.95987 4.57263 2.96104 4.63302V4.63615V4.64052C2.96055 4.72142 2.92813 4.79886 2.87083 4.85598C2.81354 4.91309 2.736 4.94528 2.6551 4.94552ZM3.30948 6.5624C3.30948 6.50177 3.32746 6.44249 3.36114 6.39208C3.39483 6.34167 3.44271 6.30237 3.49872 6.27917C3.55474 6.25597 3.61638 6.2499 3.67585 6.26173C3.73531 6.27356 3.78994 6.30275 3.83281 6.34563C3.87569 6.3885 3.90488 6.44312 3.91671 6.50259C3.92854 6.56206 3.92247 6.6237 3.89927 6.67971C3.87606 6.73573 3.83677 6.78361 3.78636 6.8173C3.73594 6.85098 3.67667 6.86896 3.61604 6.86896C3.53479 6.8688 3.45691 6.83644 3.39945 6.77899C3.34199 6.72153 3.30964 6.64365 3.30948 6.5624ZM2.6551 9.95084C2.59453 9.95102 2.53526 9.93327 2.48475 9.89982C2.43425 9.86638 2.39477 9.81874 2.3713 9.7629C2.34782 9.70706 2.3414 9.64552 2.35283 9.58604C2.36426 9.52655 2.39305 9.47178 2.43555 9.42863C2.47806 9.38547 2.53238 9.35586 2.59169 9.34352C2.65099 9.33118 2.71262 9.33667 2.76881 9.3593C2.825 9.38192 2.87323 9.42067 2.90744 9.47066C2.94165 9.52065 2.9603 9.57964 2.96104 9.64021V9.64365V9.64771C2.96014 9.72831 2.92752 9.80531 2.87027 9.86205C2.81301 9.91878 2.73571 9.95068 2.6551 9.95084ZM3.61604 13.0624C3.55541 13.0624 3.49614 13.0444 3.44572 13.0107C3.39531 12.977 3.35602 12.9292 3.33281 12.8732C3.30961 12.8171 3.30354 12.7555 3.31537 12.696C3.3272 12.6366 3.35639 12.5819 3.39927 12.5391C3.44214 12.4962 3.49677 12.467 3.55623 12.4552C3.6157 12.4433 3.67734 12.4494 3.73336 12.4726C3.78937 12.4958 3.83725 12.5351 3.87094 12.5855C3.90462 12.6359 3.9226 12.6952 3.9226 12.7558C3.92252 12.8371 3.89019 12.915 3.83272 12.9725C3.77525 13.03 3.69732 13.0623 3.61604 13.0624ZM14.6217 13.3718V14.9299C14.6216 14.9921 14.5968 15.0517 14.5528 15.0956C14.5088 15.1396 14.4492 15.1643 14.387 15.1643H9.17104C9.10885 15.1643 9.0492 15.1396 9.0052 15.0956C8.9612 15.0517 8.93644 14.9921 8.93635 14.9299V13.3699C8.9367 13.0557 8.86536 12.7455 8.72776 12.463C8.59016 12.1804 8.38992 11.933 8.14229 11.7396C7.39571 11.1541 6.8022 10.3963 6.4126 9.53115C6.41032 9.52497 6.40771 9.51892 6.40479 9.51302C6.07262 8.76645 5.90067 7.95852 5.90002 7.14139C5.89938 6.32425 6.07005 5.51606 6.40104 4.76896C6.40354 4.76334 6.40666 4.75834 6.40885 4.7524C6.69918 4.10214 7.10406 3.50937 7.60417 3.0024C7.61533 2.99343 7.62578 2.98361 7.63542 2.97302C8.20187 2.40652 8.87828 1.96195 9.623 1.66668C10.3677 1.3714 11.165 1.23168 11.9658 1.25611C12.7665 1.28053 13.5538 1.46859 14.2791 1.80871C15.0045 2.14883 15.6525 2.6338 16.1834 3.23378C16.7143 3.83376 17.1167 4.53604 17.366 5.2974C17.6152 6.05876 17.706 6.86308 17.6328 7.66084C17.5595 8.45861 17.3238 9.23294 16.94 9.93617C16.5562 10.6394 16.0326 11.2566 15.4014 11.7499C15.1579 11.9439 14.9613 12.1904 14.8263 12.4709C14.6913 12.7515 14.6213 13.0589 14.6217 13.3702V13.3718Z" fill="white"/>
<path d="M14.5337 16.7041H9.02375C8.79588 16.7043 8.5774 16.795 8.41624 16.9561C8.25508 17.1172 8.16439 17.3356 8.16406 17.5635V18.516C8.16439 18.7438 8.25508 18.9623 8.41624 19.1234C8.5774 19.2845 8.79588 19.3751 9.02375 19.3754H14.5337C14.7616 19.3751 14.9801 19.2845 15.1413 19.1234C15.3024 18.9623 15.3931 18.7438 15.3934 18.516V17.5629C15.3929 17.3351 15.3022 17.1168 15.141 16.9558C14.9799 16.7949 14.7615 16.7043 14.5337 16.7041ZM14.7684 18.5166C14.7682 18.5787 14.7434 18.6381 14.6994 18.6819C14.6554 18.7258 14.5958 18.7504 14.5337 18.7504H9.02375C8.96156 18.7504 8.90191 18.7257 8.85791 18.6817C8.81391 18.6378 8.78915 18.5782 8.78906 18.516V17.5629C8.78915 17.5007 8.81391 17.441 8.85791 17.3971C8.90191 17.3532 8.96156 17.3285 9.02375 17.3285H14.5337C14.5959 17.3285 14.6556 17.3532 14.6996 17.3971C14.7436 17.441 14.7684 17.5007 14.7684 17.5629V18.5166Z" fill="white"/>
<path d="M15.7553 9.22688L15.6328 9.10437C15.5808 9.04873 15.5466 8.97876 15.5347 8.9035C15.5229 8.82824 15.5339 8.75115 15.5663 8.68219C15.5926 8.61248 15.6392 8.55221 15.7 8.50907C15.7607 8.46593 15.833 8.44189 15.9075 8.44H16.0813C16.3428 8.43975 16.5936 8.33573 16.7786 8.15077C16.9635 7.96581 17.0676 7.71501 17.0678 7.45344V6.77844C17.0676 6.51686 16.9635 6.26607 16.7786 6.08111C16.5936 5.89614 16.3428 5.79212 16.0813 5.79188H15.9075C15.833 5.78666 15.7615 5.76079 15.7009 5.71717C15.6403 5.67355 15.5931 5.61391 15.5645 5.54493C15.536 5.47596 15.5272 5.40039 15.5392 5.32671C15.5512 5.25303 15.5835 5.18415 15.6325 5.12781L15.7553 5.00531C15.8469 4.9137 15.9196 4.80494 15.9692 4.68523C16.0188 4.56553 16.0443 4.43723 16.0443 4.30766C16.0443 4.17809 16.0188 4.04979 15.9692 3.93008C15.9196 3.81038 15.8469 3.70161 15.7553 3.61L15.2775 3.1325C15.0924 2.9478 14.8416 2.84406 14.5802 2.84406C14.3187 2.84406 14.0679 2.9478 13.8828 3.1325L13.76 3.25531C13.7044 3.30725 13.6344 3.34135 13.5593 3.35321C13.4841 3.36508 13.4071 3.35416 13.3381 3.32187C13.2684 3.2955 13.2081 3.24895 13.165 3.18817C13.1219 3.12739 13.0978 3.05513 13.0959 2.98062V2.80656C13.0956 2.54504 12.9915 2.29433 12.8066 2.10943C12.6216 1.92454 12.3709 1.82056 12.1094 1.82031H11.4337C11.1724 1.82081 10.9219 1.9249 10.7371 2.10976C10.5524 2.29463 10.4485 2.5452 10.4481 2.80656V2.98062C10.443 3.05513 10.4171 3.12671 10.3735 3.18733C10.3299 3.24794 10.2702 3.29518 10.2012 3.32372C10.1322 3.35227 10.0566 3.36099 9.98289 3.3489C9.9092 3.33682 9.84034 3.3044 9.78406 3.25531L9.66125 3.1325C9.47608 2.94785 9.22525 2.84416 8.96375 2.84416C8.70225 2.84416 8.45142 2.94785 8.26625 3.1325L7.78906 3.61C7.60434 3.79513 7.5006 4.04597 7.5006 4.3075C7.5006 4.56903 7.60434 4.81987 7.78906 5.005L7.91156 5.12781C7.96356 5.18342 7.99768 5.25336 8.00949 5.32857C8.0213 5.40379 8.01027 5.48082 7.97781 5.54969C7.95144 5.6194 7.90489 5.67967 7.84411 5.72281C7.78333 5.76594 7.71107 5.78999 7.63656 5.79188H7.46312C7.20155 5.79212 6.95076 5.89614 6.76579 6.08111C6.58083 6.26607 6.47681 6.51686 6.47656 6.77844V7.45344C6.47681 7.71501 6.58083 7.96581 6.76579 8.15077C6.95076 8.33573 7.20155 8.43975 7.46312 8.44H7.63656C7.71109 8.4451 7.78272 8.4709 7.84337 8.5145C7.90403 8.55811 7.95131 8.61777 7.97989 8.68679C8.00848 8.75581 8.01722 8.83144 8.00515 8.90516C7.99308 8.97888 7.96067 9.04777 7.91156 9.10406L7.78906 9.22688C7.60434 9.412 7.5006 9.66285 7.5006 9.92438C7.5006 10.1859 7.60434 10.4367 7.78906 10.6219L8.26625 11.0991C8.45138 11.2838 8.70222 11.3875 8.96375 11.3875C9.22528 11.3875 9.47612 11.2838 9.66125 11.0991L9.78406 10.9766C9.83968 10.9247 9.90953 10.8906 9.98466 10.8788C10.0598 10.8669 10.1367 10.8778 10.2056 10.91C10.2752 10.9363 10.3355 10.9826 10.3787 11.0432C10.4219 11.1039 10.446 11.1759 10.4481 11.2503V11.4241C10.4481 11.6856 10.5519 11.9365 10.7367 12.1217C10.9215 12.3068 11.1722 12.4111 11.4337 12.4116H12.1087C12.3703 12.4113 12.6211 12.3073 12.8061 12.1223C12.991 11.9374 13.0951 11.6866 13.0953 11.425V11.2503C13.0981 11.1744 13.1236 11.1011 13.1685 11.0398C13.2134 10.9785 13.2757 10.9321 13.3472 10.9066C13.4151 10.876 13.4906 10.8664 13.564 10.8789C13.6374 10.8915 13.7054 10.9256 13.7594 10.9769L13.8822 11.0994C14.07 11.2788 14.3198 11.379 14.5795 11.379C14.8393 11.379 15.0891 11.2788 15.2769 11.0994L15.7544 10.6222C15.846 10.5306 15.9187 10.4219 15.9683 10.3022C16.018 10.1825 16.0435 10.0542 16.0435 9.92469C16.0435 9.79513 16.018 9.66685 15.9683 9.54717C15.9187 9.42748 15.846 9.31875 15.7544 9.22719L15.7553 9.22688ZM15.3134 10.18L14.8359 10.6566C14.7671 10.7223 14.6756 10.759 14.5805 10.759C14.4853 10.759 14.3938 10.7223 14.325 10.6566L14.2022 10.5338C14.0584 10.3974 13.8782 10.3056 13.6833 10.2695C13.4884 10.2334 13.2873 10.2546 13.1042 10.3304C12.9211 10.4062 12.7639 10.5334 12.6516 10.6966C12.5392 10.8599 12.4766 11.0522 12.4712 11.2503V11.4241C12.4711 11.5199 12.4329 11.6118 12.3652 11.6795C12.2974 11.7473 12.2055 11.7855 12.1097 11.7856H11.4337C11.3379 11.7855 11.246 11.7474 11.1782 11.6796C11.1104 11.6118 11.0723 11.5199 11.0722 11.4241V11.2503C11.0703 11.0504 11.0085 10.8557 10.8949 10.6913C10.7813 10.5269 10.621 10.4003 10.4347 10.3278C10.3087 10.2754 10.1736 10.2483 10.0372 10.2481C9.90812 10.2475 9.78019 10.2724 9.66077 10.3214C9.54134 10.3703 9.43276 10.4424 9.34125 10.5334L9.21844 10.6562C9.15055 10.7239 9.05864 10.7619 8.96281 10.7619C8.86699 10.7619 8.77507 10.7239 8.70719 10.6562L8.23 10.1791C8.16229 10.1112 8.12427 10.0193 8.12427 9.92344C8.12427 9.82759 8.16229 9.73566 8.23 9.66781L8.35281 9.545C8.48933 9.40121 8.58124 9.22091 8.61738 9.02596C8.65353 8.831 8.63238 8.62975 8.55648 8.44657C8.48058 8.26339 8.3532 8.10615 8.18976 7.99389C8.02632 7.88163 7.83384 7.81916 7.63562 7.81406H7.46219C7.36632 7.81398 7.2744 7.77586 7.20662 7.70807C7.13883 7.64028 7.10071 7.54837 7.10062 7.4525V6.77844C7.10071 6.68257 7.13883 6.59065 7.20662 6.52287C7.2744 6.45508 7.36632 6.41696 7.46219 6.41688H7.63562C7.83381 6.41172 8.02625 6.34921 8.18965 6.23693C8.35304 6.12464 8.48037 5.9674 8.55623 5.78423C8.63209 5.60106 8.65322 5.39983 8.61706 5.2049C8.5809 5.00998 8.48901 4.82971 8.3525 4.68594L8.23 4.56313C8.16229 4.49528 8.12427 4.40335 8.12427 4.3075C8.12427 4.21165 8.16229 4.11972 8.23 4.05188L8.70719 3.57469C8.77499 3.5069 8.86694 3.46883 8.96281 3.46883C9.05869 3.46883 9.15063 3.5069 9.21844 3.57469L9.34094 3.69719C9.48468 3.83378 9.66494 3.92576 9.8599 3.96199C10.0548 3.99822 10.2561 3.97714 10.4393 3.9013C10.6226 3.82547 10.7799 3.69814 10.8922 3.53473C11.0045 3.37132 11.067 3.17885 11.0722 2.98062V2.80656C11.0724 2.71075 11.1105 2.61891 11.1783 2.55119C11.2461 2.48347 11.3379 2.4454 11.4337 2.44531H12.1087C12.2047 2.44523 12.2968 2.48322 12.3647 2.55095C12.4327 2.61868 12.471 2.71061 12.4712 2.80656V2.98062C12.4765 3.17879 12.539 3.37119 12.6513 3.53453C12.7636 3.69788 12.9209 3.82517 13.104 3.90099C13.2872 3.97681 13.4884 3.99791 13.6833 3.96174C13.8782 3.92557 14.0584 3.83368 14.2022 3.69719L14.325 3.57469C14.3585 3.5411 14.3983 3.51445 14.4422 3.49627C14.486 3.47808 14.533 3.46872 14.5805 3.46872C14.6279 3.46872 14.6749 3.47808 14.7188 3.49627C14.7626 3.51445 14.8024 3.5411 14.8359 3.57469L15.3134 4.05219C15.347 4.08571 15.3737 4.12553 15.3919 4.16937C15.41 4.21321 15.4194 4.2602 15.4194 4.30766C15.4194 4.35511 15.41 4.40211 15.3919 4.44594C15.3737 4.48978 15.347 4.5296 15.3134 4.56313L15.1906 4.68594C15.0543 4.82976 14.9625 5.01002 14.9264 5.2049C14.8903 5.39978 14.9115 5.60095 14.9873 5.78406C15.0631 5.96717 15.1904 6.12439 15.3537 6.23669C15.517 6.349 15.7094 6.41158 15.9075 6.41688H16.0813C16.1771 6.41704 16.269 6.45519 16.3367 6.52296C16.4045 6.59073 16.4426 6.6826 16.4428 6.77844V7.45344C16.4426 7.54928 16.4045 7.64115 16.3367 7.70892C16.269 7.77669 16.1771 7.81484 16.0813 7.815H15.9075C15.7093 7.82016 15.5169 7.88266 15.3535 7.99495C15.1901 8.10723 15.0628 8.26448 14.9869 8.44764C14.911 8.63081 14.8899 8.83204 14.9261 9.02697C14.9622 9.2219 15.0541 9.40216 15.1906 9.54594L15.3134 9.66875C15.347 9.7023 15.3737 9.74215 15.3919 9.78601C15.4101 9.82987 15.4194 9.87689 15.4194 9.92438C15.4194 9.97186 15.4101 10.0189 15.3919 10.0627C15.3737 10.1066 15.347 10.1464 15.3134 10.18Z" fill="white"/>
<path d="M11.7766 4.37793C11.2352 4.37787 10.7059 4.53835 10.2558 4.83908C9.80561 5.13981 9.45473 5.56727 9.24751 6.06742C9.04029 6.56757 8.98604 7.11794 9.09162 7.64892C9.1972 8.17991 9.45787 8.66766 9.84066 9.05049C10.2234 9.43332 10.7112 9.69405 11.2421 9.79969C11.7731 9.90533 12.3235 9.85114 12.8237 9.64398C13.3238 9.43682 13.7513 9.08598 14.0521 8.63585C14.3529 8.18571 14.5134 7.65649 14.5134 7.11512C14.5126 6.38948 14.224 5.69379 13.7109 5.18066C13.1979 4.66752 12.5022 4.37884 11.7766 4.37793ZM11.7766 9.2273C11.3588 9.22737 10.9504 9.10354 10.603 8.87149C10.2556 8.63944 9.98485 8.30958 9.82493 7.92363C9.66502 7.53769 9.62315 7.11299 9.70461 6.70324C9.78607 6.2935 9.98722 5.91711 10.2826 5.62169C10.578 5.32626 10.9543 5.12506 11.3641 5.04354C11.7738 4.96201 12.1985 5.00382 12.5845 5.16368C12.9704 5.32354 13.3003 5.59426 13.5325 5.94162C13.7646 6.28897 13.8884 6.69735 13.8884 7.11512C13.8878 7.67505 13.6651 8.21186 13.2692 8.60782C12.8733 9.00378 12.3365 9.22656 11.7766 9.2273Z" fill="white"/>
<path d="M11.3031 5.77637C11.0446 5.77662 10.7968 5.87942 10.614 6.06221C10.4312 6.24501 10.3284 6.49286 10.3281 6.75137V8.14137C10.3281 8.22425 10.361 8.30373 10.4197 8.36234C10.4783 8.42094 10.5577 8.45387 10.6406 8.45387C10.7235 8.45387 10.803 8.42094 10.8616 8.36234C10.9202 8.30373 10.9531 8.22425 10.9531 8.14137V7.42762H11.6528V8.14137C11.6528 8.22425 11.6857 8.30373 11.7443 8.36234C11.8029 8.42094 11.8824 8.45387 11.9653 8.45387C12.0482 8.45387 12.1277 8.42094 12.1863 8.36234C12.2449 8.30373 12.2778 8.22425 12.2778 8.14137V6.75137C12.2776 6.49291 12.1748 6.24511 11.9921 6.06232C11.8094 5.87954 11.5616 5.7767 11.3031 5.77637ZM10.9531 6.80262V6.75137C10.9517 6.70455 10.9597 6.65792 10.9767 6.61425C10.9936 6.57058 11.0192 6.53076 11.0518 6.49715C11.0844 6.46353 11.1235 6.43681 11.1666 6.41856C11.2098 6.40031 11.2561 6.39091 11.303 6.39091C11.3498 6.39091 11.3962 6.40031 11.4393 6.41856C11.4825 6.43681 11.5215 6.46353 11.5541 6.49715C11.5868 6.53076 11.6123 6.57058 11.6292 6.61425C11.6462 6.65792 11.6542 6.70455 11.6528 6.75137V6.80262H10.9531Z" fill="white"/>
<path d="M12.9062 5.77637C12.8234 5.77637 12.7439 5.80929 12.6853 5.8679C12.6267 5.9265 12.5938 6.00599 12.5938 6.08887V8.14137C12.5938 8.22425 12.6267 8.30373 12.6853 8.36234C12.7439 8.42094 12.8234 8.45387 12.9062 8.45387C12.9891 8.45387 13.0686 8.42094 13.1272 8.36234C13.1858 8.30373 13.2188 8.22425 13.2188 8.14137V6.08887C13.2188 6.00599 13.1858 5.9265 13.1272 5.8679C13.0686 5.80929 12.9891 5.77637 12.9062 5.77637Z" fill="white"/>
</svg>
