<svg width="68" height="65" viewBox="0 0 68 65" fill="none" xmlns="http://www.w3.org/2000/svg">
<path d="M38.3321 28.1319L42.4946 25.3273C42.6897 25.1962 42.8388 25.0074 42.921 24.7873C43.0033 24.5672 43.0145 24.3268 42.9532 24.1C42.8919 23.8731 42.7612 23.6712 42.5792 23.5225C42.3973 23.3738 42.1734 23.2857 41.9389 23.2708L36.6008 22.9333L34.8098 17.9056C34.7318 17.6869 34.5882 17.4977 34.3984 17.3639C34.2087 17.23 33.9822 17.1582 33.75 17.1582C33.5178 17.1582 33.2913 17.23 33.1016 17.3639C32.9119 17.4977 32.7682 17.6869 32.6903 17.9056L30.8993 22.9333L25.5611 23.2708C25.3266 23.2857 25.1027 23.3738 24.9208 23.5225C24.7389 23.6712 24.6081 23.8731 24.5468 24.1C24.4855 24.3268 24.4967 24.5672 24.579 24.7873C24.6612 25.0074 24.8103 25.1962 25.0054 25.3273L29.1679 28.1319L27.603 33.128C27.5347 33.3489 27.5362 33.5854 27.6071 33.8054C27.678 34.0254 27.815 34.2182 27.9994 34.3576C28.1838 34.497 28.4067 34.5763 28.6377 34.5845C28.8687 34.5928 29.0966 34.5297 29.2905 34.4038L33.75 31.4698L38.205 34.4049C38.3989 34.5308 38.6268 34.5939 38.8578 34.5856C39.0889 34.5774 39.3117 34.4982 39.4961 34.3588C39.6805 34.2194 39.8175 34.0265 39.8884 33.8065C39.9593 33.5865 39.9608 33.35 39.8925 33.1291L38.3321 28.1319ZM35.9348 28.0036L36.8078 30.7891L34.3688 29.1826C34.1851 29.0617 33.97 28.9972 33.75 28.9972C33.5301 28.9972 33.3149 29.0617 33.1313 29.1826L30.6923 30.7891L31.5653 28.0036C31.6371 27.7719 31.6322 27.5231 31.5511 27.2944C31.47 27.0657 31.3171 26.8693 31.1153 26.7346L28.9935 25.3036L31.7779 25.1248C31.9973 25.1107 32.2078 25.0327 32.3833 24.9003C32.5589 24.768 32.6918 24.5871 32.7656 24.38L33.75 21.6294L34.7299 24.38C34.8037 24.5871 34.9367 24.768 35.1122 24.9003C35.2877 25.0327 35.4982 25.1107 35.7176 25.1248L38.502 25.3036L36.3803 26.7346C36.1792 26.87 36.0273 27.0666 35.947 27.2952C35.8667 27.5239 35.8624 27.7724 35.9348 28.0036Z" fill="#073A74"/>
<path d="M32.625 12.6543H34.875V14.9043H32.625V12.6543Z" fill="#073A74"/>
<path d="M23.3984 17.4023L24.9894 15.8114L26.5804 17.4023L24.9894 18.9933L23.3984 17.4023Z" fill="#073A74"/>
<path d="M20.25 25.0293H22.5V27.2793H20.25V25.0293Z" fill="#073A74"/>
<path d="M23.3984 34.9023L24.9894 33.3114L26.5804 34.9023L24.9894 36.4933L23.3984 34.9023Z" fill="#073A74"/>
<path d="M32.625 37.4043H34.875V39.6543H32.625V37.4043Z" fill="#073A74"/>
<path d="M40.8984 34.9043L42.4894 33.3133L44.0804 34.9043L42.4894 36.4953L40.8984 34.9043Z" fill="#073A74"/>
<path d="M45 25.0293H47.25V27.2793H45V25.0293Z" fill="#073A74"/>
<path d="M40.8984 17.4062L42.4894 15.8153L44.0804 17.4062L42.4894 18.9972L40.8984 17.4062Z" fill="#073A74"/>
<path d="M63.166 55.4034L67.351 48.0909C67.4451 47.9184 67.4944 47.725 67.4944 47.5284C67.4944 47.3319 67.4451 47.1385 67.351 46.9659C67.2518 46.7943 67.1091 46.6518 66.9372 46.553C66.7654 46.4543 66.5704 46.4027 66.3722 46.4034H57.3722V43.0284C57.3722 42.7301 57.2537 42.4439 57.0427 42.2329C56.8317 42.022 56.5456 41.9034 56.2472 41.9034H51.106L51.9272 39.3609L58.216 34.8047C58.4091 34.6654 58.5525 34.4679 58.6254 34.2412C58.6983 34.0145 58.6967 33.7704 58.621 33.5447L56.2247 26.1534L58.621 18.7622C58.6967 18.5364 58.6983 18.2924 58.6254 18.0657C58.5525 17.839 58.4091 17.6415 58.216 17.5022L51.9272 12.9459L49.531 5.55469C49.4574 5.32914 49.3145 5.13261 49.1225 4.9932C48.9306 4.85378 48.6994 4.77862 48.4622 4.77844H40.6885L34.411 0.210942C34.2168 0.073696 33.9849 0 33.7472 0C33.5095 0 33.2776 0.073696 33.0835 0.210942L26.806 4.77844H19.0322C18.795 4.77862 18.5639 4.85378 18.3719 4.9932C18.18 5.13261 18.037 5.32914 17.9635 5.55469L15.5672 12.9459L9.27846 17.5022C9.08536 17.6415 8.94189 17.839 8.86902 18.0657C8.79616 18.2924 8.79771 18.5364 8.87346 18.7622L11.2697 26.1534L8.87346 33.5447C8.79771 33.7704 8.79616 34.0145 8.86902 34.2412C8.94189 34.4679 9.08536 34.6654 9.27846 34.8047L15.5672 39.3609L16.3885 41.9034H11.2472C10.9488 41.9034 10.6627 42.022 10.4517 42.2329C10.2407 42.4439 10.1222 42.7301 10.1222 43.0284V46.4034H1.12221C0.923973 46.4027 0.729049 46.4543 0.557174 46.553C0.385299 46.6518 0.242577 46.7943 0.14346 46.9659C0.0493266 47.1385 0 47.3319 0 47.5284C0 47.725 0.0493266 47.9184 0.14346 48.0909L4.32846 55.4034L0.14346 62.7159C0.0493266 62.8885 0 63.0819 0 63.2784C0 63.475 0.0493266 63.6684 0.14346 63.8409C0.242577 64.0126 0.385299 64.1551 0.557174 64.2538C0.729049 64.3526 0.923973 64.4042 1.12221 64.4034H21.3722C21.6706 64.4034 21.9567 64.2849 22.1677 64.0739C22.3787 63.863 22.4972 63.5768 22.4972 63.2784V59.9034H44.9972V63.2784C44.9972 63.5768 45.1157 63.863 45.3267 64.0739C45.5377 64.2849 45.8238 64.4034 46.1222 64.4034H66.3722C66.5704 64.4042 66.7654 64.3526 66.9372 64.2538C67.1091 64.1551 67.2518 64.0126 67.351 63.8409C67.4451 63.6684 67.4944 63.475 67.4944 63.2784C67.4944 63.0819 67.4451 62.8885 67.351 62.7159L63.166 55.4034ZM11.2697 33.4659L13.5197 26.5022C13.5985 26.2764 13.5985 26.0305 13.5197 25.8047L11.2697 18.8409L17.1872 14.5547C17.3806 14.417 17.523 14.2192 17.5922 13.9922L19.8535 7.02844H27.166C27.4038 7.0266 27.6355 6.95201 27.8297 6.81469L33.7472 2.51719L39.6647 6.81469C39.859 6.95201 40.0906 7.0266 40.3285 7.02844H47.641L49.9022 13.9922C49.9714 14.2192 50.1138 14.417 50.3072 14.5547L56.2247 18.8409L53.9747 25.8047C53.8959 26.0305 53.8959 26.2764 53.9747 26.5022L56.2247 33.4659L50.3072 37.7522C50.1138 37.8899 49.9714 38.0876 49.9022 38.3147L48.7322 41.9034H42.4435C45.9389 39.9747 48.694 36.9386 50.2752 33.2728C51.8564 29.607 52.1741 25.5195 51.1782 21.6535C50.1823 17.7874 47.9294 14.3621 44.774 11.9164C41.6185 9.47075 37.7395 8.14352 33.7472 8.14352C29.7549 8.14352 25.8759 9.47075 22.7205 11.9164C19.565 14.3621 17.3121 17.7874 16.3162 21.6535C15.3204 25.5195 15.638 29.607 17.2192 33.2728C18.8005 36.9386 21.5555 39.9747 25.051 41.9034H18.7622L17.5922 38.3147C17.523 38.0876 17.3806 37.8899 17.1872 37.7522L11.2697 33.4659ZM33.7472 41.9034C30.6322 41.9034 27.5871 40.9797 24.997 39.2491C22.4069 37.5185 20.3882 35.0586 19.1961 32.1807C18.004 29.3028 17.6921 26.136 18.2998 23.0808C18.9076 20.0256 20.4076 17.2192 22.6103 15.0165C24.813 12.8138 27.6193 11.3138 30.6745 10.7061C33.7297 10.0984 36.8965 10.4103 39.7745 11.6023C42.6524 12.7944 45.1122 14.8131 46.8429 17.4032C48.5735 19.9933 49.4972 23.0384 49.4972 26.1534C49.4927 30.3292 47.8319 34.3327 44.8792 37.2854C41.9265 40.2382 37.923 41.899 33.7472 41.9034ZM20.2472 62.1534H3.05721L6.60096 55.9659C6.69509 55.7934 6.74442 55.6 6.74442 55.4034C6.74442 55.2069 6.69509 55.0135 6.60096 54.8409L3.05721 48.6534H10.1222V58.7784C10.1222 59.0768 10.2407 59.363 10.4517 59.5739C10.6627 59.7849 10.9488 59.9034 11.2472 59.9034H20.2472V62.1534ZM12.3722 57.6534V44.1534H55.1222V57.6534H12.3722ZM47.2472 62.1534V59.9034H56.2472C56.5456 59.9034 56.8317 59.7849 57.0427 59.5739C57.2537 59.363 57.3722 59.0768 57.3722 58.7784V48.6534H64.4372L60.8935 54.8409C60.7993 55.0135 60.75 55.2069 60.75 55.4034C60.75 55.6 60.7993 55.7934 60.8935 55.9659L64.4372 62.1534H47.2472Z" fill="#073A74"/>
</svg>
