<svg width="69" height="57" viewBox="0 0 69 57" fill="none" xmlns="http://www.w3.org/2000/svg">
<path d="M31.8863 17.5684C31.8863 18.0887 31.8512 18.609 31.7809 19.1293C31.809 18.9395 31.8301 18.7567 31.8582 18.5668C31.7176 19.5371 31.4645 20.4864 31.0848 21.3934C31.1551 21.2246 31.2254 21.0559 31.2957 20.8871C31.0145 21.5551 30.6699 22.202 30.2692 22.8067C30.1637 22.9614 30.0582 23.109 29.9527 23.2567C29.7418 23.552 30.0793 23.1371 30.0863 23.0879C30.0723 23.1512 29.9598 23.2496 29.9106 23.3059C29.6785 23.5871 29.4254 23.8614 29.1652 24.1215C28.9191 24.3676 28.652 24.6067 28.3848 24.8317C28.3145 24.8879 28.2442 24.9442 28.1668 25.0074C27.977 25.1621 28.6027 24.684 28.3356 24.8739C28.1879 24.9793 28.0402 25.0918 27.8856 25.1903C27.2668 25.6051 26.6129 25.9567 25.9309 26.2449C26.0996 26.1746 26.2684 26.1043 26.4371 26.034C25.5301 26.4067 24.5809 26.6668 23.6106 26.8074C23.8004 26.7793 23.9832 26.7582 24.1731 26.7301C23.1324 26.8707 22.0918 26.8707 21.0512 26.7301C21.241 26.7582 21.4238 26.7793 21.6137 26.8074C20.6434 26.6668 19.6942 26.4137 18.7871 26.034L19.2934 26.2449C18.6254 25.9637 17.9785 25.6192 17.3738 25.2184C17.2192 25.1129 17.0715 25.0074 16.9238 24.902C16.6285 24.691 17.0434 25.0285 17.0926 25.0356C17.0293 25.0215 16.9309 24.909 16.8746 24.8598C16.5934 24.6278 16.3191 24.3746 16.059 24.1145C15.8129 23.8684 15.5738 23.6012 15.3488 23.334C15.2926 23.2637 15.2363 23.1934 15.1731 23.116C15.0184 22.9262 15.4965 23.552 15.3066 23.2848C15.2012 23.1371 15.0887 22.9895 14.9902 22.8348C14.5754 22.216 14.2238 21.5621 13.9356 20.8801C14.0059 21.0489 14.0762 21.2176 14.1465 21.3864C13.7738 20.4793 13.5137 19.5301 13.3731 18.5598C13.4012 18.7496 13.4223 18.9324 13.4504 19.1223C13.3098 18.0817 13.3098 17.041 13.4504 16.0004C13.4223 16.1903 13.4012 16.3731 13.3731 16.5629C13.5137 15.5926 13.7668 14.6434 14.1465 13.7364C14.0762 13.9051 14.0059 14.0739 13.9356 14.2426C14.2168 13.5746 14.5613 12.9278 14.9621 12.3231C15.0676 12.1684 15.1731 12.0207 15.2785 11.8731C15.4895 11.5778 15.152 11.9926 15.1449 12.0418C15.159 11.9785 15.2715 11.8801 15.3207 11.8239C15.5527 11.5426 15.8059 11.2684 16.066 11.0082C16.3121 10.7621 16.5793 10.5231 16.8465 10.2981C16.9168 10.2418 16.9871 10.1856 17.0645 10.1223C17.2543 9.9676 16.6285 10.4457 16.8957 10.2559C17.0434 10.1504 17.191 10.0379 17.3457 9.93948C17.9645 9.52464 18.6184 9.17307 19.3004 8.88479C19.1317 8.9551 18.9629 9.02542 18.7941 9.09573C19.7012 8.72307 20.6504 8.46292 21.6207 8.32229C21.4309 8.35042 21.2481 8.37151 21.0582 8.39963C22.0988 8.25901 23.1395 8.25901 24.1801 8.39963C23.9902 8.37151 23.8074 8.35042 23.6176 8.32229C24.5879 8.46292 25.5371 8.71604 26.4442 9.09573C26.2754 9.02542 26.1066 8.9551 25.9379 8.88479C26.6059 9.16604 27.2527 9.51057 27.8574 9.91135C28.0121 10.0168 28.1598 10.1223 28.3074 10.2278C28.6027 10.4387 28.1879 10.1012 28.1387 10.0942C28.202 10.1082 28.3004 10.2207 28.3566 10.2699C28.6379 10.502 28.9121 10.7551 29.1723 11.0153C29.4184 11.2614 29.6574 11.5285 29.8824 11.7957C29.9387 11.866 29.9949 11.9364 30.0582 12.0137C30.2129 12.2035 29.7348 11.5778 29.9246 11.8449C30.0301 11.9926 30.1426 12.1403 30.241 12.2949C30.6559 12.9137 31.0074 13.5676 31.2957 14.2496C31.2254 14.0809 31.1551 13.9121 31.0848 13.7434C31.4574 14.6504 31.7176 15.5996 31.8582 16.5699C31.8301 16.3801 31.809 16.1973 31.7809 16.0074C31.8442 16.5278 31.8793 17.0481 31.8863 17.5684C31.8934 18.6723 32.8566 19.727 33.9957 19.6778C35.1348 19.6285 36.1121 18.7496 36.1051 17.5684C36.091 14.8473 35.2754 12.077 33.6723 9.8551C32.0129 7.54885 29.791 5.84729 27.1262 4.85589C21.9934 2.95745 15.8129 4.61682 12.3324 8.8426C10.4762 11.0996 9.37931 13.7645 9.15431 16.6824C8.94337 19.3824 9.63946 22.1949 11.0387 24.5082C12.4098 26.7723 14.477 28.6989 16.9027 29.7817C19.5957 30.991 22.4926 31.3426 25.3965 30.766C30.6699 29.7254 35.0715 25.2043 35.8942 19.8817C36.0137 19.1153 36.0981 18.3489 36.1051 17.5684C36.1121 16.4645 35.1348 15.4098 33.9957 15.459C32.8426 15.5153 31.8863 16.3871 31.8863 17.5684Z" fill="#073A74"/>
<path d="M41.002 40.6027V49.0191C41.002 49.5324 41.0231 50.0527 40.9668 50.566C40.9949 50.3761 41.016 50.1933 41.0442 50.0035C40.9879 50.3761 40.8965 50.7417 40.7559 51.0933C40.8262 50.9245 40.8965 50.7558 40.9668 50.587C40.8614 50.8402 40.7348 51.0863 40.5801 51.3183C40.5449 51.3675 40.5098 51.4167 40.4746 51.473C40.2918 51.7472 40.777 51.1214 40.6082 51.2972C40.5168 51.3956 40.4324 51.5011 40.334 51.5995C40.2496 51.6839 40.1512 51.7613 40.0668 51.8456C39.8067 52.0847 40.4184 51.5995 40.2426 51.712C40.1934 51.7472 40.1442 51.7824 40.095 51.8175C39.8489 51.9792 39.5957 52.1128 39.3215 52.2253C39.4903 52.155 39.659 52.0847 39.8278 52.0144C39.4762 52.155 39.1176 52.2535 38.7379 52.3027C38.9278 52.2745 39.1106 52.2535 39.3004 52.2253C38.8575 52.2816 38.4145 52.2605 37.9715 52.2605C37.2051 52.2605 36.4457 52.2605 35.6793 52.2605C33.0918 52.2605 30.5043 52.2605 27.9168 52.2605C24.7598 52.2605 21.6098 52.2605 18.4528 52.2605C15.7457 52.2605 13.0317 52.2605 10.3246 52.2605C9.06605 52.2605 7.81448 52.2675 6.55589 52.2605C6.35198 52.2605 6.15511 52.2464 5.9512 52.2253C6.14105 52.2535 6.32386 52.2745 6.5137 52.3027C6.14105 52.2464 5.77542 52.155 5.42386 52.0144L5.93011 52.2253C5.67698 52.1199 5.43089 51.9933 5.19886 51.8386C5.14964 51.8035 5.10042 51.7683 5.04417 51.7331C4.76995 51.5503 5.39573 52.0355 5.21995 51.8667C5.12152 51.7753 5.01605 51.691 4.91761 51.5925C4.83323 51.5081 4.75589 51.4097 4.67152 51.3253C4.43245 51.0652 4.91761 51.6769 4.80511 51.5011C4.76995 51.4519 4.7348 51.4027 4.69964 51.3535C4.53792 51.1074 4.40433 50.8542 4.29183 50.58L4.50277 51.0863C4.36214 50.7347 4.2637 50.3761 4.21448 49.9964C4.24261 50.1863 4.2637 50.3691 4.29183 50.5589C4.23558 50.0738 4.25667 49.5816 4.25667 49.0964C4.25667 48.2667 4.25667 47.43 4.25667 46.6003C4.25667 44.8144 4.25667 43.0214 4.25667 41.2355C4.25667 40.4058 4.27073 39.5761 4.3762 38.7464C4.34808 38.9363 4.32698 39.1191 4.29886 39.3089C4.46761 38.0855 4.79105 36.8902 5.26214 35.7441C5.19183 35.9128 5.12152 36.0816 5.0512 36.2503C5.30433 35.6456 5.59964 35.055 5.93714 34.4925C6.10589 34.2113 6.28167 33.937 6.47152 33.6699C6.56292 33.5433 6.65433 33.4167 6.74573 33.2972C6.94964 33.023 6.47855 33.6347 6.63323 33.4378C6.68948 33.3675 6.7387 33.3042 6.79495 33.2339C7.19573 32.7417 7.63167 32.2777 8.09574 31.8488C8.3348 31.6238 8.58089 31.4128 8.83402 31.2089C8.90433 31.1527 9.15745 30.9558 8.86214 31.1808C8.55277 31.4199 8.84105 31.1949 8.8973 31.1597C9.03792 31.0542 9.17855 30.9558 9.31917 30.8574C8.46839 30.7449 7.61761 30.6394 6.7598 30.5269C9.64261 34.1199 13.8684 36.7144 18.3895 37.6355C23.2481 38.6269 28.3457 37.8886 32.684 35.4699C34.92 34.2183 36.9449 32.5238 38.541 30.5269C37.6903 30.6394 36.8395 30.7449 35.9817 30.8574C36.1223 30.9558 36.2629 31.0542 36.4035 31.1527C36.4598 31.1949 36.516 31.237 36.5653 31.2792C36.052 30.8995 36.3051 31.0824 36.4246 31.1738C36.6778 31.3777 36.9239 31.5886 37.1629 31.8136C37.641 32.2566 38.084 32.7277 38.4989 33.2339C38.541 33.2902 38.5832 33.3394 38.6254 33.3956C38.8715 33.698 38.3793 33.0652 38.5129 33.255C38.6043 33.3816 38.6957 33.5011 38.7871 33.6277C38.977 33.8949 39.1528 34.1691 39.3215 34.4503C39.6731 35.0269 39.9754 35.6316 40.2356 36.2503C40.1653 36.0816 40.095 35.9128 40.0246 35.7441C40.5028 36.8902 40.8192 38.0855 40.9879 39.3089C40.9598 39.1191 40.9387 38.9363 40.9106 38.7464C40.9598 39.3652 41.002 39.9839 41.002 40.6027C41.009 41.7066 41.9723 42.7613 43.1114 42.712C44.2504 42.6628 45.2278 41.7839 45.2207 40.6027C45.2067 36.4613 43.5965 32.4464 40.7348 29.4441C39.9403 28.6074 39.0332 27.8761 38.084 27.2222C37.3879 26.7441 36.0731 26.8706 35.5246 27.5527C35.0535 28.1433 34.5473 28.7058 34.0059 29.2331C33.7457 29.4933 33.4715 29.7394 33.1903 29.9855C33.0426 30.112 32.895 30.2386 32.7473 30.3581C32.677 30.4144 32.6067 30.4706 32.5434 30.5199C32.227 30.773 32.9653 30.2035 32.6348 30.4495C31.4043 31.3566 30.1035 32.123 28.6973 32.7206C28.866 32.6503 29.0348 32.58 29.2035 32.5097C27.6989 33.1425 26.1239 33.5644 24.5067 33.7894C24.6965 33.7613 24.8793 33.7402 25.0692 33.712C23.4379 33.923 21.7856 33.923 20.1543 33.712C20.3442 33.7402 20.527 33.7613 20.7168 33.7894C19.0996 33.5714 17.5246 33.1425 16.02 32.5097L16.5262 32.7206C15.127 32.123 13.8051 31.3566 12.5887 30.4495C12.3075 30.2386 12.9192 30.7097 12.7223 30.555C12.652 30.4988 12.5817 30.4425 12.5184 30.3933C12.3707 30.2738 12.2231 30.1472 12.0754 30.0206C11.7942 29.7816 11.527 29.5285 11.2598 29.2753C10.7043 28.7339 10.191 28.1644 9.70589 27.5597C9.42464 27.2081 8.91136 27.0324 8.49652 26.9761C8.06058 26.9199 7.5262 26.9691 7.15355 27.2292C4.99495 28.7269 3.15277 30.6745 1.9223 33.0089C0.684797 35.3503 0.0238596 37.966 0.0168283 40.6167C0.00979708 42.9722 0.0168283 45.3277 0.0168283 47.6902C0.0168283 48.541 -0.0253593 49.3988 0.0238595 50.2425C0.178547 53.1042 2.21761 55.7761 5.10042 56.3456C6.47152 56.6199 7.94105 56.5074 9.33323 56.5074H16.8637H26.2082H34.4348H38.6114C40.5098 56.5074 42.4293 55.7199 43.6457 54.2292C44.6231 53.0269 45.1926 51.6136 45.2207 50.0527C45.2278 49.8136 45.2207 49.5675 45.2207 49.3285C45.2207 46.6495 45.2207 43.9777 45.2207 41.2988C45.2207 41.0738 45.2207 40.8488 45.2207 40.6238C45.2207 39.5199 44.2504 38.4652 43.1114 38.5144C41.9653 38.5495 41.002 39.4214 41.002 40.6027Z" fill="#073A74"/>
<path d="M56.3539 11.4787C56.3539 11.9006 56.3258 12.3224 56.2695 12.7443C56.2976 12.5545 56.3187 12.3717 56.3469 12.1818C56.2344 12.9974 56.0164 13.7849 55.707 14.5443C55.7773 14.3756 55.8476 14.2068 55.918 14.0381C55.6859 14.5795 55.4117 15.0928 55.0883 15.5849C55.0039 15.7115 54.9125 15.8381 54.8281 15.9646C54.6383 16.2318 55.1234 15.606 54.9617 15.7959C54.9125 15.8521 54.8633 15.9154 54.8141 15.9717C54.6312 16.1967 54.4344 16.4076 54.2305 16.6115C54.0266 16.8154 53.8086 17.0123 53.5906 17.1951C53.5414 17.2373 53.4922 17.2724 53.45 17.3076C53.1687 17.5396 53.8016 17.0474 53.6258 17.174C53.4992 17.2584 53.3797 17.3568 53.2531 17.4412C52.7539 17.7787 52.2195 18.0599 51.6711 18.292C51.8398 18.2217 52.0086 18.1513 52.1773 18.081C51.418 18.3974 50.6305 18.6084 49.8148 18.7209C50.0047 18.6928 50.1875 18.6717 50.3773 18.6435C49.5336 18.749 48.6898 18.749 47.8531 18.6435C48.043 18.6717 48.2258 18.6928 48.4156 18.7209C47.6 18.6084 46.8125 18.3904 46.0531 18.081C46.2219 18.1513 46.3906 18.2217 46.5594 18.292C46.018 18.0599 45.5047 17.7857 45.0125 17.4623C44.8859 17.3779 44.7594 17.2865 44.6328 17.2021C44.3656 17.0123 44.9914 17.4974 44.8016 17.3357C44.7453 17.2865 44.682 17.2373 44.6258 17.1881C44.4008 17.0053 44.1898 16.8084 43.9859 16.6045C43.782 16.4006 43.5851 16.1826 43.4023 15.9646C43.3601 15.9154 43.325 15.8662 43.2898 15.824C43.0578 15.5428 43.55 16.1756 43.4234 15.9998C43.3391 15.8732 43.2406 15.7537 43.1562 15.6271C42.8187 15.1279 42.5375 14.5935 42.3055 14.0451C42.3758 14.2138 42.4461 14.3826 42.5164 14.5513C42.2 13.792 41.9891 13.0045 41.8766 12.1888C41.9047 12.3787 41.9258 12.5615 41.9539 12.7513C41.8484 11.9076 41.8484 11.0638 41.9539 10.2271C41.9258 10.417 41.9047 10.5998 41.8766 10.7896C41.9891 9.974 42.207 9.1865 42.5164 8.42713C42.4461 8.59588 42.3758 8.76463 42.3055 8.93338C42.5375 8.39197 42.8117 7.87869 43.1351 7.3865C43.2195 7.25994 43.3109 7.13338 43.3953 7.00682C43.5851 6.73963 43.1 7.36541 43.2617 7.17557C43.3109 7.11932 43.3601 7.05603 43.4094 6.99978C43.5922 6.77478 43.7891 6.56385 43.993 6.35994C44.1969 6.15603 44.4148 5.95916 44.6328 5.77635C44.682 5.73416 44.7312 5.699 44.7734 5.66385C45.0547 5.43182 44.4219 5.924 44.5976 5.79744C44.7242 5.71306 44.8437 5.61463 44.9703 5.53025C45.4695 5.19275 46.0039 4.9115 46.5523 4.67947C46.3836 4.74978 46.2148 4.8201 46.0461 4.89041C46.8055 4.574 47.593 4.36306 48.4086 4.25056C48.2187 4.27869 48.0359 4.29978 47.8461 4.32791C48.6898 4.22244 49.5336 4.22244 50.3703 4.32791C50.1805 4.29978 49.9976 4.27869 49.8078 4.25056C50.6234 4.36306 51.4109 4.58103 52.1703 4.89041C52.0016 4.8201 51.8328 4.74978 51.6641 4.67947C52.2055 4.9115 52.7187 5.18572 53.2109 5.50916C53.3375 5.59353 53.4641 5.68494 53.5906 5.76932C53.8578 5.95916 53.232 5.474 53.4219 5.63572C53.4781 5.68494 53.5414 5.73416 53.5976 5.78338C53.8226 5.96619 54.0336 6.16307 54.2375 6.36697C54.4414 6.57088 54.6383 6.78885 54.8211 7.00682C54.8633 7.05603 54.8984 7.10525 54.9336 7.14744C55.1656 7.42869 54.6734 6.79588 54.8 6.97166C54.8844 7.09822 54.9828 7.21775 55.0672 7.34431C55.4047 7.84353 55.6859 8.37791 55.918 8.92635C55.8476 8.7576 55.7773 8.58885 55.707 8.4201C56.0234 9.17947 56.2344 9.96697 56.3469 10.7826C56.3187 10.5928 56.2976 10.4099 56.2695 10.2201C56.3187 10.6349 56.3469 11.0568 56.3539 11.4787C56.3609 12.5826 57.3172 13.6373 58.4633 13.5881C59.6023 13.5388 60.5797 12.6599 60.5726 11.4787C60.5586 9.17244 59.8766 6.81697 58.5195 4.93963C57.0851 2.94978 55.1867 1.49431 52.8875 0.650565C48.5492 -0.945529 43.2898 0.474783 40.3578 4.03963C38.7758 5.96619 37.8476 8.20916 37.6437 10.6982C37.4539 13.0115 38.0586 15.4303 39.2609 17.406C40.4141 19.3045 42.1578 20.9357 44.1898 21.8498C46.5101 22.8904 48.9851 23.1998 51.4883 22.7006C55.9391 21.8217 59.6937 17.9826 60.3898 13.4896C60.4953 12.8217 60.5726 12.1537 60.5797 11.4717C60.5867 10.3678 59.6023 9.31307 58.4703 9.36228C57.3101 9.42557 56.3539 10.2974 56.3539 11.4787Z" fill="#073A74"/>
<path d="M42.9042 27.6007C48.1917 29.689 54.5621 28.8945 59.1394 25.5124C60.3628 24.6124 61.4808 23.607 62.4371 22.4187C61.5863 22.5312 60.7355 22.6367 59.8777 22.7492C59.9902 22.8265 60.1027 22.9109 60.2152 22.9882C60.5105 23.1992 59.7722 22.6296 60.1941 22.9742C60.405 23.1499 60.616 23.3257 60.8128 23.5156C61.1855 23.8671 61.5371 24.2398 61.8675 24.6406C62.2121 25.0624 61.6425 24.3242 61.8535 24.6195C61.9308 24.732 62.0152 24.8374 62.0925 24.957C62.2261 25.1538 62.3597 25.3577 62.4863 25.5617C62.7746 26.0327 63.0207 26.532 63.2386 27.0382C63.1683 26.8695 63.098 26.7007 63.0277 26.532C63.4214 27.4812 63.6886 28.4656 63.8293 29.4851C63.8011 29.2952 63.78 29.1124 63.7519 28.9226C63.9066 30.1531 63.8503 31.4046 63.8503 32.6421V37.2546C63.8503 37.7187 63.8714 38.1968 63.8152 38.6538C63.8433 38.464 63.8644 38.2812 63.8925 38.0913C63.8433 38.4007 63.766 38.7031 63.6464 38.9984C63.7167 38.8296 63.7871 38.6609 63.8574 38.4921C63.773 38.689 63.6746 38.8788 63.555 39.0617C63.2808 39.4906 63.8433 38.7453 63.6113 39.0054C63.541 39.0828 63.4707 39.1671 63.3933 39.2374C63.316 39.3148 63.2386 39.3851 63.1613 39.4554C62.8941 39.6945 63.6394 39.146 63.2597 39.371C63.0628 39.4906 62.866 39.6031 62.655 39.6945C62.8238 39.6242 62.9925 39.5538 63.1613 39.4835C62.866 39.6031 62.5707 39.6804 62.2542 39.7296C62.4441 39.7015 62.6269 39.6804 62.8167 39.6523C62.3035 39.7156 61.7691 39.6874 61.2558 39.6874C60.2644 39.6874 59.273 39.6874 58.2816 39.6874C55.9542 39.6874 53.6339 39.6874 51.3066 39.6874C50.7652 39.6874 50.2238 39.6874 49.6894 39.6874C48.5855 39.6874 47.5308 40.6578 47.58 41.7968C47.6292 42.9429 48.5082 43.9062 49.6894 43.9062H54.9628H61.8886H62.3386C63.7519 43.8921 65.0035 43.3788 66.0863 42.4999C67.0074 41.7546 67.7175 40.5734 67.9355 39.4062C68.0339 38.8648 68.0761 38.3374 68.0761 37.796C68.0761 35.4898 68.0761 33.1835 68.0761 30.8703C68.0761 29.2671 67.9003 27.657 67.38 26.1382C66.6207 23.9234 65.3339 21.8773 63.5761 20.3234C63.0839 19.8874 62.5566 19.4796 62.0152 19.107C61.3191 18.6288 60.0042 18.7554 59.4558 19.4374C59.0691 19.9156 58.6613 20.3726 58.2253 20.8015C58.0003 21.0195 57.7683 21.2374 57.5292 21.4413C57.4097 21.5468 57.2902 21.6453 57.1707 21.7437C57.1144 21.7859 57.0582 21.8281 57.0089 21.8773C56.7418 22.0953 57.3464 21.6242 57.1425 21.7718C56.13 22.5171 55.0543 23.1499 53.8941 23.6421L54.4003 23.4312C53.1628 23.9445 51.8691 24.296 50.5402 24.4788C50.73 24.4507 50.9128 24.4296 51.1027 24.4015C49.7457 24.5773 48.3746 24.5702 47.0105 24.3945C47.2003 24.4226 47.3832 24.4437 47.573 24.4718C46.3566 24.3031 45.1753 23.9867 44.0292 23.5367C43.5511 23.3468 42.8269 23.5015 42.405 23.7476C41.9691 24.0007 41.5472 24.507 41.4347 25.0062C41.3152 25.5476 41.3363 26.1523 41.6457 26.6304C41.9621 27.1156 42.3699 27.3827 42.9042 27.6007Z" fill="#073A74"/>
<path d="M31.8863 17.5684C31.8863 18.0887 31.8512 18.609 31.7809 19.1293C31.809 18.9395 31.8301 18.7567 31.8582 18.5668C31.7176 19.5371 31.4645 20.4864 31.0848 21.3934C31.1551 21.2246 31.2254 21.0559 31.2957 20.8871C31.0145 21.5551 30.6699 22.202 30.2692 22.8067C30.1637 22.9614 30.0582 23.109 29.9527 23.2567C29.7418 23.552 30.0793 23.1371 30.0863 23.0879C30.0723 23.1512 29.9598 23.2496 29.9106 23.3059C29.6785 23.5871 29.4254 23.8614 29.1652 24.1215C28.9191 24.3676 28.652 24.6067 28.3848 24.8317C28.3145 24.8879 28.2442 24.9442 28.1668 25.0074C27.977 25.1621 28.6027 24.684 28.3356 24.8739C28.1879 24.9793 28.0402 25.0918 27.8856 25.1903C27.2668 25.6051 26.6129 25.9567 25.9309 26.2449C26.0996 26.1746 26.2684 26.1043 26.4371 26.034C25.5301 26.4067 24.5809 26.6668 23.6106 26.8074C23.8004 26.7793 23.9832 26.7582 24.1731 26.7301C23.1324 26.8707 22.0918 26.8707 21.0512 26.7301C21.241 26.7582 21.4238 26.7793 21.6137 26.8074C20.6434 26.6668 19.6942 26.4137 18.7871 26.034L19.2934 26.2449C18.6254 25.9637 17.9785 25.6192 17.3738 25.2184C17.2192 25.1129 17.0715 25.0074 16.9238 24.902C16.6285 24.691 17.0434 25.0285 17.0926 25.0356C17.0293 25.0215 16.9309 24.909 16.8746 24.8598C16.5934 24.6278 16.3191 24.3746 16.059 24.1145C15.8129 23.8684 15.5738 23.6012 15.3488 23.334C15.2926 23.2637 15.2363 23.1934 15.1731 23.116C15.0184 22.9262 15.4965 23.552 15.3066 23.2848C15.2012 23.1371 15.0887 22.9895 14.9902 22.8348C14.5754 22.216 14.2238 21.5621 13.9356 20.8801C14.0059 21.0489 14.0762 21.2176 14.1465 21.3864C13.7738 20.4793 13.5137 19.5301 13.3731 18.5598C13.4012 18.7496 13.4223 18.9324 13.4504 19.1223C13.3098 18.0817 13.3098 17.041 13.4504 16.0004C13.4223 16.1903 13.4012 16.3731 13.3731 16.5629C13.5137 15.5926 13.7668 14.6434 14.1465 13.7364C14.0762 13.9051 14.0059 14.0739 13.9356 14.2426C14.2168 13.5746 14.5613 12.9278 14.9621 12.3231C15.0676 12.1684 15.1731 12.0207 15.2785 11.8731C15.4895 11.5778 15.152 11.9926 15.1449 12.0418C15.159 11.9785 15.2715 11.8801 15.3207 11.8239C15.5527 11.5426 15.8059 11.2684 16.066 11.0082C16.3121 10.7621 16.5793 10.5231 16.8465 10.2981C16.9168 10.2418 16.9871 10.1856 17.0645 10.1223C17.2543 9.9676 16.6285 10.4457 16.8957 10.2559C17.0434 10.1504 17.191 10.0379 17.3457 9.93948C17.9645 9.52464 18.6184 9.17307 19.3004 8.88479C19.1317 8.9551 18.9629 9.02542 18.7941 9.09573C19.7012 8.72307 20.6504 8.46292 21.6207 8.32229C21.4309 8.35042 21.2481 8.37151 21.0582 8.39963C22.0988 8.25901 23.1395 8.25901 24.1801 8.39963C23.9902 8.37151 23.8074 8.35042 23.6176 8.32229C24.5879 8.46292 25.5371 8.71604 26.4442 9.09573C26.2754 9.02542 26.1066 8.9551 25.9379 8.88479C26.6059 9.16604 27.2527 9.51057 27.8574 9.91135C28.0121 10.0168 28.1598 10.1223 28.3074 10.2278C28.6027 10.4387 28.1879 10.1012 28.1387 10.0942C28.202 10.1082 28.3004 10.2207 28.3566 10.2699C28.6379 10.502 28.9121 10.7551 29.1723 11.0153C29.4184 11.2614 29.6574 11.5285 29.8824 11.7957C29.9387 11.866 29.9949 11.9364 30.0582 12.0137C30.2129 12.2035 29.7348 11.5778 29.9246 11.8449C30.0301 11.9926 30.1426 12.1403 30.241 12.2949C30.6559 12.9137 31.0074 13.5676 31.2957 14.2496C31.2254 14.0809 31.1551 13.9121 31.0848 13.7434C31.4574 14.6504 31.7176 15.5996 31.8582 16.5699C31.8301 16.3801 31.809 16.1973 31.7809 16.0074C31.8442 16.5278 31.8793 17.0481 31.8863 17.5684C31.8934 18.6723 32.8566 19.727 33.9957 19.6778C35.1348 19.6285 36.1121 18.7496 36.1051 17.5684C36.091 14.8473 35.2754 12.077 33.6723 9.8551C32.0129 7.54885 29.791 5.84729 27.1262 4.85589C21.9934 2.95745 15.8129 4.61682 12.3324 8.8426C10.4762 11.0996 9.37931 13.7645 9.15431 16.6824C8.94337 19.3824 9.63946 22.1949 11.0387 24.5082C12.4098 26.7723 14.477 28.6989 16.9027 29.7817C19.5957 30.991 22.4926 31.3426 25.3965 30.766C30.6699 29.7254 35.0715 25.2043 35.8942 19.8817C36.0137 19.1153 36.0981 18.3489 36.1051 17.5684C36.1121 16.4645 35.1348 15.4098 33.9957 15.459C32.8426 15.5153 31.8863 16.3871 31.8863 17.5684Z" fill="#073A74"/>
</svg>
