<svg width="57" height="67" viewBox="0 0 57 67" fill="none" xmlns="http://www.w3.org/2000/svg">
<path fill-rule="evenodd" clip-rule="evenodd" d="M51.9599 36.7725C51.9599 36.1536 52.4616 35.6518 53.0805 35.6518C53.6994 35.6518 54.2011 36.1536 54.2011 36.7725V65.8087C54.2011 66.4276 53.6994 66.9294 53.0805 66.9294V66.9337H1.28831V66.9294C0.669422 66.9294 0.167671 66.4276 0.167671 65.8087L0.163172 32.8877C0.163172 32.2664 0.66689 31.7627 1.28817 31.7627H4.55433V27.1833C4.55433 26.562 5.05805 26.0583 5.67933 26.0583H16.0738L8.55159 24.5212C7.99373 24.4547 7.56103 23.9801 7.56103 23.4042V11.7436L0.86039 9.81101C-0.29161 9.50838 -0.263906 7.95448 0.806391 7.64342L26.8563 0.0481201C27.0567 -0.0126299 27.2764 -0.0181145 27.4925 0.0446043L53.4615 7.5755C53.9781 7.67731 54.3678 8.13265 54.3678 8.67912V20.6772L56.1654 22.1465C56.4368 22.3685 56.5776 22.6913 56.5777 23.0165H56.5784V33.6711C56.5784 34.6083 55.4766 35.165 54.7113 34.5166L53.2384 33.3127L51.7394 34.5315C50.9981 35.1341 49.9098 34.5776 49.9104 33.6614H49.9067V23.0068C49.9067 22.6225 50.0995 22.2833 50.3936 22.0804L52.1175 20.6788V10.1726L46.7998 11.7147V23.4042H46.7963C46.7968 23.9265 46.4305 24.3945 45.8989 24.5029L38.287 26.0583H48.6812C49.3025 26.0583 49.8062 26.562 49.8062 27.1833V61.4098C49.8062 62.0311 49.3025 62.5348 48.6812 62.5348H31.5833C30.189 62.5348 28.973 63.4119 28.5078 64.6837H51.9599V36.7725ZM34.3253 53.7916C32.4563 53.2045 30.3644 52.8947 28.3036 52.8144L28.3041 56.1582C30.5569 55.9447 32.6245 55.0954 34.3253 53.7916ZM26.0625 52.8137C25.0662 52.8514 24.1109 52.9393 23.1483 53.0865C23.9647 54.5354 24.9714 55.5681 26.0628 55.9944L26.0625 52.8137ZM20.4956 52.766C20.4689 52.7146 20.4461 52.6604 20.4274 52.604C19.5954 50.6014 19.0604 48.1898 18.94 45.5811H17.9122C17.2909 45.5811 16.7872 45.0774 16.7872 44.4561C16.7872 43.8348 17.2909 43.3311 17.9122 43.3311H18.94C19.0334 41.3242 19.3785 39.304 20.0006 37.4501C19.3696 37.2739 18.7714 37.075 18.212 36.8557C13.3866 42.5443 15.0324 51.2135 21.5476 54.7766C21.1453 54.1447 20.7985 53.4731 20.4956 52.766ZM22.2002 50.9658C23.4479 50.7469 24.7723 50.6128 26.0622 50.564L26.0617 45.5811H21.192C21.2908 47.5584 21.6477 49.3908 22.2002 50.9658ZM28.3034 50.5636C29.6489 50.6135 30.9444 50.7524 32.16 50.9667C32.7503 49.283 33.0774 47.4327 33.1693 45.5809H28.3029L28.3034 50.5636ZM34.3599 51.4629C34.9909 51.6389 35.5889 51.8379 36.1481 52.0571C37.6591 50.2761 38.6491 48.0389 38.8824 45.5811H35.4207C35.3274 47.5885 34.9822 49.6086 34.3599 51.4629ZM52.157 23.5376V31.3015L52.4731 31.0445C52.8781 30.6634 53.5126 30.6325 53.9546 30.9941L54.3287 31.2998V23.5491L53.2387 22.6582L52.157 23.5376ZM9.81103 22.4898L27.1805 26.0389L44.5502 22.4898V12.3672L27.4925 17.3138C27.2633 17.3803 27.0299 17.37 26.8199 17.2984L9.81103 12.3927V22.4898ZM27.1775 15.0709L49.2182 8.67912L27.1815 2.28856L5.14073 8.71484L27.1775 15.0709ZM22.2005 37.9463C21.6105 39.6297 21.2835 41.4796 21.1917 43.3311H26.0615L26.061 38.3497C24.7142 38.2998 23.4171 38.161 22.2005 37.9463ZM28.3027 43.3311H33.169C33.0701 41.354 32.7134 39.5221 32.161 37.9474C30.9139 38.1662 29.5913 38.3001 28.3021 38.3492L28.3027 43.3311ZM35.4211 43.3311H38.8826C38.5091 39.3979 36.1875 35.9809 32.8133 34.1356C34.4698 36.7372 35.2739 40.1396 35.4211 43.3311ZM20.0346 35.1213C21.9046 35.7089 23.9988 36.0187 26.0608 36.0989L26.0604 32.7536C23.8057 32.9666 21.7366 33.8165 20.0346 35.1213ZM28.302 36.0993C29.2962 36.0615 30.2526 35.9736 31.2132 35.8266C30.3975 34.3788 29.3919 33.3463 28.3017 32.9191L28.302 36.0993ZM17.2772 34.5529C22.7468 29.0834 31.6142 29.0834 37.0837 34.5529C42.5532 40.0225 42.5532 48.8899 37.0837 54.3593C34.7971 56.6459 31.7235 58.1454 28.3042 58.4168L28.3045 61.3629C29.2216 60.6853 30.3558 60.2847 31.5833 60.2847H47.5565V28.3083H6.80433V60.2848H22.7855C24.0126 60.2848 25.1463 60.6852 26.0633 61.3623L26.0631 58.4175C18.824 57.846 13.1751 51.7881 13.1751 44.4562C13.1751 40.5886 14.7428 37.0873 17.2772 34.5529ZM4.55433 34.0126H2.40881L2.40895 64.6836H25.861C25.3958 63.4118 24.1797 62.5347 22.7855 62.5347H5.67933C5.05805 62.5347 4.55433 62.031 4.55433 61.4097V34.0126Z" fill="#073A74"/>
</svg>
