<svg width="64" height="63" viewBox="0 0 64 63" fill="none" xmlns="http://www.w3.org/2000/svg">
<path fill-rule="evenodd" clip-rule="evenodd" d="M15.5367 5.57222C15.2708 5.11128 15.4286 4.5239 15.8892 4.25606C16.3499 3.99067 16.9387 4.14893 17.2047 4.60987L18.6193 7.0596C18.9912 7.70371 18.5214 8.50392 17.7863 8.50392C17.4532 8.50392 17.1295 8.33184 16.9511 8.02282L15.5367 5.57222ZM4.2575 15.8895C4.52347 15.4279 5.112 15.2703 5.57294 15.5366L8.0231 16.951C8.87414 17.4424 8.5199 18.7475 7.5407 18.7475C7.37712 18.7475 7.21166 18.7062 7.06018 18.6193L4.61002 17.2043C4.14936 16.9379 3.99154 16.3489 4.2575 15.8895ZM63.5567 31.7782C63.5567 32.3106 63.1257 32.7414 62.5938 32.7414H59.7646C59.2327 32.7414 58.8017 32.3106 58.8017 31.7782C58.8017 31.246 59.2327 30.8159 59.7646 30.8159H62.5938C63.1257 30.8159 63.5567 31.246 63.5567 31.7782ZM3.79181 32.7414H0.962928C0.431136 32.7414 0 32.3106 0 31.7782C0 31.246 0.431136 30.8159 0.962928 30.8159H3.79181C4.32374 30.8159 4.75502 31.246 4.75502 31.7782C4.75517 32.3106 4.32374 32.7414 3.79181 32.7414ZM55.1812 18.2663C54.9153 17.8062 55.0728 17.2171 55.5335 16.951L57.9839 15.5366C58.4444 15.2705 59.0334 15.4279 59.2994 15.8895C59.5652 16.3489 59.4074 16.9379 58.9468 17.2041L56.4967 18.6192C56.0426 18.8804 55.4502 18.7324 55.1812 18.2663ZM30.8151 3.79195V0.963216C30.8151 0.430128 31.2464 0 31.7784 0C32.3099 0 32.7413 0.429984 32.7413 0.963216V3.79181C32.7413 4.32331 32.3099 4.75502 31.7784 4.75502C31.2466 4.75502 30.8151 4.32346 30.8151 3.79195ZM44.9375 7.0596L46.352 4.60987C46.6177 4.14893 47.2065 3.99067 47.6675 4.25606C48.1281 4.52376 48.2859 5.11128 48.02 5.57222L46.6053 8.02282C46.3362 8.48909 45.7429 8.63683 45.2899 8.37576C44.8294 8.10878 44.6715 7.5204 44.9375 7.0596ZM27.0379 13.1907C27.0379 12.6243 27.499 12.1634 28.0655 12.1634H35.4912C36.0577 12.1634 36.519 12.6243 36.519 13.1907V15.4221H27.0379V13.1907ZM44.815 18.8748V20.7533L33.5766 26.7733C32.4169 27.395 31.1399 27.395 29.9802 26.7733L18.7419 20.7533V18.8748C18.7419 18.0334 19.4266 17.3477 20.2684 17.3477H43.288C44.1298 17.3477 44.815 18.0334 44.815 18.8748ZM43.288 35.1253C44.1298 35.1253 44.8148 34.4405 44.8148 33.5991V22.9385L34.4858 28.4708C32.7403 29.4057 30.8163 29.4055 29.0707 28.4708L18.7417 22.9385V33.5991C18.7417 34.4406 19.4265 35.1253 20.2683 35.1253H43.288ZM16.8156 18.8748V33.5991C16.8156 35.5019 18.3646 37.0518 20.2683 37.0518H43.2878C45.1918 37.0518 46.7405 35.5019 46.7405 33.5991V18.8748C46.7405 16.972 45.1918 15.4221 43.2878 15.4221H38.4447V13.1907C38.4447 11.5622 37.1197 10.2371 35.4911 10.2371H28.0653C26.4368 10.2371 25.1119 11.5622 25.1119 13.1907V15.4221H20.2684C18.3648 15.4221 16.8156 16.972 16.8156 18.8748ZM56.3587 45.8817L41.5704 54.4205C37.6498 56.6836 35.3255 57.8203 30.9612 58.4647C26.35 59.1456 21.7603 58.7949 17.4875 58.3154C15.5503 58.0987 13.7794 57.9339 11.9871 57.8058V45.3308C15.586 44.9948 18.7515 45.0484 22.8049 46.1324C22.8861 46.1536 22.9693 46.1641 23.0534 46.1641H33.4863C35.0736 46.1641 36.1381 47.7852 35.5396 49.2281C35.1922 50.0646 34.3862 50.6068 33.4863 50.6068H23.0534C22.5216 50.6068 22.0905 51.0368 22.0905 51.57C22.0905 52.1015 22.5216 52.5323 23.0534 52.5323H33.4863C34.8823 52.5323 36.1542 51.837 36.9166 50.7083C37.2751 50.7748 37.632 50.8097 37.9832 50.8114C39.6654 50.8166 40.5108 50.1754 41.6784 49.5001L54.255 42.2395C55.2594 41.6593 56.5485 42.0042 57.1287 43.0088C57.7087 44.0139 57.3633 45.3024 56.3587 45.8817ZM10.0614 59.4197C10.0614 59.909 9.66384 60.3058 9.17554 60.3058H4.84762C4.35917 60.3058 3.96173 59.909 3.96173 59.4197V44.7068C3.96173 44.2175 4.35917 43.8208 4.84762 43.8208H9.17554C9.66398 43.8208 10.0614 44.2175 10.0614 44.7068V59.4197ZM53.2921 40.571L40.7156 47.8318C39.5646 48.4967 38.9599 49.0018 37.6059 48.8647C37.8917 46.4082 35.9652 44.2387 33.4865 44.2387H23.1794C18.8601 43.0993 15.5043 43.0573 11.677 43.4256C11.21 42.5176 10.2646 41.8952 9.17539 41.8952H4.84762C3.29702 41.8952 2.03587 43.1562 2.03587 44.7068V59.4197C2.03587 60.9712 3.29702 62.2322 4.84762 62.2322H9.17554C10.6193 62.2322 11.8117 61.1376 11.9693 59.7354C13.6944 59.8611 15.4048 60.0211 17.2734 60.2303C21.884 60.7467 26.5196 61.0671 31.2424 60.3698C36.0973 59.6533 38.7469 58.2748 42.5334 56.0879L57.3218 47.5491C59.2461 46.439 59.9076 43.9698 58.7965 42.0451C57.6855 40.1214 55.2164 39.4593 53.2921 40.571Z" fill="#073A74"/>
</svg>
